<?xml version="1.0" encoding="UTF-8" standalone="no"?>
<!-- Created with Inkscape (http://www.inkscape.org/) -->

<svg
   width="15.24mm"
   height="128.5mm"
   viewBox="0 0 15.24 128.5"
   version="1.1"
   id="svg1524"
   inkscape:version="1.3.2 (091e20ef0f, 2023-11-25, custom)"
   sodipodi:docname="Accessor.svg"
   xmlns:inkscape="http://www.inkscape.org/namespaces/inkscape"
   xmlns:sodipodi="http://sodipodi.sourceforge.net/DTD/sodipodi-0.dtd"
   xmlns="http://www.w3.org/2000/svg"
   xmlns:svg="http://www.w3.org/2000/svg">
  <sodipodi:namedview
     id="namedview1526"
     pagecolor="#cccccc"
     bordercolor="#666666"
     borderopacity="1.0"
     inkscape:pageshadow="2"
     inkscape:pageopacity="1"
     inkscape:pagecheckerboard="0"
     inkscape:document-units="mm"
     showgrid="true"
     units="in"
     inkscape:showpageshadow="2"
     inkscape:deskcolor="#d1d1d1"
     inkscape:zoom="1.349249"
     inkscape:cx="53.733596"
     inkscape:cy="237.91013"
     inkscape:window-width="1920"
     inkscape:window-height="1008"
     inkscape:window-x="0"
     inkscape:window-y="0"
     inkscape:window-maximized="1"
     inkscape:current-layer="layer4">
    <inkscape:grid
       type="xygrid"
       id="grid1608"
       originx="7.6200001"
       originy="64.250002"
       units="mm"
       spacingx="2.5400001"
       spacingy="2.5400001"
       visible="true" />
  </sodipodi:namedview>
  <defs
     id="defs1521" />
  <g
     inkscape:groupmode="layer"
     id="layer2"
     inkscape:label="Background"
     sodipodi:insensitive="true">
    <rect
       style="display:inline;fill:#1a1a1a;stroke-width:0.226364"
       id="rect374"
       width="15.24"
       height="128.5"
       x="0"
       y="0" />
  </g>
  <g
     inkscape:label="Layer 1"
     inkscape:groupmode="layer"
     id="layer1">
    <g
       id="g1226"
       style="stroke-width:0.3;stroke-dasharray:none"
       inkscape:label="logo"
       transform="matrix(0,1.1966619,-1.1966619,0,150.50977,89.367082)">
      <path
         style="fill:none;fill-rule:evenodd;stroke:#ff7f7f;stroke-width:0.3;stroke-linecap:round;stroke-linejoin:round;stroke-dasharray:none;stroke-opacity:1"
         d="m 4.7708989,116.7807 -1.3131348,0.65656 -1.3131348,0.65657 2.6262696,2.62627 -2.6262696,1.31314"
         id="path496"
         sodipodi:nodetypes="ccccc" />
      <path
         style="fill:none;fill-rule:evenodd;stroke:#feff7f;stroke-width:0.3;stroke-linecap:round;stroke-linejoin:round;stroke-dasharray:none;stroke-opacity:1"
         d="m 6.0840338,122.03324 v -5.25254 l 2.6262702,1.31313 -2.6262702,1.31314"
         id="path498" />
      <path
         style="fill:none;fill-rule:evenodd;stroke:#7fff7f;stroke-width:0.3;stroke-linecap:round;stroke-linejoin:round;stroke-dasharray:none;stroke-opacity:1"
         d="m 8.710304,122.03324 1.313135,-5.25254 1.313135,5.25254"
         id="path500" />
      <path
         style="fill:none;fill-rule:evenodd;stroke:#80ffff;stroke-width:0.3;stroke-linecap:round;stroke-linejoin:round;stroke-dasharray:none;stroke-opacity:1"
         d="m 12.649708,122.03324 v -5.25254 l 2.62627,1.31313 -2.62627,1.31314 2.62627,2.62627"
         id="path502" />
      <path
         style="fill:none;fill-rule:evenodd;stroke:#8080ff;stroke-width:0.3;stroke-linecap:round;stroke-linejoin:round;stroke-dasharray:none;stroke-opacity:1"
         d="m 16.589114,116.7807 v 5.25254"
         id="path504" />
      <path
         style="fill:none;fill-rule:evenodd;stroke:#8080ff;stroke-width:0.3;stroke-linecap:round;stroke-linejoin:round;stroke-dasharray:none;stroke-opacity:1"
         d="m 19.215383,116.7807 -2.626269,2.62627 2.626269,2.62627"
         id="path506" />
      <path
         style="fill:none;fill-rule:evenodd;stroke:#bf80ff;stroke-width:0.3;stroke-linecap:round;stroke-linejoin:round;stroke-dasharray:none;stroke-opacity:1"
         d="m 21.786938,116.7807 -2.626269,1.31313 2.626269,1.31314 -2.626269,1.31313 2.626269,1.31314"
         id="path508" />
      <path
         style="fill:none;fill-rule:evenodd;stroke:#ff80ff;stroke-width:0.3;stroke-linecap:round;stroke-linejoin:round;stroke-dasharray:none;stroke-opacity:1"
         d="m 21.732224,116.7807 h 3.939404"
         id="path514" />
      <path
         style="fill:none;fill-rule:evenodd;stroke:#ff80ff;stroke-width:0.3;stroke-linecap:round;stroke-linejoin:round;stroke-dasharray:none;stroke-opacity:1"
         d="m 23.045358,116.7807 v 5.25254"
         id="path516" />
      <path
         style="fill:none;fill-rule:evenodd;stroke:#ff80ff;stroke-width:0.3;stroke-linecap:round;stroke-linejoin:round;stroke-dasharray:none;stroke-opacity:1"
         d="m 24.358493,116.7807 v 5.25254"
         id="path518" />
      <path
         style="fill:none;fill-rule:evenodd;stroke:#ff80bf;stroke-width:0.3;stroke-linecap:round;stroke-linejoin:round;stroke-dasharray:none;stroke-opacity:1"
         d="m 28.297898,116.7807 -2.62627,1.31313 2.62627,1.31314 -2.62627,1.31313 2.62627,1.31314"
         id="path520" />
      <path
         style="fill:none;fill-rule:evenodd;stroke:#7fff7f;stroke-width:0.3;stroke-linecap:round;stroke-linejoin:round;stroke-dasharray:none;stroke-opacity:1"
         d="M 9.3319214,119.40697 H 10.714956"
         id="path630" />
    </g>
  </g>
  <g
     inkscape:groupmode="layer"
     id="layer4"
     inkscape:label="Text"
     style="display:none">
    <text
       xml:space="preserve"
       style="font-size:3.08661px;line-height:125%;font-family:sans-serif;letter-spacing:0px;word-spacing:0px;fill:#ffffff;fill-opacity:1;stroke:none;stroke-width:0.0964565px;stroke-linecap:butt;stroke-linejoin:miter;stroke-opacity:1"
       x="3.3022594"
       y="18.813396"
       id="text1"><tspan
         sodipodi:role="line"
         id="tspan1"
         style="font-style:normal;font-variant:normal;font-weight:normal;font-stretch:normal;font-family:'Ubuntu Condensed';-inkscape-font-specification:'Ubuntu Condensed, ';fill:#ffffff;fill-opacity:1;stroke:none;stroke-width:0.0964565px"
         x="3.3022594"
         y="18.813396">CHANNEL</tspan></text>
    <text
       xml:space="preserve"
       style="font-size:3.69784px;line-height:125%;font-family:sans-serif;letter-spacing:0px;word-spacing:0px;fill:#ff66ff;fill-opacity:1;stroke:none;stroke-width:0.115558px;stroke-linecap:butt;stroke-linejoin:miter;stroke-opacity:1"
       x="0.72537678"
       y="23.042488"
       id="text4"><tspan
         sodipodi:role="line"
         id="tspan4"
         style="font-style:normal;font-variant:normal;font-weight:normal;font-stretch:normal;font-family:'Ubuntu Condensed';-inkscape-font-specification:'Ubuntu Condensed, ';fill:#ff66ff;fill-opacity:1;stroke:none;stroke-width:0.115558px"
         x="0.72537678"
         y="23.042488">- Address -</tspan></text>
    <text
       xml:space="preserve"
       style="font-size:3.88379px;line-height:125%;font-family:sans-serif;letter-spacing:0px;word-spacing:0px;fill:#ff66ff;fill-opacity:1;stroke:none;stroke-width:0.121368px;stroke-linecap:butt;stroke-linejoin:miter;stroke-opacity:1"
       x="2.5400035"
       y="51.507275"
       id="text5"><tspan
         sodipodi:role="line"
         id="tspan5"
         style="font-style:normal;font-variant:normal;font-weight:normal;font-stretch:normal;font-family:'Ubuntu Condensed';-inkscape-font-specification:'Ubuntu Condensed, ';fill:#ff66ff;fill-opacity:1;stroke:none;stroke-width:0.121368px"
         x="2.5400035"
         y="51.507275">- Data -</tspan></text>
    <text
       xml:space="preserve"
       style="font-size:3.96367px;line-height:125%;font-family:sans-serif;letter-spacing:0px;word-spacing:0px;fill:#ff66ff;fill-opacity:1;stroke:none;stroke-width:0.123864px;stroke-linecap:butt;stroke-linejoin:miter;stroke-opacity:1"
       x="1.8350216"
       y="81.594048"
       id="text6"><tspan
         sodipodi:role="line"
         id="tspan6"
         style="font-style:normal;font-variant:normal;font-weight:normal;font-stretch:normal;font-family:'Ubuntu Condensed';-inkscape-font-specification:'Ubuntu Condensed, ';fill:#ff66ff;fill-opacity:1;stroke:none;stroke-width:0.123864px"
         x="1.8350216"
         y="81.594048">- Write -</tspan></text>
  </g>
  <g
     inkscape:groupmode="layer"
     id="g17"
     inkscape:label="Text copy"
     style="display:inline">
    <path
       style="font-size:3.08661px;line-height:125%;font-family:'Ubuntu Condensed';-inkscape-font-specification:'Ubuntu Condensed, ';letter-spacing:0px;word-spacing:0px;fill:#ffffff;stroke-width:0.0964565px"
       d="m 4.2498487,18.859696 q -0.3765664,0 -0.577196,-0.280882 -0.2006297,-0.280881 -0.2006297,-0.867337 0,-0.299402 0.055559,-0.506204 0.058646,-0.206803 0.1605037,-0.336441 0.1018581,-0.129638 0.2407556,-0.185197 0.1388974,-0.05864 0.3024878,-0.05864 0.1358108,0 0.253102,0.03704 0.1172912,0.03395 0.1913698,0.08642 l -0.083338,0.231496 q -0.074079,-0.04939 -0.1605038,-0.08025 -0.083338,-0.03087 -0.1944564,-0.03087 -0.2469288,0 -0.3580468,0.206803 -0.1111179,0.203716 -0.1111179,0.635842 0,0.435212 0.1172912,0.669794 0.1172911,0.234582 0.3827396,0.234582 0.126551,0 0.2037163,-0.03087 0.080252,-0.03087 0.1543305,-0.08025 l 0.077165,0.21915 q -0.070992,0.05556 -0.1882832,0.09568 -0.1142046,0.04013 -0.2654485,0.04013 z m 1.7408477,-2.18532 h 0.2777949 v 2.13902 H 5.9906964 V 17.819508 H 5.2869493 v 0.993888 H 5.0091544 v -2.13902 h 0.2777949 v 0.904376 h 0.7037471 z m 1.4599672,0 q 0.074079,0.231495 0.1450707,0.469164 0.074079,0.234583 0.141984,0.493858 0.070992,0.259275 0.1388975,0.549417 0.070992,0.290141 0.141984,0.626581 H 7.7408049 q -0.024693,-0.138897 -0.052472,-0.274708 -0.024693,-0.135811 -0.052472,-0.271622 h -0.672881 q -0.030866,0.135811 -0.055559,0.271622 -0.024693,0.135811 -0.049386,0.274708 H 6.5894994 q 0.067905,-0.33644 0.1388974,-0.626581 0.070992,-0.290142 0.1388975,-0.549417 0.070992,-0.259275 0.1419841,-0.493858 0.074079,-0.237669 0.1481572,-0.469164 z M 7.2994197,16.98921 q -0.077165,0.256189 -0.1481573,0.515464 -0.070992,0.259275 -0.1358108,0.530897 H 7.5803012 Q 7.518569,17.763949 7.447577,17.504674 7.376585,17.245399 7.2994197,16.98921 Z m 2.0896357,1.824186 Q 9.3149768,18.631286 9.2192919,18.421397 9.1266936,18.208421 9.0217488,17.995445 8.9198907,17.779382 8.8118593,17.569493 8.703828,17.356516 8.5988832,17.174407 v 1.638989 H 8.339608 v -2.13902 h 0.2314958 q 0.1172911,0.191369 0.2253225,0.391999 0.111118,0.20063 0.2098895,0.398173 0.098771,0.194456 0.1851966,0.385826 0.089512,0.188283 0.1635903,0.358047 V 16.674376 H 9.614378 v 2.13902 z m 1.7933186,0 q -0.07408,-0.18211 -0.169763,-0.391999 -0.0926,-0.212976 -0.197543,-0.425952 -0.101859,-0.216063 -0.20989,-0.425952 -0.108031,-0.212977 -0.212976,-0.395086 v 1.638989 h -0.259275 v -2.13902 h 0.231496 q 0.117291,0.191369 0.225322,0.391999 0.111118,0.20063 0.20989,0.398173 0.09877,0.194456 0.185196,0.385826 0.08951,0.188283 0.16359,0.358047 v -1.534045 h 0.259276 v 2.13902 z m 0.743871,0 v -2.13902 h 0.959936 v 0.237669 H 12.20404 v 0.663621 h 0.617322 v 0.231496 H 12.20404 v 0.768565 h 0.731527 v 0.237669 z M 14.2875,18.575727 v 0.237669 h -0.953763 v -2.13902 h 0.277795 v 1.901351 z"
       id="text14"
       aria-label="CHANNEL" />
    <path
       style="font-size:3.69784px;line-height:125%;font-family:'Ubuntu Condensed';-inkscape-font-specification:'Ubuntu Condensed, ';letter-spacing:0px;word-spacing:0px;fill:#ff66ff;fill-opacity:1;stroke-width:0.115558px"
       d="M 0.81412494,21.785223 H 1.4982253 v 0.299525 H 0.81412494 Z M 3.4137046,20.479885 q 0.088748,0.277338 0.1737985,0.562072 0.088748,0.281036 0.1701006,0.591654 0.08505,0.310619 0.1664028,0.658216 0.08505,0.347597 0.1701007,0.750661 H 3.7613016 Q 3.7317188,22.876085 3.6984383,22.71338 3.6688556,22.550675 3.635575,22.38797 H 2.8294459 q -0.036978,0.162705 -0.066561,0.32541 -0.029583,0.162705 -0.059166,0.329108 h -0.321712 q 0.081352,-0.403064 0.1664028,-0.750661 0.08505,-0.347597 0.1664028,-0.658216 0.08505,-0.310618 0.1701006,-0.591654 0.088748,-0.284734 0.1774963,-0.562072 z m -0.1811942,0.37718 q -0.092446,0.30692 -0.1774963,0.617539 -0.08505,0.310619 -0.1627049,0.636028 H 3.5690139 Q 3.4950571,21.785223 3.4100068,21.474604 3.3249564,21.163985 3.2325104,20.857065 Z m 2.0596977,0.536186 q -0.1072373,-0.05917 -0.2292661,-0.05917 -0.092446,0 -0.1627049,0.03698 -0.070259,0.03698 -0.1220287,0.122029 -0.048072,0.08505 -0.073957,0.225568 -0.025885,0.140518 -0.025885,0.347597 0,0.399367 0.1035395,0.573166 0.1072374,0.1701 0.3217121,0.1701 0.040676,0 0.088748,-0.0037 0.048072,-0.0074 0.099842,-0.02219 z m 0,-1.164819 0.3180143,-0.05547 v 2.817754 q -0.1035396,0.04437 -0.2366618,0.07026 -0.1331222,0.02958 -0.2699423,0.02958 -0.3993667,0 -0.5805609,-0.255151 -0.1774963,-0.255151 -0.1774963,-0.769151 0,-0.232964 0.036978,-0.417856 0.040676,-0.188589 0.1220287,-0.318014 0.08505,-0.133122 0.2144747,-0.203381 0.1294244,-0.07396 0.3069207,-0.07396 0.08505,0 0.1442158,0.01849 0.062863,0.01479 0.1220287,0.04437 z m 1.7268949,1.164819 q -0.1072374,-0.05917 -0.2292661,-0.05917 -0.092446,0 -0.162705,0.03698 -0.070259,0.03698 -0.1220287,0.122029 -0.048072,0.08505 -0.073957,0.225568 -0.025885,0.140518 -0.025885,0.347597 0,0.399367 0.1035396,0.573166 0.1072373,0.1701 0.321712,0.1701 0.040676,0 0.088748,-0.0037 0.048072,-0.0074 0.099842,-0.02219 z m 0,-1.164819 0.3180142,-0.05547 v 2.817754 q -0.1035395,0.04437 -0.2366617,0.07026 -0.1331223,0.02958 -0.2699424,0.02958 -0.3993667,0 -0.5805608,-0.255151 -0.1774964,-0.255151 -0.1774964,-0.769151 0,-0.232964 0.036978,-0.417856 0.040676,-0.188589 0.1220288,-0.318014 0.08505,-0.133122 0.2144747,-0.203381 0.1294244,-0.07396 0.3069207,-0.07396 0.08505,0 0.1442158,0.01849 0.062863,0.01479 0.1220287,0.04437 z m 1.7305927,1.161122 q -0.1183309,-0.05177 -0.2662445,-0.05177 -0.1368201,0 -0.255151,0.04807 v 1.656632 H 7.910286 V 21.18617 q 0.1072374,-0.05177 0.2440574,-0.08505 0.140518,-0.03698 0.3069208,-0.03698 0.088748,0 0.1774963,0.01109 0.088748,0.01109 0.1664028,0.04068 z M 9.3043676,22.1661 q 0.0037,0.140518 0.025885,0.258849 0.022187,0.114633 0.070259,0.203381 0.05177,0.08505 0.1331223,0.133122 0.08505,0.04807 0.2144747,0.04807 0.1072374,0 0.1959855,-0.02958 0.092446,-0.03328 0.1331219,-0.05547 l 0.05917,0.255151 q -0.04807,0.03328 -0.1627052,0.07026 -0.1109352,0.04068 -0.2662444,0.04068 -0.2033812,0 -0.3438992,-0.07396 -0.13682,-0.07396 -0.2255682,-0.207079 -0.08505,-0.133122 -0.1220287,-0.318014 -0.036978,-0.184892 -0.036978,-0.406762 0,-0.536187 0.1774963,-0.783943 0.1774963,-0.247755 0.4696257,-0.247755 0.3291077,0 0.4659287,0.247755 0.13682,0.247756 0.13682,0.695194 0,0.04068 0,0.08505 0,0.04068 -0.0037,0.08505 z m 0.3217121,-0.843107 q -0.1590071,0 -0.2329639,0.159007 -0.070259,0.159007 -0.08505,0.425251 H 9.896022 q 0,-0.269942 -0.055468,-0.425251 -0.055468,-0.159007 -0.2144743,-0.159007 z m 1.3423193,1.493927 q 0.140518,0 0.210777,-0.07766 0.07396,-0.08135 0.07396,-0.210777 0,-0.08135 -0.02958,-0.13682 -0.02958,-0.05917 -0.07766,-0.103539 -0.04807,-0.04437 -0.110935,-0.07766 -0.06286,-0.03698 -0.125726,-0.07766 -0.06286,-0.03698 -0.122029,-0.08505 -0.05917,-0.05177 -0.107237,-0.114633 -0.04437,-0.06656 -0.07396,-0.147913 -0.02589,-0.08505 -0.02589,-0.195986 0,-0.24036 0.147914,-0.388273 0.151611,-0.147914 0.406762,-0.147914 0.107237,0 0.203381,0.02958 0.09614,0.02588 0.159007,0.05917 l -0.07026,0.255151 q -0.06656,-0.03698 -0.133122,-0.05547 -0.06656,-0.01849 -0.144216,-0.01849 -0.118331,0 -0.18859,0.07026 -0.07026,0.06656 -0.07026,0.195986 0,0.07396 0.02589,0.129424 0.02588,0.05177 0.06656,0.09614 0.04437,0.04068 0.09614,0.07766 0.05547,0.03698 0.114633,0.07026 0.07026,0.04068 0.13682,0.08875 0.07026,0.04807 0.122029,0.114633 0.05547,0.06286 0.08875,0.151611 0.03328,0.08505 0.03328,0.20708 0,0.25515 -0.151612,0.41046 -0.147913,0.155309 -0.436345,0.155309 -0.147913,0 -0.266244,-0.04068 -0.118331,-0.04068 -0.177496,-0.07396 l 0.06656,-0.262547 q 0.05547,0.02958 0.147913,0.06656 0.09614,0.03698 0.210777,0.03698 z m 1.260962,0 q 0.140518,0 0.210777,-0.07766 0.07396,-0.08135 0.07396,-0.210777 0,-0.08135 -0.02958,-0.13682 -0.02958,-0.05917 -0.07766,-0.103539 -0.04807,-0.04437 -0.110935,-0.07766 -0.06286,-0.03698 -0.125727,-0.07766 -0.06286,-0.03698 -0.122028,-0.08505 -0.05917,-0.05177 -0.107238,-0.114633 -0.04437,-0.06656 -0.07396,-0.147913 -0.02589,-0.08505 -0.02589,-0.195986 0,-0.24036 0.147914,-0.388273 0.151612,-0.147914 0.406762,-0.147914 0.107238,0 0.203382,0.02958 0.09614,0.02588 0.159007,0.05917 l -0.07026,0.255151 q -0.06656,-0.03698 -0.133122,-0.05547 -0.06656,-0.01849 -0.144216,-0.01849 -0.118331,0 -0.18859,0.07026 -0.07026,0.06656 -0.07026,0.195986 0,0.07396 0.02588,0.129424 0.02589,0.05177 0.06656,0.09614 0.04437,0.04068 0.09614,0.07766 0.05547,0.03698 0.114633,0.07026 0.07026,0.04068 0.13682,0.08875 0.07026,0.04807 0.122029,0.114633 0.05547,0.06286 0.08875,0.151611 0.03328,0.08505 0.03328,0.20708 0,0.25515 -0.151611,0.41046 -0.147914,0.155309 -0.436345,0.155309 -0.147914,0 -0.266245,-0.04068 -0.11833,-0.04068 -0.177496,-0.07396 l 0.06656,-0.262547 q 0.05547,0.02958 0.147914,0.06656 0.09614,0.03698 0.210777,0.03698 z m 1.512413,-1.031697 h 0.684101 v 0.299525 h -0.684101 z"
       id="text15"
       aria-label="- Address -" />
    <path
       style="font-size:3.88379px;line-height:125%;font-family:'Ubuntu Condensed';-inkscape-font-specification:'Ubuntu Condensed, ';letter-spacing:0px;word-spacing:0px;fill:#ff66ff;fill-opacity:1;stroke-width:0.121368px"
       d="m 2.6332145,50.186786 h 0.7185012 v 0.314587 H 2.6332145 Z m 3.5925038,-0.02719 q 0,0.376728 -0.08156,0.640826 -0.077676,0.260214 -0.2291436,0.423333 -0.147584,0.163119 -0.3611925,0.236911 -0.2097246,0.07379 -0.4699386,0.07379 -0.2640977,0 -0.5592657,-0.06991 v -2.609907 q 0.147584,-0.03107 0.2874004,-0.05049 0.1398165,-0.01942 0.2679816,-0.01942 0.2640977,0 0.4738223,0.07379 0.2136085,0.07379 0.3611925,0.236911 0.1514678,0.163119 0.2291436,0.427217 0.08156,0.260214 0.08156,0.636941 z m -0.3728438,0 q 0,-0.2874 -0.042722,-0.489357 -0.042722,-0.201957 -0.1320489,-0.330122 -0.089327,-0.128165 -0.2369112,-0.186422 -0.1437002,-0.05826 -0.3456573,-0.05826 -0.054373,0 -0.1087461,0.0039 -0.054373,0.0039 -0.1126299,0.01165 v 2.097247 q 0.058257,0.0078 0.1126299,0.01165 0.054373,0.0039 0.1048623,0.0039 0.2058409,0 0.3495411,-0.05826 0.1437003,-0.05826 0.2330274,-0.182538 0.093211,-0.128165 0.1359327,-0.330122 0.042722,-0.201957 0.042722,-0.493242 z M 6.753918,49.511007 q 0.1009786,-0.04272 0.2136085,-0.06602 0.1126299,-0.02719 0.2446788,-0.02719 0.2718653,0 0.442752,0.170886 0.1708868,0.167003 0.1708868,0.524312 v 1.351559 q -0.1398165,0.03884 -0.2874005,0.06214 -0.1437002,0.0233 -0.2835166,0.0233 -0.1398165,0 -0.2640978,-0.03495 -0.1203975,-0.03495 -0.2136084,-0.11263 -0.089327,-0.07768 -0.1437002,-0.194189 -0.054373,-0.120398 -0.054373,-0.291284 0,-0.159236 0.046605,-0.27575 0.050489,-0.120397 0.1359326,-0.198073 0.085443,-0.08156 0.2019571,-0.120397 0.1165137,-0.04272 0.2524464,-0.04272 0.128165,0 0.2835166,0.03107 v -0.186422 q 0,-0.225259 -0.089327,-0.314587 -0.085443,-0.08933 -0.2485626,-0.08933 -0.089327,0 -0.1708868,0.01942 -0.077676,0.01553 -0.1670029,0.05437 z m 0.1592354,1.402048 q 0,0.178654 0.093211,0.264097 0.093211,0.08544 0.2640977,0.08544 0.1048623,0 0.2291436,-0.02719 v -0.648593 q -0.1165137,-0.03107 -0.2291436,-0.03107 -0.073792,0 -0.1398164,0.01942 -0.066024,0.01553 -0.1165137,0.05826 -0.046606,0.03884 -0.073792,0.108746 -0.027187,0.06602 -0.027187,0.170887 z m 1.8059625,-1.44477 h 0.5126603 v 0.2874 H 8.7191159 v 1.122416 q 0,0.209724 0.073792,0.295168 0.077676,0.08156 0.2058409,0.08156 0.066024,0 0.1242813,-0.01942 0.062141,-0.01942 0.1048623,-0.0466 l 0.066024,0.267981 Q 9.134681,51.55 8.9560267,51.55 8.6686262,51.55 8.524926,51.390765 8.38511,51.227642 8.38511,50.854798 V 48.92067 l 0.3340059,-0.05826 z m 0.9670603,0.04272 q 0.1009785,-0.04272 0.2136084,-0.06602 0.1126304,-0.02719 0.2446784,-0.02719 0.271866,0 0.442752,0.170886 0.170887,0.167003 0.170887,0.524312 v 1.351559 q -0.139816,0.03884 -0.2874,0.06214 -0.1437,0.0233 -0.283517,0.0233 -0.139816,0 -0.2640976,-0.03495 -0.1203975,-0.03495 -0.2136085,-0.11263 -0.089327,-0.07768 -0.1437002,-0.194189 -0.054373,-0.120398 -0.054373,-0.291284 0,-0.159236 0.046606,-0.27575 0.050489,-0.120397 0.1359327,-0.198073 0.085443,-0.08156 0.201957,-0.120397 0.1165146,-0.04272 0.2524466,-0.04272 0.128165,0 0.283517,0.03107 v -0.186422 q 0,-0.225259 -0.08933,-0.314587 -0.08544,-0.08933 -0.248563,-0.08933 -0.08933,0 -0.170887,0.01942 -0.077676,0.01553 -0.167003,0.05437 z m 0.1592354,1.402048 q 0,0.178654 0.093211,0.264097 0.093211,0.08544 0.2640974,0.08544 0.104863,0 0.229144,-0.02719 v -0.648593 q -0.116514,-0.03107 -0.229144,-0.03107 -0.07379,0 -0.139816,0.01942 -0.066025,0.01553 -0.1165138,0.05826 -0.046606,0.03884 -0.073792,0.108746 -0.027186,0.06602 -0.027186,0.170887 z m 2.0428724,-0.726269 h 0.718501 v 0.314587 h -0.718501 z"
       id="text16"
       aria-label="- Data -" />
    <path
       style="font-size:3.96367px;line-height:125%;font-family:'Ubuntu Condensed';-inkscape-font-specification:'Ubuntu Condensed, ';letter-spacing:0px;word-spacing:0px;fill:#ff66ff;fill-opacity:1;stroke-width:0.123864px"
       d="m 1.9301497,80.2464 h 0.7332789 v 0.321057 H 1.9301497 Z m 3.2819168,-1.074155 q 0.051528,0.237821 0.1109828,0.503386 0.059455,0.265566 0.1228737,0.527169 0.067382,0.261602 0.1347648,0.507349 0.067382,0.245748 0.1268375,0.447895 0.047564,-0.221966 0.091164,-0.491495 0.0436,-0.273493 0.083237,-0.570769 0.0436,-0.297275 0.079273,-0.614368 0.035673,-0.317094 0.059455,-0.634188 h 0.3488038 q -0.091164,0.796698 -0.2061108,1.466558 -0.1109828,0.669861 -0.2616022,1.280266 H 5.5410511 Q 5.4815961,81.399828 5.41025,81.162008 5.3428676,80.924187 5.2754852,80.670513 5.2081028,80.412874 5.1446841,80.151272 5.0812651,79.88967 5.0297377,79.643922 q -0.051528,0.245748 -0.1149464,0.50735 -0.063419,0.261602 -0.1308012,0.519241 -0.067382,0.253674 -0.1387284,0.491495 -0.067382,0.23782 -0.1268374,0.43204 H 4.1577303 Q 4.0071108,80.983643 3.8921644,80.313782 3.7811816,79.643922 3.6900172,78.847224 h 0.360694 q 0.023782,0.317094 0.059455,0.634188 0.035673,0.31313 0.07531,0.614368 0.0436,0.297276 0.087201,0.570769 0.0436,0.269529 0.091164,0.491495 0.059455,-0.202147 0.1268375,-0.447895 0.067382,-0.245747 0.1308011,-0.507349 0.067382,-0.261603 0.1268374,-0.527169 0.059455,-0.265565 0.1109828,-0.503386 z m 2.465407,0.650042 q -0.1268374,-0.05549 -0.2853842,-0.05549 -0.1466558,0 -0.2734933,0.05153 v 1.775724 H 6.7777204 v -1.989763 q 0.1149464,-0.05549 0.2616022,-0.09116 0.1506195,-0.03964 0.3289846,-0.03964 0.095128,0 0.1902562,0.01189 0.095128,0.01189 0.1783651,0.0436 z m 0.7412028,1.771761 H 8.0778007 V 79.513121 H 8.4186763 Z M 8.2482385,79.1445 q -0.091164,0 -0.1585468,-0.05945 -0.063419,-0.06342 -0.063419,-0.166475 0,-0.103055 0.063419,-0.16251 0.067382,-0.06342 0.1585468,-0.06342 0.091164,0 0.1545831,0.06342 0.067382,0.05945 0.067382,0.16251 0,0.103056 -0.067382,0.166475 -0.063419,0.05945 -0.1545831,0.05945 z m 1.1058667,0.368621 h 0.5232044 v 0.293312 H 9.3541052 v 1.1455 q 0,0.214038 0.07531,0.301239 0.079273,0.08324 0.2100745,0.08324 0.067382,0 0.1268375,-0.01982 0.063419,-0.01982 0.107019,-0.04756 l 0.067382,0.273493 q -0.1625104,0.09513 -0.3448393,0.09513 -0.2933115,0 -0.4399673,-0.16251 -0.142692,-0.166482 -0.142692,-0.546994 v -1.973908 l 0.3408756,-0.05945 z m 1.1692818,1.141537 q 0.004,0.150619 0.02775,0.277457 0.02378,0.122874 0.07531,0.218002 0.05549,0.09116 0.142692,0.142692 0.09116,0.05153 0.229893,0.05153 0.114946,0 0.210074,-0.03171 0.09909,-0.03567 0.142692,-0.05945 l 0.06342,0.273493 q -0.05153,0.03567 -0.174401,0.07531 -0.118911,0.0436 -0.285385,0.0436 -0.218002,0 -0.368621,-0.07927 -0.146656,-0.07927 -0.241784,-0.221965 -0.09116,-0.142693 -0.130801,-0.340876 -0.03964,-0.198184 -0.03964,-0.436004 0,-0.574732 0.190256,-0.840298 0.190257,-0.265566 0.503387,-0.265566 0.352766,0 0.499422,0.265566 0.146656,0.265566 0.146656,0.74517 0,0.0436 0,0.09117 0,0.0436 -0.004,0.09116 z m 0.34484,-0.903717 q -0.170438,0 -0.249712,0.170438 -0.07531,0.170438 -0.09116,0.455822 h 0.630223 q 0,-0.289348 -0.05945,-0.455822 -0.05945,-0.170438 -0.229892,-0.170438 z m 1.708344,0.495459 h 0.733279 v 0.321057 h -0.733279 z"
       id="text17"
       aria-label="- Write -" />
  </g>
  <g
     inkscape:groupmode="layer"
     id="layer3"
     inkscape:label="components"
     style="display:none">
    <circle
       style="display:inline;fill:#ff0000;stroke:none;stroke-width:0.499999;stroke-linecap:round;stroke-linejoin:round;stroke-dasharray:0.499999, 0.499999"
       id="path1"
       cx="7.6199999"
       cy="13.449996"
       r="5.0799999"
       inkscape:label="channel" />
    <circle
       style="fill:#ff00ff;fill-opacity:1;stroke:none;stroke-width:0.499999;stroke-linecap:round;stroke-linejoin:round;stroke-dasharray:0.499999, 0.499999"
       id="path2"
       cx="2.0108323"
       cy="6.1006804"
       r="2.54"
       inkscape:label="channel" />
    <circle
       style="fill:#00ff00;fill-opacity:1;stroke:none;stroke-width:0.499999;stroke-linecap:round;stroke-linejoin:round;stroke-dasharray:0.499999, 0.499999"
       id="path3"
       cx="7.6199999"
       cy="29.219164"
       r="5.0799999"
       inkscape:label="x" />
    <circle
       style="fill:#00ff00;fill-opacity:1;stroke:none;stroke-width:0.499999;stroke-linecap:round;stroke-linejoin:round;stroke-dasharray:0.499999, 0.499999"
       id="path4"
       cx="7.6199999"
       cy="40.860828"
       r="5.0799999"
       inkscape:label="y" />
    <circle
       style="fill:#00ff00;fill-opacity:1;stroke:none;stroke-width:0.499999;stroke-linecap:round;stroke-linejoin:round;stroke-dasharray:0.499999, 0.499999"
       id="path5"
       cx="7.6199999"
       cy="58.111664"
       r="5.0799999"
       inkscape:label="data" />
    <circle
       style="fill:#0000ff;fill-opacity:1;stroke:none;stroke-width:0.499999;stroke-linecap:round;stroke-linejoin:round;stroke-dasharray:0.499999, 0.499999"
       id="path6"
       cx="7.6199999"
       cy="71.869987"
       r="5.0799999"
       inkscape:label="data" />
    <circle
       style="fill:#ff0000;fill-opacity:1;stroke:none;stroke-width:0.499999;stroke-linecap:round;stroke-linejoin:round;stroke-dasharray:0.499999, 0.499999"
       id="path7"
       cx="12.170834"
       cy="64.990829"
       r="2.54"
       inkscape:label="data" />
    <circle
       style="fill:#ff00ff;fill-opacity:1;stroke:none;stroke-width:0.499999;stroke-linecap:round;stroke-linejoin:round;stroke-dasharray:0.499999, 0.499999"
       id="path8"
       cx="3.0691659"
       cy="64.990829"
       r="2.54"
       inkscape:label="data" />
    <circle
       style="fill:#00ff00;fill-opacity:1;stroke:none;stroke-width:0.499999;stroke-linecap:round;stroke-linejoin:round;stroke-dasharray:0.499999, 0.499999"
       id="path9"
       cx="7.6199999"
       cy="86.474998"
       r="5.0799999"
       inkscape:label="write" />
    <circle
       style="fill:#ff0000;fill-opacity:1;stroke:none;stroke-width:0.499999;stroke-linecap:round;stroke-linejoin:round;stroke-dasharray:0.499999, 0.499999"
       id="path10"
       cx="10.689165"
       cy="93.565826"
       r="2.54"
       inkscape:label="write" />
    <circle
       style="fill:#ff00ff;fill-opacity:1;stroke:none;stroke-width:0.499999;stroke-linecap:round;stroke-linejoin:round;stroke-dasharray:0.499999, 0.499999"
       id="path11"
       cx="4.5508327"
       cy="93.565826"
       r="2.54"
       inkscape:label="write" />
  </g>
</svg>
