<?xml version="1.0" encoding="UTF-8" standalone="no"?>
<!-- Generator: Adobe Illustrator 25.2.3, SVG Export Plug-In . SVG Version: 6.00 Build 0)  -->

<svg
   version="1.0"
   id="svg56722"
   sodipodi:docname="CKSS_1_line.svg"
   x="0px"
   y="0px"
   width="14px"
   height="20.64111px"
   viewBox="0 0 14 20.64111"
   enable-background="new 0 0 14 20.64111"
   xml:space="preserve"
   inkscape:version="1.3.2 (091e20ef0f, 2023-11-25, custom)"
   xmlns:inkscape="http://www.inkscape.org/namespaces/inkscape"
   xmlns:sodipodi="http://sodipodi.sourceforge.net/DTD/sodipodi-0.dtd"
   xmlns="http://www.w3.org/2000/svg"
   xmlns:svg="http://www.w3.org/2000/svg"><defs
   id="defs4" />
<sodipodi:namedview
   bordercolor="#666666"
   borderopacity="1.0"
   fit-margin-bottom="0"
   fit-margin-left="0"
   fit-margin-right="0"
   fit-margin-top="0"
   id="base"
   inkscape:current-layer="svg56722"
   inkscape:cx="-83.72674"
   inkscape:cy="22.945521"
   inkscape:document-units="mm"
   inkscape:pageopacity="0.0"
   inkscape:pageshadow="2"
   inkscape:window-height="882"
   inkscape:window-maximized="0"
   inkscape:window-width="1600"
   inkscape:window-x="0"
   inkscape:window-y="18"
   inkscape:zoom="2.0483301"
   pagecolor="#ffffff"
   showgrid="false"
   units="px"
   inkscape:showpageshadow="2"
   inkscape:pagecheckerboard="0"
   inkscape:deskcolor="#d1d1d1">
	</sodipodi:namedview>
<path
   id="path5785"
   inkscape:connector-curvature="0"
   d="M0,1.47508C0,0.66465,0.66471,0,1.47514,0h11.04979  c0.81036,0,1.47514,0.66477,1.47514,1.47508v17.69189c0,0.81043-0.66471,1.47406-1.47514,1.47406H1.47514  C0.66477,20.64102,0,19.97739,0,19.16696V1.47508z" />
<g
   id="g5795"
   opacity="0.54">
	<g
   id="g5797">
		<linearGradient
   id="path5805_1_"
   gradientUnits="userSpaceOnUse"
   x1="6.99921"
   y1="1.33285"
   x2="6.99921"
   y2="19.45954">
			<stop
   offset="0"
   style="stop-color:#3B3B3B"
   id="stop1" />
			<stop
   offset="1"
   style="stop-color:#242424"
   id="stop2" />
		</linearGradient>
		<path
   id="path5805"
   inkscape:connector-curvature="0"
   fill="url(#path5805_1_)"
   d="M2.19312,1.33285    c-0.48687,0-0.88421,0.39734-0.88421,0.88421l0,0v16.35726c0,0.48687,0.3974,0.88522,0.88421,0.88522l0,0h9.6132    c0.48477,0,0.88319-0.39849,0.88319-0.88522l0,0V2.21706c0-0.48687-0.39842-0.88421-0.88319-0.88421l0,0H2.19312z" />
	</g>
</g><rect
   style="fill:#ffffff;fill-opacity:1;stroke-width:2.95173;stroke-linecap:round;stroke-linejoin:round;stroke-dasharray:2.95173, 2.95173"
   id="rect4"
   width="11.380589"
   height="2.1354332"
   x="1.3099306"
   y="10.17936" />
<rect
   x="1.30993"
   y="18.58425"
   fill="none"
   width="0.6829"
   height="0.89523"
   id="rect2" />
<rect
   x="0.99908"
   y="9.8451204"
   opacity="0.44"
   width="12.00026"
   height="1.1822534"
   id="rect3"
   style="stroke-width:0.57735" />
<g
   id="g4">
	<linearGradient
   id="path5815_1_"
   gradientUnits="userSpaceOnUse"
   x1="7.00023"
   y1="1.33285"
   x2="7.00023"
   y2="10.17937">
		<stop
   offset="0.00559"
   style="stop-color:#3D3B3B"
   id="stop3" />
		<stop
   offset="1"
   style="stop-color:#2D2C2C"
   id="stop4" />
	</linearGradient>
	<path
   id="path5815"
   inkscape:connector-curvature="0"
   fill="url(#path5815_1_)"
   d="M1.30993,1.33285h11.38059v8.84651H1.30993   V1.33285z" />
	<path
   id="path5817"
   inkscape:connector-curvature="0"
   fill="#5E5E5E"
   d="M1.30993,4.87977h11.38059v0.87738H1.30993V4.87977z" />
	<path
   id="path5819"
   inkscape:connector-curvature="0"
   fill="#5E5E5E"
   d="M1.30993,8.4267h11.38059v0.87738H1.30993V8.4267z" />
	<path
   id="path5821"
   inkscape:connector-curvature="0"
   fill="#5E5E5E"
   d="M1.30993,6.65409h11.38059v0.87738H1.30993V6.65409z" />
	<path
   id="path5823"
   inkscape:connector-curvature="0"
   fill="#5E5E5E"
   d="M1.30993,3.10637h11.38059v0.87738H1.30993V3.10637z" />
	<path
   id="path5825"
   inkscape:connector-curvature="0"
   fill="#797979"
   d="M1.30993,1.33285h11.38059v0.87738H1.30993V1.33285z" />
</g>
</svg>
