<?xml version="1.0" encoding="UTF-8" standalone="no"?>
<!-- Created with Inkscape (http://www.inkscape.org/) -->

<svg
   width="86.360001mm"
   height="128.5mm"
   viewBox="0 0 86.360004 128.5"
   version="1.1"
   id="svg1524"
   inkscape:version="1.3.2 (091e20ef0f, 2023-11-25, custom)"
   xml:space="preserve"
   sodipodi:docname="ColorMixer.svg"
   xmlns:inkscape="http://www.inkscape.org/namespaces/inkscape"
   xmlns:sodipodi="http://sodipodi.sourceforge.net/DTD/sodipodi-0.dtd"
   xmlns:xlink="http://www.w3.org/1999/xlink"
   xmlns="http://www.w3.org/2000/svg"
   xmlns:svg="http://www.w3.org/2000/svg"><sodipodi:namedview
     id="namedview1526"
     pagecolor="#cccccc"
     bordercolor="#666666"
     borderopacity="1.0"
     inkscape:pageshadow="2"
     inkscape:pageopacity="1"
     inkscape:pagecheckerboard="0"
     inkscape:document-units="mm"
     showgrid="true"
     units="in"
     inkscape:showpageshadow="2"
     inkscape:deskcolor="#d1d1d1"
     inkscape:zoom="2.4141728"
     inkscape:cx="192.40545"
     inkscape:cy="160.30336"
     inkscape:window-width="1920"
     inkscape:window-height="1008"
     inkscape:window-x="0"
     inkscape:window-y="0"
     inkscape:window-maximized="1"
     inkscape:current-layer="layer4"><inkscape:grid
       type="xygrid"
       id="grid1608"
       originx="7.6199999"
       originy="64.25"
       units="mm"
       spacingx="2.5400001"
       spacingy="2.5400001"
       visible="true" /></sodipodi:namedview><defs
     id="defs1521"><linearGradient
       id="linearGradient10"
       inkscape:collect="always"><stop
         style="stop-color:#b0b0b0;stop-opacity:1;"
         offset="0"
         id="stop1" /><stop
         style="stop-color:#4d4d4d;stop-opacity:1;"
         offset="1"
         id="stop10" /></linearGradient><linearGradient
       id="linearGradient22"
       inkscape:collect="always"><stop
         style="stop-color:#63ff63;stop-opacity:1;"
         offset="0"
         id="stop21" /><stop
         style="stop-color:#009900;stop-opacity:1;"
         offset="1"
         id="stop22" /></linearGradient><linearGradient
       id="linearGradient20"
       inkscape:collect="always"><stop
         style="stop-color:#ff6363;stop-opacity:1;"
         offset="0"
         id="stop19" /><stop
         style="stop-color:#980000;stop-opacity:1;"
         offset="1"
         id="stop20" /></linearGradient><linearGradient
       id="linearGradient18"
       inkscape:collect="always"><stop
         style="stop-color:#6161ff;stop-opacity:1;"
         offset="0"
         id="stop17" /><stop
         style="stop-color:#000099;stop-opacity:1;"
         offset="1"
         id="stop18" /></linearGradient><linearGradient
       id="linearGradient9"
       inkscape:collect="always"><stop
         style="stop-color:#303030;stop-opacity:1;"
         offset="0"
         id="stop8" /><stop
         style="stop-color:#484848;stop-opacity:1;"
         offset="1"
         id="stop9" /></linearGradient><linearGradient
       id="linearGradient7"
       inkscape:collect="always"><stop
         style="stop-color:#1f1fc2;stop-opacity:1;"
         offset="0"
         id="stop6" /><stop
         style="stop-color:#13135a;stop-opacity:1;"
         offset="1"
         id="stop7" /></linearGradient><linearGradient
       id="linearGradient5"
       inkscape:collect="always"><stop
         style="stop-color:#3ac21f;stop-opacity:1;"
         offset="0"
         id="stop4" /><stop
         style="stop-color:#1f5a13;stop-opacity:1;"
         offset="1"
         id="stop5" /></linearGradient><linearGradient
       id="linearGradient2"
       inkscape:collect="always"><stop
         style="stop-color:#c21f1f;stop-opacity:1;"
         offset="0"
         id="stop2" /><stop
         style="stop-color:#5a1313;stop-opacity:1;"
         offset="1"
         id="stop3" /></linearGradient><linearGradient
       inkscape:collect="always"
       xlink:href="#linearGradient2"
       id="linearGradient3"
       x1="39.370003"
       y1="21.069998"
       x2="39.370003"
       y2="97.270004"
       gradientUnits="userSpaceOnUse"
       gradientTransform="matrix(1,0,0,1.5666667,-30.480003,-27.179661)" /><linearGradient
       inkscape:collect="always"
       xlink:href="#linearGradient5"
       id="linearGradient4"
       gradientUnits="userSpaceOnUse"
       x1="39.370003"
       y1="21.069998"
       x2="39.370003"
       y2="97.270004"
       gradientTransform="matrix(1,0,0,1.5666667,-17.780003,-27.179661)" /><linearGradient
       inkscape:collect="always"
       xlink:href="#linearGradient7"
       id="linearGradient6"
       gradientUnits="userSpaceOnUse"
       x1="39.370003"
       y1="21.069998"
       x2="39.370003"
       y2="97.270004"
       gradientTransform="matrix(1,0,0,1.5666667,-5.0800009,-27.179661)" /><linearGradient
       inkscape:collect="always"
       xlink:href="#linearGradient9"
       id="linearGradient8"
       gradientUnits="userSpaceOnUse"
       gradientTransform="matrix(2.3999991,0,0,1.5666668,-38.607972,-27.179664)"
       x1="39.370003"
       y1="21.069998"
       x2="39.370003"
       y2="97.270004" /><linearGradient
       inkscape:collect="always"
       xlink:href="#linearGradient20"
       id="linearGradient15"
       x1="78.739998"
       y1="51.549999"
       x2="78.739998"
       y2="61.709999"
       gradientUnits="userSpaceOnUse" /><linearGradient
       inkscape:collect="always"
       xlink:href="#linearGradient22"
       id="linearGradient16"
       x1="78.740028"
       y1="67.319176"
       x2="78.740028"
       y2="77.479179"
       gradientUnits="userSpaceOnUse" /><linearGradient
       inkscape:collect="always"
       xlink:href="#linearGradient18"
       id="linearGradient17"
       x1="78.740028"
       y1="82.982513"
       x2="78.740028"
       y2="93.142517"
       gradientUnits="userSpaceOnUse" /><linearGradient
       inkscape:collect="always"
       xlink:href="#linearGradient10"
       id="linearGradient1"
       gradientUnits="userSpaceOnUse"
       x1="78.740028"
       y1="82.982513"
       x2="78.740028"
       y2="93.142517"
       gradientTransform="translate(-2.1694751e-5,15.769152)" /></defs><g
     inkscape:groupmode="layer"
     id="layer2"
     inkscape:label="Background"
     sodipodi:insensitive="true"><rect
       style="display:inline;fill:#1a1a1a;stroke-width:0.538854"
       id="rect374"
       width="86.360008"
       height="128.5"
       x="0"
       y="0" /></g><g
     inkscape:label="Layer 1"
     inkscape:groupmode="layer"
     id="layer1"><rect
       style="fill:url(#linearGradient3);stroke-width:0;stroke-linecap:square;stroke-linejoin:round"
       id="rect2-0"
       width="12.700003"
       height="119.38"
       x="2.5399976"
       y="5.8300014" /><rect
       style="fill:url(#linearGradient4);fill-opacity:1;stroke-width:0;stroke-linecap:square;stroke-linejoin:round"
       id="rect2-0-6"
       width="12.700003"
       height="119.38"
       x="15.239999"
       y="5.8299952" /><rect
       style="fill:url(#linearGradient6);fill-opacity:1;stroke-width:0;stroke-linecap:square;stroke-linejoin:round"
       id="rect2-0-7"
       width="12.700003"
       height="119.38"
       x="27.940002"
       y="5.8299952" /><rect
       style="fill:url(#linearGradient8);fill-opacity:1;stroke-width:0;stroke-linecap:square;stroke-linejoin:round"
       id="rect2-0-7-0"
       width="30.479994"
       height="119.38"
       x="40.640007"
       y="5.8299937" /><circle
       style="display:inline;fill:url(#linearGradient15);fill-opacity:1;stroke:none;stroke-width:0.600001;stroke-linecap:round;stroke-linejoin:round;stroke-dasharray:none;stroke-opacity:1"
       id="circle9"
       cx="78.740028"
       cy="56.629997"
       r="5.0799999"
       inkscape:label="R" /><circle
       style="display:inline;fill:url(#linearGradient16);fill-opacity:1;stroke:none;stroke-width:0.600001;stroke-linecap:round;stroke-linejoin:round;stroke-dasharray:none;stroke-opacity:1"
       id="circle10"
       cx="78.740028"
       cy="72.399178"
       r="5.0799999"
       inkscape:label="G" /><circle
       style="display:inline;fill:url(#linearGradient17);fill-opacity:1;stroke:none;stroke-width:0.600001;stroke-linecap:round;stroke-linejoin:round;stroke-dasharray:none;stroke-opacity:1"
       id="circle11"
       cx="78.740028"
       cy="88.062515"
       r="5.0799999"
       inkscape:label="B" /><circle
       style="display:inline;fill:url(#linearGradient1);fill-opacity:1;stroke:none;stroke-width:0.600001;stroke-linecap:round;stroke-linejoin:round;stroke-dasharray:none;stroke-opacity:1"
       id="circle11-7"
       cx="78.739998"
       cy="103.83169"
       r="5.0799999"
       inkscape:label="A" /><rect
       style="fill:#1a1a1a;fill-opacity:1;stroke-width:0;stroke-linecap:square;stroke-linejoin:round"
       id="rect22"
       width="35.560001"
       height="10.16"
       x="50.799999"
       y="115.05"
       ry="0" /><g
       id="g1226"
       style="display:inline;stroke-width:0.3;stroke-dasharray:none"
       inkscape:label="logo"
       transform="matrix(1.1422206,0,0,1.1422206,51.261157,-16.259099)"><path
         style="fill:none;fill-rule:evenodd;stroke:#ff7f7f;stroke-width:0.3;stroke-linecap:round;stroke-linejoin:round;stroke-dasharray:none;stroke-opacity:1"
         d="m 4.7708989,116.7807 -1.3131348,0.65656 -1.3131348,0.65657 2.6262696,2.62627 -2.6262696,1.31314"
         id="path496"
         sodipodi:nodetypes="ccccc" /><path
         style="fill:none;fill-rule:evenodd;stroke:#feff7f;stroke-width:0.3;stroke-linecap:round;stroke-linejoin:round;stroke-dasharray:none;stroke-opacity:1"
         d="m 6.0840338,122.03324 v -5.25254 l 2.6262702,1.31313 -2.6262702,1.31314"
         id="path498" /><path
         style="fill:none;fill-rule:evenodd;stroke:#7fff7f;stroke-width:0.3;stroke-linecap:round;stroke-linejoin:round;stroke-dasharray:none;stroke-opacity:1"
         d="m 8.710304,122.03324 1.313135,-5.25254 1.313135,5.25254"
         id="path500" /><path
         style="fill:none;fill-rule:evenodd;stroke:#80ffff;stroke-width:0.3;stroke-linecap:round;stroke-linejoin:round;stroke-dasharray:none;stroke-opacity:1"
         d="m 12.649708,122.03324 v -5.25254 l 2.62627,1.31313 -2.62627,1.31314 2.62627,2.62627"
         id="path502" /><path
         style="fill:none;fill-rule:evenodd;stroke:#8080ff;stroke-width:0.3;stroke-linecap:round;stroke-linejoin:round;stroke-dasharray:none;stroke-opacity:1"
         d="m 16.589114,116.7807 v 5.25254"
         id="path504" /><path
         style="fill:none;fill-rule:evenodd;stroke:#8080ff;stroke-width:0.3;stroke-linecap:round;stroke-linejoin:round;stroke-dasharray:none;stroke-opacity:1"
         d="m 19.215383,116.7807 -2.626269,2.62627 2.626269,2.62627"
         id="path506" /><path
         style="fill:none;fill-rule:evenodd;stroke:#bf80ff;stroke-width:0.3;stroke-linecap:round;stroke-linejoin:round;stroke-dasharray:none;stroke-opacity:1"
         d="m 21.786938,116.7807 -2.626269,1.31313 2.626269,1.31314 -2.626269,1.31313 2.626269,1.31314"
         id="path508" /><path
         style="fill:none;fill-rule:evenodd;stroke:#ff80ff;stroke-width:0.3;stroke-linecap:round;stroke-linejoin:round;stroke-dasharray:none;stroke-opacity:1"
         d="m 21.732224,116.7807 h 3.939404"
         id="path514" /><path
         style="fill:none;fill-rule:evenodd;stroke:#ff80ff;stroke-width:0.3;stroke-linecap:round;stroke-linejoin:round;stroke-dasharray:none;stroke-opacity:1"
         d="m 23.045358,116.7807 v 5.25254"
         id="path516" /><path
         style="fill:none;fill-rule:evenodd;stroke:#ff80ff;stroke-width:0.3;stroke-linecap:round;stroke-linejoin:round;stroke-dasharray:none;stroke-opacity:1"
         d="m 24.358493,116.7807 v 5.25254"
         id="path518" /><path
         style="fill:none;fill-rule:evenodd;stroke:#ff80bf;stroke-width:0.3;stroke-linecap:round;stroke-linejoin:round;stroke-dasharray:none;stroke-opacity:1"
         d="m 28.297898,116.7807 -2.62627,1.31313 2.62627,1.31314 -2.62627,1.31313 2.62627,1.31314"
         id="path520" /><path
         style="fill:none;fill-rule:evenodd;stroke:#7fff7f;stroke-width:0.3;stroke-linecap:round;stroke-linejoin:round;stroke-dasharray:none;stroke-opacity:1"
         d="M 9.3319214,119.40697 H 10.714956"
         id="path630" /></g></g><g
     inkscape:groupmode="layer"
     id="layer4"
     inkscape:label="Text"
     style="display:none"><text
       xml:space="preserve"
       style="font-size:3.86816px;line-height:125%;font-family:sans-serif;letter-spacing:0px;word-spacing:0px;fill:#ffffff;fill-opacity:1;stroke:none;stroke-width:0.120879px;stroke-linecap:butt;stroke-linejoin:miter;stroke-opacity:1"
       x="44.971737"
       y="114.32278"
       id="text13"><tspan
         sodipodi:role="line"
         id="tspan13"
         style="font-style:normal;font-variant:normal;font-weight:normal;font-stretch:normal;font-family:'Ubuntu Condensed';-inkscape-font-specification:'Ubuntu Condensed, ';fill:#ffffff;fill-opacity:1;stroke:none;stroke-width:0.120879px"
         x="44.971737"
         y="114.32278">Background Color</tspan></text><text
       xml:space="preserve"
       style="font-size:2.97181px;line-height:125%;font-family:sans-serif;text-align:end;letter-spacing:0px;word-spacing:0px;text-anchor:end;fill:#ffffff;fill-opacity:1;stroke:none;stroke-width:0.092869px;stroke-linecap:butt;stroke-linejoin:miter;stroke-opacity:1"
       x="42.998135"
       y="117.47181"
       id="text10"
       inkscape:label="text10"><tspan
         style="font-style:normal;font-variant:normal;font-weight:normal;font-stretch:normal;font-family:'Ubuntu Condensed';-inkscape-font-specification:'Ubuntu Condensed, ';text-align:center;text-anchor:middle;fill:#ffffff;fill-opacity:1;stroke:none;stroke-width:0.092869px"
         x="42.998135"
         y="117.47181"
         id="tspan12"
         sodipodi:role="line">HSV</tspan><tspan
         style="font-style:normal;font-variant:normal;font-weight:normal;font-stretch:normal;font-family:'Ubuntu Condensed';-inkscape-font-specification:'Ubuntu Condensed, ';text-align:center;text-anchor:middle;fill:#ffffff;fill-opacity:1;stroke:none;stroke-width:0.092869px"
         x="42.998135"
         y="121.25378"
         sodipodi:role="line"
         id="tspan35">RGB</tspan><tspan
         style="font-style:normal;font-variant:normal;font-weight:normal;font-stretch:normal;font-family:'Ubuntu Condensed';-inkscape-font-specification:'Ubuntu Condensed, ';text-align:center;text-anchor:middle;fill:#ffffff;fill-opacity:1;stroke:none;stroke-width:0.092869px"
         x="42.998135"
         y="125.03576"
         sodipodi:role="line"
         id="tspan36">Off</tspan></text><text
       xml:space="preserve"
       style="font-size:5.80506px;line-height:125%;font-family:sans-serif;letter-spacing:0px;word-spacing:0px;fill:#ff6fff;fill-opacity:1;stroke:none;stroke-width:0.181408px;stroke-linecap:butt;stroke-linejoin:miter;stroke-opacity:1"
       x="27.848827"
       y="5.2137527"
       id="text51"><tspan
         sodipodi:role="line"
         id="tspan51"
         style="font-style:normal;font-variant:normal;font-weight:normal;font-stretch:normal;font-family:Ubuntu;-inkscape-font-specification:Ubuntu;fill:#ff6fff;fill-opacity:1;stroke:none;stroke-width:0.181408px"
         x="27.848827"
         y="5.2137527">Color Mixer</tspan></text><text
       xml:space="preserve"
       style="font-size:3.074px;line-height:125%;font-family:sans-serif;letter-spacing:0px;word-spacing:0px;fill:#ffffff;fill-opacity:1;stroke:none;stroke-width:0.0960623px;stroke-linecap:butt;stroke-linejoin:miter;stroke-opacity:1"
       x="73.957611"
       y="8.5122643"
       id="text1"><tspan
         sodipodi:role="line"
         id="tspan1"
         style="font-style:normal;font-variant:normal;font-weight:normal;font-stretch:normal;font-family:'Ubuntu Condensed';-inkscape-font-specification:'Ubuntu Condensed, ';fill:#ffffff;fill-opacity:1;stroke:none;stroke-width:0.0960623px"
         x="73.957611"
         y="8.5122643">Lights</tspan></text><text
       xml:space="preserve"
       style="font-size:2.67087px;line-height:125%;font-family:sans-serif;letter-spacing:0px;word-spacing:0px;fill:#ffffff;fill-opacity:1;stroke:none;stroke-width:0.0834646px;stroke-linecap:butt;stroke-linejoin:miter;stroke-opacity:1"
       x="80.273087"
       y="11.691938"
       id="text2"><tspan
         sodipodi:role="line"
         id="tspan2"
         style="font-style:normal;font-variant:normal;font-weight:normal;font-stretch:normal;font-family:'Ubuntu Condensed';-inkscape-font-specification:'Ubuntu Condensed, ';fill:#ffffff;fill-opacity:1;stroke:none;stroke-width:0.0834646px"
         x="80.273087"
         y="11.691938">All</tspan><tspan
         sodipodi:role="line"
         style="font-style:normal;font-variant:normal;font-weight:normal;font-stretch:normal;font-family:'Ubuntu Condensed';-inkscape-font-specification:'Ubuntu Condensed, ';fill:#ffffff;fill-opacity:1;stroke:none;stroke-width:0.0834646px"
         x="80.273087"
         y="15.090933"
         id="tspan3">2</tspan><tspan
         sodipodi:role="line"
         style="font-style:normal;font-variant:normal;font-weight:normal;font-stretch:normal;font-family:'Ubuntu Condensed';-inkscape-font-specification:'Ubuntu Condensed, ';fill:#ffffff;fill-opacity:1;stroke:none;stroke-width:0.0834646px"
         x="80.273087"
         y="18.489927"
         id="tspan4">1</tspan></text><text
       xml:space="preserve"
       style="font-size:3.074px;line-height:125%;font-family:sans-serif;letter-spacing:0px;word-spacing:0px;display:inline;fill:#ffffff;fill-opacity:1;stroke:none;stroke-width:0.0960623px;stroke-linecap:butt;stroke-linejoin:miter;stroke-opacity:1"
       x="73.957611"
       y="21.529766"
       id="text1-0"><tspan
         sodipodi:role="line"
         id="tspan1-8"
         style="font-style:normal;font-variant:normal;font-weight:normal;font-stretch:normal;font-family:'Ubuntu Condensed';-inkscape-font-specification:'Ubuntu Condensed, ';fill:#ffffff;fill-opacity:1;stroke:none;stroke-width:0.0960623px"
         x="73.957611"
         y="21.529766">Clamp</tspan></text><text
       xml:space="preserve"
       style="font-size:2.67087px;line-height:125%;font-family:sans-serif;letter-spacing:0px;word-spacing:0px;display:inline;fill:#ffffff;fill-opacity:1;stroke:none;stroke-width:0.0834646px;stroke-linecap:butt;stroke-linejoin:miter;stroke-opacity:1"
       x="80.273087"
       y="24.709442"
       id="text2-8"><tspan
         sodipodi:role="line"
         style="font-style:normal;font-variant:normal;font-weight:normal;font-stretch:normal;font-family:'Ubuntu Condensed';-inkscape-font-specification:'Ubuntu Condensed, ';fill:#ffffff;fill-opacity:1;stroke:none;stroke-width:0.0834646px"
         x="80.273087"
         y="24.709442"
         id="tspan4-9">All</tspan><tspan
         sodipodi:role="line"
         style="font-style:normal;font-variant:normal;font-weight:normal;font-stretch:normal;font-family:'Ubuntu Condensed';-inkscape-font-specification:'Ubuntu Condensed, ';fill:#ffffff;fill-opacity:1;stroke:none;stroke-width:0.0834646px"
         x="80.273087"
         y="28.108437"
         id="tspan6">End</tspan><tspan
         sodipodi:role="line"
         style="font-style:normal;font-variant:normal;font-weight:normal;font-stretch:normal;font-family:'Ubuntu Condensed';-inkscape-font-specification:'Ubuntu Condensed, ';fill:#ffffff;fill-opacity:1;stroke:none;stroke-width:0.0834646px"
         x="80.273087"
         y="31.507431"
         id="tspan7">Off</tspan></text><text
       xml:space="preserve"
       style="font-size:3.33017px;line-height:100%;font-family:sans-serif;letter-spacing:0px;word-spacing:0px;fill:none;stroke:#000000;stroke-width:0.104068px;stroke-linecap:butt;stroke-linejoin:miter;stroke-opacity:1"
       x="78.739998"
       y="36.309998"
       id="text8"><tspan
         sodipodi:role="line"
         id="tspan8"
         style="font-style:normal;font-variant:normal;font-weight:normal;font-stretch:normal;line-height:100%;font-family:'Ubuntu Condensed';-inkscape-font-specification:'Ubuntu Condensed, ';text-align:center;text-anchor:middle;fill:#d52bed;fill-opacity:1;stroke:none;stroke-width:0.104068px;stroke-opacity:1"
         x="78.739998"
         y="36.309998">Normal</tspan><tspan
         sodipodi:role="line"
         style="font-style:normal;font-variant:normal;font-weight:normal;font-stretch:normal;line-height:100%;font-family:'Ubuntu Condensed';-inkscape-font-specification:'Ubuntu Condensed, ';text-align:center;text-anchor:middle;fill:#29b2ef;fill-opacity:1;stroke:none;stroke-width:0.104068px"
         x="78.739998"
         y="39.715485"
         id="tspan9">Addition</tspan><tspan
         sodipodi:role="line"
         style="font-style:normal;font-variant:normal;font-weight:normal;font-stretch:normal;line-height:100%;font-family:'Ubuntu Condensed';-inkscape-font-specification:'Ubuntu Condensed, ';text-align:center;text-anchor:middle;fill:#90c73e;fill-opacity:1;stroke:none;stroke-width:0.104068px"
         x="78.739998"
         y="43.120975"
         id="tspan10">Multiply</tspan><tspan
         sodipodi:role="line"
         style="font-style:normal;font-variant:normal;font-weight:normal;font-stretch:normal;line-height:100%;font-family:'Ubuntu Condensed';-inkscape-font-specification:'Ubuntu Condensed, ';text-align:center;text-anchor:middle;fill:#ffd714;fill-opacity:1;stroke:none;stroke-width:0.104068px"
         x="78.739998"
         y="46.526463"
         id="tspan11">Screen</tspan><tspan
         sodipodi:role="line"
         style="font-style:normal;font-variant:normal;font-weight:normal;font-stretch:normal;line-height:100%;font-family:'Ubuntu Condensed';-inkscape-font-specification:'Ubuntu Condensed, ';text-align:center;text-anchor:middle;fill:#ed2c24;fill-opacity:1;stroke:none;stroke-width:0.104068px"
         x="78.739998"
         y="49.93195"
         id="tspan14">Overlay</tspan></text></g><g
     inkscape:groupmode="layer"
     id="g32"
     inkscape:label="Text copy"
     style="display:inline"><path
       style="font-size:3.86816px;line-height:125%;font-family:'Ubuntu Condensed';-inkscape-font-specification:'Ubuntu Condensed, ';letter-spacing:0px;word-spacing:0px;fill:#ffffff;stroke-width:0.120879px"
       d="m 45.644797,112.78325 h 0.239826 q 0.479652,0 0.479652,-0.43323 0,-0.13539 -0.04255,-0.22049 -0.03868,-0.089 -0.104441,-0.13539 -0.06576,-0.0503 -0.154726,-0.0696 -0.0851,-0.0193 -0.181803,-0.0193 -0.05802,0 -0.119913,0.004 -0.05802,0.004 -0.116045,0.0116 z m 0,0.27851 v 0.96704 q 0.0735,0.0116 0.143122,0.0193 0.0735,0.008 0.143122,0.008 0.108308,0 0.205012,-0.0232 0.0967,-0.0232 0.166331,-0.0774 0.07349,-0.0541 0.112177,-0.14699 0.04255,-0.0967 0.04255,-0.23596 0,-0.23982 -0.131517,-0.37521 -0.127649,-0.13538 -0.402289,-0.13538 z m -0.348135,-1.38094 q 0.135386,-0.0309 0.27464,-0.0464 0.143122,-0.0194 0.282375,-0.0194 0.174068,0 0.328794,0.0348 0.158595,0.0309 0.278508,0.11217 0.119912,0.0774 0.189539,0.20889 0.0735,0.12764 0.0735,0.32105 0,0.23983 -0.100572,0.39456 -0.100572,0.15085 -0.259166,0.22435 0.197276,0.0774 0.324925,0.23596 0.127649,0.15859 0.127649,0.4371 0,0.20888 -0.06963,0.352 -0.06576,0.14312 -0.189539,0.23596 -0.123782,0.089 -0.297849,0.13152 -0.170199,0.0387 -0.375211,0.0387 -0.135386,0 -0.282376,-0.0155 -0.14699,-0.0155 -0.305585,-0.0464 z m 2.023048,0.65372 q 0.100572,-0.0426 0.212748,-0.0658 0.112177,-0.0271 0.243695,-0.0271 0.270771,0 0.44097,0.1702 0.170199,0.16633 0.170199,0.5222 v 1.34612 q -0.139254,0.0387 -0.286244,0.0619 -0.143122,0.0232 -0.282376,0.0232 -0.139253,0 -0.263035,-0.0348 -0.119913,-0.0348 -0.212748,-0.11217 -0.08897,-0.0774 -0.143122,-0.19341 -0.05415,-0.11991 -0.05415,-0.29011 0,-0.1586 0.04642,-0.27464 0.05029,-0.11992 0.135386,-0.19728 0.0851,-0.0812 0.201144,-0.11991 0.116045,-0.0425 0.251431,-0.0425 0.127649,0 0.282375,0.0309 v -0.18567 q 0,-0.22435 -0.08897,-0.31332 -0.0851,-0.089 -0.247563,-0.089 -0.08897,0 -0.170199,0.0193 -0.07736,0.0155 -0.16633,0.0542 z m 0.158594,1.39641 q 0,0.17793 0.09284,0.26303 0.09284,0.0851 0.263035,0.0851 0.10444,0 0.228221,-0.0271 v -0.64599 q -0.116044,-0.0309 -0.228221,-0.0309 -0.0735,0 -0.139254,0.0193 -0.06576,0.0155 -0.116045,0.058 -0.04642,0.0387 -0.0735,0.10831 -0.02708,0.0658 -0.02708,0.1702 z m 2.108148,0.64211 q -0.208881,0 -0.348135,-0.0812 -0.139254,-0.0812 -0.228221,-0.22048 -0.0851,-0.14313 -0.123781,-0.33653 -0.03481,-0.19341 -0.03481,-0.42163 0,-0.50286 0.181804,-0.78524 0.185671,-0.28624 0.557015,-0.28624 0.112176,0 0.201144,0.0271 0.08897,0.0271 0.166331,0.0696 l -0.0851,0.27464 q -0.119913,-0.0774 -0.266903,-0.0774 -0.20888,0 -0.309452,0.18954 -0.0967,0.18954 -0.0967,0.58796 0,0.16633 0.01934,0.30945 0.01934,0.13925 0.06576,0.23983 0.05029,0.10057 0.127649,0.15859 0.08123,0.058 0.205013,0.058 0.0851,0 0.150858,-0.0193 0.06963,-0.0232 0.131517,-0.058 l 0.0735,0.25917 q -0.06189,0.0425 -0.166331,0.0774 -0.100573,0.0348 -0.220485,0.0348 z m 2.003709,-2.08107 q -0.162463,0.27851 -0.313321,0.5106 -0.14699,0.22822 -0.29398,0.42937 0.09284,0.1083 0.18954,0.24369 0.0967,0.13539 0.185671,0.28238 0.08897,0.14312 0.166331,0.29011 0.07736,0.14312 0.131518,0.27464 h -0.363607 q -0.05802,-0.12765 -0.135386,-0.26691 -0.07736,-0.13925 -0.162463,-0.27077 -0.0851,-0.13538 -0.170199,-0.2553 -0.0851,-0.11991 -0.158594,-0.20114 v 0.99412 h -0.332662 v -2.94367 l 0.332662,-0.058 v 1.84512 q 0.06963,-0.0928 0.14699,-0.20888 0.08123,-0.11605 0.158594,-0.23209 0.07736,-0.11992 0.14699,-0.23209 0.06963,-0.11218 0.116045,-0.20115 z m 1.543399,1.97276 q 0,0.21662 -0.05802,0.36361 -0.05415,0.15086 -0.150858,0.2437 -0.0967,0.0928 -0.228222,0.13538 -0.127649,0.0425 -0.274639,0.0425 -0.123781,0 -0.247562,-0.0271 -0.123781,-0.0271 -0.228222,-0.0812 l 0.06963,-0.27851 q 0.06963,0.0387 0.170199,0.0696 0.100572,0.031 0.208881,0.031 0.18954,0 0.297848,-0.10831 0.108309,-0.10831 0.108309,-0.37134 v -0.0967 q -0.06189,0.0271 -0.131518,0.0464 -0.06963,0.0155 -0.158594,0.0155 -0.363607,0 -0.533806,-0.24756 -0.166331,-0.25143 -0.166331,-0.70787 0,-0.2437 0.04255,-0.43711 0.04642,-0.19727 0.139253,-0.33266 0.0967,-0.13925 0.247563,-0.20888 0.150858,-0.0735 0.367475,-0.0735 0.143122,0 0.278507,0.0309 0.139254,0.0271 0.247563,0.0735 z m -0.332662,-1.70199 q -0.05415,-0.0155 -0.104441,-0.0193 -0.05029,-0.008 -0.09284,-0.008 -0.23209,0 -0.340398,0.17793 -0.104441,0.17794 -0.104441,0.58023 0,0.3636 0.104441,0.51446 0.10444,0.14699 0.297848,0.14699 0.06576,0 0.123781,-0.0155 0.06189,-0.0155 0.116045,-0.0426 z m 1.810303,0.031 q -0.123782,-0.0542 -0.278508,-0.0542 -0.143122,0 -0.266903,0.0503 v 1.73294 h -0.332662 v -1.94182 q 0.112177,-0.0542 0.255299,-0.089 0.14699,-0.0387 0.321057,-0.0387 0.09284,0 0.185672,0.0116 0.09284,0.0116 0.174067,0.0425 z m 1.655567,0.71561 q 0,0.23982 -0.04255,0.4371 -0.04255,0.19341 -0.131518,0.33266 -0.0851,0.13926 -0.220485,0.21662 -0.131518,0.0774 -0.313321,0.0774 -0.181804,0 -0.317189,-0.0774 -0.135386,-0.0774 -0.224353,-0.21662 -0.0851,-0.13925 -0.12765,-0.33266 -0.04255,-0.19728 -0.04255,-0.4371 0,-0.23596 0.04255,-0.43324 0.04255,-0.19727 0.12765,-0.33652 0.08897,-0.14313 0.224353,-0.22049 0.135385,-0.0774 0.317189,-0.0774 0.181803,0 0.313321,0.0774 0.135386,0.0774 0.220485,0.22049 0.08897,0.13925 0.131518,0.33652 0.04255,0.19728 0.04255,0.43324 z m -0.348134,0 q 0,-0.1702 -0.01934,-0.30945 -0.01934,-0.14313 -0.06189,-0.2437 -0.04255,-0.10444 -0.112177,-0.15859 -0.06963,-0.058 -0.166331,-0.058 -0.100572,0 -0.170199,0.058 -0.06576,0.0542 -0.112177,0.15859 -0.04255,0.10057 -0.06189,0.2437 -0.01934,0.13925 -0.01934,0.30945 0,0.1702 0.01934,0.31332 0.01934,0.13925 0.06189,0.23983 0.04642,0.10057 0.112177,0.15859 0.06963,0.0541 0.170199,0.0541 0.0967,0 0.166331,-0.0541 0.06963,-0.058 0.112177,-0.15859 0.04255,-0.10058 0.06189,-0.23983 0.01934,-0.14312 0.01934,-0.31332 z m 2.092672,0.95543 q -0.05029,0.0193 -0.123781,0.0387 -0.06963,0.0155 -0.150858,0.0271 -0.07736,0.0155 -0.158595,0.0232 -0.07736,0.0116 -0.143122,0.0116 -0.158595,0 -0.290112,-0.0387 -0.131517,-0.0348 -0.224353,-0.12764 -0.09284,-0.0928 -0.143122,-0.25143 -0.05029,-0.16247 -0.05029,-0.40616 v -1.24942 h 0.332662 v 1.23781 q 0,0.29785 0.08897,0.42163 0.09284,0.11992 0.278508,0.11992 0.06189,0 0.123781,-0.004 0.06189,-0.008 0.127649,-0.0271 v -1.74841 h 0.332662 z m 0.599563,-1.91473 q 0.143122,-0.0426 0.309453,-0.0696 0.166331,-0.0309 0.305585,-0.0309 0.150858,0 0.274639,0.0425 0.123781,0.0387 0.208881,0.13539 0.08897,0.0967 0.135385,0.26303 0.05029,0.16247 0.05029,0.40616 v 1.22621 H 59.56244 v -1.19913 q 0,-0.30172 -0.07736,-0.44097 -0.07736,-0.13926 -0.290112,-0.13926 -0.112176,0 -0.25143,0.0387 v 1.74068 h -0.332662 z m 2.738659,0.24756 q -0.112177,-0.0619 -0.239826,-0.0619 -0.0967,0 -0.170199,0.0387 -0.0735,0.0387 -0.12765,0.12765 -0.05029,0.089 -0.07736,0.23596 -0.02708,0.14699 -0.02708,0.3636 0,0.41776 0.108308,0.59957 0.112177,0.17793 0.33653,0.17793 0.04255,0 0.09284,-0.004 0.05029,-0.008 0.104441,-0.0232 z m 0,-1.21847 0.332661,-0.058 v 2.94754 q -0.108308,0.0464 -0.247562,0.0735 -0.139254,0.0309 -0.282376,0.0309 -0.417761,0 -0.607301,-0.2669 -0.185671,-0.2669 -0.185671,-0.80458 0,-0.24369 0.03868,-0.4371 0.04255,-0.19728 0.127649,-0.33266 0.08897,-0.13926 0.224354,-0.21275 0.135385,-0.0774 0.321057,-0.0774 0.08897,0 0.150858,0.0193 0.06576,0.0155 0.12765,0.0464 z m 2.572328,3.00169 q -0.471915,0 -0.723346,-0.352 -0.25143,-0.35201 -0.25143,-1.08696 0,-0.37521 0.06963,-0.63437 0.0735,-0.25917 0.201144,-0.42163 0.127649,-0.16247 0.301717,-0.23209 0.174067,-0.0735 0.379079,-0.0735 0.170199,0 0.317189,0.0464 0.14699,0.0425 0.239826,0.10831 l -0.10444,0.29011 q -0.09284,-0.0619 -0.201144,-0.10057 -0.104441,-0.0387 -0.243694,-0.0387 -0.309453,0 -0.448707,0.25916 -0.139254,0.2553 -0.139254,0.79684 0,0.54541 0.14699,0.83939 0.14699,0.29398 0.479652,0.29398 0.158595,0 0.255299,-0.0387 0.100572,-0.0387 0.193408,-0.10057 l 0.0967,0.27464 q -0.08897,0.0696 -0.235958,0.11991 -0.143122,0.0503 -0.332662,0.0503 z m 2.197112,-1.07148 q 0,0.23982 -0.04255,0.4371 -0.04255,0.19341 -0.131517,0.33266 -0.0851,0.13926 -0.220486,0.21662 -0.131517,0.0774 -0.31332,0.0774 -0.181804,0 -0.31719,-0.0774 -0.135385,-0.0774 -0.224353,-0.21662 -0.0851,-0.13925 -0.127649,-0.33266 -0.04255,-0.19728 -0.04255,-0.4371 0,-0.23596 0.04255,-0.43324 0.04255,-0.19727 0.127649,-0.33652 0.08897,-0.14313 0.224353,-0.22049 0.135386,-0.0774 0.31719,-0.0774 0.181803,0 0.31332,0.0774 0.135386,0.0774 0.220486,0.22049 0.08897,0.13925 0.131517,0.33652 0.04255,0.19728 0.04255,0.43324 z m -0.348135,0 q 0,-0.1702 -0.01934,-0.30945 -0.01934,-0.14313 -0.06189,-0.2437 -0.04255,-0.10444 -0.112177,-0.15859 -0.06963,-0.058 -0.16633,-0.058 -0.100573,0 -0.1702,0.058 -0.06576,0.0542 -0.112176,0.15859 -0.04255,0.10057 -0.06189,0.2437 -0.01934,0.13925 -0.01934,0.30945 0,0.1702 0.01934,0.31332 0.01934,0.13925 0.06189,0.23983 0.04642,0.10057 0.112176,0.15859 0.06963,0.0541 0.1702,0.0541 0.0967,0 0.16633,-0.0541 0.06963,-0.058 0.112177,-0.15859 0.04255,-0.10058 0.06189,-0.23983 0.01934,-0.14312 0.01934,-0.31332 z m 1.361591,1.05214 q -0.286244,-0.008 -0.410025,-0.13926 -0.123781,-0.13538 -0.123781,-0.42549 v -2.4176 l 0.332662,-0.058 v 2.48336 q 0,0.13539 0.05415,0.19728 0.05415,0.058 0.18954,0.0812 z m 1.717463,-1.05214 q 0,0.23982 -0.04255,0.4371 -0.04255,0.19341 -0.131518,0.33266 -0.0851,0.13926 -0.220485,0.21662 -0.131517,0.0774 -0.313321,0.0774 -0.181803,0 -0.317189,-0.0774 -0.135385,-0.0774 -0.224353,-0.21662 -0.0851,-0.13925 -0.127649,-0.33266 -0.04255,-0.19728 -0.04255,-0.4371 0,-0.23596 0.04255,-0.43324 0.04255,-0.19727 0.127649,-0.33652 0.08897,-0.14313 0.224353,-0.22049 0.135386,-0.0774 0.317189,-0.0774 0.181804,0 0.313321,0.0774 0.135386,0.0774 0.220485,0.22049 0.08897,0.13925 0.131518,0.33652 0.04255,0.19728 0.04255,0.43324 z m -0.348135,0 q 0,-0.1702 -0.01934,-0.30945 -0.01934,-0.14313 -0.06189,-0.2437 -0.04255,-0.10444 -0.112177,-0.15859 -0.06963,-0.058 -0.166331,-0.058 -0.100572,0 -0.170199,0.058 -0.06576,0.0542 -0.112176,0.15859 -0.04255,0.10057 -0.06189,0.2437 -0.01934,0.13925 -0.01934,0.30945 0,0.1702 0.01934,0.31332 0.01934,0.13925 0.06189,0.23983 0.04642,0.10057 0.112176,0.15859 0.06963,0.0541 0.170199,0.0541 0.0967,0 0.166331,-0.0541 0.06963,-0.058 0.112177,-0.15859 0.04255,-0.10058 0.06189,-0.23983 0.01934,-0.14312 0.01934,-0.31332 z m 1.713592,-0.71561 q -0.123781,-0.0542 -0.278508,-0.0542 -0.143122,0 -0.266903,0.0503 v 1.73294 h -0.332662 v -1.94182 q 0.112177,-0.0542 0.255299,-0.089 0.14699,-0.0387 0.321057,-0.0387 0.09284,0 0.185672,0.0116 0.09284,0.0116 0.174067,0.0425 z"
       id="text15"
       aria-label="Background Color" /><g
       id="text18"
       style="font-size:2.97181px;line-height:125%;text-align:end;letter-spacing:0px;word-spacing:0px;text-anchor:end;fill:#ffffff;stroke-width:0.092869px"
       inkscape:label="text10"
       aria-label="HSV&#10;RGB&#10;Off"><path
         style="font-family:'Ubuntu Condensed';-inkscape-font-specification:'Ubuntu Condensed, ';text-align:center;text-anchor:middle"
         d="m 41.989205,115.41234 h 0.267463 v 2.05947 h -0.267463 v -0.95692 h -0.677572 v 0.95692 H 41.04417 v -2.05947 h 0.267463 v 0.87075 h 0.677572 z m 1.022304,1.87522 q 0.160477,0 0.24666,-0.0892 0.08915,-0.0892 0.08915,-0.24071 0,-0.0802 -0.02675,-0.14265 -0.02675,-0.0624 -0.07132,-0.11293 -0.04161,-0.0505 -0.09807,-0.0921 -0.05647,-0.0416 -0.115901,-0.0832 -0.06835,-0.0476 -0.142647,-0.10104 -0.0743,-0.0535 -0.136703,-0.12481 -0.05944,-0.0713 -0.09807,-0.16643 -0.03863,-0.0951 -0.03863,-0.22288 0,-0.12482 0.0416,-0.22586 0.04458,-0.10104 0.118873,-0.17236 0.07727,-0.0713 0.18128,-0.10996 0.106985,-0.0386 0.228829,-0.0386 0.118873,0 0.219914,0.0297 0.101042,0.0297 0.169393,0.0713 l -0.08321,0.211 q -0.06241,-0.0416 -0.136704,-0.0624 -0.07132,-0.0238 -0.151562,-0.0238 -0.145619,0 -0.234773,0.0802 -0.08618,0.0773 -0.08618,0.22883 0,0.0832 0.02675,0.14562 0.02972,0.0624 0.0743,0.11293 0.04755,0.0505 0.106985,0.0921 0.06241,0.0416 0.13076,0.0862 0.06835,0.0446 0.139675,0.0981 0.07132,0.0535 0.127788,0.12481 0.05944,0.0684 0.0951,0.16345 0.03863,0.0921 0.03863,0.21992 0,0.1159 -0.03566,0.21991 -0.03566,0.10401 -0.112929,0.18425 -0.07429,0.0773 -0.190196,0.12482 -0.112929,0.0446 -0.267463,0.0446 -0.142647,0 -0.249632,-0.0327 -0.106985,-0.0327 -0.190196,-0.0862 l 0.08321,-0.21397 q 0.07727,0.0476 0.157506,0.0773 0.08321,0.0267 0.190196,0.0267 z m 1.307596,0.18425 q -0.06835,-0.22289 -0.136704,-0.44874 -0.06835,-0.22883 -0.136703,-0.47847 -0.06538,-0.24963 -0.13076,-0.52601 -0.06538,-0.27935 -0.130759,-0.60625 h 0.27935 q 0.03863,0.22883 0.08618,0.46064 0.04755,0.22882 0.101042,0.45171 0.05349,0.22289 0.106985,0.43388 0.05647,0.20803 0.109957,0.39526 0.05349,-0.18723 0.106985,-0.39526 0.05646,-0.21099 0.109957,-0.43388 0.05349,-0.22289 0.101042,-0.45171 0.04755,-0.23181 0.08618,-0.46064 h 0.270435 q -0.06538,0.3269 -0.13076,0.60625 -0.06538,0.27638 -0.133731,0.52601 -0.06538,0.24964 -0.133732,0.47847 -0.06835,0.22585 -0.136703,0.44874 z"
         id="path32" /><path
         style="font-family:'Ubuntu Condensed';-inkscape-font-specification:'Ubuntu Condensed, ';text-align:center;text-anchor:middle"
         d="m 40.944615,119.22404 q 0.208027,-0.0505 0.401194,-0.0505 0.154534,0 0.27935,0.0357 0.124817,0.0357 0.213971,0.11293 0.08915,0.0773 0.136703,0.19911 0.05052,0.12184 0.05052,0.29421 0,0.21397 -0.08321,0.3477 -0.08024,0.13076 -0.219914,0.19911 0.03566,0.0594 0.08915,0.16345 0.05646,0.10104 0.112928,0.22586 0.05944,0.12184 0.112929,0.2526 0.05646,0.13076 0.0951,0.24964 h -0.267463 q -0.03269,-0.0892 -0.08321,-0.20209 -0.04755,-0.11293 -0.101041,-0.22288 -0.05349,-0.11293 -0.106985,-0.21397 -0.05349,-0.10402 -0.0951,-0.17534 -0.04755,0.006 -0.09807,0.009 -0.05052,0.003 -0.101041,0.003 h -0.0743 v 0.80239 h -0.261519 z m 0.261519,1.00744 h 0.112929 q 0.205055,0 0.315012,-0.0921 0.109957,-0.0951 0.109957,-0.32393 0,-0.1159 -0.02972,-0.19317 -0.02675,-0.0802 -0.08024,-0.12481 -0.05052,-0.0476 -0.124816,-0.0684 -0.07132,-0.0208 -0.160478,-0.0208 -0.07727,0 -0.142647,0.009 z m 1.15009,-0.009 q 0,-0.29124 0.05349,-0.49629 0.05349,-0.20506 0.151563,-0.33285 0.101041,-0.13076 0.240716,-0.18722 0.142647,-0.0594 0.317984,-0.0594 0.133732,0 0.243689,0.0386 0.109956,0.0357 0.178308,0.0832 l -0.08321,0.22288 q -0.06835,-0.0476 -0.14859,-0.0773 -0.08024,-0.0327 -0.184252,-0.0327 -0.258548,0 -0.371477,0.21099 -0.112928,0.20803 -0.112928,0.63003 0,0.22585 0.03269,0.38633 0.03566,0.16048 0.09807,0.26152 0.06241,0.10104 0.151563,0.14859 0.08915,0.0476 0.199111,0.0476 0.09213,0 0.157506,-0.0208 v -0.80536 h 0.267463 v 0.96881 q -0.08024,0.0386 -0.199112,0.0654 -0.118872,0.0267 -0.249632,0.0267 -0.160477,0 -0.297181,-0.0624 -0.136703,-0.0654 -0.237744,-0.19614 -0.09807,-0.13373 -0.154535,-0.33582 -0.05349,-0.20505 -0.05349,-0.4844 z m 1.913844,-0.15156 h 0.184253 q 0.368504,0 0.368504,-0.33285 0,-0.10401 -0.03269,-0.16939 -0.02972,-0.0683 -0.08024,-0.10401 -0.05052,-0.0386 -0.118872,-0.0535 -0.06538,-0.0149 -0.139675,-0.0149 -0.04458,0 -0.09213,0.003 -0.04458,0.003 -0.08915,0.009 z m 0,0.21397 v 0.74295 q 0.05646,0.009 0.109957,0.0149 0.05646,0.006 0.109957,0.006 0.08321,0 0.157506,-0.0178 0.0743,-0.0178 0.127788,-0.0594 0.05647,-0.0416 0.08618,-0.11293 0.03269,-0.0743 0.03269,-0.18128 0,-0.18425 -0.101042,-0.28826 -0.09807,-0.10401 -0.309068,-0.10401 z m -0.267462,-1.06094 q 0.104013,-0.0238 0.210998,-0.0357 0.109957,-0.0149 0.216942,-0.0149 0.133732,0 0.252604,0.0267 0.121844,0.0238 0.21397,0.0862 0.09213,0.0594 0.145619,0.16047 0.05646,0.0981 0.05646,0.24667 0,0.18425 -0.07727,0.30312 -0.07727,0.1159 -0.199111,0.17236 0.151562,0.0594 0.249632,0.18129 0.09807,0.12184 0.09807,0.33581 0,0.16048 -0.05349,0.27043 -0.05052,0.10996 -0.145618,0.18128 -0.0951,0.0684 -0.22883,0.10105 -0.130759,0.0297 -0.288265,0.0297 -0.104014,0 -0.216942,-0.0119 -0.112929,-0.0119 -0.234773,-0.0357 z"
         id="path33" /><path
         style="font-family:'Ubuntu Condensed';-inkscape-font-specification:'Ubuntu Condensed, ';text-align:center;text-anchor:middle"
         d="m 42.821313,124.00752 q 0,0.24071 -0.04458,0.43982 -0.0416,0.19614 -0.133731,0.33879 -0.08916,0.13967 -0.22883,0.21694 -0.136703,0.0773 -0.323927,0.0773 -0.187224,0 -0.326899,-0.0773 -0.136703,-0.0773 -0.228829,-0.21694 -0.08915,-0.14265 -0.133732,-0.33879 -0.04458,-0.19911 -0.04458,-0.43982 0,-0.24072 0.04458,-0.43983 0.04458,-0.19911 0.133732,-0.33879 0.09213,-0.14265 0.228829,-0.21991 0.139675,-0.0802 0.326899,-0.0802 0.187224,0 0.323927,0.0802 0.139675,0.0773 0.22883,0.21991 0.09213,0.13968 0.133731,0.33879 0.04458,0.19911 0.04458,0.43983 z m -0.285293,0 q 0,-0.18723 -0.02378,-0.34176 -0.02377,-0.15454 -0.07727,-0.26449 -0.05349,-0.11293 -0.139675,-0.17534 -0.08321,-0.0624 -0.205055,-0.0624 -0.121844,0 -0.208027,0.0624 -0.08321,0.0624 -0.136703,0.17534 -0.05349,0.10995 -0.08024,0.26449 -0.02377,0.15453 -0.02377,0.34176 0,0.18722 0.02377,0.34175 0.02675,0.15454 0.08024,0.26449 0.05349,0.10996 0.136703,0.17237 0.08618,0.0594 0.208027,0.0594 0.121844,0 0.205055,-0.0594 0.08618,-0.0624 0.139675,-0.17237 0.05349,-0.10995 0.07727,-0.26449 0.02378,-0.15453 0.02378,-0.34175 z m 1.138201,-1.27788 q 0.08618,0 0.151563,0.0178 0.06538,0.0178 0.106985,0.0386 l -0.05349,0.20208 q -0.0416,-0.0208 -0.08618,-0.0297 -0.04458,-0.0119 -0.0951,-0.0119 -0.06835,0 -0.112929,0.0238 -0.04458,0.0238 -0.06835,0.0654 -0.02377,0.0416 -0.03269,0.10104 -0.0089,0.0565 -0.0089,0.12185 v 0.21694 h 0.401195 v 0.21992 H 43.47511 v 1.34028 h -0.255576 v -1.77714 q 0,-0.2526 0.112929,-0.38931 0.112929,-0.13967 0.341758,-0.13967 z m 0.909374,0 q 0.08618,0 0.151563,0.0178 0.06538,0.0178 0.106985,0.0386 l -0.05349,0.20208 q -0.0416,-0.0208 -0.08618,-0.0297 -0.04458,-0.0119 -0.0951,-0.0119 -0.06835,0 -0.112929,0.0238 -0.04458,0.0238 -0.06835,0.0654 -0.02377,0.0416 -0.03269,0.10104 -0.0089,0.0565 -0.0089,0.12185 v 0.21694 h 0.401194 v 0.21992 h -0.401194 v 1.34028 h -0.255576 v -1.77714 q 0,-0.2526 0.112929,-0.38931 0.112929,-0.13967 0.341758,-0.13967 z"
         id="path34" /></g><path
       style="font-size:5.80506px;line-height:125%;font-family:Ubuntu;-inkscape-font-specification:Ubuntu;letter-spacing:0px;word-spacing:0px;fill:#ff6fff;stroke-width:0.181408px"
       d="m 30.07797,5.3008286 q -0.423769,0 -0.772073,-0.1393214 Q 28.957594,5.0221858 28.707976,4.755153 28.458359,4.4881203 28.319037,4.0991812 28.185521,3.7044372 28.185521,3.199397 q 0,-0.5050403 0.150931,-0.8939793 0.156737,-0.394744 0.417965,-0.6617768 0.261227,-0.2670328 0.609531,-0.4063542 0.348304,-0.1393214 0.743048,-0.1393214 0.249617,0 0.446989,0.03483 0.203177,0.03483 0.348304,0.081271 0.150931,0.04644 0.243812,0.092881 0.09288,0.04644 0.127712,0.069661 l -0.162542,0.4644048 q -0.05225,-0.03483 -0.150932,-0.075466 -0.09869,-0.040636 -0.226397,-0.081271 -0.121906,-0.040635 -0.272838,-0.063856 -0.145126,-0.029025 -0.296058,-0.029025 -0.319278,0 -0.574701,0.1102961 -0.255422,0.1102961 -0.435379,0.3192783 -0.179957,0.2089822 -0.278643,0.5108453 -0.09288,0.296058 -0.09288,0.6675819 0,0.3599137 0.08127,0.6559717 0.08708,0.2960581 0.255422,0.5108453 0.168347,0.2089822 0.417965,0.3250834 0.255422,0.1161012 0.592116,0.1161012 0.388939,0 0.644362,-0.081271 0.255422,-0.08127 0.383134,-0.1451261 l 0.145126,0.4644048 q -0.04064,0.029025 -0.145126,0.075466 -0.104492,0.040635 -0.261228,0.081271 -0.156737,0.040635 -0.365719,0.069661 -0.208982,0.029025 -0.452795,0.029025 z m 4.411854,-1.5963914 q 0,0.3599137 -0.104491,0.6501667 -0.104491,0.290253 -0.296058,0.4992351 -0.185762,0.2089822 -0.446989,0.3250834 -0.261228,0.1102961 -0.568896,0.1102961 -0.307668,0 -0.568896,-0.1102961 Q 32.243266,5.0628212 32.051699,4.853839 31.865937,4.6448569 31.761446,4.3546039 31.656955,4.0643509 31.656955,3.7044372 q 0,-0.3541087 0.104491,-0.6443617 0.104491,-0.296058 0.290253,-0.5050402 0.191567,-0.2089821 0.452795,-0.3192783 0.261228,-0.1161012 0.568896,-0.1161012 0.307668,0 0.568896,0.1161012 0.261227,0.1102962 0.446989,0.3192783 0.191567,0.2089822 0.296058,0.5050402 0.104491,0.290253 0.104491,0.6443617 z m -0.56309,0 q 0,-0.5108453 -0.232203,-0.8069034 -0.226397,-0.3018631 -0.621141,-0.3018631 -0.394744,0 -0.626947,0.3018631 -0.226397,0.2960581 -0.226397,0.8069034 0,0.5108452 0.226397,0.8127084 0.232203,0.296058 0.626947,0.296058 0.394744,0 0.621141,-0.296058 0.232203,-0.3018632 0.232203,-0.8127084 z m 2.229143,1.5673661 Q 35.656642,5.2601932 35.44766,5.0570161 35.238678,4.853839 35.238678,4.4242646 V 0.80190722 l 0.53987,-0.092881 V 4.3371887 q 0,0.1335164 0.02322,0.2205923 0.02322,0.087076 0.07547,0.1393214 0.05225,0.052246 0.139322,0.081271 0.08708,0.02322 0.214787,0.040635 z m 3.343719,-1.5673661 q 0,0.3599137 -0.104491,0.6501667 -0.104491,0.290253 -0.296058,0.4992351 -0.185762,0.2089822 -0.44699,0.3250834 -0.261228,0.1102961 -0.568896,0.1102961 -0.307668,0 -0.568896,-0.1102961 Q 37.253038,5.0628212 37.061471,4.853839 36.875709,4.6448569 36.771218,4.3546039 36.666726,4.0643509 36.666726,3.7044372 q 0,-0.3541087 0.104492,-0.6443617 0.104491,-0.296058 0.290253,-0.5050402 0.191567,-0.2089821 0.452794,-0.3192783 0.261228,-0.1161012 0.568896,-0.1161012 0.307668,0 0.568896,0.1161012 0.261228,0.1102962 0.44699,0.3192783 0.191567,0.2089822 0.296058,0.5050402 0.104491,0.290253 0.104491,0.6443617 z m -0.563091,0 q 0,-0.5108453 -0.232203,-0.8069034 -0.226397,-0.3018631 -0.621141,-0.3018631 -0.394744,0 -0.626946,0.3018631 -0.226398,0.2960581 -0.226398,0.8069034 0,0.5108452 0.226398,0.8127084 0.232202,0.296058 0.626946,0.296058 0.394744,0 0.621141,-0.296058 0.232203,-0.3018632 0.232203,-0.8127084 z m 2.438126,-1.5731713 q 0.06966,0 0.156736,0.01161 0.09288,0.00581 0.179957,0.02322 0.08708,0.01161 0.156737,0.029025 0.07547,0.01161 0.110296,0.02322 l -0.09288,0.4702099 q -0.06386,-0.02322 -0.214787,-0.052246 -0.145127,-0.03483 -0.377329,-0.03483 -0.150932,0 -0.301863,0.03483 -0.145127,0.029025 -0.191567,0.040636 V 5.2137527 H 40.260059 V 2.3228329 q 0.191567,-0.069661 0.476015,-0.1277113 0.284448,-0.063856 0.638557,-0.063856 z M 45.681989,4.656467 Q 45.623939,4.5171456 45.525253,4.3023583 45.432372,4.0875711 45.322075,3.8379535 45.211779,3.588336 45.084068,3.3271083 44.962162,3.0600755 44.851866,2.8278731 44.741569,2.5898657 44.642883,2.4041038 q -0.09288,-0.185762 -0.150931,-0.284448 -0.06386,0.6849971 -0.104491,1.4860954 -0.04064,0.7952932 -0.06966,1.6080015 H 43.76632 Q 43.78954,4.6912974 43.81857,4.1630369 43.84759,3.6289714 43.88243,3.1181261 43.92307,2.6014758 43.9637,2.1138508 44.01014,1.6262257 44.06239,1.1908462 h 0.493431 q 0.156736,0.2554227 0.336693,0.6037263 0.179957,0.3483036 0.359914,0.7314375 0.179957,0.3773289 0.348303,0.7604629 0.168347,0.3773289 0.307668,0.6908021 0.139322,-0.3134732 0.307669,-0.6908021 0.168346,-0.383134 0.348303,-0.7604629 0.179957,-0.3831339 0.359914,-0.7314375 0.179957,-0.3483036 0.336693,-0.6037263 h 0.493431 q 0.197372,1.9446951 0.296058,4.0229065 h -0.551481 q -0.02902,-0.8127083 -0.06966,-1.6080015 -0.04064,-0.8010983 -0.104491,-1.4860954 -0.05805,0.098686 -0.156737,0.284448 -0.09288,0.1857619 -0.203177,0.4237693 -0.11031,0.2322024 -0.238021,0.4992352 -0.121906,0.2612277 -0.232202,0.5108452 -0.110297,0.2496176 -0.208983,0.4644048 -0.09288,0.2147873 -0.150931,0.3541087 z m 3.755876,0.5572857 h -0.53987 V 2.1951216 h 0.53987 z M 49.165027,1.649446 q -0.145126,0 -0.249617,-0.092881 -0.09869,-0.098686 -0.09869,-0.2612277 0,-0.1625417 0.09869,-0.2554226 0.104491,-0.098686 0.249617,-0.098686 0.145127,0 0.243813,0.098686 0.104491,0.092881 0.104491,0.2554226 0,0.1625417 -0.104491,0.2612277 -0.09869,0.092881 -0.243813,0.092881 z M 52.17205,5.2137527 Q 52.108194,5.0860414 52.015313,4.9293048 51.922432,4.7725682 51.812136,4.6100265 51.70184,4.4416798 51.585739,4.2791381 51.469637,4.1165964 51.359341,3.9714699 51.249045,4.1165964 51.132944,4.2849432 51.016843,4.4474848 50.906547,4.6158316 50.802056,4.7783733 50.709175,4.9351099 50.616294,5.0918465 50.552438,5.2137527 h -0.557286 q 0.203177,-0.394744 0.48182,-0.8010982 0.284448,-0.4121593 0.563091,-0.7836831 l -0.99847,-1.4338498 h 0.609531 l 0.719827,1.0565209 0.725633,-1.0565209 h 0.574701 l -0.97525,1.3990194 q 0.278643,0.3773289 0.568896,0.8010983 0.296058,0.4179643 0.499235,0.8185134 z m 0.870758,-1.5035105 q 0,-0.4005491 0.116101,-0.6966072 0.116101,-0.3018631 0.307668,-0.4992351 0.191567,-0.197372 0.441185,-0.2960581 0.249617,-0.098686 0.510845,-0.098686 0.609531,0 0.934615,0.383134 0.325083,0.3773289 0.325083,1.1552069 0,0.03483 0,0.092881 0,0.052246 -0.0058,0.098686 h -2.066601 q 0.03483,0.4702098 0.272838,0.7140223 0.238007,0.2438126 0.743047,0.2438126 0.284448,0 0.476015,-0.046441 0.197372,-0.052246 0.296058,-0.098686 l 0.07547,0.4527946 q -0.09869,0.052246 -0.348304,0.1102962 -0.243812,0.058051 -0.557285,0.058051 -0.394744,0 -0.684997,-0.1161012 Q 53.594289,5.045406 53.408527,4.8364239 53.222765,4.6274417 53.129884,4.3429938 53.042808,4.0527408 53.042808,3.7102422 Z m 2.072406,-0.296058 q 0.0058,-0.3657188 -0.185762,-0.5979212 -0.185762,-0.2380075 -0.51665,-0.2380075 -0.185762,0 -0.330888,0.075466 -0.139322,0.069661 -0.238008,0.1857619 -0.09869,0.1161012 -0.156736,0.2670328 -0.05225,0.1509316 -0.06966,0.3076682 z m 2.45554,-1.2829183 q 0.06966,0 0.156736,0.01161 0.09288,0.00581 0.179957,0.02322 0.08708,0.01161 0.156737,0.029025 0.07547,0.01161 0.110296,0.02322 L 58.0816,2.6885508 q -0.06386,-0.02322 -0.214787,-0.052246 -0.145127,-0.03483 -0.377329,-0.03483 -0.150932,0 -0.301863,0.03483 -0.145127,0.029025 -0.191567,0.040636 V 5.2137527 H 56.456182 V 2.3228329 q 0.191567,-0.069661 0.476015,-0.1277113 0.284448,-0.063856 0.638557,-0.063856 z"
       id="text19"
       aria-label="Color Mixer" /><path
       style="font-size:3.074px;line-height:125%;font-family:'Ubuntu Condensed';-inkscape-font-specification:'Ubuntu Condensed, ';letter-spacing:0px;word-spacing:0px;fill:#ffffff;stroke-width:0.0960623px"
       d="m 75.165693,8.2755663 v 0.236698 h -0.949866 v -2.130282 h 0.27666 v 1.893584 z m 0.577912,0.236698 h -0.264364 v -1.61385 h 0.264364 z m -0.132182,-1.899732 q -0.0707,0 -0.12296,-0.04611 -0.04918,-0.049184 -0.04918,-0.129108 0,-0.079924 0.04918,-0.126034 0.05226,-0.049184 0.12296,-0.049184 0.0707,0 0.119886,0.049184 0.05226,0.04611 0.05226,0.126034 0,0.079924 -0.05226,0.129108 -0.04918,0.04611 -0.119886,0.04611 z m 1.570815,1.853622 q 0,0.1721439 -0.04611,0.2889559 -0.04304,0.119886 -0.119886,0.193662 -0.07685,0.073776 -0.181366,0.10759 -0.101442,0.033814 -0.218254,0.033814 -0.09837,0 -0.196735,-0.021518 -0.09837,-0.021518 -0.181366,-0.064554 l 0.05533,-0.221328 q 0.05533,0.03074 0.135256,0.055332 0.07992,0.024592 0.165995,0.024592 0.150626,0 0.236698,-0.086072 0.08607,-0.086072 0.08607,-0.2951039 v -0.07685 q -0.04918,0.021518 -0.104516,0.036888 -0.05533,0.012296 -0.126034,0.012296 -0.288955,0 -0.424211,-0.196736 -0.132182,-0.19981 -0.132182,-0.562542 0,-0.193662 0.03381,-0.347362 0.03689,-0.156774 0.110664,-0.264364 0.07685,-0.110664 0.196736,-0.165996 0.119885,-0.058406 0.292029,-0.058406 0.113738,0 0.221328,0.024592 0.110664,0.021518 0.196736,0.058406 z m -0.264364,-1.35256 q -0.04304,-0.012296 -0.083,-0.01537 -0.03996,-0.00615 -0.07378,-0.00615 -0.18444,0 -0.270511,0.141404 -0.083,0.141404 -0.083,0.4611 0,0.288956 0.083,0.408842 0.083,0.116812 0.236697,0.116812 0.05226,0 0.09837,-0.012296 0.04918,-0.012296 0.09222,-0.033814 z m 0.740837,1.39867 v -2.339314 l 0.264364,-0.04611 v 0.780796 q 0.05841,-0.018444 0.126034,-0.03074 0.0707,-0.012296 0.141404,-0.012296 0.101442,0 0.190588,0.033814 0.08915,0.03074 0.1537,0.10759 0.06763,0.07685 0.104516,0.209032 0.03996,0.129108 0.03996,0.32277 v 0.974458 h -0.264364 v -0.95294 q 0,-0.239772 -0.06148,-0.350436 -0.06148,-0.110664 -0.23055,-0.110664 -0.08915,0 -0.19981,0.03074 v 1.3833 z m 1.727589,-1.61385 h 0.405768 v 0.227476 H 79.3863 v 0.888386 q 0,0.165996 0.05841,0.233624 0.06148,0.064554 0.162922,0.064554 0.05226,0 0.09837,-0.01537 0.04918,-0.01537 0.083,-0.036888 l 0.05226,0.212106 q -0.126034,0.073776 -0.267438,0.073776 -0.227476,0 -0.341214,-0.126034 -0.110664,-0.129108 -0.110664,-0.424212 v -1.530852 l 0.264364,-0.04611 z m 0.965234,1.426336 q 0.116812,0 0.175218,-0.064554 0.06148,-0.067628 0.06148,-0.175218 0,-0.067628 -0.02459,-0.113738 -0.02459,-0.049184 -0.06455,-0.086072 -0.03996,-0.036888 -0.09222,-0.064554 -0.05226,-0.03074 -0.104516,-0.064554 -0.05226,-0.03074 -0.101442,-0.070702 -0.04918,-0.043036 -0.08915,-0.095294 -0.03689,-0.055332 -0.06148,-0.12296 -0.02152,-0.070702 -0.02152,-0.162922 0,-0.19981 0.12296,-0.32277 0.126034,-0.12296 0.33814,-0.12296 0.08915,0 0.16907,0.024592 0.07992,0.021518 0.132182,0.049184 l -0.05841,0.212106 q -0.05533,-0.03074 -0.110664,-0.04611 -0.05533,-0.01537 -0.119886,-0.01537 -0.09837,0 -0.156774,0.058406 -0.05841,0.055332 -0.05841,0.162922 0,0.06148 0.02152,0.10759 0.02152,0.043036 0.05533,0.079924 0.03689,0.033814 0.07992,0.064554 0.04611,0.03074 0.09529,0.058406 0.05841,0.033814 0.113738,0.073776 0.05841,0.039962 0.101442,0.095294 0.04611,0.052258 0.07378,0.126034 0.02767,0.070702 0.02767,0.172144 0,0.212106 -0.126034,0.341214 -0.12296,0.129108 -0.362732,0.129108 -0.12296,0 -0.221328,-0.033814 -0.09837,-0.033814 -0.147552,-0.06148 l 0.05533,-0.218254 q 0.04611,0.024592 0.12296,0.055332 0.07992,0.03074 0.175218,0.03074 z"
       id="text20"
       aria-label="Lights" /><g
       id="text23"
       style="font-size:2.67087px;line-height:125%;letter-spacing:0px;word-spacing:0px;fill:#ffffff;stroke-width:0.0834646px"
       aria-label="All&#10;2&#10;1"
       transform="translate(-1.0583333)"><path
         style="font-family:'Ubuntu Condensed';-inkscape-font-specification:'Ubuntu Condensed, '"
         d="m 82.130011,9.8410254 q 0.0641,0.2003156 0.125531,0.4059726 0.0641,0.202986 0.12286,0.427339 0.06143,0.224353 0.120189,0.475415 0.06143,0.251062 0.12286,0.542186 h -0.240378 q -0.02137,-0.120189 -0.04541,-0.237707 -0.02137,-0.117518 -0.04541,-0.235037 h -0.582249 q -0.02671,0.117519 -0.04808,0.235037 -0.02137,0.117518 -0.04273,0.237707 h -0.232366 q 0.05876,-0.291124 0.120189,-0.542186 0.06143,-0.251062 0.12019,-0.475415 0.06143,-0.224353 0.12286,-0.427339 0.0641,-0.205657 0.128201,-0.4059726 z m -0.130873,0.2724286 q -0.06677,0.221682 -0.128201,0.446035 -0.06143,0.224354 -0.117519,0.45939 h 0.48877 q -0.05342,-0.235036 -0.114848,-0.45939 -0.06143,-0.224353 -0.128202,-0.446035 z m 1.247297,1.605193 q -0.197644,-0.0053 -0.283112,-0.09615 -0.08547,-0.09348 -0.08547,-0.293796 V 9.6594063 l 0.229695,-0.040063 v 1.7146987 q 0,0.09348 0.03739,0.136214 0.03739,0.04006 0.130873,0.05609 z m 0.649022,0 q -0.197645,-0.0053 -0.283112,-0.09615 -0.08547,-0.09348 -0.08547,-0.293796 V 9.6594063 l 0.229695,-0.040063 v 1.7146987 q 0,0.09348 0.03739,0.136214 0.03739,0.04006 0.130872,0.05609 z"
         id="path35" /><path
         style="font-family:'Ubuntu Condensed';-inkscape-font-specification:'Ubuntu Condensed, '"
         d="m 81.448939,13.354868 q 0.157582,-0.157582 0.384605,-0.157582 0.216341,0 0.331188,0.114848 0.114848,0.112176 0.114848,0.352554 0,0.112177 -0.03739,0.21367 -0.03739,0.101493 -0.09348,0.197644 -0.05609,0.09348 -0.12286,0.186961 -0.06677,0.09348 -0.128202,0.192303 -0.06143,0.09615 -0.106834,0.202986 -0.04541,0.104164 -0.05609,0.224353 h 0.58225 v 0.208328 h -0.82797 v -0.05075 q 0,-0.178949 0.04006,-0.317834 0.04273,-0.138885 0.101493,-0.251062 0.06143,-0.112176 0.133544,-0.208328 0.07211,-0.09615 0.130872,-0.186961 0.06143,-0.09348 0.101494,-0.189631 0.04273,-0.09882 0.04273,-0.216341 0,-0.141556 -0.05609,-0.202986 -0.05609,-0.0641 -0.168265,-0.0641 -0.07746,0 -0.141556,0.03205 -0.06143,0.02938 -0.112176,0.07746 z"
         id="path36" /><path
         style="font-family:'Ubuntu Condensed';-inkscape-font-specification:'Ubuntu Condensed, '"
         d="m 81.518382,17.007595 q 0.05075,-0.02938 0.104164,-0.07211 0.05609,-0.04273 0.106835,-0.09081 0.05075,-0.05075 0.09348,-0.101493 0.04541,-0.05342 0.07478,-0.104164 h 0.176278 v 1.850913 h -0.229695 v -1.487675 q -0.04541,0.04808 -0.106835,0.09081 -0.05876,0.04273 -0.125531,0.08013 z"
         id="path37" /></g><path
       style="font-size:3.074px;line-height:125%;font-family:'Ubuntu Condensed';-inkscape-font-specification:'Ubuntu Condensed, ';letter-spacing:0px;word-spacing:0px;fill:#ffffff;stroke-width:0.0960623px"
       d="m 74.901329,21.575876 q -0.375028,0 -0.574838,-0.279734 -0.19981,-0.279734 -0.19981,-0.863794 0,-0.298178 0.05533,-0.504136 0.05841,-0.205958 0.159848,-0.335066 0.101442,-0.129108 0.239772,-0.18444 0.13833,-0.05841 0.301252,-0.05841 0.135256,0 0.252068,0.03689 0.116812,0.03381 0.190588,0.08607 l -0.083,0.23055 q -0.07378,-0.04918 -0.159848,-0.07992 -0.083,-0.03074 -0.193662,-0.03074 -0.24592,0 -0.356584,0.205958 -0.110664,0.202884 -0.110664,0.633244 0,0.433434 0.116812,0.667058 0.116812,0.233624 0.381176,0.233624 0.126034,0 0.202884,-0.03074 0.07992,-0.03074 0.1537,-0.07992 l 0.07685,0.218254 q -0.0707,0.05533 -0.187514,0.09529 -0.113738,0.03996 -0.264364,0.03996 z m 1.155824,-0.01537 q -0.227476,-0.0061 -0.325844,-0.110664 -0.09837,-0.10759 -0.09837,-0.33814 v -1.92125 l 0.264364,-0.04611 v 1.973508 q 0,0.10759 0.04304,0.156774 0.04304,0.04611 0.150626,0.06455 z m 0.35351,-1.610776 q 0.07992,-0.03381 0.16907,-0.05226 0.08915,-0.02152 0.193662,-0.02152 0.21518,0 0.350436,0.135256 0.135256,0.132182 0.135256,0.41499 v 1.069752 q -0.110664,0.03074 -0.227476,0.04918 -0.113738,0.01844 -0.224402,0.01844 -0.110664,0 -0.209032,-0.02767 -0.09529,-0.02767 -0.16907,-0.08915 -0.0707,-0.06148 -0.113738,-0.1537 -0.04304,-0.09529 -0.04304,-0.23055 0,-0.126034 0.03689,-0.218254 0.03996,-0.09529 0.10759,-0.156774 0.06763,-0.06455 0.159848,-0.09529 0.09222,-0.03381 0.19981,-0.03381 0.101442,0 0.224402,0.02459 v -0.147552 q 0,-0.178292 -0.0707,-0.248994 -0.06763,-0.0707 -0.196736,-0.0707 -0.0707,0 -0.135256,0.01537 -0.06148,0.0123 -0.132182,0.04304 z m 0.126034,1.109714 q 0,0.141404 0.07378,0.209032 0.07378,0.06763 0.209032,0.06763 0.083,0 0.181366,-0.02152 v -0.513358 q -0.09222,-0.02459 -0.181366,-0.02459 -0.05841,0 -0.110664,0.01537 -0.05226,0.0123 -0.09222,0.04611 -0.03689,0.03074 -0.05841,0.08607 -0.02152,0.05226 -0.02152,0.135256 z m 1.18349,-1.097418 q 0.10759,-0.03381 0.233624,-0.05533 0.126034,-0.02459 0.23055,-0.02459 0.10759,0 0.193662,0.02767 0.08915,0.02767 0.156774,0.09222 0.07992,-0.05226 0.172144,-0.08607 0.09222,-0.03381 0.202884,-0.03381 0.110664,0 0.19981,0.03381 0.09222,0.03074 0.156774,0.10759 0.06455,0.07685 0.101442,0.209032 0.03689,0.129108 0.03689,0.32277 v 0.974458 h -0.264364 v -0.95294 q 0,-0.239772 -0.05533,-0.350436 -0.05533,-0.110664 -0.209032,-0.110664 -0.05841,0 -0.119886,0.02152 -0.05841,0.02152 -0.110664,0.05841 0.02459,0.0707 0.03689,0.159848 0.0123,0.08915 0.0123,0.19981 v 0.974458 h -0.264364 v -0.95294 q 0,-0.239772 -0.05533,-0.350436 -0.05533,-0.110664 -0.209032,-0.110664 -0.07992,0 -0.181366,0.03074 v 1.3833 h -0.264364 z m 2.406942,1.324894 q 0.08915,0.04918 0.190588,0.04918 0.07685,0 0.135256,-0.03074 0.05841,-0.03074 0.09837,-0.101442 0.04304,-0.0707 0.06455,-0.187514 0.02152,-0.116812 0.02152,-0.288956 0,-0.331992 -0.08607,-0.473396 -0.083,-0.144478 -0.267438,-0.144478 -0.03381,0 -0.07378,0.0061 -0.03996,0.0031 -0.083,0.01537 z m 0,0.811536 h -0.264364 v -2.139504 q 0.08607,-0.03689 0.193662,-0.05841 0.110664,-0.02459 0.224402,-0.02459 0.16907,0 0.288956,0.05841 0.12296,0.05841 0.196736,0.16907 0.07685,0.10759 0.110664,0.267438 0.03689,0.156774 0.03689,0.359658 0,0.408842 -0.132182,0.624022 -0.129108,0.21518 -0.424212,0.21518 -0.0707,0 -0.126034,-0.01537 -0.05533,-0.0123 -0.104516,-0.03689 z"
       id="text24"
       aria-label="Clamp" /><g
       id="text27"
       style="font-size:2.67087px;line-height:125%;letter-spacing:0px;word-spacing:0px;fill:#ffffff;stroke-width:0.0834646px"
       aria-label="All&#10;End&#10;Off"
       transform="translate(-1.0583333)"><path
         style="font-family:'Ubuntu Condensed';-inkscape-font-specification:'Ubuntu Condensed, '"
         d="m 82.130011,22.858529 q 0.0641,0.200315 0.125531,0.405972 0.0641,0.202987 0.12286,0.42734 0.06143,0.224353 0.120189,0.475415 0.06143,0.251061 0.12286,0.542186 h -0.240378 q -0.02137,-0.120189 -0.04541,-0.237707 -0.02137,-0.117519 -0.04541,-0.235037 h -0.582249 q -0.02671,0.117518 -0.04808,0.235037 -0.02137,0.117518 -0.04273,0.237707 h -0.232366 q 0.05876,-0.291125 0.120189,-0.542186 0.06143,-0.251062 0.12019,-0.475415 0.06143,-0.224353 0.12286,-0.42734 0.0641,-0.205657 0.128201,-0.405972 z m -0.130873,0.272429 q -0.06677,0.221682 -0.128201,0.446035 -0.06143,0.224353 -0.117519,0.45939 h 0.48877 Q 82.18877,23.801346 82.12734,23.576993 82.06591,23.35264 81.999138,23.130958 Z m 1.247297,1.605193 q -0.197644,-0.0053 -0.283112,-0.09615 -0.08547,-0.09348 -0.08547,-0.293796 V 22.67691 l 0.229695,-0.04006 v 1.714699 q 0,0.09348 0.03739,0.136214 0.03739,0.04006 0.130873,0.05609 z m 0.649022,0 q -0.197645,-0.0053 -0.283112,-0.09615 -0.08547,-0.09348 -0.08547,-0.293796 V 22.67691 l 0.229695,-0.04006 v 1.714699 q 0,0.09348 0.03739,0.136214 0.03739,0.04006 0.130872,0.05609 z"
         id="path38" /><path
         style="font-family:'Ubuntu Condensed';-inkscape-font-specification:'Ubuntu Condensed, '"
         d="m 81.555774,28.108437 v -1.850913 h 0.830641 v 0.205657 h -0.590263 v 0.574237 h 0.534174 v 0.200315 h -0.534174 v 0.665047 h 0.632996 v 0.205657 z m 1.20189,-1.362144 q 0.09882,-0.02938 0.213669,-0.04808 0.114848,-0.02137 0.210999,-0.02137 0.104164,0 0.189632,0.02938 0.08547,0.02671 0.144227,0.09348 0.06143,0.06677 0.09348,0.18162 0.03472,0.112176 0.03472,0.280441 v 0.846666 h -0.229695 v -0.82797 q 0,-0.208328 -0.05342,-0.304479 -0.05342,-0.09615 -0.200315,-0.09615 -0.07746,0 -0.173606,0.02671 v 1.201892 H 82.75766 Z m 1.890977,0.170936 q -0.07746,-0.04273 -0.165594,-0.04273 -0.06677,0 -0.117519,0.02671 -0.05075,0.02671 -0.08814,0.08814 -0.03472,0.06143 -0.05342,0.162923 -0.0187,0.101493 -0.0187,0.251062 0,0.288454 0.07479,0.413985 0.07746,0.12286 0.232365,0.12286 0.02938,0 0.0641,-0.0027 0.03472,-0.0053 0.07211,-0.01603 z m 0,-0.841324 0.229694,-0.04006 v 2.035203 q -0.07478,0.03205 -0.170935,0.05075 -0.09615,0.02137 -0.194974,0.02137 -0.288454,0 -0.419326,-0.18429 -0.128202,-0.18429 -0.128202,-0.555541 0,-0.168265 0.02671,-0.301808 0.02938,-0.136215 0.08814,-0.229695 0.06143,-0.09615 0.154911,-0.146898 0.09348,-0.05342 0.221682,-0.05342 0.06143,0 0.104164,0.01335 0.04541,0.01068 0.08814,0.03205 z"
         id="path39" /><path
         style="font-family:'Ubuntu Condensed';-inkscape-font-specification:'Ubuntu Condensed, '"
         d="m 82.797729,30.58331 q 0,0.216341 -0.04006,0.395289 -0.03739,0.176278 -0.12019,0.304479 -0.08013,0.125531 -0.205657,0.194974 -0.12286,0.06944 -0.291124,0.06944 -0.168265,0 -0.293796,-0.06944 -0.12286,-0.06944 -0.205657,-0.194974 -0.08013,-0.128201 -0.120189,-0.304479 -0.04006,-0.178948 -0.04006,-0.395289 0,-0.21634 0.04006,-0.395288 0.04006,-0.178949 0.120189,-0.304479 0.0828,-0.128202 0.205657,-0.197645 0.125531,-0.07211 0.293796,-0.07211 0.168264,0 0.291124,0.07211 0.125531,0.06944 0.205657,0.197645 0.0828,0.12553 0.12019,0.304479 0.04006,0.178948 0.04006,0.395288 z m -0.256404,0 q 0,-0.168264 -0.02137,-0.30715 -0.02137,-0.138885 -0.06944,-0.237707 -0.04807,-0.101493 -0.12553,-0.157581 -0.07478,-0.05609 -0.18429,-0.05609 -0.109506,0 -0.186961,0.05609 -0.07478,0.05609 -0.12286,0.157581 -0.04808,0.09882 -0.07211,0.237707 -0.02137,0.138886 -0.02137,0.30715 0,0.168265 0.02137,0.307151 0.02404,0.138885 0.07211,0.237707 0.04808,0.09882 0.12286,0.15491 0.07746,0.05342 0.186961,0.05342 0.109505,0 0.18429,-0.05342 0.07746,-0.05609 0.12553,-0.15491 0.04808,-0.09882 0.06944,-0.237707 0.02137,-0.138886 0.02137,-0.307151 z m 1.022942,-1.148474 q 0.07746,0 0.136214,0.01603 0.05876,0.01602 0.09615,0.03472 l -0.04808,0.181619 q -0.03739,-0.0187 -0.07746,-0.02671 -0.04006,-0.01068 -0.08547,-0.01068 -0.06143,0 -0.101493,0.02137 -0.04006,0.02137 -0.06143,0.05876 -0.02137,0.03739 -0.02938,0.09081 -0.008,0.05075 -0.008,0.109505 v 0.194974 h 0.360567 v 0.197644 h -0.360567 v 1.204563 H 83.155623 V 29.91026 q 0,-0.227024 0.101493,-0.349884 0.101493,-0.125531 0.30715,-0.125531 z m 0.817286,0 q 0.07746,0 0.136215,0.01603 0.05876,0.01602 0.09615,0.03472 l -0.04808,0.181619 q -0.03739,-0.0187 -0.07746,-0.02671 -0.04006,-0.01068 -0.08547,-0.01068 -0.06143,0 -0.101493,0.02137 -0.04006,0.02137 -0.06143,0.05876 -0.02137,0.03739 -0.02938,0.09081 -0.008,0.05075 -0.008,0.109505 v 0.194974 h 0.360567 v 0.197644 h -0.360567 v 1.204563 H 83.97291 V 29.91026 q 0,-0.227024 0.101493,-0.349884 0.101493,-0.125531 0.30715,-0.125531 z"
         id="path40" /></g><g
       id="text32"
       style="font-size:3.33017px;line-height:100%;letter-spacing:0px;word-spacing:0px;fill:none;stroke:#000000;stroke-width:0.104068px"
       aria-label="Normal&#10;Addition&#10;Multiply&#10;Screen&#10;Overlay"><path
         style="line-height:100%;font-family:'Ubuntu Condensed';-inkscape-font-specification:'Ubuntu Condensed, ';text-align:center;text-anchor:middle;fill:#d52bed;stroke:none"
         d="m 75.578005,36.309998 q -0.07992,-0.19648 -0.183159,-0.422932 -0.09991,-0.229782 -0.213131,-0.459563 -0.109896,-0.233112 -0.226452,-0.459564 -0.116556,-0.229782 -0.229781,-0.426262 v 1.768321 H 74.445747 V 34.00219 h 0.249763 q 0.126547,0.20647 0.243103,0.422931 0.119886,0.216461 0.226451,0.429592 0.106566,0.209801 0.19981,0.416272 0.09658,0.20314 0.176499,0.386299 V 34.00219 h 0.279735 v 2.307808 z m 1.904855,-0.872505 q 0,0.206471 -0.03663,0.376309 -0.03663,0.166509 -0.113225,0.286395 -0.07326,0.119886 -0.18982,0.186489 -0.113226,0.0666 -0.269744,0.0666 -0.156518,0 -0.273074,-0.0666 -0.116556,-0.0666 -0.19315,-0.186489 -0.07326,-0.119886 -0.109895,-0.286395 -0.03663,-0.169838 -0.03663,-0.376309 0,-0.20314 0.03663,-0.372979 0.03663,-0.169839 0.109895,-0.289725 0.07659,-0.123216 0.19315,-0.189819 0.116556,-0.0666 0.273074,-0.0666 0.156518,0 0.269744,0.0666 0.116556,0.0666 0.18982,0.189819 0.07659,0.119886 0.113225,0.289725 0.03663,0.169839 0.03663,0.372979 z m -0.299715,0 q 0,-0.146527 -0.01665,-0.266414 -0.01665,-0.123216 -0.05328,-0.2098 -0.03663,-0.08991 -0.09658,-0.136537 -0.05994,-0.04995 -0.143197,-0.04995 -0.08658,0 -0.146527,0.04995 -0.05661,0.04662 -0.09658,0.136537 -0.03663,0.08658 -0.05328,0.2098 -0.01665,0.119887 -0.01665,0.266414 0,0.146528 0.01665,0.269744 0.01665,0.119886 0.05328,0.20647 0.03996,0.08658 0.09658,0.136537 0.05994,0.04662 0.146527,0.04662 0.08325,0 0.143197,-0.04662 0.05994,-0.04995 0.09658,-0.136537 0.03663,-0.08658 0.05328,-0.20647 0.01665,-0.123216 0.01665,-0.269744 z m 1.475263,-0.616081 q -0.106565,-0.04662 -0.239772,-0.04662 -0.123216,0 -0.229782,0.04329 v 1.491917 h -0.286395 v -1.671746 q 0.09658,-0.04662 0.219792,-0.07659 0.126546,-0.0333 0.276404,-0.0333 0.07992,0 0.159848,0.01 0.07992,0.01 0.149858,0.03663 z m 0.336344,-0.209801 q 0.116556,-0.03663 0.253093,-0.05994 0.136537,-0.02664 0.249763,-0.02664 0.116556,0 0.209801,0.02997 0.09658,0.02997 0.169838,0.0999 0.08658,-0.05661 0.18649,-0.09324 0.0999,-0.03663 0.219791,-0.03663 0.119886,0 0.216461,0.03663 0.09991,0.0333 0.169839,0.116556 0.06993,0.08326 0.109895,0.226452 0.03996,0.139867 0.03996,0.349668 v 1.055664 h -0.286394 v -1.032353 q 0,-0.259753 -0.05994,-0.379639 -0.05994,-0.119887 -0.226452,-0.119887 -0.06327,0 -0.129876,0.02331 -0.06327,0.02331 -0.119887,0.06327 0.02664,0.07659 0.03996,0.173169 0.01332,0.09658 0.01332,0.216461 v 1.055664 H 79.76402 v -1.032353 q 0,-0.259753 -0.05994,-0.379639 -0.05994,-0.119887 -0.226451,-0.119887 -0.08658,0 -0.19648,0.0333 v 1.498577 h -0.286395 z m 2.3511,-0.01332 q 0.08658,-0.03663 0.183159,-0.05661 0.09658,-0.02331 0.209801,-0.02331 0.233112,0 0.379639,0.146528 0.146528,0.143197 0.146528,0.449573 v 1.158899 q -0.119886,0.0333 -0.246433,0.05328 -0.123216,0.01998 -0.243102,0.01998 -0.119886,0 -0.226452,-0.02997 -0.103235,-0.02997 -0.183159,-0.09657 -0.07659,-0.0666 -0.123217,-0.166509 -0.04662,-0.103235 -0.04662,-0.249762 0,-0.136537 0.03996,-0.236442 0.04329,-0.103236 0.116556,-0.169839 0.07326,-0.06993 0.173169,-0.103235 0.0999,-0.03663 0.216461,-0.03663 0.109896,0 0.243102,0.02664 v -0.159848 q 0,-0.19315 -0.07659,-0.269744 -0.07326,-0.07659 -0.21313,-0.07659 -0.07659,0 -0.146528,0.01665 -0.0666,0.01332 -0.143197,0.04662 z m 0.136537,1.202192 q 0,0.153187 0.07992,0.226451 0.07992,0.07326 0.226451,0.07326 0.08992,0 0.19648,-0.02331 v -0.556139 q -0.0999,-0.02664 -0.19648,-0.02664 -0.06327,0 -0.119886,0.01665 -0.05661,0.01332 -0.09991,0.04995 -0.03996,0.0333 -0.06327,0.09324 -0.02331,0.05661 -0.02331,0.146528 z M 83.217408,36.3433 Q 82.970975,36.3366 82.86441,36.223414 82.757844,36.106858 82.757844,35.857095 v -2.081356 l 0.286395,-0.04995 v 2.137969 q 0,0.116556 0.04662,0.169838 0.04662,0.04995 0.163179,0.06993 z"
         id="path41" /><path
         style="line-height:100%;font-family:'Ubuntu Condensed';-inkscape-font-specification:'Ubuntu Condensed, ';text-align:center;text-anchor:middle;fill:#29b2ef;stroke:none"
         d="m 74.429089,37.407678 q 0.07992,0.249763 0.156518,0.506186 0.07992,0.253093 0.153188,0.532827 0.07659,0.279735 0.149858,0.59277 0.07659,0.313036 0.153188,0.676025 h -0.299716 q -0.02664,-0.149858 -0.05661,-0.296385 -0.02664,-0.146528 -0.05661,-0.293055 h -0.725977 q -0.0333,0.146527 -0.05994,0.293055 -0.02664,0.146527 -0.05328,0.296385 h -0.289725 q 0.07326,-0.362989 0.149858,-0.676025 0.07659,-0.313035 0.149857,-0.59277 0.07659,-0.279734 0.153188,-0.532827 0.07992,-0.256423 0.159848,-0.506186 z m -0.163178,0.339678 q -0.08325,0.276404 -0.159848,0.556138 -0.07659,0.279734 -0.146528,0.572789 h 0.609421 q -0.0666,-0.293055 -0.143197,-0.572789 -0.07659,-0.279734 -0.159848,-0.556138 z m 1.854905,0.482874 q -0.09657,-0.05328 -0.20647,-0.05328 -0.08325,0 -0.146528,0.0333 -0.06327,0.0333 -0.109895,0.109896 -0.04329,0.07659 -0.0666,0.20314 -0.02331,0.126547 -0.02331,0.313036 0,0.359658 0.09324,0.516176 0.09658,0.153188 0.289725,0.153188 0.03663,0 0.07992,-0.0033 0.04329,-0.0067 0.08991,-0.01998 z m 0,-1.049003 0.286395,-0.04995 v 2.53759 q -0.09325,0.03996 -0.213131,0.06327 -0.119886,0.02664 -0.243102,0.02664 -0.359659,0 -0.522837,-0.229782 -0.159848,-0.229781 -0.159848,-0.692675 0,-0.209801 0.0333,-0.376309 0.03663,-0.169839 0.109895,-0.286395 0.07659,-0.119886 0.19315,-0.183159 0.116556,-0.0666 0.276404,-0.0666 0.07659,0 0.129877,0.01665 0.05661,0.01332 0.109895,0.03996 z m 1.555193,1.049003 q -0.09657,-0.05328 -0.20647,-0.05328 -0.08325,0 -0.146528,0.0333 -0.06327,0.0333 -0.109896,0.109896 -0.04329,0.07659 -0.0666,0.20314 -0.02331,0.126547 -0.02331,0.313036 0,0.359658 0.09325,0.516176 0.09658,0.153188 0.289724,0.153188 0.03663,0 0.07992,-0.0033 0.04329,-0.0067 0.08991,-0.01998 z m 0,-1.049003 0.286395,-0.04995 v 2.53759 q -0.09325,0.03996 -0.213131,0.06327 -0.119886,0.02664 -0.243103,0.02664 -0.359658,0 -0.522836,-0.229782 -0.159848,-0.229781 -0.159848,-0.692675 0,-0.209801 0.0333,-0.376309 0.03663,-0.169839 0.109896,-0.286395 0.07659,-0.119886 0.19315,-0.183159 0.116556,-0.0666 0.276404,-0.0666 0.07659,0 0.129876,0.01665 0.05661,0.01332 0.109896,0.03996 z m 1.088969,2.534259 h -0.286395 v -1.748339 h 0.286395 z M 78.62178,37.657441 q -0.07659,0 -0.133206,-0.04995 -0.05328,-0.05328 -0.05328,-0.139867 0,-0.08658 0.05328,-0.136537 0.05661,-0.05328 0.133206,-0.05328 0.07659,0 0.129877,0.05328 0.05661,0.04995 0.05661,0.136537 0,0.08658 -0.05661,0.139867 -0.05328,0.04995 -0.129877,0.04995 z m 0.92912,0.309706 h 0.439583 v 0.246432 H 79.5509 v 0.962419 q 0,0.17983 0.06327,0.253093 0.0666,0.06993 0.176499,0.06993 0.05661,0 0.106566,-0.01665 0.05328,-0.01665 0.08991,-0.03996 l 0.05661,0.229782 q -0.136537,0.07992 -0.289724,0.07992 -0.246433,0 -0.369649,-0.136537 -0.119886,-0.139867 -0.119886,-0.459564 V 37.497593 L 79.5509,37.44764 Z m 1.088962,1.748339 h -0.286394 v -1.748339 h 0.286394 z m -0.143197,-2.058045 q -0.07659,0 -0.133207,-0.04995 -0.05328,-0.05328 -0.05328,-0.139867 0,-0.08658 0.05328,-0.136537 0.05661,-0.05328 0.133207,-0.05328 0.07659,0 0.129877,0.05328 0.05661,0.04995 0.05661,0.136537 0,0.08658 -0.05661,0.139867 -0.05328,0.04995 -0.129877,0.04995 z m 1.784973,1.18554 q 0,0.206471 -0.03663,0.37631 -0.03663,0.166508 -0.113226,0.286394 -0.07326,0.119886 -0.18982,0.18649 -0.113226,0.0666 -0.269744,0.0666 -0.156518,0 -0.273074,-0.0666 -0.116556,-0.0666 -0.193149,-0.18649 -0.07326,-0.119886 -0.109896,-0.286394 -0.03663,-0.169839 -0.03663,-0.37631 0,-0.20314 0.03663,-0.372979 0.03663,-0.169838 0.109896,-0.289724 0.07659,-0.123217 0.193149,-0.18982 0.116556,-0.0666 0.273074,-0.0666 0.156518,0 0.269744,0.0666 0.116556,0.0666 0.18982,0.18982 0.07659,0.119886 0.113226,0.289724 0.03663,0.169839 0.03663,0.372979 z m -0.299715,0 q 0,-0.146527 -0.01665,-0.266413 -0.01665,-0.123216 -0.05328,-0.209801 -0.03663,-0.08991 -0.09658,-0.136537 -0.05994,-0.04995 -0.143198,-0.04995 -0.08658,0 -0.146527,0.04995 -0.05661,0.04662 -0.09658,0.136537 -0.03663,0.08658 -0.05328,0.209801 -0.01665,0.119886 -0.01665,0.266413 0,0.146528 0.01665,0.269744 0.01665,0.119886 0.05328,0.206471 0.03996,0.08658 0.09658,0.136537 0.05994,0.04662 0.146527,0.04662 0.08325,0 0.143198,-0.04662 0.05994,-0.04995 0.09658,-0.136537 0.03663,-0.08658 0.05328,-0.206471 0.01665,-0.123216 0.01665,-0.269744 z m 0.719314,-0.825882 q 0.123217,-0.03663 0.266414,-0.05994 0.143197,-0.02664 0.263084,-0.02664 0.129876,0 0.236442,0.03663 0.106565,0.0333 0.179829,0.116556 0.07659,0.08325 0.116556,0.226451 0.04329,0.139867 0.04329,0.349668 v 1.055664 h -0.286395 v -1.032353 q 0,-0.259753 -0.0666,-0.379639 -0.0666,-0.119886 -0.249763,-0.119886 -0.09658,0 -0.216461,0.0333 v 1.498576 h -0.286395 z"
         id="path42" /><path
         style="line-height:100%;font-family:'Ubuntu Condensed';-inkscape-font-specification:'Ubuntu Condensed, ';text-align:center;text-anchor:middle;fill:#90c73e;stroke:none"
         d="m 74.638892,42.801278 q -0.0666,-0.239772 -0.136537,-0.459563 -0.06993,-0.219792 -0.136537,-0.412941 -0.06327,-0.19648 -0.123216,-0.356329 -0.05994,-0.159848 -0.109896,-0.279734 -0.01332,0.18982 -0.02331,0.419602 -0.0067,0.226451 -0.01665,0.466223 -0.0067,0.239773 -0.01332,0.482875 -0.0033,0.239772 -0.0067,0.459563 h -0.286394 q 0.01,-0.299715 0.01998,-0.60276 0.01,-0.306376 0.02331,-0.599431 0.01665,-0.296385 0.0333,-0.576119 0.01998,-0.279735 0.04329,-0.529497 h 0.296385 q 0.05994,0.143197 0.136537,0.343007 0.07659,0.19648 0.153188,0.412941 0.07992,0.216461 0.153188,0.432922 0.07326,0.216461 0.126546,0.396291 0.05328,-0.17983 0.123216,-0.396291 0.06993,-0.216461 0.146528,-0.432922 0.07659,-0.216461 0.149857,-0.412941 0.07659,-0.19981 0.136537,-0.343007 h 0.296385 q 0.02331,0.249762 0.03996,0.529497 0.01998,0.279734 0.0333,0.576119 0.01665,0.293055 0.02664,0.599431 0.01,0.303045 0.01998,0.60276 h -0.286395 q -0.0067,-0.219791 -0.01332,-0.462893 -0.0033,-0.243103 -0.01332,-0.486205 -0.0067,-0.246433 -0.01665,-0.476214 -0.01,-0.233112 -0.02331,-0.426262 -0.02997,0.08325 -0.07659,0.209801 -0.04329,0.123216 -0.09324,0.269743 -0.04662,0.146528 -0.0999,0.303046 -0.04995,0.153188 -0.09658,0.296385 -0.04329,0.143197 -0.07992,0.263083 -0.0333,0.116556 -0.05328,0.18982 z m 2.660808,0.269744 q -0.04329,0.01665 -0.106565,0.0333 -0.05994,0.01332 -0.129877,0.02331 -0.0666,0.01332 -0.136537,0.01998 -0.0666,0.01 -0.123216,0.01 -0.136537,0 -0.249763,-0.0333 -0.113226,-0.02997 -0.19315,-0.109896 -0.07992,-0.07992 -0.123216,-0.216461 -0.04329,-0.139867 -0.04329,-0.349668 v -1.075645 h 0.286394 v 1.065655 q 0,0.256423 0.07659,0.362988 0.07992,0.103235 0.239773,0.103235 0.05328,0 0.106565,-0.0033 0.05328,-0.0067 0.109896,-0.02331 V 41.372635 H 77.2997 Z m 0.969078,0.08325 q -0.246432,-0.0067 -0.352998,-0.119886 -0.106565,-0.116556 -0.106565,-0.366319 v -2.081356 l 0.286394,-0.04995 v 2.137969 q 0,0.116556 0.04662,0.169838 0.04662,0.04995 0.163178,0.06993 z m 0.622742,-1.781641 h 0.439583 v 0.246433 H 78.89152 v 0.962419 q 0,0.179829 0.06327,0.253093 0.0666,0.06993 0.176499,0.06993 0.05661,0 0.106566,-0.01665 0.05328,-0.01665 0.08991,-0.03996 l 0.05661,0.229782 q -0.136537,0.07992 -0.289724,0.07992 -0.246433,0 -0.369649,-0.136537 -0.119886,-0.139867 -0.119886,-0.459563 v -1.658425 l 0.286394,-0.04995 z m 1.088963,1.748339 h -0.286395 v -1.748339 h 0.286395 z m -0.143197,-2.058045 q -0.07659,0 -0.133207,-0.04995 -0.05328,-0.05328 -0.05328,-0.139867 0,-0.08658 0.05328,-0.136537 0.05661,-0.05328 0.133207,-0.05328 0.07659,0 0.129876,0.05328 0.05661,0.04995 0.05661,0.136537 0,0.08658 -0.05661,0.139867 -0.05328,0.04995 -0.129876,0.04995 z m 0.94577,1.794962 q 0.09658,0.05328 0.20647,0.05328 0.08325,0 0.146528,-0.0333 0.06327,-0.0333 0.106565,-0.109896 0.04662,-0.07659 0.06993,-0.20314 0.02331,-0.126546 0.02331,-0.313036 0,-0.359658 -0.09324,-0.512846 -0.08992,-0.156518 -0.289725,-0.156518 -0.03663,0 -0.07992,0.0067 -0.04329,0.0033 -0.08991,0.01665 z m 0,0.879165 h -0.286395 v -2.317798 q 0.09324,-0.03996 0.209801,-0.06327 0.119886,-0.02664 0.243102,-0.02664 0.183159,0 0.313036,0.06327 0.133207,0.06327 0.213131,0.18316 0.08325,0.116555 0.119886,0.289724 0.03996,0.169839 0.03996,0.38963 0,0.442913 -0.143197,0.676025 -0.139867,0.233112 -0.459564,0.233112 -0.07659,0 -0.136537,-0.01665 -0.05994,-0.01332 -0.113225,-0.03996 z m 1.725031,-0.58278 q -0.246432,-0.0067 -0.352998,-0.119886 -0.106565,-0.116556 -0.106565,-0.366319 v -2.081356 l 0.286394,-0.04995 v 2.137969 q 0,0.116556 0.04662,0.169838 0.04662,0.04995 0.163178,0.06993 z m 0.759278,-0.39629 q 0.09658,-0.333017 0.176499,-0.669364 0.07992,-0.336347 0.153188,-0.715987 h 0.283065 q -0.04995,0.243103 -0.109896,0.479545 -0.05661,0.236442 -0.119886,0.456233 -0.05994,0.219791 -0.123216,0.416271 -0.05994,0.19315 -0.113226,0.352998 -0.06327,0.18649 -0.123216,0.313036 -0.05661,0.129877 -0.126547,0.206471 -0.0666,0.07992 -0.146527,0.113225 -0.07992,0.03663 -0.18982,0.03663 -0.05994,0 -0.119886,-0.01665 -0.05994,-0.01332 -0.09991,-0.02997 l 0.05328,-0.233112 q 0.08658,0.03663 0.163178,0.03663 0.09658,0 0.156518,-0.06993 0.05994,-0.06993 0.116556,-0.2098 l 0.0333,-0.08326 q -0.06327,-0.173168 -0.129877,-0.382969 -0.06327,-0.213131 -0.126547,-0.442913 -0.05994,-0.229781 -0.116556,-0.469554 -0.05661,-0.243102 -0.103235,-0.472884 h 0.303046 q 0.02664,0.156518 0.06327,0.343008 0.03663,0.186489 0.07659,0.372979 0.04329,0.186489 0.08658,0.362988 0.04329,0.173169 0.08325,0.306376 z"
         id="path43" /><path
         style="line-height:100%;font-family:'Ubuntu Condensed';-inkscape-font-specification:'Ubuntu Condensed, ';text-align:center;text-anchor:middle;fill:#ffd714;stroke:none"
         d="m 75.234991,46.319992 q 0.17983,0 0.276404,-0.0999 0.09991,-0.0999 0.09991,-0.269744 0,-0.08991 -0.02997,-0.159848 -0.02997,-0.06993 -0.07992,-0.126546 -0.04662,-0.05661 -0.109896,-0.103235 -0.06327,-0.04662 -0.129876,-0.09324 -0.07659,-0.05328 -0.159848,-0.113226 -0.08326,-0.05994 -0.153188,-0.139867 -0.0666,-0.07992 -0.109896,-0.18649 -0.04329,-0.106565 -0.04329,-0.249762 0,-0.139868 0.04662,-0.253093 0.04995,-0.113226 0.133207,-0.19315 0.08658,-0.07992 0.20314,-0.123216 0.119887,-0.04329 0.256424,-0.04329 0.133206,0 0.246432,0.0333 0.113226,0.0333 0.18982,0.07992 l -0.09324,0.236442 q -0.06993,-0.04662 -0.153188,-0.06993 -0.07992,-0.02664 -0.169838,-0.02664 -0.163179,0 -0.263084,0.08992 -0.09658,0.08658 -0.09658,0.256423 0,0.09324 0.02997,0.163178 0.0333,0.06993 0.08325,0.126547 0.05328,0.05661 0.119886,0.103235 0.06993,0.04662 0.146528,0.09657 0.07659,0.04995 0.156518,0.109895 0.07992,0.05994 0.143197,0.139868 0.0666,0.07659 0.106565,0.183159 0.04329,0.103235 0.04329,0.246433 0,0.129876 -0.03996,0.246432 -0.03996,0.116556 -0.126546,0.206471 -0.08325,0.08658 -0.213131,0.139867 -0.126546,0.04995 -0.299715,0.04995 -0.159848,0 -0.279734,-0.03663 -0.119887,-0.03663 -0.213131,-0.09657 l 0.09324,-0.239773 q 0.08658,0.05328 0.176499,0.08658 0.09324,0.02997 0.213131,0.02997 z m 1.625124,0.249763 q -0.17983,0 -0.299716,-0.06993 -0.119886,-0.06993 -0.19648,-0.189819 -0.07326,-0.123217 -0.106565,-0.289725 -0.02997,-0.166509 -0.02997,-0.362989 0,-0.432922 0.156518,-0.676024 0.159848,-0.246433 0.479545,-0.246433 0.09658,0 0.173169,0.02331 0.07659,0.02331 0.143197,0.05994 l -0.07326,0.236442 q -0.103235,-0.0666 -0.229782,-0.0666 -0.179829,0 -0.266413,0.163179 -0.08325,0.163178 -0.08325,0.506185 0,0.143198 0.01665,0.266414 0.01665,0.119886 0.05661,0.206471 0.04329,0.08658 0.109896,0.136537 0.06993,0.04995 0.176499,0.04995 0.07326,0 0.129877,-0.01665 0.05994,-0.01998 0.113225,-0.04995 l 0.06327,0.223121 q -0.05328,0.03663 -0.143198,0.0666 -0.08658,0.02997 -0.189819,0.02997 z m 1.398673,-1.531878 q -0.106565,-0.04662 -0.239772,-0.04662 -0.123216,0 -0.229782,0.04329 v 1.491916 h -0.286395 v -1.671746 q 0.09658,-0.04662 0.219792,-0.07659 0.126546,-0.0333 0.276404,-0.0333 0.07992,0 0.159848,0.01 0.07992,0.01 0.149858,0.03663 z m 0.499522,0.699336 q 0.0033,0.126546 0.02331,0.233111 0.01998,0.103236 0.06327,0.18316 0.04662,0.07659 0.119886,0.119886 0.07659,0.04329 0.19315,0.04329 0.09658,0 0.176499,-0.02664 0.08325,-0.02997 0.119886,-0.04995 l 0.05328,0.229782 q -0.04329,0.02997 -0.146527,0.06327 -0.09991,0.03663 -0.239773,0.03663 -0.183159,0 -0.309706,-0.0666 -0.123216,-0.0666 -0.20314,-0.18649 -0.07659,-0.119886 -0.109896,-0.286395 -0.0333,-0.166508 -0.0333,-0.366318 0,-0.482875 0.159848,-0.705996 0.159848,-0.223122 0.422932,-0.223122 0.296385,0 0.419601,0.223122 0.123216,0.223121 0.123216,0.626072 0,0.03663 0,0.07659 0,0.03663 -0.0033,0.07659 z m 0.289725,-0.759279 q -0.143198,0 -0.209801,0.143197 -0.06327,0.143197 -0.07659,0.38297 h 0.529497 q 0,-0.243103 -0.04995,-0.38297 -0.04995,-0.143197 -0.193149,-0.143197 z m 1.162231,0.759279 q 0.0033,0.126546 0.02331,0.233111 0.01998,0.103236 0.06327,0.18316 0.04662,0.07659 0.119886,0.119886 0.07659,0.04329 0.19315,0.04329 0.09658,0 0.176499,-0.02664 0.08325,-0.02997 0.119886,-0.04995 l 0.05328,0.229782 q -0.04329,0.02997 -0.146528,0.06327 -0.09991,0.03663 -0.239772,0.03663 -0.183159,0 -0.309706,-0.0666 -0.123216,-0.0666 -0.20314,-0.18649 -0.07659,-0.119886 -0.109896,-0.286395 -0.0333,-0.166508 -0.0333,-0.366318 0,-0.482875 0.159848,-0.705996 0.159848,-0.223122 0.422931,-0.223122 0.296385,0 0.419602,0.223122 0.123216,0.223121 0.123216,0.626072 0,0.03663 0,0.07659 0,0.03663 -0.0033,0.07659 z m 0.289725,-0.759279 q -0.143197,0 -0.2098,0.143197 -0.06327,0.143197 -0.07659,0.38297 h 0.529497 q 0,-0.243103 -0.04995,-0.38297 -0.04995,-0.143197 -0.19315,-0.143197 z m 0.965753,-0.149858 q 0.123216,-0.03663 0.266413,-0.05994 0.143198,-0.02664 0.263084,-0.02664 0.129876,0 0.236442,0.03663 0.106565,0.0333 0.179829,0.116556 0.07659,0.08325 0.116556,0.226451 0.04329,0.139867 0.04329,0.349668 v 1.055664 H 82.284965 V 45.49411 q 0,-0.259753 -0.0666,-0.379639 -0.0666,-0.119886 -0.249763,-0.119886 -0.09658,0 -0.216461,0.0333 v 1.498577 h -0.286394 z"
         id="path44" /><path
         style="line-height:100%;font-family:'Ubuntu Condensed';-inkscape-font-specification:'Ubuntu Condensed, ';text-align:center;text-anchor:middle;fill:#ed2c24;stroke:none"
         d="m 75.874389,48.779712 q 0,0.269744 -0.04995,0.492866 -0.04662,0.219791 -0.149858,0.379639 -0.0999,0.156518 -0.256423,0.243102 -0.153188,0.08658 -0.362988,0.08658 -0.209801,0 -0.366319,-0.08658 -0.153188,-0.08658 -0.256423,-0.243102 -0.09991,-0.159848 -0.149858,-0.379639 -0.04995,-0.223122 -0.04995,-0.492866 0,-0.269743 0.04995,-0.492865 0.04995,-0.223121 0.149858,-0.379639 0.103235,-0.159848 0.256423,-0.246433 0.156518,-0.08991 0.366319,-0.08991 0.2098,0 0.362988,0.08991 0.156518,0.08658 0.256423,0.246433 0.103235,0.156518 0.149858,0.379639 0.04995,0.223122 0.04995,0.492865 z m -0.319696,0 q 0,-0.2098 -0.02664,-0.382969 -0.02664,-0.173169 -0.08658,-0.296385 -0.05994,-0.126547 -0.156518,-0.19648 -0.09324,-0.06993 -0.229781,-0.06993 -0.136537,0 -0.233112,0.06993 -0.09325,0.06993 -0.153188,0.19648 -0.05994,0.123216 -0.08992,0.296385 -0.02664,0.173169 -0.02664,0.382969 0,0.209801 0.02664,0.38297 0.02997,0.173169 0.08992,0.296385 0.05994,0.123216 0.153188,0.19315 0.09658,0.0666 0.233112,0.0666 0.136537,0 0.229781,-0.0666 0.09658,-0.06993 0.156518,-0.19315 0.05994,-0.123216 0.08658,-0.296385 0.02664,-0.173169 0.02664,-0.38297 z m 1.172218,0.815892 q 0.03996,-0.133207 0.08325,-0.313036 0.04662,-0.179829 0.08991,-0.369649 0.04329,-0.19315 0.07992,-0.382969 0.03996,-0.18982 0.0666,-0.346338 h 0.286394 q -0.04329,0.219791 -0.103235,0.462894 -0.05661,0.243102 -0.119886,0.479544 -0.05994,0.233112 -0.123216,0.442913 -0.06327,0.2098 -0.116556,0.362988 h -0.296386 q -0.05328,-0.153188 -0.116555,-0.362988 -0.06327,-0.209801 -0.126547,-0.442913 -0.05994,-0.236442 -0.119886,-0.479544 -0.05661,-0.243103 -0.0999,-0.462894 h 0.303045 q 0.02664,0.156518 0.06327,0.346338 0.03996,0.189819 0.07992,0.382969 0.04329,0.18982 0.08658,0.369649 0.04329,0.179829 0.08325,0.313036 z m 1.078972,-0.452903 q 0.0033,0.126546 0.02331,0.233112 0.01998,0.103235 0.06327,0.183159 0.04662,0.07659 0.119886,0.119886 0.07659,0.04329 0.19315,0.04329 0.09658,0 0.176499,-0.02664 0.08325,-0.02997 0.119886,-0.04995 l 0.05328,0.229781 q -0.04329,0.02997 -0.146528,0.06327 -0.0999,0.03663 -0.239772,0.03663 -0.183159,0 -0.309706,-0.0666 -0.123216,-0.0666 -0.20314,-0.18649 -0.07659,-0.119886 -0.109896,-0.286394 -0.0333,-0.166509 -0.0333,-0.366319 0,-0.482874 0.159849,-0.705996 0.159848,-0.223121 0.422931,-0.223121 0.296385,0 0.419602,0.223121 0.123216,0.223122 0.123216,0.626072 0,0.03663 0,0.07659 0,0.03663 -0.0033,0.07659 z m 0.289725,-0.759279 q -0.143197,0 -0.2098,0.143197 -0.06327,0.143198 -0.07659,0.38297 h 0.529497 q 0,-0.243102 -0.04995,-0.38297 -0.04995,-0.143197 -0.19315,-0.143197 z m 1.721701,0.05994 q -0.106566,-0.04662 -0.239773,-0.04662 -0.123216,0 -0.229781,0.04329 v 1.491916 H 79.06136 v -1.671745 q 0.09658,-0.04662 0.219791,-0.07659 0.126547,-0.0333 0.276404,-0.0333 0.07993,0 0.159849,0.01 0.07992,0.01 0.149857,0.03663 z m 0.789247,1.521888 q -0.246433,-0.0067 -0.352998,-0.119886 -0.106565,-0.116556 -0.106565,-0.366319 v -2.081356 l 0.286394,-0.04995 v 2.137969 q 0,0.116556 0.04662,0.169839 0.04662,0.04995 0.163178,0.06993 z m 0.38297,-1.745009 q 0.08658,-0.03663 0.183159,-0.05661 0.09658,-0.02331 0.209801,-0.02331 0.233112,0 0.379639,0.146527 0.146528,0.143198 0.146528,0.449573 v 1.158899 q -0.119886,0.0333 -0.246433,0.05328 -0.123216,0.01998 -0.243102,0.01998 -0.119886,0 -0.226452,-0.02997 -0.103235,-0.02997 -0.183159,-0.09658 -0.07659,-0.0666 -0.123216,-0.166509 -0.04662,-0.103235 -0.04662,-0.249763 0,-0.136537 0.03996,-0.236442 0.04329,-0.103235 0.116556,-0.169838 0.07326,-0.06993 0.173169,-0.103236 0.09991,-0.03663 0.216461,-0.03663 0.109896,0 0.243103,0.02664 v -0.159848 q 0,-0.19315 -0.07659,-0.269744 -0.07326,-0.07659 -0.213131,-0.07659 -0.07659,0 -0.146528,0.01665 -0.0666,0.01332 -0.143197,0.04662 z m 0.136537,1.202191 q 0,0.153188 0.07992,0.226452 0.07992,0.07326 0.226452,0.07326 0.08991,0 0.19648,-0.02331 v -0.556138 q -0.0999,-0.02664 -0.19648,-0.02664 -0.06327,0 -0.119886,0.01665 -0.05661,0.01332 -0.09991,0.04995 -0.03996,0.0333 -0.06327,0.09325 -0.02331,0.05661 -0.02331,0.146527 z m 1.651763,0.146528 q 0.09658,-0.333017 0.176499,-0.669364 0.07992,-0.336348 0.153188,-0.715987 h 0.283065 q -0.04995,0.243102 -0.109896,0.479544 -0.05661,0.236443 -0.119886,0.456234 -0.05994,0.219791 -0.123216,0.416271 -0.05994,0.19315 -0.113226,0.352998 -0.06327,0.18649 -0.123216,0.313036 -0.05661,0.129877 -0.126547,0.20647 -0.0666,0.07993 -0.146527,0.113226 -0.07992,0.03663 -0.18982,0.03663 -0.05994,0 -0.119886,-0.01665 -0.05994,-0.01332 -0.0999,-0.02997 l 0.05328,-0.233112 q 0.08658,0.03663 0.163179,0.03663 0.09658,0 0.156518,-0.06993 0.05994,-0.06993 0.116556,-0.209801 l 0.0333,-0.08325 q -0.06327,-0.173169 -0.129876,-0.382969 -0.06327,-0.213131 -0.126547,-0.442913 -0.05994,-0.229782 -0.116556,-0.469554 -0.05661,-0.243102 -0.103235,-0.472884 h 0.303046 q 0.02664,0.156518 0.06327,0.343007 0.03663,0.18649 0.07659,0.37298 0.04329,0.186489 0.08658,0.362988 0.04329,0.173169 0.08325,0.306376 z"
         id="path45" /></g></g><g
     inkscape:groupmode="layer"
     id="layer3"
     inkscape:label="components"
     style="display:none"><circle
       style="display:inline;fill:#0000ff;fill-opacity:1;stroke:none;stroke-width:0.600001;stroke-linecap:round;stroke-linejoin:round;stroke-dasharray:none;stroke-opacity:1"
       id="path4385-6"
       cx="78.740028"
       cy="56.629997"
       r="5.0799999"
       inkscape:label="R" /><circle
       style="display:inline;fill:#0000ff;fill-opacity:1;stroke:none;stroke-width:0.600001;stroke-linecap:round;stroke-linejoin:round;stroke-dasharray:none;stroke-opacity:1"
       id="path4385-9"
       cx="78.740028"
       cy="72.399178"
       r="5.0799999"
       inkscape:label="G" /><circle
       style="display:inline;fill:#0000ff;fill-opacity:1;stroke:none;stroke-width:0.600001;stroke-linecap:round;stroke-linejoin:round;stroke-dasharray:none;stroke-opacity:1"
       id="path4385-3"
       cx="78.740028"
       cy="88.062515"
       r="5.0799999"
       inkscape:label="B" /><circle
       style="fill:#00ff00;fill-opacity:1;stroke-width:0;stroke-linecap:square;stroke-linejoin:round"
       id="path22"
       cx="8.8899994"
       cy="119.91832"
       r="3.8100002"
       inkscape:label="BG_R" /><circle
       style="fill:#00ff00;fill-opacity:1;stroke-width:0;stroke-linecap:square;stroke-linejoin:round"
       id="path23"
       cx="21.59"
       cy="119.91832"
       r="3.8100002"
       inkscape:label="BG_G" /><circle
       style="fill:#00ff00;fill-opacity:1;stroke-width:0;stroke-linecap:square;stroke-linejoin:round"
       id="path24"
       cx="34.290001"
       cy="119.91832"
       r="3.8100002"
       inkscape:label="BG_B" /><circle
       style="fill:#ff00ff;fill-opacity:1;stroke-width:0;stroke-linecap:square;stroke-linejoin:round"
       id="path25"
       cx="45.720001"
       cy="120.13"
       r="2.54"
       inkscape:label="BG" /><circle
       style="fill:#ff0000;fill-opacity:1;stroke-width:0;stroke-linecap:square;stroke-linejoin:round"
       id="path26"
       cx="5.6091657"
       cy="113.03917"
       r="2.54"
       inkscape:label="BG_R_SCL" /><circle
       style="fill:#ff0000;fill-opacity:1;stroke-width:0;stroke-linecap:square;stroke-linejoin:round"
       id="path27"
       cx="12.170833"
       cy="113.03917"
       r="2.54"
       inkscape:label="BG_R_OFS" /><circle
       style="display:inline;fill:#ff0000;fill-opacity:1;stroke-width:0;stroke-linecap:square;stroke-linejoin:round"
       id="path26-2"
       cx="18.309166"
       cy="113.03917"
       r="2.54"
       inkscape:label="BG_G_SCL" /><circle
       style="display:inline;fill:#ff0000;fill-opacity:1;stroke-width:0;stroke-linecap:square;stroke-linejoin:round"
       id="path27-3"
       cx="24.870832"
       cy="113.03917"
       r="2.54"
       inkscape:label="BG_G_OFS" /><circle
       style="display:inline;fill:#ff0000;fill-opacity:1;stroke-width:0;stroke-linecap:square;stroke-linejoin:round"
       id="path26-7"
       cx="31.009167"
       cy="113.03917"
       r="2.54"
       inkscape:label="BG_B_SCL" /><circle
       style="display:inline;fill:#ff0000;fill-opacity:1;stroke-width:0;stroke-linecap:square;stroke-linejoin:round"
       id="path27-5"
       cx="37.570835"
       cy="113.03917"
       r="2.54"
       inkscape:label="BG_B_OFS" /></g></svg>
