<?xml version="1.0" encoding="UTF-8" standalone="no"?>
<!-- Created with Inkscape (http://www.inkscape.org/) -->

<svg
   width="86.360001mm"
   height="128.5mm"
   viewBox="0 0 86.360004 128.5"
   version="1.1"
   id="svg1524"
   inkscape:version="1.3.2 (091e20ef0f, 2023-11-25, custom)"
   xml:space="preserve"
   sodipodi:docname="ColorMixer.svg"
   xmlns:inkscape="http://www.inkscape.org/namespaces/inkscape"
   xmlns:sodipodi="http://sodipodi.sourceforge.net/DTD/sodipodi-0.dtd"
   xmlns:xlink="http://www.w3.org/1999/xlink"
   xmlns="http://www.w3.org/2000/svg"
   xmlns:svg="http://www.w3.org/2000/svg"><sodipodi:namedview
     id="namedview1526"
     pagecolor="#cccccc"
     bordercolor="#666666"
     borderopacity="1.0"
     inkscape:pageshadow="2"
     inkscape:pageopacity="1"
     inkscape:pagecheckerboard="0"
     inkscape:document-units="mm"
     showgrid="true"
     units="in"
     inkscape:showpageshadow="2"
     inkscape:deskcolor="#d1d1d1"
     inkscape:zoom="4.6102698"
     inkscape:cx="233.93425"
     inkscape:cy="385.66072"
     inkscape:window-width="1920"
     inkscape:window-height="1008"
     inkscape:window-x="0"
     inkscape:window-y="0"
     inkscape:window-maximized="1"
     inkscape:current-layer="g62"><inkscape:grid
       type="xygrid"
       id="grid1608"
       originx="7.6199999"
       originy="64.25"
       units="mm"
       spacingx="2.5400001"
       spacingy="2.5400001"
       visible="true" /></sodipodi:namedview><defs
     id="defs1521"><linearGradient
       id="linearGradient10"
       inkscape:collect="always"><stop
         style="stop-color:#b0b0b0;stop-opacity:1;"
         offset="0"
         id="stop1" /><stop
         style="stop-color:#4d4d4d;stop-opacity:1;"
         offset="1"
         id="stop10" /></linearGradient><linearGradient
       id="linearGradient22"
       inkscape:collect="always"><stop
         style="stop-color:#63ff63;stop-opacity:1;"
         offset="0"
         id="stop21" /><stop
         style="stop-color:#009900;stop-opacity:1;"
         offset="1"
         id="stop22" /></linearGradient><linearGradient
       id="linearGradient20"
       inkscape:collect="always"><stop
         style="stop-color:#ff6363;stop-opacity:1;"
         offset="0"
         id="stop19" /><stop
         style="stop-color:#980000;stop-opacity:1;"
         offset="1"
         id="stop20" /></linearGradient><linearGradient
       id="linearGradient18"
       inkscape:collect="always"><stop
         style="stop-color:#6161ff;stop-opacity:1;"
         offset="0"
         id="stop17" /><stop
         style="stop-color:#000099;stop-opacity:1;"
         offset="1"
         id="stop18" /></linearGradient><linearGradient
       id="linearGradient9"
       inkscape:collect="always"><stop
         style="stop-color:#303030;stop-opacity:1;"
         offset="0"
         id="stop8" /><stop
         style="stop-color:#484848;stop-opacity:1;"
         offset="1"
         id="stop9" /></linearGradient><linearGradient
       id="linearGradient7"
       inkscape:collect="always"><stop
         style="stop-color:#1f1fc2;stop-opacity:1;"
         offset="0"
         id="stop6" /><stop
         style="stop-color:#13135a;stop-opacity:1;"
         offset="1"
         id="stop7" /></linearGradient><linearGradient
       id="linearGradient5"
       inkscape:collect="always"><stop
         style="stop-color:#3ac21f;stop-opacity:1;"
         offset="0"
         id="stop4" /><stop
         style="stop-color:#1f5a13;stop-opacity:1;"
         offset="1"
         id="stop5" /></linearGradient><linearGradient
       id="linearGradient2"
       inkscape:collect="always"><stop
         style="stop-color:#c21f1f;stop-opacity:1;"
         offset="0"
         id="stop2" /><stop
         style="stop-color:#5a1313;stop-opacity:1;"
         offset="1"
         id="stop3" /></linearGradient><linearGradient
       inkscape:collect="always"
       xlink:href="#linearGradient2"
       id="linearGradient3"
       x1="39.370003"
       y1="21.069998"
       x2="39.370003"
       y2="97.270004"
       gradientUnits="userSpaceOnUse"
       gradientTransform="matrix(1,0,0,1.5666667,-30.480003,-27.179661)" /><linearGradient
       inkscape:collect="always"
       xlink:href="#linearGradient5"
       id="linearGradient4"
       gradientUnits="userSpaceOnUse"
       x1="39.370003"
       y1="21.069998"
       x2="39.370003"
       y2="97.270004"
       gradientTransform="matrix(1,0,0,1.5666667,-17.780003,-27.179661)" /><linearGradient
       inkscape:collect="always"
       xlink:href="#linearGradient7"
       id="linearGradient6"
       gradientUnits="userSpaceOnUse"
       x1="39.370003"
       y1="21.069998"
       x2="39.370003"
       y2="97.270004"
       gradientTransform="matrix(1,0,0,1.5666667,-5.0800009,-27.179661)" /><linearGradient
       inkscape:collect="always"
       xlink:href="#linearGradient9"
       id="linearGradient8"
       gradientUnits="userSpaceOnUse"
       gradientTransform="matrix(2.3999991,0,0,1.5666668,-38.607972,-27.179664)"
       x1="39.370003"
       y1="21.069998"
       x2="39.370003"
       y2="97.270004" /><linearGradient
       inkscape:collect="always"
       xlink:href="#linearGradient20"
       id="linearGradient15"
       x1="78.739998"
       y1="51.549999"
       x2="78.739998"
       y2="61.709999"
       gradientUnits="userSpaceOnUse" /><linearGradient
       inkscape:collect="always"
       xlink:href="#linearGradient22"
       id="linearGradient16"
       x1="78.740028"
       y1="67.319176"
       x2="78.740028"
       y2="77.479179"
       gradientUnits="userSpaceOnUse" /><linearGradient
       inkscape:collect="always"
       xlink:href="#linearGradient18"
       id="linearGradient17"
       x1="78.740028"
       y1="82.982513"
       x2="78.740028"
       y2="93.142517"
       gradientUnits="userSpaceOnUse" /><linearGradient
       inkscape:collect="always"
       xlink:href="#linearGradient10"
       id="linearGradient1"
       gradientUnits="userSpaceOnUse"
       x1="78.740028"
       y1="82.982513"
       x2="78.740028"
       y2="93.142517"
       gradientTransform="translate(-2.1694751e-5,15.769152)" /></defs><g
     inkscape:groupmode="layer"
     id="layer2"
     inkscape:label="Background"
     sodipodi:insensitive="true"><rect
       style="display:inline;fill:#1a1a1a;stroke-width:0.538854"
       id="rect374"
       width="86.360008"
       height="128.5"
       x="0"
       y="0" /></g><g
     inkscape:label="Layer 1"
     inkscape:groupmode="layer"
     id="layer1"><rect
       style="fill:url(#linearGradient3);stroke-width:0;stroke-linecap:square;stroke-linejoin:round"
       id="rect2-0"
       width="12.700003"
       height="119.38"
       x="2.5399976"
       y="5.8300014" /><rect
       style="fill:url(#linearGradient4);fill-opacity:1;stroke-width:0;stroke-linecap:square;stroke-linejoin:round"
       id="rect2-0-6"
       width="12.700003"
       height="119.38"
       x="15.239999"
       y="5.8299952" /><rect
       style="fill:url(#linearGradient6);fill-opacity:1;stroke-width:0;stroke-linecap:square;stroke-linejoin:round"
       id="rect2-0-7"
       width="12.700003"
       height="119.38"
       x="27.940002"
       y="5.8299952" /><rect
       style="fill:url(#linearGradient8);fill-opacity:1;stroke-width:0;stroke-linecap:square;stroke-linejoin:round"
       id="rect2-0-7-0"
       width="30.479994"
       height="119.38"
       x="40.640007"
       y="5.8299937" /><circle
       style="display:inline;fill:url(#linearGradient15);fill-opacity:1;stroke:none;stroke-width:0.600001;stroke-linecap:round;stroke-linejoin:round;stroke-dasharray:none;stroke-opacity:1"
       id="circle9"
       cx="78.740028"
       cy="56.629997"
       r="5.0799999"
       inkscape:label="R" /><circle
       style="display:inline;fill:url(#linearGradient16);fill-opacity:1;stroke:none;stroke-width:0.600001;stroke-linecap:round;stroke-linejoin:round;stroke-dasharray:none;stroke-opacity:1"
       id="circle10"
       cx="78.740028"
       cy="72.399178"
       r="5.0799999"
       inkscape:label="G" /><circle
       style="display:inline;fill:url(#linearGradient17);fill-opacity:1;stroke:none;stroke-width:0.600001;stroke-linecap:round;stroke-linejoin:round;stroke-dasharray:none;stroke-opacity:1"
       id="circle11"
       cx="78.740028"
       cy="88.062515"
       r="5.0799999"
       inkscape:label="B" /><circle
       style="display:inline;fill:url(#linearGradient1);fill-opacity:1;stroke:none;stroke-width:0.600001;stroke-linecap:round;stroke-linejoin:round;stroke-dasharray:none;stroke-opacity:1"
       id="circle11-7"
       cx="78.739998"
       cy="103.83169"
       r="5.0799999"
       inkscape:label="A" /><rect
       style="fill:#1a1a1a;fill-opacity:1;stroke-width:0;stroke-linecap:square;stroke-linejoin:round"
       id="rect22"
       width="35.560001"
       height="10.16"
       x="50.799999"
       y="115.05"
       ry="0" /><g
       id="g1226"
       style="display:inline;stroke-width:0.3;stroke-dasharray:none"
       inkscape:label="logo"
       transform="matrix(1.1422206,0,0,1.1422206,51.261157,-16.259099)"><path
         style="fill:none;fill-rule:evenodd;stroke:#ff7f7f;stroke-width:0.3;stroke-linecap:round;stroke-linejoin:round;stroke-dasharray:none;stroke-opacity:1"
         d="m 4.7708989,116.7807 -1.3131348,0.65656 -1.3131348,0.65657 2.6262696,2.62627 -2.6262696,1.31314"
         id="path496"
         sodipodi:nodetypes="ccccc" /><path
         style="fill:none;fill-rule:evenodd;stroke:#feff7f;stroke-width:0.3;stroke-linecap:round;stroke-linejoin:round;stroke-dasharray:none;stroke-opacity:1"
         d="m 6.0840338,122.03324 v -5.25254 l 2.6262702,1.31313 -2.6262702,1.31314"
         id="path498" /><path
         style="fill:none;fill-rule:evenodd;stroke:#7fff7f;stroke-width:0.3;stroke-linecap:round;stroke-linejoin:round;stroke-dasharray:none;stroke-opacity:1"
         d="m 8.710304,122.03324 1.313135,-5.25254 1.313135,5.25254"
         id="path500" /><path
         style="fill:none;fill-rule:evenodd;stroke:#80ffff;stroke-width:0.3;stroke-linecap:round;stroke-linejoin:round;stroke-dasharray:none;stroke-opacity:1"
         d="m 12.649708,122.03324 v -5.25254 l 2.62627,1.31313 -2.62627,1.31314 2.62627,2.62627"
         id="path502" /><path
         style="fill:none;fill-rule:evenodd;stroke:#8080ff;stroke-width:0.3;stroke-linecap:round;stroke-linejoin:round;stroke-dasharray:none;stroke-opacity:1"
         d="m 16.589114,116.7807 v 5.25254"
         id="path504" /><path
         style="fill:none;fill-rule:evenodd;stroke:#8080ff;stroke-width:0.3;stroke-linecap:round;stroke-linejoin:round;stroke-dasharray:none;stroke-opacity:1"
         d="m 19.215383,116.7807 -2.626269,2.62627 2.626269,2.62627"
         id="path506" /><path
         style="fill:none;fill-rule:evenodd;stroke:#bf80ff;stroke-width:0.3;stroke-linecap:round;stroke-linejoin:round;stroke-dasharray:none;stroke-opacity:1"
         d="m 21.786938,116.7807 -2.626269,1.31313 2.626269,1.31314 -2.626269,1.31313 2.626269,1.31314"
         id="path508" /><path
         style="fill:none;fill-rule:evenodd;stroke:#ff80ff;stroke-width:0.3;stroke-linecap:round;stroke-linejoin:round;stroke-dasharray:none;stroke-opacity:1"
         d="m 21.732224,116.7807 h 3.939404"
         id="path514" /><path
         style="fill:none;fill-rule:evenodd;stroke:#ff80ff;stroke-width:0.3;stroke-linecap:round;stroke-linejoin:round;stroke-dasharray:none;stroke-opacity:1"
         d="m 23.045358,116.7807 v 5.25254"
         id="path516" /><path
         style="fill:none;fill-rule:evenodd;stroke:#ff80ff;stroke-width:0.3;stroke-linecap:round;stroke-linejoin:round;stroke-dasharray:none;stroke-opacity:1"
         d="m 24.358493,116.7807 v 5.25254"
         id="path518" /><path
         style="fill:none;fill-rule:evenodd;stroke:#ff80bf;stroke-width:0.3;stroke-linecap:round;stroke-linejoin:round;stroke-dasharray:none;stroke-opacity:1"
         d="m 28.297898,116.7807 -2.62627,1.31313 2.62627,1.31314 -2.62627,1.31313 2.62627,1.31314"
         id="path520" /><path
         style="fill:none;fill-rule:evenodd;stroke:#7fff7f;stroke-width:0.3;stroke-linecap:round;stroke-linejoin:round;stroke-dasharray:none;stroke-opacity:1"
         d="M 9.3319214,119.40697 H 10.714956"
         id="path630" /></g></g><g
     inkscape:groupmode="layer"
     id="layer4"
     inkscape:label="Text"
     style="display:none"><text
       xml:space="preserve"
       style="font-size:3.86816px;line-height:125%;font-family:sans-serif;letter-spacing:0px;word-spacing:0px;fill:#ffffff;fill-opacity:1;stroke:none;stroke-width:0.120879px;stroke-linecap:butt;stroke-linejoin:miter;stroke-opacity:1"
       x="44.971737"
       y="114.32278"
       id="text13"><tspan
         sodipodi:role="line"
         id="tspan13"
         style="font-style:normal;font-variant:normal;font-weight:normal;font-stretch:normal;font-family:'Ubuntu Condensed';-inkscape-font-specification:'Ubuntu Condensed, ';fill:#ffffff;fill-opacity:1;stroke:none;stroke-width:0.120879px"
         x="44.971737"
         y="114.32278">Background Color</tspan></text><text
       xml:space="preserve"
       style="font-size:2.97181px;line-height:125%;font-family:sans-serif;text-align:end;letter-spacing:0px;word-spacing:0px;text-anchor:end;fill:#ffffff;fill-opacity:1;stroke:none;stroke-width:0.092869px;stroke-linecap:butt;stroke-linejoin:miter;stroke-opacity:1"
       x="42.998135"
       y="117.47181"
       id="text10"
       inkscape:label="text10"><tspan
         style="font-style:normal;font-variant:normal;font-weight:normal;font-stretch:normal;font-family:'Ubuntu Condensed';-inkscape-font-specification:'Ubuntu Condensed, ';text-align:center;text-anchor:middle;fill:#ffffff;fill-opacity:1;stroke:none;stroke-width:0.092869px"
         x="42.998135"
         y="117.47181"
         id="tspan12"
         sodipodi:role="line">HSV</tspan><tspan
         style="font-style:normal;font-variant:normal;font-weight:normal;font-stretch:normal;font-family:'Ubuntu Condensed';-inkscape-font-specification:'Ubuntu Condensed, ';text-align:center;text-anchor:middle;fill:#ffffff;fill-opacity:1;stroke:none;stroke-width:0.092869px"
         x="42.998135"
         y="121.25378"
         sodipodi:role="line"
         id="tspan35">RGB</tspan><tspan
         style="font-style:normal;font-variant:normal;font-weight:normal;font-stretch:normal;font-family:'Ubuntu Condensed';-inkscape-font-specification:'Ubuntu Condensed, ';text-align:center;text-anchor:middle;fill:#ffffff;fill-opacity:1;stroke:none;stroke-width:0.092869px"
         x="42.998135"
         y="125.03576"
         sodipodi:role="line"
         id="tspan36">Off</tspan></text><text
       xml:space="preserve"
       style="font-size:5.80506px;line-height:125%;font-family:sans-serif;letter-spacing:0px;word-spacing:0px;fill:#ff6fff;fill-opacity:1;stroke:none;stroke-width:0.181408px;stroke-linecap:butt;stroke-linejoin:miter;stroke-opacity:1"
       x="27.848827"
       y="5.2137527"
       id="text51"><tspan
         sodipodi:role="line"
         id="tspan51"
         style="font-style:normal;font-variant:normal;font-weight:normal;font-stretch:normal;font-family:Ubuntu;-inkscape-font-specification:Ubuntu;fill:#ff6fff;fill-opacity:1;stroke:none;stroke-width:0.181408px"
         x="27.848827"
         y="5.2137527">Color Mixer</tspan></text></g><g
     inkscape:groupmode="layer"
     id="g62"
     inkscape:label="Text copy"
     style="display:inline"><path
       style="font-size:3.86816px;line-height:125%;font-family:'Ubuntu Condensed';-inkscape-font-specification:'Ubuntu Condensed, ';letter-spacing:0px;word-spacing:0px;fill:#ffffff;stroke-width:0.120879px"
       d="m 45.644797,112.78325 h 0.239826 q 0.479652,0 0.479652,-0.43323 0,-0.13539 -0.04255,-0.22049 -0.03868,-0.089 -0.104441,-0.13539 -0.06576,-0.0503 -0.154726,-0.0696 -0.0851,-0.0193 -0.181803,-0.0193 -0.05802,0 -0.119913,0.004 -0.05802,0.004 -0.116045,0.0116 z m 0,0.27851 v 0.96704 q 0.0735,0.0116 0.143122,0.0193 0.0735,0.008 0.143122,0.008 0.108308,0 0.205012,-0.0232 0.0967,-0.0232 0.166331,-0.0774 0.07349,-0.0541 0.112177,-0.14699 0.04255,-0.0967 0.04255,-0.23596 0,-0.23982 -0.131517,-0.37521 -0.127649,-0.13538 -0.402289,-0.13538 z m -0.348135,-1.38094 q 0.135386,-0.0309 0.27464,-0.0464 0.143122,-0.0194 0.282375,-0.0194 0.174068,0 0.328794,0.0348 0.158595,0.0309 0.278508,0.11217 0.119912,0.0774 0.189539,0.20889 0.0735,0.12764 0.0735,0.32105 0,0.23983 -0.100572,0.39456 -0.100572,0.15085 -0.259166,0.22435 0.197276,0.0774 0.324925,0.23596 0.127649,0.15859 0.127649,0.4371 0,0.20888 -0.06963,0.352 -0.06576,0.14312 -0.189539,0.23596 -0.123782,0.089 -0.297849,0.13152 -0.170199,0.0387 -0.375211,0.0387 -0.135386,0 -0.282376,-0.0155 -0.14699,-0.0155 -0.305585,-0.0464 z m 2.023048,0.65372 q 0.100572,-0.0426 0.212748,-0.0658 0.112177,-0.0271 0.243695,-0.0271 0.270771,0 0.44097,0.1702 0.170199,0.16633 0.170199,0.5222 v 1.34612 q -0.139254,0.0387 -0.286244,0.0619 -0.143122,0.0232 -0.282376,0.0232 -0.139253,0 -0.263035,-0.0348 -0.119913,-0.0348 -0.212748,-0.11217 -0.08897,-0.0774 -0.143122,-0.19341 -0.05415,-0.11991 -0.05415,-0.29011 0,-0.1586 0.04642,-0.27464 0.05029,-0.11992 0.135386,-0.19728 0.0851,-0.0812 0.201144,-0.11991 0.116045,-0.0425 0.251431,-0.0425 0.127649,0 0.282375,0.0309 v -0.18567 q 0,-0.22435 -0.08897,-0.31332 -0.0851,-0.089 -0.247563,-0.089 -0.08897,0 -0.170199,0.0193 -0.07736,0.0155 -0.16633,0.0542 z m 0.158594,1.39641 q 0,0.17793 0.09284,0.26303 0.09284,0.0851 0.263035,0.0851 0.10444,0 0.228221,-0.0271 v -0.64599 q -0.116044,-0.0309 -0.228221,-0.0309 -0.0735,0 -0.139254,0.0193 -0.06576,0.0155 -0.116045,0.058 -0.04642,0.0387 -0.0735,0.10831 -0.02708,0.0658 -0.02708,0.1702 z m 2.108148,0.64211 q -0.208881,0 -0.348135,-0.0812 -0.139254,-0.0812 -0.228221,-0.22048 -0.0851,-0.14313 -0.123781,-0.33653 -0.03481,-0.19341 -0.03481,-0.42163 0,-0.50286 0.181804,-0.78524 0.185671,-0.28624 0.557015,-0.28624 0.112176,0 0.201144,0.0271 0.08897,0.0271 0.166331,0.0696 l -0.0851,0.27464 q -0.119913,-0.0774 -0.266903,-0.0774 -0.20888,0 -0.309452,0.18954 -0.0967,0.18954 -0.0967,0.58796 0,0.16633 0.01934,0.30945 0.01934,0.13925 0.06576,0.23983 0.05029,0.10057 0.127649,0.15859 0.08123,0.058 0.205013,0.058 0.0851,0 0.150858,-0.0193 0.06963,-0.0232 0.131517,-0.058 l 0.0735,0.25917 q -0.06189,0.0425 -0.166331,0.0774 -0.100573,0.0348 -0.220485,0.0348 z m 2.003709,-2.08107 q -0.162463,0.27851 -0.313321,0.5106 -0.14699,0.22822 -0.29398,0.42937 0.09284,0.1083 0.18954,0.24369 0.0967,0.13539 0.185671,0.28238 0.08897,0.14312 0.166331,0.29011 0.07736,0.14312 0.131518,0.27464 h -0.363607 q -0.05802,-0.12765 -0.135386,-0.26691 -0.07736,-0.13925 -0.162463,-0.27077 -0.0851,-0.13538 -0.170199,-0.2553 -0.0851,-0.11991 -0.158594,-0.20114 v 0.99412 h -0.332662 v -2.94367 l 0.332662,-0.058 v 1.84512 q 0.06963,-0.0928 0.14699,-0.20888 0.08123,-0.11605 0.158594,-0.23209 0.07736,-0.11992 0.14699,-0.23209 0.06963,-0.11218 0.116045,-0.20115 z m 1.543399,1.97276 q 0,0.21662 -0.05802,0.36361 -0.05415,0.15086 -0.150858,0.2437 -0.0967,0.0928 -0.228222,0.13538 -0.127649,0.0425 -0.274639,0.0425 -0.123781,0 -0.247562,-0.0271 -0.123781,-0.0271 -0.228222,-0.0812 l 0.06963,-0.27851 q 0.06963,0.0387 0.170199,0.0696 0.100572,0.031 0.208881,0.031 0.18954,0 0.297848,-0.10831 0.108309,-0.10831 0.108309,-0.37134 v -0.0967 q -0.06189,0.0271 -0.131518,0.0464 -0.06963,0.0155 -0.158594,0.0155 -0.363607,0 -0.533806,-0.24756 -0.166331,-0.25143 -0.166331,-0.70787 0,-0.2437 0.04255,-0.43711 0.04642,-0.19727 0.139253,-0.33266 0.0967,-0.13925 0.247563,-0.20888 0.150858,-0.0735 0.367475,-0.0735 0.143122,0 0.278507,0.0309 0.139254,0.0271 0.247563,0.0735 z m -0.332662,-1.70199 q -0.05415,-0.0155 -0.104441,-0.0193 -0.05029,-0.008 -0.09284,-0.008 -0.23209,0 -0.340398,0.17793 -0.104441,0.17794 -0.104441,0.58023 0,0.3636 0.104441,0.51446 0.10444,0.14699 0.297848,0.14699 0.06576,0 0.123781,-0.0155 0.06189,-0.0155 0.116045,-0.0426 z m 1.810303,0.031 q -0.123782,-0.0542 -0.278508,-0.0542 -0.143122,0 -0.266903,0.0503 v 1.73294 h -0.332662 v -1.94182 q 0.112177,-0.0542 0.255299,-0.089 0.14699,-0.0387 0.321057,-0.0387 0.09284,0 0.185672,0.0116 0.09284,0.0116 0.174067,0.0425 z m 1.655567,0.71561 q 0,0.23982 -0.04255,0.4371 -0.04255,0.19341 -0.131518,0.33266 -0.0851,0.13926 -0.220485,0.21662 -0.131518,0.0774 -0.313321,0.0774 -0.181804,0 -0.317189,-0.0774 -0.135386,-0.0774 -0.224353,-0.21662 -0.0851,-0.13925 -0.12765,-0.33266 -0.04255,-0.19728 -0.04255,-0.4371 0,-0.23596 0.04255,-0.43324 0.04255,-0.19727 0.12765,-0.33652 0.08897,-0.14313 0.224353,-0.22049 0.135385,-0.0774 0.317189,-0.0774 0.181803,0 0.313321,0.0774 0.135386,0.0774 0.220485,0.22049 0.08897,0.13925 0.131518,0.33652 0.04255,0.19728 0.04255,0.43324 z m -0.348134,0 q 0,-0.1702 -0.01934,-0.30945 -0.01934,-0.14313 -0.06189,-0.2437 -0.04255,-0.10444 -0.112177,-0.15859 -0.06963,-0.058 -0.166331,-0.058 -0.100572,0 -0.170199,0.058 -0.06576,0.0542 -0.112177,0.15859 -0.04255,0.10057 -0.06189,0.2437 -0.01934,0.13925 -0.01934,0.30945 0,0.1702 0.01934,0.31332 0.01934,0.13925 0.06189,0.23983 0.04642,0.10057 0.112177,0.15859 0.06963,0.0541 0.170199,0.0541 0.0967,0 0.166331,-0.0541 0.06963,-0.058 0.112177,-0.15859 0.04255,-0.10058 0.06189,-0.23983 0.01934,-0.14312 0.01934,-0.31332 z m 2.092672,0.95543 q -0.05029,0.0193 -0.123781,0.0387 -0.06963,0.0155 -0.150858,0.0271 -0.07736,0.0155 -0.158595,0.0232 -0.07736,0.0116 -0.143122,0.0116 -0.158595,0 -0.290112,-0.0387 -0.131517,-0.0348 -0.224353,-0.12764 -0.09284,-0.0928 -0.143122,-0.25143 -0.05029,-0.16247 -0.05029,-0.40616 v -1.24942 h 0.332662 v 1.23781 q 0,0.29785 0.08897,0.42163 0.09284,0.11992 0.278508,0.11992 0.06189,0 0.123781,-0.004 0.06189,-0.008 0.127649,-0.0271 v -1.74841 h 0.332662 z m 0.599563,-1.91473 q 0.143122,-0.0426 0.309453,-0.0696 0.166331,-0.0309 0.305585,-0.0309 0.150858,0 0.274639,0.0425 0.123781,0.0387 0.208881,0.13539 0.08897,0.0967 0.135385,0.26303 0.05029,0.16247 0.05029,0.40616 v 1.22621 h -0.332662 v -1.19913 q 0,-0.30172 -0.07736,-0.44097 -0.07736,-0.13926 -0.290112,-0.13926 -0.112176,0 -0.25143,0.0387 v 1.74068 h -0.332662 z m 2.738659,0.24756 q -0.112177,-0.0619 -0.239826,-0.0619 -0.0967,0 -0.170199,0.0387 -0.0735,0.0387 -0.12765,0.12765 -0.05029,0.089 -0.07736,0.23596 -0.02708,0.14699 -0.02708,0.3636 0,0.41776 0.108308,0.59957 0.112177,0.17793 0.33653,0.17793 0.04255,0 0.09284,-0.004 0.05029,-0.008 0.104441,-0.0232 z m 0,-1.21847 0.332661,-0.058 v 2.94754 q -0.108308,0.0464 -0.247562,0.0735 -0.139254,0.0309 -0.282376,0.0309 -0.417761,0 -0.607301,-0.2669 -0.185671,-0.2669 -0.185671,-0.80458 0,-0.24369 0.03868,-0.4371 0.04255,-0.19728 0.127649,-0.33266 0.08897,-0.13926 0.224354,-0.21275 0.135385,-0.0774 0.321057,-0.0774 0.08897,0 0.150858,0.0193 0.06576,0.0155 0.12765,0.0464 z m 2.572328,3.00169 q -0.471915,0 -0.723346,-0.352 -0.25143,-0.35201 -0.25143,-1.08696 0,-0.37521 0.06963,-0.63437 0.0735,-0.25917 0.201144,-0.42163 0.127649,-0.16247 0.301717,-0.23209 0.174067,-0.0735 0.379079,-0.0735 0.170199,0 0.317189,0.0464 0.14699,0.0425 0.239826,0.10831 l -0.10444,0.29011 q -0.09284,-0.0619 -0.201144,-0.10057 -0.104441,-0.0387 -0.243694,-0.0387 -0.309453,0 -0.448707,0.25916 -0.139254,0.2553 -0.139254,0.79684 0,0.54541 0.14699,0.83939 0.14699,0.29398 0.479652,0.29398 0.158595,0 0.255299,-0.0387 0.100572,-0.0387 0.193408,-0.10057 l 0.0967,0.27464 q -0.08897,0.0696 -0.235958,0.11991 -0.143122,0.0503 -0.332662,0.0503 z m 2.197112,-1.07148 q 0,0.23982 -0.04255,0.4371 -0.04255,0.19341 -0.131517,0.33266 -0.0851,0.13926 -0.220486,0.21662 -0.131517,0.0774 -0.31332,0.0774 -0.181804,0 -0.31719,-0.0774 -0.135385,-0.0774 -0.224353,-0.21662 -0.0851,-0.13925 -0.127649,-0.33266 -0.04255,-0.19728 -0.04255,-0.4371 0,-0.23596 0.04255,-0.43324 0.04255,-0.19727 0.127649,-0.33652 0.08897,-0.14313 0.224353,-0.22049 0.135386,-0.0774 0.31719,-0.0774 0.181803,0 0.31332,0.0774 0.135386,0.0774 0.220486,0.22049 0.08897,0.13925 0.131517,0.33652 0.04255,0.19728 0.04255,0.43324 z m -0.348135,0 q 0,-0.1702 -0.01934,-0.30945 -0.01934,-0.14313 -0.06189,-0.2437 -0.04255,-0.10444 -0.112177,-0.15859 -0.06963,-0.058 -0.16633,-0.058 -0.100573,0 -0.1702,0.058 -0.06576,0.0542 -0.112176,0.15859 -0.04255,0.10057 -0.06189,0.2437 -0.01934,0.13925 -0.01934,0.30945 0,0.1702 0.01934,0.31332 0.01934,0.13925 0.06189,0.23983 0.04642,0.10057 0.112176,0.15859 0.06963,0.0541 0.1702,0.0541 0.0967,0 0.16633,-0.0541 0.06963,-0.058 0.112177,-0.15859 0.04255,-0.10058 0.06189,-0.23983 0.01934,-0.14312 0.01934,-0.31332 z m 1.361591,1.05214 q -0.286244,-0.008 -0.410025,-0.13926 -0.123781,-0.13538 -0.123781,-0.42549 v -2.4176 l 0.332662,-0.058 v 2.48336 q 0,0.13539 0.05415,0.19728 0.05415,0.058 0.18954,0.0812 z m 1.717463,-1.05214 q 0,0.23982 -0.04255,0.4371 -0.04255,0.19341 -0.131518,0.33266 -0.0851,0.13926 -0.220485,0.21662 -0.131517,0.0774 -0.313321,0.0774 -0.181803,0 -0.317189,-0.0774 -0.135385,-0.0774 -0.224353,-0.21662 -0.0851,-0.13925 -0.127649,-0.33266 -0.04255,-0.19728 -0.04255,-0.4371 0,-0.23596 0.04255,-0.43324 0.04255,-0.19727 0.127649,-0.33652 0.08897,-0.14313 0.224353,-0.22049 0.135386,-0.0774 0.317189,-0.0774 0.181804,0 0.313321,0.0774 0.135386,0.0774 0.220485,0.22049 0.08897,0.13925 0.131518,0.33652 0.04255,0.19728 0.04255,0.43324 z m -0.348135,0 q 0,-0.1702 -0.01934,-0.30945 -0.01934,-0.14313 -0.06189,-0.2437 -0.04255,-0.10444 -0.112177,-0.15859 -0.06963,-0.058 -0.166331,-0.058 -0.100572,0 -0.170199,0.058 -0.06576,0.0542 -0.112176,0.15859 -0.04255,0.10057 -0.06189,0.2437 -0.01934,0.13925 -0.01934,0.30945 0,0.1702 0.01934,0.31332 0.01934,0.13925 0.06189,0.23983 0.04642,0.10057 0.112176,0.15859 0.06963,0.0541 0.170199,0.0541 0.0967,0 0.166331,-0.0541 0.06963,-0.058 0.112177,-0.15859 0.04255,-0.10058 0.06189,-0.23983 0.01934,-0.14312 0.01934,-0.31332 z m 1.713592,-0.71561 q -0.123781,-0.0542 -0.278508,-0.0542 -0.143122,0 -0.266903,0.0503 v 1.73294 h -0.332662 v -1.94182 q 0.112177,-0.0542 0.255299,-0.089 0.14699,-0.0387 0.321057,-0.0387 0.09284,0 0.185672,0.0116 0.09284,0.0116 0.174067,0.0425 z"
       id="text58"
       aria-label="Background Color" /><g
       id="text61"
       style="font-size:2.97181px;line-height:125%;text-align:end;letter-spacing:0px;word-spacing:0px;text-anchor:end;fill:#ffffff;stroke-width:0.092869px"
       inkscape:label="text10"
       aria-label="HSV&#10;RGB&#10;Off"><path
         style="font-family:'Ubuntu Condensed';-inkscape-font-specification:'Ubuntu Condensed, ';text-align:center;text-anchor:middle"
         d="m 41.989205,115.41234 h 0.267463 v 2.05947 h -0.267463 v -0.95692 h -0.677572 v 0.95692 H 41.04417 v -2.05947 h 0.267463 v 0.87075 h 0.677572 z m 1.022304,1.87522 q 0.160477,0 0.24666,-0.0892 0.08915,-0.0892 0.08915,-0.24071 0,-0.0802 -0.02675,-0.14265 -0.02675,-0.0624 -0.07132,-0.11293 -0.04161,-0.0505 -0.09807,-0.0921 -0.05647,-0.0416 -0.115901,-0.0832 -0.06835,-0.0476 -0.142647,-0.10104 -0.0743,-0.0535 -0.136703,-0.12481 -0.05944,-0.0713 -0.09807,-0.16643 -0.03863,-0.0951 -0.03863,-0.22288 0,-0.12482 0.0416,-0.22586 0.04458,-0.10104 0.118873,-0.17236 0.07727,-0.0713 0.18128,-0.10996 0.106985,-0.0386 0.228829,-0.0386 0.118873,0 0.219914,0.0297 0.101042,0.0297 0.169393,0.0713 l -0.08321,0.211 q -0.06241,-0.0416 -0.136704,-0.0624 -0.07132,-0.0238 -0.151562,-0.0238 -0.145619,0 -0.234773,0.0802 -0.08618,0.0773 -0.08618,0.22883 0,0.0832 0.02675,0.14562 0.02972,0.0624 0.0743,0.11293 0.04755,0.0505 0.106985,0.0921 0.06241,0.0416 0.13076,0.0862 0.06835,0.0446 0.139675,0.0981 0.07132,0.0535 0.127788,0.12481 0.05944,0.0684 0.0951,0.16345 0.03863,0.0921 0.03863,0.21992 0,0.1159 -0.03566,0.21991 -0.03566,0.10401 -0.112929,0.18425 -0.07429,0.0773 -0.190196,0.12482 -0.112929,0.0446 -0.267463,0.0446 -0.142647,0 -0.249632,-0.0327 -0.106985,-0.0327 -0.190196,-0.0862 l 0.08321,-0.21397 q 0.07727,0.0476 0.157506,0.0773 0.08321,0.0267 0.190196,0.0267 z m 1.307596,0.18425 q -0.06835,-0.22289 -0.136704,-0.44874 -0.06835,-0.22883 -0.136703,-0.47847 -0.06538,-0.24963 -0.13076,-0.52601 -0.06538,-0.27935 -0.130759,-0.60625 h 0.27935 q 0.03863,0.22883 0.08618,0.46064 0.04755,0.22882 0.101042,0.45171 0.05349,0.22289 0.106985,0.43388 0.05647,0.20803 0.109957,0.39526 0.05349,-0.18723 0.106985,-0.39526 0.05646,-0.21099 0.109957,-0.43388 0.05349,-0.22289 0.101042,-0.45171 0.04755,-0.23181 0.08618,-0.46064 h 0.270435 q -0.06538,0.3269 -0.13076,0.60625 -0.06538,0.27638 -0.133731,0.52601 -0.06538,0.24964 -0.133732,0.47847 -0.06835,0.22585 -0.136703,0.44874 z"
         id="path62" /><path
         style="font-family:'Ubuntu Condensed';-inkscape-font-specification:'Ubuntu Condensed, ';text-align:center;text-anchor:middle"
         d="m 40.944615,119.22404 q 0.208027,-0.0505 0.401194,-0.0505 0.154534,0 0.27935,0.0357 0.124817,0.0357 0.213971,0.11293 0.08915,0.0773 0.136703,0.19911 0.05052,0.12184 0.05052,0.29421 0,0.21397 -0.08321,0.3477 -0.08024,0.13076 -0.219914,0.19911 0.03566,0.0594 0.08915,0.16345 0.05646,0.10104 0.112928,0.22586 0.05944,0.12184 0.112929,0.2526 0.05646,0.13076 0.0951,0.24964 h -0.267463 q -0.03269,-0.0892 -0.08321,-0.20209 -0.04755,-0.11293 -0.101041,-0.22288 -0.05349,-0.11293 -0.106985,-0.21397 -0.05349,-0.10402 -0.0951,-0.17534 -0.04755,0.006 -0.09807,0.009 -0.05052,0.003 -0.101041,0.003 h -0.0743 v 0.80239 h -0.261519 z m 0.261519,1.00744 h 0.112929 q 0.205055,0 0.315012,-0.0921 0.109957,-0.0951 0.109957,-0.32393 0,-0.1159 -0.02972,-0.19317 -0.02675,-0.0802 -0.08024,-0.12481 -0.05052,-0.0476 -0.124816,-0.0684 -0.07132,-0.0208 -0.160478,-0.0208 -0.07727,0 -0.142647,0.009 z m 1.15009,-0.009 q 0,-0.29124 0.05349,-0.49629 0.05349,-0.20506 0.151563,-0.33285 0.101041,-0.13076 0.240716,-0.18722 0.142647,-0.0594 0.317984,-0.0594 0.133732,0 0.243689,0.0386 0.109956,0.0357 0.178308,0.0832 l -0.08321,0.22288 q -0.06835,-0.0476 -0.14859,-0.0773 -0.08024,-0.0327 -0.184252,-0.0327 -0.258548,0 -0.371477,0.21099 -0.112928,0.20803 -0.112928,0.63003 0,0.22585 0.03269,0.38633 0.03566,0.16048 0.09807,0.26152 0.06241,0.10104 0.151563,0.14859 0.08915,0.0476 0.199111,0.0476 0.09213,0 0.157506,-0.0208 v -0.80536 h 0.267463 v 0.96881 q -0.08024,0.0386 -0.199112,0.0654 -0.118872,0.0267 -0.249632,0.0267 -0.160477,0 -0.297181,-0.0624 -0.136703,-0.0654 -0.237744,-0.19614 -0.09807,-0.13373 -0.154535,-0.33582 -0.05349,-0.20505 -0.05349,-0.4844 z m 1.913844,-0.15156 h 0.184253 q 0.368504,0 0.368504,-0.33285 0,-0.10401 -0.03269,-0.16939 -0.02972,-0.0683 -0.08024,-0.10401 -0.05052,-0.0386 -0.118872,-0.0535 -0.06538,-0.0149 -0.139675,-0.0149 -0.04458,0 -0.09213,0.003 -0.04458,0.003 -0.08915,0.009 z m 0,0.21397 v 0.74295 q 0.05646,0.009 0.109957,0.0149 0.05646,0.006 0.109957,0.006 0.08321,0 0.157506,-0.0178 0.0743,-0.0178 0.127788,-0.0594 0.05647,-0.0416 0.08618,-0.11293 0.03269,-0.0743 0.03269,-0.18128 0,-0.18425 -0.101042,-0.28826 -0.09807,-0.10401 -0.309068,-0.10401 z m -0.267462,-1.06094 q 0.104013,-0.0238 0.210998,-0.0357 0.109957,-0.0149 0.216942,-0.0149 0.133732,0 0.252604,0.0267 0.121844,0.0238 0.21397,0.0862 0.09213,0.0594 0.145619,0.16047 0.05646,0.0981 0.05646,0.24667 0,0.18425 -0.07727,0.30312 -0.07727,0.1159 -0.199111,0.17236 0.151562,0.0594 0.249632,0.18129 0.09807,0.12184 0.09807,0.33581 0,0.16048 -0.05349,0.27043 -0.05052,0.10996 -0.145618,0.18128 -0.0951,0.0684 -0.22883,0.10105 -0.130759,0.0297 -0.288265,0.0297 -0.104014,0 -0.216942,-0.0119 -0.112929,-0.0119 -0.234773,-0.0357 z"
         id="path63" /><path
         style="font-family:'Ubuntu Condensed';-inkscape-font-specification:'Ubuntu Condensed, ';text-align:center;text-anchor:middle"
         d="m 42.821313,124.00752 q 0,0.24071 -0.04458,0.43982 -0.0416,0.19614 -0.133731,0.33879 -0.08916,0.13967 -0.22883,0.21694 -0.136703,0.0773 -0.323927,0.0773 -0.187224,0 -0.326899,-0.0773 -0.136703,-0.0773 -0.228829,-0.21694 -0.08915,-0.14265 -0.133732,-0.33879 -0.04458,-0.19911 -0.04458,-0.43982 0,-0.24072 0.04458,-0.43983 0.04458,-0.19911 0.133732,-0.33879 0.09213,-0.14265 0.228829,-0.21991 0.139675,-0.0802 0.326899,-0.0802 0.187224,0 0.323927,0.0802 0.139675,0.0773 0.22883,0.21991 0.09213,0.13968 0.133731,0.33879 0.04458,0.19911 0.04458,0.43983 z m -0.285293,0 q 0,-0.18723 -0.02378,-0.34176 -0.02377,-0.15454 -0.07727,-0.26449 -0.05349,-0.11293 -0.139675,-0.17534 -0.08321,-0.0624 -0.205055,-0.0624 -0.121844,0 -0.208027,0.0624 -0.08321,0.0624 -0.136703,0.17534 -0.05349,0.10995 -0.08024,0.26449 -0.02377,0.15453 -0.02377,0.34176 0,0.18722 0.02377,0.34175 0.02675,0.15454 0.08024,0.26449 0.05349,0.10996 0.136703,0.17237 0.08618,0.0594 0.208027,0.0594 0.121844,0 0.205055,-0.0594 0.08618,-0.0624 0.139675,-0.17237 0.05349,-0.10995 0.07727,-0.26449 0.02378,-0.15453 0.02378,-0.34175 z m 1.138201,-1.27788 q 0.08618,0 0.151563,0.0178 0.06538,0.0178 0.106985,0.0386 l -0.05349,0.20208 q -0.0416,-0.0208 -0.08618,-0.0297 -0.04458,-0.0119 -0.0951,-0.0119 -0.06835,0 -0.112929,0.0238 -0.04458,0.0238 -0.06835,0.0654 -0.02377,0.0416 -0.03269,0.10104 -0.0089,0.0565 -0.0089,0.12185 v 0.21694 h 0.401195 v 0.21992 H 43.47511 v 1.34028 h -0.255576 v -1.77714 q 0,-0.2526 0.112929,-0.38931 0.112929,-0.13967 0.341758,-0.13967 z m 0.909374,0 q 0.08618,0 0.151563,0.0178 0.06538,0.0178 0.106985,0.0386 l -0.05349,0.20208 q -0.0416,-0.0208 -0.08618,-0.0297 -0.04458,-0.0119 -0.0951,-0.0119 -0.06835,0 -0.112929,0.0238 -0.04458,0.0238 -0.06835,0.0654 -0.02377,0.0416 -0.03269,0.10104 -0.0089,0.0565 -0.0089,0.12185 v 0.21694 h 0.401194 v 0.21992 h -0.401194 v 1.34028 h -0.255576 v -1.77714 q 0,-0.2526 0.112929,-0.38931 0.112929,-0.13967 0.341758,-0.13967 z"
         id="path64" /></g><path
       style="font-size:5.80506px;line-height:125%;font-family:Ubuntu;-inkscape-font-specification:Ubuntu;letter-spacing:0px;word-spacing:0px;fill:#ff6fff;stroke-width:0.181408px"
       d="m 30.07797,5.3008286 q -0.423769,0 -0.772073,-0.1393214 Q 28.957594,5.0221858 28.707976,4.755153 28.458359,4.4881203 28.319037,4.0991812 28.185521,3.7044372 28.185521,3.199397 q 0,-0.5050403 0.150931,-0.8939793 0.156737,-0.394744 0.417965,-0.6617768 0.261227,-0.2670328 0.609531,-0.4063542 0.348304,-0.1393214 0.743048,-0.1393214 0.249617,0 0.446989,0.03483 0.203177,0.03483 0.348304,0.081271 0.150931,0.04644 0.243812,0.092881 0.09288,0.04644 0.127712,0.069661 l -0.162542,0.4644048 q -0.05225,-0.03483 -0.150932,-0.075466 -0.09869,-0.040636 -0.226397,-0.081271 -0.121906,-0.040635 -0.272838,-0.063856 -0.145126,-0.029025 -0.296058,-0.029025 -0.319278,0 -0.574701,0.1102961 -0.255422,0.1102961 -0.435379,0.3192783 -0.179957,0.2089822 -0.278643,0.5108453 -0.09288,0.296058 -0.09288,0.6675819 0,0.3599137 0.08127,0.6559717 0.08708,0.2960581 0.255422,0.5108453 0.168347,0.2089822 0.417965,0.3250834 0.255422,0.1161012 0.592116,0.1161012 0.388939,0 0.644362,-0.081271 Q 31.03,4.6448569 31.157712,4.5810012 l 0.145126,0.4644048 q -0.04064,0.029025 -0.145126,0.075466 -0.104492,0.040635 -0.261228,0.081271 -0.156737,0.040635 -0.365719,0.069661 -0.208982,0.029025 -0.452795,0.029025 z m 4.411854,-1.5963914 q 0,0.3599137 -0.104491,0.6501667 -0.104491,0.290253 -0.296058,0.4992351 -0.185762,0.2089822 -0.446989,0.3250834 -0.261228,0.1102961 -0.568896,0.1102961 -0.307668,0 -0.568896,-0.1102961 Q 32.243266,5.0628212 32.051699,4.853839 31.865937,4.6448569 31.761446,4.3546039 31.656955,4.0643509 31.656955,3.7044372 q 0,-0.3541087 0.104491,-0.6443617 0.104491,-0.296058 0.290253,-0.5050402 0.191567,-0.2089821 0.452795,-0.3192783 0.261228,-0.1161012 0.568896,-0.1161012 0.307668,0 0.568896,0.1161012 0.261227,0.1102962 0.446989,0.3192783 0.191567,0.2089822 0.296058,0.5050402 0.104491,0.290253 0.104491,0.6443617 z m -0.56309,0 q 0,-0.5108453 -0.232203,-0.8069034 -0.226397,-0.3018631 -0.621141,-0.3018631 -0.394744,0 -0.626947,0.3018631 -0.226397,0.2960581 -0.226397,0.8069034 0,0.5108452 0.226397,0.8127084 0.232203,0.296058 0.626947,0.296058 0.394744,0 0.621141,-0.296058 0.232203,-0.3018632 0.232203,-0.8127084 z m 2.229143,1.5673661 Q 35.656642,5.2601932 35.44766,5.0570161 35.238678,4.853839 35.238678,4.4242646 V 0.80190722 l 0.53987,-0.092881 V 4.3371887 q 0,0.1335164 0.02322,0.2205923 0.02322,0.087076 0.07547,0.1393214 0.05225,0.052246 0.139322,0.081271 0.08708,0.02322 0.214787,0.040635 z m 3.343719,-1.5673661 q 0,0.3599137 -0.104491,0.6501667 -0.104491,0.290253 -0.296058,0.4992351 -0.185762,0.2089822 -0.44699,0.3250834 -0.261228,0.1102961 -0.568896,0.1102961 -0.307668,0 -0.568896,-0.1102961 Q 37.253038,5.0628212 37.061471,4.853839 36.875709,4.6448569 36.771218,4.3546039 36.666726,4.0643509 36.666726,3.7044372 q 0,-0.3541087 0.104492,-0.6443617 0.104491,-0.296058 0.290253,-0.5050402 0.191567,-0.2089821 0.452794,-0.3192783 0.261228,-0.1161012 0.568896,-0.1161012 0.307668,0 0.568896,0.1161012 0.261228,0.1102962 0.44699,0.3192783 0.191567,0.2089822 0.296058,0.5050402 0.104491,0.290253 0.104491,0.6443617 z m -0.563091,0 q 0,-0.5108453 -0.232203,-0.8069034 -0.226397,-0.3018631 -0.621141,-0.3018631 -0.394744,0 -0.626946,0.3018631 -0.226398,0.2960581 -0.226398,0.8069034 0,0.5108452 0.226398,0.8127084 0.232202,0.296058 0.626946,0.296058 0.394744,0 0.621141,-0.296058 0.232203,-0.3018632 0.232203,-0.8127084 z m 2.438126,-1.5731713 q 0.06966,0 0.156736,0.01161 0.09288,0.00581 0.179957,0.02322 0.08708,0.01161 0.156737,0.029025 0.07547,0.01161 0.110296,0.02322 l -0.09288,0.4702099 q -0.06386,-0.02322 -0.214787,-0.052246 -0.145127,-0.03483 -0.377329,-0.03483 -0.150932,0 -0.301863,0.03483 -0.145127,0.029025 -0.191567,0.040636 V 5.2137527 H 40.260059 V 2.3228329 q 0.191567,-0.069661 0.476015,-0.1277113 0.284448,-0.063856 0.638557,-0.063856 z M 45.681989,4.656467 Q 45.623939,4.5171456 45.525253,4.3023583 45.432372,4.0875711 45.322075,3.8379535 45.211779,3.588336 45.084068,3.3271083 44.962162,3.0600755 44.851866,2.8278731 44.741569,2.5898657 44.642883,2.4041038 q -0.09288,-0.185762 -0.150931,-0.284448 -0.06386,0.6849971 -0.104491,1.4860954 -0.04064,0.7952932 -0.06966,1.6080015 h -0.551481 q 0.02322,-0.5224553 0.05225,-1.0507158 0.02902,-0.5340655 0.06386,-1.0449108 0.04064,-0.5166503 0.08127,-1.0042753 0.04644,-0.4876251 0.09869,-0.9230046 h 0.493431 q 0.156736,0.2554227 0.336693,0.6037263 0.179957,0.3483036 0.359914,0.7314375 0.179957,0.3773289 0.348303,0.7604629 0.168347,0.3773289 0.307668,0.6908021 0.139322,-0.3134732 0.307669,-0.6908021 0.168346,-0.383134 0.348303,-0.7604629 0.179957,-0.3831339 0.359914,-0.7314375 0.179957,-0.3483036 0.336693,-0.6037263 h 0.493431 q 0.197372,1.9446951 0.296058,4.0229065 h -0.551481 q -0.02902,-0.8127083 -0.06966,-1.6080015 -0.04064,-0.8010983 -0.104491,-1.4860954 -0.05805,0.098686 -0.156737,0.284448 -0.09288,0.1857619 -0.203177,0.4237693 Q 46.854611,3.0600755 46.7269,3.3271083 46.604994,3.588336 46.494698,3.8379535 46.384401,4.0875711 46.285715,4.3023583 46.192834,4.5171456 46.134784,4.656467 Z m 3.755876,0.5572857 h -0.53987 V 2.1951216 h 0.53987 z M 49.165027,1.649446 q -0.145126,0 -0.249617,-0.092881 -0.09869,-0.098686 -0.09869,-0.2612277 0,-0.1625417 0.09869,-0.2554226 0.104491,-0.098686 0.249617,-0.098686 0.145127,0 0.243813,0.098686 0.104491,0.092881 0.104491,0.2554226 0,0.1625417 -0.104491,0.2612277 -0.09869,0.092881 -0.243813,0.092881 z M 52.17205,5.2137527 Q 52.108194,5.0860414 52.015313,4.9293048 51.922432,4.7725682 51.812136,4.6100265 51.70184,4.4416798 51.585739,4.2791381 51.469637,4.1165964 51.359341,3.9714699 51.249045,4.1165964 51.132944,4.2849432 51.016843,4.4474848 50.906547,4.6158316 50.802056,4.7783733 50.709175,4.9351099 50.616294,5.0918465 50.552438,5.2137527 h -0.557286 q 0.203177,-0.394744 0.48182,-0.8010982 0.284448,-0.4121593 0.563091,-0.7836831 l -0.99847,-1.4338498 h 0.609531 l 0.719827,1.0565209 0.725633,-1.0565209 h 0.574701 l -0.97525,1.3990194 q 0.278643,0.3773289 0.568896,0.8010983 0.296058,0.4179643 0.499235,0.8185134 z m 0.870758,-1.5035105 q 0,-0.4005491 0.116101,-0.6966072 0.116101,-0.3018631 0.307668,-0.4992351 0.191567,-0.197372 0.441185,-0.2960581 0.249617,-0.098686 0.510845,-0.098686 0.609531,0 0.934615,0.383134 0.325083,0.3773289 0.325083,1.1552069 0,0.03483 0,0.092881 0,0.052246 -0.0058,0.098686 h -2.066601 q 0.03483,0.4702098 0.272838,0.7140223 0.238007,0.2438126 0.743047,0.2438126 0.284448,0 0.476015,-0.046441 0.197372,-0.052246 0.296058,-0.098686 l 0.07547,0.4527946 q -0.09869,0.052246 -0.348304,0.1102962 -0.243812,0.058051 -0.557285,0.058051 -0.394744,0 -0.684997,-0.1161012 Q 53.594289,5.045406 53.408527,4.8364239 53.222765,4.6274417 53.129884,4.3429938 53.042808,4.0527408 53.042808,3.7102422 Z m 2.072406,-0.296058 q 0.0058,-0.3657188 -0.185762,-0.5979212 -0.185762,-0.2380075 -0.51665,-0.2380075 -0.185762,0 -0.330888,0.075466 -0.139322,0.069661 -0.238008,0.1857619 -0.09869,0.1161012 -0.156736,0.2670328 -0.05225,0.1509316 -0.06966,0.3076682 z m 2.45554,-1.2829183 q 0.06966,0 0.156736,0.01161 0.09288,0.00581 0.179957,0.02322 0.08708,0.01161 0.156737,0.029025 0.07547,0.01161 0.110296,0.02322 l -0.09288,0.4702099 q -0.06386,-0.02322 -0.214787,-0.052246 -0.145127,-0.03483 -0.377329,-0.03483 -0.150932,0 -0.301863,0.03483 -0.145127,0.029025 -0.191567,0.040636 V 5.2137527 H 56.456182 V 2.3228329 q 0.191567,-0.069661 0.476015,-0.1277113 0.284448,-0.063856 0.638557,-0.063856 z"
       id="text62"
       aria-label="Color Mixer" /></g><g
     inkscape:groupmode="layer"
     id="layer3"
     inkscape:label="components"
     style="display:none"><circle
       style="display:inline;fill:#0000ff;fill-opacity:1;stroke:none;stroke-width:0.600001;stroke-linecap:round;stroke-linejoin:round;stroke-dasharray:none;stroke-opacity:1"
       id="path4385-6"
       cx="78.740028"
       cy="56.629997"
       r="5.0799999"
       inkscape:label="R" /><circle
       style="display:inline;fill:#0000ff;fill-opacity:1;stroke:none;stroke-width:0.600001;stroke-linecap:round;stroke-linejoin:round;stroke-dasharray:none;stroke-opacity:1"
       id="path4385-9"
       cx="78.740028"
       cy="72.399178"
       r="5.0799999"
       inkscape:label="G" /><circle
       style="display:inline;fill:#0000ff;fill-opacity:1;stroke:none;stroke-width:0.600001;stroke-linecap:round;stroke-linejoin:round;stroke-dasharray:none;stroke-opacity:1"
       id="path4385-3"
       cx="78.740028"
       cy="88.062515"
       r="5.0799999"
       inkscape:label="B" /><circle
       style="fill:#00ff00;fill-opacity:1;stroke-width:0;stroke-linecap:square;stroke-linejoin:round"
       id="path22"
       cx="8.8899994"
       cy="119.91832"
       r="3.8100002"
       inkscape:label="BG_R" /><circle
       style="fill:#00ff00;fill-opacity:1;stroke-width:0;stroke-linecap:square;stroke-linejoin:round"
       id="path23"
       cx="21.59"
       cy="119.91832"
       r="3.8100002"
       inkscape:label="BG_G" /><circle
       style="fill:#00ff00;fill-opacity:1;stroke-width:0;stroke-linecap:square;stroke-linejoin:round"
       id="path24"
       cx="34.290001"
       cy="119.91832"
       r="3.8100002"
       inkscape:label="BG_B" /><circle
       style="fill:#ff00ff;fill-opacity:1;stroke-width:0;stroke-linecap:square;stroke-linejoin:round"
       id="path25"
       cx="45.720001"
       cy="120.13"
       r="2.54"
       inkscape:label="BG" /><circle
       style="fill:#ff0000;fill-opacity:1;stroke-width:0;stroke-linecap:square;stroke-linejoin:round"
       id="path26"
       cx="5.6091657"
       cy="113.03917"
       r="2.54"
       inkscape:label="BG_R_SCL" /><circle
       style="fill:#ff0000;fill-opacity:1;stroke-width:0;stroke-linecap:square;stroke-linejoin:round"
       id="path27"
       cx="12.170833"
       cy="113.03917"
       r="2.54"
       inkscape:label="BG_R_OFS" /><circle
       style="display:inline;fill:#ff0000;fill-opacity:1;stroke-width:0;stroke-linecap:square;stroke-linejoin:round"
       id="path26-2"
       cx="18.309166"
       cy="113.03917"
       r="2.54"
       inkscape:label="BG_G_SCL" /><circle
       style="display:inline;fill:#ff0000;fill-opacity:1;stroke-width:0;stroke-linecap:square;stroke-linejoin:round"
       id="path27-3"
       cx="24.870832"
       cy="113.03917"
       r="2.54"
       inkscape:label="BG_G_OFS" /><circle
       style="display:inline;fill:#ff0000;fill-opacity:1;stroke-width:0;stroke-linecap:square;stroke-linejoin:round"
       id="path26-7"
       cx="31.009167"
       cy="113.03917"
       r="2.54"
       inkscape:label="BG_B_SCL" /><circle
       style="display:inline;fill:#ff0000;fill-opacity:1;stroke-width:0;stroke-linecap:square;stroke-linejoin:round"
       id="path27-5"
       cx="37.570835"
       cy="113.03917"
       r="2.54"
       inkscape:label="BG_B_OFS" /></g></svg>
