<?xml version="1.0" encoding="UTF-8" standalone="no"?>
<!-- Created with Inkscape (http://www.inkscape.org/) -->

<svg
   width="30.48mm"
   height="128.5mm"
   viewBox="0 0 30.48 128.5"
   version="1.1"
   id="svg1524"
   inkscape:version="1.3.2 (091e20ef0f, 2023-11-25, custom)"
   sodipodi:docname="DMAFX.svg"
   xmlns:inkscape="http://www.inkscape.org/namespaces/inkscape"
   xmlns:sodipodi="http://sodipodi.sourceforge.net/DTD/sodipodi-0.dtd"
   xmlns="http://www.w3.org/2000/svg"
   xmlns:svg="http://www.w3.org/2000/svg">
  <sodipodi:namedview
     id="namedview1526"
     pagecolor="#cccccc"
     bordercolor="#666666"
     borderopacity="1.0"
     inkscape:pageshadow="2"
     inkscape:pageopacity="1"
     inkscape:pagecheckerboard="0"
     inkscape:document-units="mm"
     showgrid="true"
     units="in"
     inkscape:showpageshadow="2"
     inkscape:deskcolor="#d1d1d1"
     inkscape:zoom="2.6103264"
     inkscape:cx="99.795949"
     inkscape:cy="40.224855"
     inkscape:window-width="1920"
     inkscape:window-height="1008"
     inkscape:window-x="0"
     inkscape:window-y="0"
     inkscape:window-maximized="1"
     inkscape:current-layer="layer1">
    <inkscape:grid
       type="xygrid"
       id="grid1608"
       originx="7.6199999"
       originy="64.25"
       units="mm"
       spacingx="2.5400001"
       spacingy="2.5400001"
       visible="true" />
  </sodipodi:namedview>
  <defs
     id="defs1521" />
  <g
     inkscape:groupmode="layer"
     id="layer2"
     inkscape:label="Background"
     sodipodi:insensitive="true">
    <rect
       style="display:inline;fill:#1a1a1a;stroke-width:0.320127"
       id="rect374"
       width="30.480001"
       height="128.5"
       x="0"
       y="0" />
  </g>
  <g
     inkscape:label="Layer 1"
     inkscape:groupmode="layer"
     id="layer1">
    <path
       style="fill:none;fill-rule:evenodd;stroke:#ffffff;stroke-width:0.5;stroke-linecap:butt;stroke-linejoin:miter;stroke-dasharray:none;stroke-opacity:1"
       d="M 7.6199993,33.769998 H 22.86"
       id="path4" />
    <path
       style="fill:none;fill-rule:evenodd;stroke:#ffffff;stroke-width:0.5;stroke-linecap:butt;stroke-linejoin:miter;stroke-dasharray:none;stroke-opacity:1"
       d="M 15.24,26.149998 V 41.389997"
       id="path3" />
    <path
       style="fill:none;fill-rule:evenodd;stroke:#ffffff;stroke-width:0.5;stroke-linecap:butt;stroke-linejoin:miter;stroke-dasharray:none;stroke-opacity:1"
       d="M 7.6199993,26.149998 22.86,41.389997"
       id="path5" />
    <path
       style="fill:none;fill-rule:evenodd;stroke:#ffffff;stroke-width:0.5;stroke-linecap:butt;stroke-linejoin:miter;stroke-dasharray:none;stroke-opacity:1"
       d="M 7.62,41.389998 22.859999,26.149997"
       id="path6" />
    <circle
       style="fill:#1a1a1a;fill-opacity:1;stroke:#fcfcfc;stroke-width:0.5;stroke-linecap:round;stroke-linejoin:round;stroke-dasharray:none;stroke-opacity:1"
       id="path2"
       cx="15.24"
       cy="33.769997"
       r="2.54" />
    <path
       style="fill:none;fill-opacity:1;stroke:#ffffff;stroke-width:0.76566;stroke-linecap:round;stroke-linejoin:round;stroke-dasharray:none;stroke-opacity:1"
       id="path8"
       sodipodi:type="arc"
       sodipodi:cx="-8.7571697"
       sodipodi:cy="-70.467171"
       sodipodi:rx="5.8343406"
       sodipodi:ry="5.8343406"
       sodipodi:start="0"
       sodipodi:end="1.5707963"
       sodipodi:arc-type="arc"
       d="m -2.9228292,-70.467171 a 5.8343406,5.8343406 0 0 1 -1.7088387,4.125502 5.8343406,5.8343406 0 0 1 -4.1255018,1.708839"
       sodipodi:open="true"
       transform="scale(-1)" />
    <path
       style="fill:none;fill-opacity:1;stroke:#ffffff;stroke-width:0.76566;stroke-linecap:round;stroke-linejoin:round;stroke-dasharray:none;stroke-opacity:1"
       id="path8-6"
       sodipodi:type="arc"
       sodipodi:cx="21.72283"
       sodipodi:cy="-70.467171"
       sodipodi:rx="5.8343406"
       sodipodi:ry="5.8343406"
       sodipodi:start="0"
       sodipodi:end="1.5707963"
       sodipodi:arc-type="arc"
       d="m 27.55717,-70.467171 a 5.8343406,5.8343406 0 0 1 -5.83434,5.834341"
       sodipodi:open="true"
       transform="scale(1,-1)" />
    <path
       style="fill:#ffffff;fill-opacity:1;fill-rule:evenodd;stroke:none;stroke-width:0.132292px;stroke-linecap:butt;stroke-linejoin:miter;stroke-opacity:1"
       d="m 8.7571697,63.362833 v 2.54 l 1.2700003,-1.27 -1.2700003,-1.27"
       id="path9" />
    <path
       style="fill:#ffffff;fill-opacity:1;fill-rule:evenodd;stroke:none;stroke-width:0.132292px;stroke-linecap:butt;stroke-linejoin:miter;stroke-opacity:1"
       d="m 21.72283,63.362833 v 2.54 l -1.27,-1.27 1.27,-1.27"
       id="path9-4" />
    <path
       style="fill:none;fill-rule:evenodd;stroke:#f6f6f6;stroke-width:0.5;stroke-linecap:butt;stroke-linejoin:miter;stroke-opacity:1;stroke-dasharray:none"
       d="M 7.6199996,51.549998 H 22.86"
       id="path11" />
    <path
       style="fill:#ffffff;fill-opacity:1;fill-rule:evenodd;stroke:none;stroke-width:0.0661457px;stroke-linecap:butt;stroke-linejoin:miter;stroke-opacity:1"
       d="m 3.7041663,78.855 1.905,-1.905 1.905,1.905 h -1.27 v 4.868334 h 1.27 l -1.905,1.905 -1.905,-1.905 h 1.27 V 78.855 Z"
       id="path15"
       sodipodi:nodetypes="ccccccccccc" />
    <path
       style="fill:#ffffff;fill-opacity:1;fill-rule:evenodd;stroke:none;stroke-width:0.0661457px;stroke-linecap:butt;stroke-linejoin:miter;stroke-opacity:1"
       d="m 24.024167,75.256661 1.905,1.905 -1.905,1.905 v -1.27 h -4.868334 v 1.27 l -1.905,-1.905 1.905,-1.905 v 1.27 h 4.868334 z"
       id="path15-6"
       sodipodi:nodetypes="ccccccccccc" />
    <g
       id="g1226"
       style="stroke-width:0.3;stroke-dasharray:none"
       inkscape:label="logo"
       transform="matrix(0.97119799,0,0,0.97119799,0.45713906,3.394835)">
      <path
         style="fill:none;fill-rule:evenodd;stroke:#ff7f7f;stroke-width:0.3;stroke-linecap:round;stroke-linejoin:round;stroke-dasharray:none;stroke-opacity:1"
         d="m 4.7708989,116.7807 -1.3131348,0.65656 -1.3131348,0.65657 2.6262696,2.62627 -2.6262696,1.31314"
         id="path496"
         sodipodi:nodetypes="ccccc" />
      <path
         style="fill:none;fill-rule:evenodd;stroke:#feff7f;stroke-width:0.3;stroke-linecap:round;stroke-linejoin:round;stroke-dasharray:none;stroke-opacity:1"
         d="m 6.0840338,122.03324 v -5.25254 l 2.6262702,1.31313 -2.6262702,1.31314"
         id="path498" />
      <path
         style="fill:none;fill-rule:evenodd;stroke:#7fff7f;stroke-width:0.3;stroke-linecap:round;stroke-linejoin:round;stroke-dasharray:none;stroke-opacity:1"
         d="m 8.710304,122.03324 1.313135,-5.25254 1.313135,5.25254"
         id="path500" />
      <path
         style="fill:none;fill-rule:evenodd;stroke:#80ffff;stroke-width:0.3;stroke-linecap:round;stroke-linejoin:round;stroke-dasharray:none;stroke-opacity:1"
         d="m 12.649708,122.03324 v -5.25254 l 2.62627,1.31313 -2.62627,1.31314 2.62627,2.62627"
         id="path502" />
      <path
         style="fill:none;fill-rule:evenodd;stroke:#8080ff;stroke-width:0.3;stroke-linecap:round;stroke-linejoin:round;stroke-dasharray:none;stroke-opacity:1"
         d="m 16.589114,116.7807 v 5.25254"
         id="path504" />
      <path
         style="fill:none;fill-rule:evenodd;stroke:#8080ff;stroke-width:0.3;stroke-linecap:round;stroke-linejoin:round;stroke-dasharray:none;stroke-opacity:1"
         d="m 19.215383,116.7807 -2.626269,2.62627 2.626269,2.62627"
         id="path506" />
      <path
         style="fill:none;fill-rule:evenodd;stroke:#bf80ff;stroke-width:0.3;stroke-linecap:round;stroke-linejoin:round;stroke-dasharray:none;stroke-opacity:1"
         d="m 21.786938,116.7807 -2.626269,1.31313 2.626269,1.31314 -2.626269,1.31313 2.626269,1.31314"
         id="path508" />
      <path
         style="fill:none;fill-rule:evenodd;stroke:#ff80ff;stroke-width:0.3;stroke-linecap:round;stroke-linejoin:round;stroke-dasharray:none;stroke-opacity:1"
         d="m 21.732224,116.7807 h 3.939404"
         id="path514" />
      <path
         style="fill:none;fill-rule:evenodd;stroke:#ff80ff;stroke-width:0.3;stroke-linecap:round;stroke-linejoin:round;stroke-dasharray:none;stroke-opacity:1"
         d="m 23.045358,116.7807 v 5.25254"
         id="path516" />
      <path
         style="fill:none;fill-rule:evenodd;stroke:#ff80ff;stroke-width:0.3;stroke-linecap:round;stroke-linejoin:round;stroke-dasharray:none;stroke-opacity:1"
         d="m 24.358493,116.7807 v 5.25254"
         id="path518" />
      <path
         style="fill:none;fill-rule:evenodd;stroke:#ff80bf;stroke-width:0.3;stroke-linecap:round;stroke-linejoin:round;stroke-dasharray:none;stroke-opacity:1"
         d="m 28.297898,116.7807 -2.62627,1.31313 2.62627,1.31314 -2.62627,1.31313 2.62627,1.31314"
         id="path520" />
      <path
         style="fill:none;fill-rule:evenodd;stroke:#7fff7f;stroke-width:0.3;stroke-linecap:round;stroke-linejoin:round;stroke-dasharray:none;stroke-opacity:1"
         d="M 9.3319214,119.40697 H 10.714956"
         id="path630" />
    </g>
    <g
       id="g22"
       transform="matrix(0.33333395,0,0,0.33333395,12.170807,69.92659)">
      <rect
         style="display:inline;fill:#ffffff;fill-opacity:1;stroke:none;stroke-width:1.5;stroke-linecap:round;stroke-linejoin:round;stroke-dasharray:none;stroke-opacity:1"
         id="rect21-0"
         width="15.240002"
         height="15.240004"
         x="33.02"
         y="120.13"
         rx="3.0000002"
         ry="3.0000007" />
      <circle
         style="fill:#1a1a1a;fill-opacity:1;stroke:none;stroke-width:0.749998;stroke-linecap:round;stroke-linejoin:round;stroke-dasharray:none;stroke-opacity:1"
         id="path22-4-0-9"
         cx="40.639999"
         cy="127.75"
         r="1.905" />
    </g>
    <g
       id="g23"
       transform="matrix(0.33333343,0,0,0.33333343,12.170828,69.714981)">
      <rect
         style="display:inline;fill:#ffffff;fill-opacity:1;stroke:none;stroke-width:1.5;stroke-linecap:round;stroke-linejoin:round;stroke-dasharray:none;stroke-opacity:1"
         id="rect21"
         width="15.240002"
         height="15.240004"
         x="33.02"
         y="102.35"
         rx="3.0000002"
         ry="3.0000007" />
      <circle
         style="fill:#1a1a1a;fill-opacity:1;stroke:none;stroke-width:0.749998;stroke-linecap:round;stroke-linejoin:round;stroke-dasharray:none;stroke-opacity:1"
         id="path22"
         cx="36.406666"
         cy="106.90083"
         r="1.905" />
      <circle
         style="fill:#1a1a1a;fill-opacity:1;stroke:none;stroke-width:0.749998;stroke-linecap:round;stroke-linejoin:round;stroke-dasharray:none;stroke-opacity:1"
         id="path22-4"
         cx="40.639999"
         cy="106.90083"
         r="1.905" />
      <circle
         style="fill:#1a1a1a;fill-opacity:1;stroke:none;stroke-width:0.749998;stroke-linecap:round;stroke-linejoin:round;stroke-dasharray:none;stroke-opacity:1"
         id="path22-6"
         cx="44.873337"
         cy="106.90083"
         r="1.905" />
      <circle
         style="fill:#1a1a1a;fill-opacity:1;stroke:none;stroke-width:0.749998;stroke-linecap:round;stroke-linejoin:round;stroke-dasharray:none;stroke-opacity:1"
         id="path22-3"
         cx="36.40667"
         cy="113.145"
         r="1.905" />
      <circle
         style="fill:#1a1a1a;fill-opacity:1;stroke:none;stroke-width:0.749998;stroke-linecap:round;stroke-linejoin:round;stroke-dasharray:none;stroke-opacity:1"
         id="path22-4-0"
         cx="40.640003"
         cy="113.145"
         r="1.905" />
      <circle
         style="fill:#1a1a1a;fill-opacity:1;stroke:none;stroke-width:0.749998;stroke-linecap:round;stroke-linejoin:round;stroke-dasharray:none;stroke-opacity:1"
         id="path22-6-3"
         cx="44.873341"
         cy="113.145"
         r="1.905" />
    </g>
    <g
       id="g17"
       transform="matrix(1.3655918,0,0,1.3655918,-0.04439081,-44.696928)"
       style="display:inline">
      <circle
         style="fill:none;fill-opacity:1;stroke:#ffffff;stroke-width:0.499999;stroke-linecap:round;stroke-linejoin:round;stroke-dasharray:none;stroke-opacity:1"
         id="path17"
         cx="17.780001"
         cy="104.89"
         r="2.54" />
      <path
         style="fill:#ffffff;fill-opacity:1;stroke:none;stroke-width:0.5;stroke-linecap:round;stroke-linejoin:round;stroke-dasharray:none;stroke-opacity:1"
         id="circle17"
         sodipodi:type="arc"
         sodipodi:cx="17.780001"
         sodipodi:cy="104.89"
         sodipodi:rx="2.54"
         sodipodi:ry="2.54"
         sodipodi:start="0"
         sodipodi:end="3.1415927"
         sodipodi:arc-type="slice"
         d="m 20.320001,104.89 a 2.54,2.54 0 0 1 -1.27,2.1997 2.54,2.54 0 0 1 -2.54,0 2.54,2.54 0 0 1 -1.27,-2.1997 h 2.54 z" />
    </g>
    <path
       style="fill:none;fill-rule:evenodd;stroke:#ffffff;stroke-width:0.5;stroke-linecap:butt;stroke-linejoin:miter;stroke-dasharray:none;stroke-opacity:1"
       d="M 15.901458,98.539993 H 5.7414577"
       id="path23" />
    <path
       style="fill:none;fill-rule:evenodd;stroke:#ffffff;stroke-width:0.5;stroke-linecap:butt;stroke-linejoin:miter;stroke-dasharray:none;stroke-opacity:1"
       d="M 15.08125,109.44083 H 4.9212496"
       id="path23-2" />
    <rect
       style="fill:#000000;stroke-width:0.549465;stroke-linecap:round;stroke-linejoin:round"
       id="rect1"
       width="6.1348701"
       height="5.0799999"
       x="21.80513"
       y="10.38083" />
    <path
       style="fill:none;fill-rule:evenodd;stroke:#808080;stroke-width:0.132292;stroke-linecap:butt;stroke-linejoin:miter;stroke-dasharray:none;stroke-opacity:1"
       d="M 21.80513,15.460829 H 27.94 v -5.080001"
       id="path18"
       sodipodi:nodetypes="ccc" />
  </g>
  <g
     inkscape:groupmode="layer"
     id="layer4"
     inkscape:label="Text"
     style="display:none">
    <text
       xml:space="preserve"
       style="font-size:4.43763px;line-height:125%;font-family:sans-serif;letter-spacing:0px;word-spacing:0px;fill:#ff66ff;fill-opacity:1;stroke:none;stroke-width:0.138676px;stroke-linecap:butt;stroke-linejoin:miter;stroke-opacity:1"
       x="5.8647475"
       y="9.452529"
       id="text6"><tspan
         sodipodi:role="line"
         id="tspan6"
         style="font-style:normal;font-variant:normal;font-weight:normal;font-stretch:normal;font-family:S3121;-inkscape-font-specification:S3121;fill:#ff66ff;fill-opacity:1;stroke:none;stroke-width:0.138676px"
         x="5.8647475"
         y="9.452529">DMA-FX</tspan></text>
    <text
       xml:space="preserve"
       style="font-size:4.6457px;line-height:125%;font-family:sans-serif;letter-spacing:0px;word-spacing:0px;fill:#ffffff;fill-opacity:1;stroke:none;stroke-width:0.145178px;stroke-linecap:butt;stroke-linejoin:miter;stroke-opacity:1"
       x="6.1483674"
       y="19.776747"
       id="text7"><tspan
         sodipodi:role="line"
         id="tspan7"
         style="font-style:normal;font-variant:normal;font-weight:normal;font-stretch:normal;font-family:'Ubuntu Condensed';-inkscape-font-specification:'Ubuntu Condensed, ';fill:#ffffff;fill-opacity:1;stroke:none;stroke-width:0.145178px"
         x="6.1483674"
         y="19.776747">— Scroll —</tspan></text>
    <text
       xml:space="preserve"
       style="font-size:4.6457px;line-height:125%;font-family:sans-serif;letter-spacing:0px;word-spacing:0px;fill:#ffffff;fill-opacity:1;stroke:none;stroke-width:0.145178px;stroke-linecap:butt;stroke-linejoin:miter;stroke-opacity:1"
       x="1.3121871"
       y="60.581985"
       id="text7-1"><tspan
         sodipodi:role="line"
         id="tspan7-8"
         style="font-style:normal;font-variant:normal;font-weight:normal;font-stretch:normal;font-family:'Ubuntu Condensed';-inkscape-font-specification:'Ubuntu Condensed, ';fill:#ffffff;fill-opacity:1;stroke:none;stroke-width:0.145178px"
         x="1.3121871"
         y="60.581985">— Flip/Rotate —</tspan></text>
    <text
       xml:space="preserve"
       style="font-size:4.6457px;line-height:125%;font-family:sans-serif;letter-spacing:0px;word-spacing:0px;fill:#ffffff;fill-opacity:1;stroke:none;stroke-width:0.145178px;stroke-linecap:butt;stroke-linejoin:miter;stroke-opacity:1"
       x="2.717515"
       y="92.229248"
       id="text7-1-4"><tspan
         sodipodi:role="line"
         id="tspan7-8-8"
         style="font-style:normal;font-variant:normal;font-weight:normal;font-stretch:normal;font-family:'Ubuntu Condensed';-inkscape-font-specification:'Ubuntu Condensed, ';fill:#ffffff;fill-opacity:1;stroke:none;stroke-width:0.145178px"
         x="2.717515"
         y="92.229248">— Misc. Ops —</tspan></text>
    <text
       xml:space="preserve"
       style="font-size:5.09455px;line-height:125%;font-family:sans-serif;letter-spacing:0px;word-spacing:0px;fill:#ff66ff;fill-opacity:1;stroke:none;stroke-width:0.159205px;stroke-linecap:butt;stroke-linejoin:miter;stroke-opacity:1"
       x="1.7306454"
       y="14.647638"
       id="text8"><tspan
         sodipodi:role="line"
         id="tspan8"
         style="font-style:normal;font-variant:normal;font-weight:normal;font-stretch:normal;font-family:'Ubuntu Condensed';-inkscape-font-specification:'Ubuntu Condensed, ';fill:#ff66ff;fill-opacity:1;stroke:none;stroke-width:0.159205px;stroke-opacity:1"
         x="1.7306454"
         y="14.647638">Channels:</tspan></text>
    <text
       xml:space="preserve"
       style="font-size:4.8957px;line-height:125%;font-family:sans-serif;letter-spacing:0px;word-spacing:0px;fill:#ffffff;fill-opacity:1;stroke:none;stroke-width:0.15299px;stroke-linecap:butt;stroke-linejoin:miter;stroke-opacity:1"
       x="11.404217"
       y="66.383049"
       id="text10"><tspan
         sodipodi:role="line"
         id="tspan10"
         style="fill:#ffffff;fill-opacity:1;stroke:none;stroke-width:0.15299px"
         x="11.404217"
         y="66.383049">90°</tspan></text>
  </g>
  <g
     inkscape:groupmode="layer"
     id="g29"
     inkscape:label="Text copy"
     style="display:inline"
     sodipodi:insensitive="true">
    <path
       style="font-size:4.43763px;line-height:125%;font-family:S3121;-inkscape-font-specification:S3121;letter-spacing:0px;word-spacing:0px;display:inline;fill:#ff66ff;stroke-width:0.138676px"
       d="M 5.8647475,9.4525299 V 8.8826585 h 0.4842824 v 0.5698714 z m 0.5384527,0 V 8.8826585 H 6.888566 v 0.5698714 z m 0.5384527,0 V 8.8826585 H 7.4270187 V 9.4525299 Z M 5.8647475,8.8187375 V 8.2488661 h 0.4842824 v 0.5698714 z m 1.6164415,0 V 8.2488661 H 7.9654714 V 8.8187375 Z M 5.8647475,8.1849451 V 7.6150737 h 0.4842824 v 0.5698714 z m 2.1548942,0 V 7.6150737 H 8.5050075 V 8.1849451 Z M 5.8647475,7.5511527 V 6.9801979 h 0.4842824 v 0.5709548 z m 2.1548942,0 V 6.9801979 H 8.5050075 V 7.5511527 Z M 5.8647475,6.9173603 V 6.3464055 h 0.4842824 v 0.5709548 z m 2.1548942,0 V 6.3464055 H 8.5050075 V 6.9173603 Z M 5.8647475,6.2835679 V 5.7126131 h 0.4842824 v 0.5709548 z m 1.6164415,0 V 5.7126131 H 7.9654714 V 6.2835679 Z M 5.8647475,5.6497755 V 5.0788207 h 0.4842824 v 0.5709548 z m 0.5384527,0 V 5.0788207 H 6.888566 v 0.5709548 z m 0.5384527,0 V 5.0788207 H 7.4270187 V 5.6497755 Z M 9.0867963,9.4525299 V 8.8826585 h 0.4842824 v 0.5698714 z m 2.1548937,0 V 8.8826585 h 0.485366 V 9.4525299 Z M 9.0867963,8.8187375 V 8.2488661 h 0.4842824 v 0.5698714 z m 2.1548937,0 V 8.2488661 h 0.485366 V 8.8187375 Z M 9.0867963,8.1849451 V 7.6150737 h 0.4842824 v 0.5698714 z m 2.1548937,0 V 7.6150737 h 0.485366 V 8.1849451 Z M 9.0867963,7.5511527 V 6.9801979 h 0.4842824 v 0.5709548 z m 1.0769057,0 V 6.9801979 h 0.485365 v 0.5709548 z m 1.077988,0 V 6.9801979 h 0.485366 V 7.5511527 Z M 9.0867963,6.9173603 V 6.3464055 h 0.4842824 v 0.5709548 z m 1.0769057,0 V 6.3464055 h 0.485365 v 0.5709548 z m 1.077988,0 V 6.3464055 h 0.485366 V 6.9173603 Z M 9.0867963,6.2835679 V 5.7126131 h 0.4842824 v 0.5709548 z m 0.5384527,0 V 5.7126131 h 0.485366 v 0.5709548 z m 1.077989,0 V 5.7126131 h 0.484282 v 0.5709548 z m 0.538452,0 V 5.7126131 h 0.485366 V 6.2835679 Z M 9.0867963,5.6497755 V 5.0788207 h 0.4842824 v 0.5709548 z m 2.1548937,0 V 5.0788207 h 0.485366 v 0.5709548 z m 1.067155,3.8027544 V 8.8826585 h 0.484282 v 0.5698714 z m 2.154894,0 V 8.8826585 h 0.485366 V 9.4525299 Z M 12.308845,8.8187375 V 8.2488661 h 0.484282 v 0.5698714 z m 2.154894,0 V 8.2488661 h 0.485366 V 8.8187375 Z M 12.308845,8.1849451 V 7.6150737 h 0.484282 v 0.5698714 z m 0.538453,0 V 7.6150737 h 0.485366 v 0.5698714 z m 0.538452,0 V 7.6150737 h 0.485366 v 0.5698714 z m 0.539537,0 V 7.6150737 h 0.484282 v 0.5698714 z m 0.538452,0 V 7.6150737 h 0.485366 V 8.1849451 Z M 12.308845,7.5511527 V 6.9801979 h 0.484282 v 0.5709548 z m 2.154894,0 V 6.9801979 h 0.485366 V 7.5511527 Z M 12.308845,6.9173603 V 6.3464055 h 0.484282 v 0.5709548 z m 2.154894,0 V 6.3464055 h 0.485366 V 6.9173603 Z M 12.847298,6.2835679 V 5.7126131 h 0.485366 v 0.5709548 z m 1.077989,0 V 5.7126131 h 0.484282 V 6.2835679 Z M 13.38575,5.6497755 V 5.0788207 h 0.485366 v 0.5709548 z m 2.145144,1.9013772 V 6.9801979 h 0.484282 v 0.5709548 z m 0.538452,0 V 6.9801979 h 0.485366 v 0.5709548 z m 0.538453,0 V 6.9801979 h 0.485366 v 0.5709548 z m 0.539536,0 V 6.9801979 h 0.484283 v 0.5709548 z m 0.538453,0 V 6.9801979 h 0.485366 v 0.5709548 z m 1.067155,1.9013772 V 8.8826585 h 0.484282 v 0.5698714 z m 0,-0.6337924 V 8.2488661 h 0.484282 v 0.5698714 z m 0,-0.6337924 V 7.6150737 h 0.484282 v 0.5698714 z m 0,-0.6337924 V 6.9801979 h 0.484282 v 0.5709548 z m 0.538452,0 V 6.9801979 h 0.485366 v 0.5709548 z m 0.538453,0 V 6.9801979 h 0.485366 v 0.5709548 z m 0.539536,0 V 6.9801979 h 0.484282 V 7.5511527 Z M 18.752943,6.9173603 V 6.3464055 h 0.484282 v 0.5709548 z m 0,-0.6337924 V 5.7126131 h 0.484282 v 0.5709548 z m 0,-0.6337924 V 5.0788207 h 0.484282 v 0.5709548 z m 0.538452,0 V 5.0788207 h 0.485366 v 0.5709548 z m 0.538453,0 V 5.0788207 h 0.485366 v 0.5709548 z m 0.539536,0 V 5.0788207 h 0.484282 v 0.5709548 z m 0.538453,0 V 5.0788207 h 0.485366 v 0.5709548 z m 1.067155,3.8027544 V 8.8826585 h 0.484283 v 0.5698714 z m 2.154894,0 V 8.8826585 h 0.485366 V 9.4525299 Z M 21.974992,8.8187375 V 8.2488661 h 0.484283 v 0.5698714 z m 2.154894,0 V 8.2488661 h 0.485366 V 8.8187375 Z M 22.513445,8.1849451 V 7.6150737 h 0.485366 v 0.5698714 z m 1.077989,0 V 7.6150737 h 0.484282 V 8.1849451 Z M 23.051898,7.5511527 V 6.9801979 h 0.485365 V 7.5511527 Z M 22.513445,6.9173603 V 6.3464055 h 0.485366 v 0.5709548 z m 1.077989,0 V 6.3464055 h 0.484282 V 6.9173603 Z M 21.974992,6.2835679 V 5.7126131 h 0.484283 v 0.5709548 z m 2.154894,0 V 5.7126131 h 0.485366 V 6.2835679 Z M 21.974992,5.6497755 V 5.0788207 h 0.484283 v 0.5709548 z m 2.154894,0 V 5.0788207 h 0.485366 v 0.5709548 z"
       id="text24"
       aria-label="DMA-FX" />
    <path
       style="font-size:4.6457px;line-height:125%;font-family:'Ubuntu Condensed';-inkscape-font-specification:'Ubuntu Condensed, ';letter-spacing:0px;word-spacing:0px;fill:#ffffff;stroke-width:0.145178px"
       d="m 6.1297846,18.211146 h 3.484275 v 0.339136 h -3.484275 z m 5.1613734,1.277567 q 0.250868,0 0.385594,-0.139371 0.139371,-0.139371 0.139371,-0.376301 0,-0.125434 -0.04181,-0.222994 -0.04181,-0.09756 -0.111497,-0.176537 -0.06504,-0.07898 -0.153308,-0.144016 -0.08827,-0.06504 -0.181182,-0.13008 -0.106851,-0.07433 -0.222993,-0.157954 -0.116143,-0.08362 -0.213703,-0.195119 -0.09291,-0.111497 -0.153308,-0.260159 -0.06039,-0.148663 -0.06039,-0.348428 0,-0.195119 0.06504,-0.353073 0.06969,-0.157954 0.185828,-0.269451 0.120788,-0.111496 0.283388,-0.17189 0.167245,-0.06039 0.357718,-0.06039 0.185828,0 0.343782,0.04646 0.157954,0.04646 0.264805,0.111497 l -0.130079,0.329845 q -0.09756,-0.06504 -0.213703,-0.09756 -0.111496,-0.03716 -0.23693,-0.03716 -0.22764,0 -0.367011,0.125434 -0.134725,0.120788 -0.134725,0.357718 0,0.13008 0.04181,0.22764 0.04646,0.09756 0.116143,0.176536 0.07433,0.07898 0.167245,0.144017 0.09756,0.06504 0.204411,0.134725 0.106851,0.06969 0.218348,0.153308 0.111497,0.08362 0.199765,0.19512 0.09291,0.106851 0.148662,0.255513 0.06039,0.144017 0.06039,0.343782 0,0.181182 -0.05575,0.343782 -0.05575,0.162599 -0.176537,0.288033 -0.116142,0.120789 -0.297324,0.19512 -0.176537,0.06968 -0.418113,0.06968 -0.222994,0 -0.390239,-0.0511 -0.167245,-0.0511 -0.297325,-0.134726 l 0.13008,-0.33449 q 0.120788,0.07433 0.246222,0.120788 0.130079,0.04181 0.297324,0.04181 z m 2.267102,0.348428 q -0.250867,0 -0.418113,-0.09756 -0.167245,-0.09756 -0.274096,-0.264805 -0.102205,-0.171891 -0.148662,-0.404176 -0.04181,-0.232285 -0.04181,-0.506381 0,-0.603941 0.218348,-0.943077 0.222994,-0.343782 0.668981,-0.343782 0.134725,0 0.241576,0.03252 0.106852,0.03252 0.199766,0.08362 l -0.102206,0.329844 q -0.144017,-0.09291 -0.320553,-0.09291 -0.250868,0 -0.371656,0.22764 -0.116143,0.227639 -0.116143,0.706146 0,0.199765 0.02323,0.371656 0.02323,0.167245 0.07898,0.288033 0.06039,0.120789 0.153308,0.190474 0.09756,0.06969 0.246222,0.06969 0.102205,0 0.181182,-0.02323 0.08362,-0.02787 0.157954,-0.06968 l 0.08827,0.311262 q -0.07433,0.0511 -0.199765,0.09291 -0.120788,0.04181 -0.264805,0.04181 z m 1.951197,-2.137022 q -0.148662,-0.06504 -0.33449,-0.06504 -0.171891,0 -0.320553,0.06039 v 2.081274 h -0.399531 v -2.332142 q 0.134726,-0.06504 0.306617,-0.106851 0.176536,-0.04646 0.385593,-0.04646 0.111497,0 0.222993,0.01394 0.111497,0.01394 0.209057,0.0511 z m 1.988355,0.859454 q 0,0.288034 -0.0511,0.524964 -0.0511,0.232285 -0.157953,0.399531 -0.102206,0.167245 -0.264805,0.260159 -0.157954,0.09291 -0.376302,0.09291 -0.218348,0 -0.380947,-0.09291 -0.1626,-0.09291 -0.269451,-0.260159 -0.102205,-0.167246 -0.153308,-0.399531 -0.0511,-0.23693 -0.0511,-0.524964 0,-0.283387 0.0511,-0.520318 0.0511,-0.236931 0.153308,-0.404176 0.106851,-0.171891 0.269451,-0.264805 0.162599,-0.09291 0.380947,-0.09291 0.218348,0 0.376302,0.09291 0.162599,0.09291 0.264805,0.264805 0.106851,0.167245 0.157953,0.404176 0.0511,0.236931 0.0511,0.520318 z m -0.418113,0 q 0,-0.20441 -0.02323,-0.371656 -0.02323,-0.171891 -0.07433,-0.292679 -0.0511,-0.125434 -0.134725,-0.190473 -0.08362,-0.06969 -0.199765,-0.06969 -0.120788,0 -0.204411,0.06969 -0.07898,0.06504 -0.134725,0.190473 -0.0511,0.120788 -0.07433,0.292679 -0.02323,0.167246 -0.02323,0.371656 0,0.204411 0.02323,0.376302 0.02323,0.167245 0.07433,0.288033 0.05575,0.120789 0.134725,0.190474 0.08362,0.06504 0.204411,0.06504 0.116143,0 0.199765,-0.06504 0.08362,-0.06968 0.134725,-0.190474 0.0511,-0.120788 0.07433,-0.288033 0.02323,-0.171891 0.02323,-0.376302 z m 1.635284,1.263631 q -0.343782,-0.0093 -0.492445,-0.167245 -0.148662,-0.1626 -0.148662,-0.511027 v -2.903563 l 0.39953,-0.06968 v 2.982539 q 0,0.162599 0.06504,0.236931 0.06504,0.06968 0.227639,0.09756 z m 1.128905,0 q -0.343782,-0.0093 -0.492444,-0.167245 -0.148663,-0.1626 -0.148663,-0.511027 v -2.903563 l 0.39953,-0.06968 v 2.982539 q 0,0.162599 0.06504,0.236931 0.06504,0.06968 0.22764,0.09756 z m 1.022052,-1.612058 h 3.484275 v 0.339136 H 20.86594 Z"
       id="text25"
       aria-label="— Scroll —" />
    <path
       style="font-size:4.6457px;line-height:125%;font-family:'Ubuntu Condensed';-inkscape-font-specification:'Ubuntu Condensed, ';letter-spacing:0px;word-spacing:0px;fill:#ffffff;stroke-width:0.145178px"
       d="m 1.2936043,59.016385 h 3.484275 v 0.339136 h -3.484275 z m 4.7618437,1.5656 v -3.21947 h 1.4448127 v 0.357719 H 6.473561 v 1.012763 h 0.9105572 v 0.348427 H 6.473561 v 1.500561 z m 2.5830121,0.04646 Q 8.2946783,60.619151 8.1460159,60.461197 7.9973535,60.298598 7.9973535,59.95017 v -2.903562 l 0.3995302,-0.06969 v 2.98254 q 0,0.162599 0.06504,0.23693 0.06504,0.06969 0.2276393,0.09756 z m 0.8966198,-0.04646 H 9.1355497 V 58.142993 H 9.5350799 Z M 9.3353148,57.710943 q -0.1068511,0 -0.185828,-0.06969 -0.074331,-0.07433 -0.074331,-0.195119 0,-0.120788 0.074331,-0.190474 0.078977,-0.07433 0.185828,-0.07433 0.1068511,0 0.1811823,0.07433 0.078977,0.06969 0.078977,0.190474 0,0.120788 -0.078977,0.195119 -0.074331,0.06969 -0.1811823,0.06969 z m 1.3193822,2.504032 q 0.134725,0.07433 0.288033,0.07433 0.116142,0 0.204411,-0.04646 0.08827,-0.04646 0.148662,-0.153308 0.06504,-0.106851 0.09756,-0.283387 0.03252,-0.176537 0.03252,-0.436696 0,-0.501736 -0.13008,-0.715438 -0.125434,-0.218348 -0.404176,-0.218348 -0.0511,0 -0.111497,0.0093 -0.06039,0.0046 -0.125433,0.02323 z m 0,1.226465 h -0.399531 v -3.233407 q 0.13008,-0.05575 0.292679,-0.08827 0.167246,-0.03717 0.339137,-0.03717 0.255513,0 0.436695,0.08827 0.185828,0.08827 0.297325,0.255514 0.116143,0.162599 0.167245,0.404176 0.05575,0.23693 0.05575,0.543546 0,0.617879 -0.199765,0.943078 -0.19512,0.325199 -0.641107,0.325199 -0.106851,0 -0.190474,-0.02323 -0.08362,-0.01858 -0.157953,-0.05575 z m 1.709623,0 h -0.371656 l 1.124259,-4.497038 h 0.371656 z m 1.393712,-4.032468 q 0.325199,-0.07898 0.627169,-0.07898 0.241577,0 0.436696,0.05575 0.195119,0.05575 0.33449,0.176536 0.139371,0.120789 0.213703,0.311262 0.07898,0.190474 0.07898,0.459925 0,0.33449 -0.13008,0.543547 -0.125434,0.20441 -0.343782,0.311261 0.05575,0.09291 0.139371,0.255514 0.08827,0.157954 0.176537,0.353073 0.09291,0.190474 0.176536,0.394885 0.08827,0.20441 0.148663,0.390238 h -0.418113 q -0.0511,-0.139371 -0.13008,-0.315907 -0.07433,-0.176537 -0.157954,-0.348428 -0.08362,-0.176536 -0.167245,-0.33449 -0.08362,-0.1626 -0.148662,-0.274096 -0.07433,0.0093 -0.153308,0.01394 -0.07898,0.0046 -0.157954,0.0046 h -0.116143 v 1.254339 h -0.408821 z m 0.408821,1.574893 h 0.176537 q 0.320553,0 0.492444,-0.144017 0.171891,-0.148662 0.171891,-0.506381 0,-0.181183 -0.04646,-0.301971 -0.04181,-0.125434 -0.125434,-0.195119 -0.07898,-0.07433 -0.195119,-0.106851 -0.111497,-0.03252 -0.250868,-0.03252 -0.120788,0 -0.222994,0.01394 z m 3.423879,0.380947 q 0,0.288033 -0.0511,0.524964 -0.0511,0.232285 -0.157954,0.39953 -0.102205,0.167246 -0.264805,0.26016 -0.157953,0.09291 -0.376301,0.09291 -0.218348,0 -0.380948,-0.09291 -0.162599,-0.09291 -0.26945,-0.26016 -0.102206,-0.167245 -0.153308,-0.39953 -0.0511,-0.236931 -0.0511,-0.524964 0,-0.283388 0.0511,-0.520318 0.0511,-0.236931 0.153308,-0.404176 0.106851,-0.171891 0.26945,-0.264805 0.1626,-0.09291 0.380948,-0.09291 0.218348,0 0.376301,0.09291 0.1626,0.09291 0.264805,0.264805 0.106851,0.167245 0.157954,0.404176 0.0511,0.23693 0.0511,0.520318 z m -0.418113,0 q 0,-0.204411 -0.02323,-0.371656 -0.02323,-0.171891 -0.07433,-0.292679 -0.0511,-0.125434 -0.134725,-0.190474 -0.08362,-0.06968 -0.199765,-0.06968 -0.120788,0 -0.204411,0.06968 -0.07898,0.06504 -0.134725,0.190474 -0.0511,0.120788 -0.07433,0.292679 -0.02323,0.167245 -0.02323,0.371656 0,0.204411 0.02323,0.376302 0.02323,0.167245 0.07433,0.288033 0.05575,0.120788 0.134725,0.190474 0.08362,0.06504 0.204411,0.06504 0.116142,0 0.199765,-0.06504 0.08362,-0.06969 0.134725,-0.190474 0.0511,-0.120788 0.07433,-0.288033 0.02323,-0.171891 0.02323,-0.376302 z m 1.375124,-1.221819 h 0.613232 v 0.343782 h -0.613232 v 1.342607 q 0,0.250868 0.08827,0.353073 0.09291,0.09756 0.246222,0.09756 0.07898,0 0.148663,-0.02323 0.07433,-0.02323 0.125434,-0.05575 l 0.07898,0.320553 q -0.190474,0.111497 -0.404176,0.111497 -0.343782,0 -0.515673,-0.190474 -0.167245,-0.195119 -0.167245,-0.641106 v -2.313559 l 0.39953,-0.06968 z m 1.156776,0.0511 q 0.120788,-0.0511 0.255513,-0.07898 0.134726,-0.03252 0.29268,-0.03252 0.325199,0 0.529609,0.204411 0.204411,0.199765 0.204411,0.627169 v 1.616704 q -0.167245,0.04646 -0.343782,0.07433 -0.171891,0.02787 -0.339136,0.02787 -0.167245,0 -0.315907,-0.04181 -0.144017,-0.04181 -0.255514,-0.134725 -0.106851,-0.09291 -0.171891,-0.232285 -0.06504,-0.144017 -0.06504,-0.348428 0,-0.190474 0.05575,-0.329845 0.06039,-0.144016 0.162599,-0.23693 0.102206,-0.09756 0.241577,-0.144017 0.139371,-0.0511 0.30197,-0.0511 0.153308,0 0.339136,0.03717 v -0.222994 q 0,-0.26945 -0.106851,-0.376301 -0.102205,-0.106852 -0.297325,-0.106852 -0.106851,0 -0.20441,0.02323 -0.09291,0.01858 -0.199765,0.06504 z m 0.190474,1.677097 q 0,0.213703 0.111496,0.315908 0.111497,0.102205 0.315908,0.102205 0.125434,0 0.274096,-0.03252 v -0.775831 q -0.139371,-0.03717 -0.274096,-0.03717 -0.08827,0 -0.167245,0.02323 -0.07898,0.01858 -0.139371,0.06969 -0.05575,0.04646 -0.08827,0.13008 -0.03252,0.07898 -0.03252,0.20441 z m 2.16025,-1.7282 h 0.613232 v 0.343782 h -0.613232 v 1.342607 q 0,0.250868 0.08827,0.353073 0.09291,0.09756 0.246222,0.09756 0.07898,0 0.148663,-0.02323 0.07433,-0.02323 0.125433,-0.05575 l 0.07898,0.320553 q -0.190473,0.111497 -0.404176,0.111497 -0.343781,0 -0.515672,-0.190474 -0.167245,-0.195119 -0.167245,-0.641106 v -2.313559 l 0.39953,-0.06968 z m 1.370481,1.337962 q 0.0046,0.176536 0.03252,0.325199 0.02788,0.144016 0.08827,0.255513 0.06504,0.106851 0.167245,0.167245 0.106851,0.06039 0.269451,0.06039 0.134725,0 0.246222,-0.03717 0.116142,-0.04181 0.167245,-0.06969 l 0.07433,0.320554 q -0.06039,0.04181 -0.204411,0.08827 -0.139371,0.0511 -0.33449,0.0511 -0.255514,0 -0.43205,-0.09291 -0.171891,-0.09291 -0.283388,-0.26016 -0.106851,-0.167245 -0.153308,-0.39953 -0.04646,-0.232285 -0.04646,-0.511027 0,-0.673626 0.222994,-0.984888 0.222993,-0.311262 0.590003,-0.311262 0.413468,0 0.585359,0.311262 0.171891,0.311262 0.171891,0.873391 0,0.0511 0,0.106851 0,0.0511 -0.0046,0.106852 z m 0.404175,-1.05922 q -0.199765,0 -0.292679,0.199765 -0.08827,0.199765 -0.106851,0.534256 h 0.738667 q 0,-0.339137 -0.06969,-0.534256 -0.06968,-0.199765 -0.269451,-0.199765 z m 1.872221,0.59465 h 3.484275 v 0.339136 H 25.70212 Z"
       id="text26"
       aria-label="— Flip/Rotate —" />
    <path
       style="font-size:4.6457px;line-height:125%;font-family:'Ubuntu Condensed';-inkscape-font-specification:'Ubuntu Condensed, ';letter-spacing:0px;word-spacing:0px;fill:#ffffff;stroke-width:0.145178px"
       d="m 2.6989322,90.663647 h 3.484275 v 0.339136 h -3.484275 z m 5.8814574,1.119614 Q 8.4874756,91.44877 8.3899159,91.142154 8.2923562,90.835538 8.1994422,90.566087 8.1111739,90.291991 8.0275513,90.068998 7.9439287,89.846004 7.8742432,89.678759 q -0.018583,0.264805 -0.03252,0.585358 -0.00929,0.315908 -0.023229,0.650398 -0.00929,0.33449 -0.018583,0.673626 -0.00465,0.334491 -0.00929,0.641107 H 7.3910904 q 0.013937,-0.418113 0.027874,-0.840872 0.013937,-0.427404 0.03252,-0.836226 0.023229,-0.413467 0.046457,-0.803706 0.027874,-0.390239 0.060394,-0.738666 h 0.4134673 q 0.083623,0.199765 0.1904737,0.478507 0.1068511,0.274096 0.2137022,0.576067 0.1114968,0.30197 0.2137022,0.603941 0.1022054,0.30197 0.1765366,0.552838 0.074331,-0.250868 0.1718909,-0.552838 0.09756,-0.301971 0.2044108,-0.603941 0.1068511,-0.301971 0.2090565,-0.576067 0.1068511,-0.278742 0.1904737,-0.478507 h 0.4134673 q 0.03252,0.348427 0.055748,0.738666 0.02787,0.390239 0.04646,0.803706 0.02323,0.408822 0.03717,0.836226 0.01394,0.422759 0.02787,0.840872 H 9.7232318 q -0.00929,-0.306616 -0.018583,-0.645752 -0.00465,-0.339136 -0.018583,-0.678272 -0.00929,-0.343782 -0.023229,-0.664336 -0.013937,-0.325199 -0.03252,-0.594649 -0.041811,0.116142 -0.1068511,0.292679 -0.060394,0.171891 -0.1300796,0.376302 -0.06504,0.20441 -0.139371,0.422758 -0.069686,0.213703 -0.1347253,0.413468 -0.060394,0.199765 -0.1114968,0.36701 -0.046457,0.162599 -0.074331,0.264805 z m 2.6248194,0.445987 h -0.39953 v -2.438992 h 0.39953 z m -0.199765,-2.871043 q -0.106851,0 -0.185828,-0.06968 -0.07433,-0.07433 -0.07433,-0.195119 0,-0.120789 0.07433,-0.190474 0.07898,-0.07433 0.185828,-0.07433 0.106851,0 0.181183,0.07433 0.07898,0.06968 0.07898,0.190474 0,0.120788 -0.07898,0.195119 -0.07433,0.06968 -0.181183,0.06968 z m 1.263633,2.587655 q 0.176537,0 0.264805,-0.09756 0.09291,-0.102206 0.09291,-0.264805 0,-0.102206 -0.03717,-0.171891 -0.03716,-0.07433 -0.09756,-0.13008 -0.06039,-0.05575 -0.139371,-0.09756 -0.07898,-0.04646 -0.157954,-0.09756 -0.07898,-0.04646 -0.153308,-0.106851 -0.07433,-0.06504 -0.134725,-0.144017 -0.05575,-0.08362 -0.09291,-0.185828 -0.03252,-0.106851 -0.03252,-0.246222 0,-0.301971 0.185828,-0.487799 0.190473,-0.185828 0.511027,-0.185828 0.134725,0 0.255513,0.03717 0.120788,0.03252 0.199765,0.07433 l -0.08827,0.320554 q -0.08362,-0.04646 -0.167245,-0.06969 -0.08362,-0.02323 -0.181183,-0.02323 -0.148662,0 -0.23693,0.08827 -0.08827,0.08362 -0.08827,0.246222 0,0.09291 0.03252,0.162599 0.03252,0.06504 0.08362,0.120789 0.05575,0.0511 0.120788,0.09756 0.06969,0.04646 0.144017,0.08827 0.08827,0.0511 0.171891,0.111496 0.08827,0.06039 0.153308,0.144017 0.06969,0.07898 0.111497,0.190474 0.04181,0.106851 0.04181,0.260159 0,0.320553 -0.190474,0.515673 -0.185828,0.195119 -0.548192,0.195119 -0.185828,0 -0.334491,-0.0511 -0.148662,-0.0511 -0.222993,-0.09291 l 0.08362,-0.329844 q 0.06969,0.03717 0.185828,0.08362 0.120788,0.04646 0.264805,0.04646 z m 1.988358,0.343782 q -0.250868,0 -0.418113,-0.09756 -0.167245,-0.09756 -0.274097,-0.264804 -0.102205,-0.171891 -0.148662,-0.404176 -0.04181,-0.232285 -0.04181,-0.506382 0,-0.603941 0.218348,-0.943077 0.222993,-0.343782 0.66898,-0.343782 0.134726,0 0.241577,0.03252 0.106851,0.03252 0.199765,0.08362 l -0.102205,0.329845 q -0.144017,-0.09291 -0.320554,-0.09291 -0.250868,0 -0.371656,0.227639 -0.116142,0.227639 -0.116142,0.706146 0,0.199765 0.02323,0.371656 0.02323,0.167246 0.07898,0.288034 0.06039,0.120788 0.153308,0.190473 0.09756,0.06969 0.246222,0.06969 0.102206,0 0.181183,-0.02323 0.08362,-0.02787 0.157953,-0.06969 l 0.08827,0.311262 q -0.07433,0.0511 -0.199765,0.09291 -0.120789,0.04181 -0.264805,0.04181 z m 1.421585,-0.274096 q 0,0.106851 -0.07898,0.190474 -0.07433,0.08362 -0.199765,0.08362 -0.125434,0 -0.199765,-0.08362 -0.07433,-0.08362 -0.07433,-0.190474 0,-0.111497 0.07433,-0.19512 0.07433,-0.08362 0.199765,-0.08362 0.125434,0 0.199765,0.08362 0.07898,0.08362 0.07898,0.19512 z m 3.716559,-1.39371 q 0,0.376302 -0.06968,0.687563 -0.06504,0.306617 -0.209057,0.52961 -0.139371,0.218348 -0.357719,0.339136 -0.213702,0.120789 -0.506381,0.120789 -0.292679,0 -0.511027,-0.120789 -0.213702,-0.120788 -0.357719,-0.339136 -0.139371,-0.222993 -0.209056,-0.52961 -0.06969,-0.311261 -0.06969,-0.687563 0,-0.376302 0.06969,-0.687564 0.06968,-0.311262 0.209056,-0.52961 0.144017,-0.222993 0.357719,-0.343781 0.218348,-0.125434 0.511027,-0.125434 0.292679,0 0.506381,0.125434 0.218348,0.120788 0.357719,0.343781 0.144017,0.218348 0.209057,0.52961 0.06968,0.311262 0.06968,0.687564 z m -0.445987,0 q 0,-0.292679 -0.03717,-0.534256 -0.03717,-0.241576 -0.120788,-0.413467 -0.08362,-0.176537 -0.218348,-0.274096 -0.130079,-0.09756 -0.320553,-0.09756 -0.190474,0 -0.325199,0.09756 -0.13008,0.09756 -0.213702,0.274096 -0.08362,0.171891 -0.125434,0.413467 -0.03717,0.241577 -0.03717,0.534256 0,0.292679 0.03717,0.534255 0.04181,0.241577 0.125434,0.413468 0.08362,0.171891 0.213702,0.26945 0.134725,0.09291 0.325199,0.09291 0.190474,0 0.320553,-0.09291 0.134726,-0.09756 0.218348,-0.26945 0.08362,-0.171891 0.120788,-0.413468 0.03717,-0.241576 0.03717,-0.534255 z m 1.463393,1.240402 q 0.134725,0.07433 0.288033,0.07433 0.116143,0 0.204411,-0.04646 0.08827,-0.04646 0.148663,-0.153308 0.06504,-0.106851 0.09756,-0.283388 0.03252,-0.176536 0.03252,-0.436696 0,-0.501735 -0.130079,-0.715437 -0.125434,-0.218348 -0.404176,-0.218348 -0.0511,0 -0.111497,0.0093 -0.06039,0.0046 -0.125434,0.02323 z m 0,1.226465 h -0.39953 v -3.233408 q 0.130079,-0.05575 0.292679,-0.08827 0.167245,-0.03717 0.339136,-0.03717 0.255514,0 0.436696,0.08827 0.185828,0.08827 0.297325,0.255513 0.116142,0.1626 0.167245,0.404176 0.05575,0.236931 0.05575,0.543547 0,0.617878 -0.199765,0.943077 -0.195119,0.325199 -0.641106,0.325199 -0.106852,0 -0.190474,-0.02323 -0.08362,-0.01858 -0.157954,-0.05575 z m 2.1138,-1.142843 q 0.176536,0 0.264805,-0.09756 0.09291,-0.102206 0.09291,-0.264805 0,-0.102206 -0.03717,-0.171891 -0.03717,-0.07433 -0.09756,-0.13008 -0.06039,-0.05575 -0.139371,-0.09756 -0.07898,-0.04646 -0.157953,-0.09756 -0.07898,-0.04646 -0.153309,-0.106851 -0.07433,-0.06504 -0.134725,-0.144017 -0.05575,-0.08362 -0.09291,-0.185828 -0.03252,-0.106851 -0.03252,-0.246222 0,-0.301971 0.185828,-0.487799 0.190474,-0.185828 0.511027,-0.185828 0.134725,0 0.255514,0.03717 0.120788,0.03252 0.199765,0.07433 l -0.08827,0.320554 q -0.08362,-0.04646 -0.167245,-0.06969 -0.08362,-0.02323 -0.181182,-0.02323 -0.148662,0 -0.236931,0.08827 -0.08827,0.08362 -0.08827,0.246222 0,0.09291 0.03252,0.162599 0.03252,0.06504 0.08362,0.120789 0.05575,0.0511 0.120788,0.09756 0.06968,0.04646 0.144016,0.08827 0.08827,0.0511 0.171891,0.111496 0.08827,0.06039 0.153308,0.144017 0.06969,0.07898 0.111497,0.190474 0.04181,0.106851 0.04181,0.260159 0,0.320553 -0.190473,0.515673 -0.185828,0.195119 -0.548193,0.195119 -0.185828,0 -0.33449,-0.0511 -0.148663,-0.0511 -0.222994,-0.09291 l 0.08362,-0.329844 q 0.06968,0.03717 0.185828,0.08362 0.120788,0.04646 0.264805,0.04646 z m 1.770008,-1.282213 h 3.484275 v 0.339136 h -3.484275 z"
       id="text27"
       aria-label="— Misc. Ops —" />
    <path
       style="font-size:5.09455px;line-height:125%;font-family:'Ubuntu Condensed';-inkscape-font-specification:'Ubuntu Condensed, ';letter-spacing:0px;word-spacing:0px;fill:#ff66ff;stroke-width:0.159205px"
       d="m 3.2946723,14.724057 q -0.6215351,0 -0.9526809,-0.463604 -0.3311457,-0.463604 -0.3311457,-1.431568 0,-0.494172 0.091702,-0.835507 0.096796,-0.341334 0.2649166,-0.555305 0.1681201,-0.213972 0.3973749,-0.305673 0.2292548,-0.0968 0.4992659,-0.0968 0.2241602,0 0.4177531,0.06113 0.1935929,0.05604 0.3158621,0.142647 L 3.8601675,11.621468 Q 3.7378983,11.539958 3.5952509,11.48901 3.457698,11.43806 3.2742942,11.43806 q -0.407564,0 -0.5909678,0.341334 -0.1834038,0.336241 -0.1834038,1.049478 0,0.718331 0.1935929,1.105517 0.1935929,0.387186 0.6317242,0.387186 0.2088766,0 0.3362403,-0.05095 0.1324583,-0.05094 0.2547275,-0.132458 l 0.1273638,0.361713 q -0.1171747,0.0917 -0.3107676,0.157931 -0.1884983,0.06623 -0.4381313,0.06623 z m 1.2226913,-0.07642 v -3.876953 l 0.4381313,-0.07642 v 1.294016 q 0.096796,-0.03057 0.2088766,-0.05095 0.1171746,-0.02038 0.2343493,-0.02038 0.1681201,0 0.3158621,0.05604 0.1477419,0.05095 0.2547275,0.17831 0.1120801,0.127363 0.1732147,0.346429 0.066229,0.213971 0.066229,0.534928 v 1.614972 H 5.7706229 v -1.57931 q 0,-0.397375 -0.101891,-0.580779 -0.101891,-0.183404 -0.3820912,-0.183404 -0.147742,0 -0.3311458,0.05095 v 2.292547 z M 7.013695,12.02904 q 0.1324583,-0.05604 0.2802002,-0.08661 0.147742,-0.03566 0.3209567,-0.03566 0.3566185,0 0.5807787,0.22416 0.2241602,0.219066 0.2241602,0.687765 v 1.772903 q -0.1834038,0.05095 -0.3769967,0.08151 -0.1884983,0.03057 -0.3719022,0.03057 -0.1834038,0 -0.3464294,-0.04585 -0.157931,-0.04585 -0.2802002,-0.147742 -0.1171747,-0.101891 -0.1884984,-0.254727 -0.071324,-0.157931 -0.071324,-0.382092 0,-0.208876 0.061135,-0.361713 0.066229,-0.157931 0.1783093,-0.259822 0.1120801,-0.106985 0.2649166,-0.157931 0.1528365,-0.05604 0.3311457,-0.05604 0.1681202,0 0.3719022,0.04076 v -0.244539 q 0,-0.295484 -0.1171746,-0.412658 -0.1120801,-0.117175 -0.3260513,-0.117175 -0.1171746,0 -0.2241602,0.02547 -0.101891,0.02038 -0.2190656,0.07132 z m 0.2088765,1.839133 q 0,0.234349 0.1222692,0.346429 0.1222692,0.11208 0.3464294,0.11208 0.1375529,0 0.3005785,-0.03566 v -0.85079 q -0.1528365,-0.04076 -0.3005785,-0.04076 -0.096796,0 -0.1834038,0.02547 -0.086607,0.02038 -0.1528365,0.07642 -0.061135,0.05095 -0.096796,0.142648 -0.035662,0.08661 -0.035662,0.22416 z m 1.9614019,-1.818754 q 0.1884983,-0.05604 0.407564,-0.0917 0.2190656,-0.04076 0.4024694,-0.04076 0.1986872,0 0.3617132,0.05604 0.163025,0.05095 0.275106,0.17831 0.117174,0.127363 0.178309,0.346429 0.06623,0.213971 0.06623,0.534928 v 1.614972 h -0.438131 v -1.57931 q 0,-0.397375 -0.101891,-0.580779 -0.101891,-0.183404 -0.3820916,-0.183404 -0.1477419,0 -0.3311457,0.05095 v 2.292547 H 9.1839734 Z m 2.4555746,0 q 0.188499,-0.05604 0.407564,-0.0917 0.219066,-0.04076 0.40247,-0.04076 0.198687,0 0.361713,0.05604 0.163025,0.05095 0.275106,0.17831 0.117174,0.127363 0.178309,0.346429 0.06623,0.213971 0.06623,0.534928 v 1.614972 h -0.438131 v -1.57931 q 0,-0.397375 -0.101891,-0.580779 -0.101891,-0.183404 -0.382092,-0.183404 -0.147742,0 -0.331145,0.05095 v 2.292547 h -0.438132 z m 2.756154,1.390812 q 0.0051,0.193593 0.03566,0.356618 0.03057,0.157931 0.0968,0.2802 0.07132,0.117175 0.183404,0.183404 0.117175,0.06623 0.295484,0.06623 0.147742,0 0.270011,-0.04076 0.127364,-0.04585 0.183404,-0.07642 l 0.08151,0.351524 q -0.06623,0.04585 -0.224161,0.0968 -0.152836,0.05604 -0.366807,0.05604 -0.280201,0 -0.473793,-0.101891 -0.188499,-0.101891 -0.310768,-0.285295 -0.117175,-0.183403 -0.16812,-0.438131 -0.05095,-0.254727 -0.05095,-0.5604 0,-0.73871 0.244539,-1.080045 0.244538,-0.341335 0.647008,-0.341335 0.453415,0 0.641913,0.341335 0.188498,0.341335 0.188498,0.957775 0,0.05604 0,0.117175 0,0.05604 -0.0051,0.117175 z m 0.443226,-1.161558 q -0.219066,0 -0.320957,0.219066 -0.0968,0.219066 -0.117175,0.585873 h 0.810034 q 0,-0.371902 -0.07642,-0.585873 -0.07642,-0.219066 -0.295484,-0.219066 z m 2.170283,2.419912 q -0.376997,-0.01019 -0.540023,-0.183404 -0.163025,-0.178309 -0.163025,-0.560401 v -3.184094 l 0.438131,-0.07642 v 3.270701 q 0,0.17831 0.07132,0.259822 0.07132,0.07642 0.249633,0.106986 z m 0.917018,-0.361713 q 0.193593,0 0.29039,-0.106986 0.101891,-0.11208 0.101891,-0.290389 0,-0.11208 -0.04076,-0.188499 -0.04076,-0.08151 -0.106985,-0.142647 -0.06623,-0.06114 -0.152837,-0.106986 -0.08661,-0.05095 -0.173215,-0.106985 -0.08661,-0.05095 -0.16812,-0.117175 -0.08151,-0.07132 -0.147742,-0.157931 -0.06113,-0.0917 -0.101891,-0.203782 -0.03566,-0.117175 -0.03566,-0.270011 0,-0.331146 0.203782,-0.534928 0.208877,-0.203782 0.560401,-0.203782 0.147742,0 0.2802,0.04076 0.132459,0.03566 0.219066,0.08151 l -0.0968,0.351524 q -0.0917,-0.05095 -0.183403,-0.07642 -0.0917,-0.02547 -0.198688,-0.02547 -0.163025,0 -0.259822,0.0968 -0.0968,0.0917 -0.0968,0.270011 0,0.101891 0.03566,0.178309 0.03566,0.07132 0.0917,0.132458 0.06114,0.05604 0.132459,0.106986 0.07642,0.05095 0.157931,0.0968 0.0968,0.05604 0.188498,0.12227 0.0968,0.06623 0.16812,0.157931 0.07642,0.08661 0.122269,0.208876 0.04585,0.117175 0.04585,0.285295 0,0.351524 -0.208876,0.565495 -0.203782,0.213971 -0.601157,0.213971 -0.203782,0 -0.366808,-0.05604 -0.163025,-0.05604 -0.244538,-0.101891 l 0.0917,-0.361713 q 0.07642,0.04076 0.203782,0.0917 0.132458,0.05095 0.290389,0.05095 z m 1.864605,0.07132 q 0,0.117175 -0.08661,0.208877 -0.08151,0.0917 -0.219065,0.0917 -0.137553,0 -0.219066,-0.0917 -0.08151,-0.0917 -0.08151,-0.208877 0,-0.122269 0.08151,-0.213971 0.08151,-0.0917 0.219066,-0.0917 0.137553,0 0.219065,0.0917 0.08661,0.0917 0.08661,0.213971 z m 0,-2.195751 q 0,0.117175 -0.08661,0.208877 -0.08151,0.0917 -0.219065,0.0917 -0.137553,0 -0.219066,-0.0917 -0.08151,-0.0917 -0.08151,-0.208877 0,-0.122269 0.08151,-0.213971 0.08151,-0.0917 0.219066,-0.0917 0.137553,0 0.219065,0.0917 0.08661,0.0917 0.08661,0.213971 z"
       id="text28"
       aria-label="Channels:" />
    <path
       d="m 13.949981,64.380708 q 0,0.376969 -0.06854,0.744146 -0.06364,0.362282 -0.239889,0.66092 -0.17135,0.293742 -0.48957,0.469987 -0.313325,0.176245 -0.807791,0.176245 -0.09791,0 -0.230098,-0.01469 -0.127288,-0.0098 -0.210515,-0.03427 v -0.367177 q 0.190932,0.06364 0.430822,0.06364 0.342699,0 0.563005,-0.112601 0.225202,-0.112602 0.357386,-0.303534 0.132184,-0.195828 0.190933,-0.450404 0.05875,-0.259472 0.06854,-0.543423 h -0.02937 q -0.107705,0.166454 -0.313325,0.288846 -0.200723,0.117497 -0.518944,0.117497 -0.450404,0 -0.729459,-0.274159 -0.274159,-0.279055 -0.274159,-0.783312 0,-0.367178 0.137079,-0.631545 0.141976,-0.264368 0.391656,-0.406343 0.249681,-0.141976 0.587484,-0.141976 0.332908,0 0.602171,0.17135 0.269264,0.166454 0.425926,0.509153 0.156663,0.337803 0.156663,0.861643 z m -1.18476,-1.179864 q -0.303533,0 -0.499361,0.200724 -0.190932,0.200723 -0.190932,0.611962 0,0.337804 0.161558,0.533632 0.166454,0.190932 0.509153,0.190932 0.234993,0 0.406343,-0.09302 0.171349,-0.09791 0.264367,-0.244785 0.09791,-0.146871 0.09791,-0.303534 0,-0.210515 -0.08323,-0.416134 -0.08323,-0.20562 -0.249681,-0.342699 -0.166454,-0.13708 -0.416135,-0.13708 z m 3.99979,1.429544 q 0,0.563006 -0.117497,0.969349 -0.117497,0.401447 -0.372073,0.616858 -0.254577,0.215411 -0.675607,0.215411 -0.59238,0 -0.87633,-0.474883 -0.279055,-0.479778 -0.279055,-1.326735 0,-0.567901 0.112601,-0.969348 0.117497,-0.401448 0.372073,-0.611963 0.254577,-0.21541 0.670711,-0.21541 0.587484,0 0.87633,0.474882 0.288847,0.469988 0.288847,1.321839 z m -1.889741,0 q 0,0.719668 0.161559,1.077054 0.166453,0.357387 0.563005,0.357387 0.391656,0 0.55811,-0.352491 0.171349,-0.357386 0.171349,-1.08195 0,-0.714772 -0.171349,-1.072158 -0.166454,-0.357386 -0.55811,-0.357386 -0.396552,0 -0.563005,0.357386 -0.161559,0.357386 -0.161559,1.072158 z m 3.177312,-0.288846 q -0.35249,0 -0.567901,-0.205619 -0.210515,-0.210515 -0.210515,-0.543423 0,-0.332908 0.210515,-0.543423 0.210515,-0.210515 0.567901,-0.210515 0.347595,0 0.563006,0.210515 0.21541,0.210515 0.21541,0.543423 0,0.332908 -0.21541,0.543423 -0.215411,0.205619 -0.563006,0.205619 z m 0.0049,-0.288846 q 0.234993,0 0.342699,-0.127288 0.112601,-0.127289 0.112601,-0.332908 0,-0.215411 -0.117497,-0.342699 -0.112601,-0.127288 -0.337803,-0.127288 -0.239889,0 -0.352491,0.127288 -0.112601,0.127288 -0.112601,0.342699 0,0.205619 0.112601,0.332908 0.112602,0.127288 0.352491,0.127288 z"
       id="text29"
       style="font-size:4.8957px;line-height:125%;letter-spacing:0px;word-spacing:0px;fill:#ffffff;stroke-width:0.15299px"
       aria-label="90°" />
  </g>
  <g
     inkscape:groupmode="layer"
     id="layer3"
     inkscape:label="components"
     style="display:none">
    <ellipse
       style="fill:#00ff00;stroke-width:0.396875;stroke-linecap:round;stroke-linejoin:round"
       id="path1"
       cx="6.349999"
       cy="24.879997"
       inkscape:label="scroll_nw"
       rx="3.8099999"
       ry="3.8099997" />
    <ellipse
       style="fill:#00ff00;stroke-width:0.396875;stroke-linecap:round;stroke-linejoin:round"
       id="path1-6"
       cx="15.239999"
       cy="24.879997"
       inkscape:label="scroll_n"
       rx="3.8099999"
       ry="3.8099997" />
    <ellipse
       style="fill:#00ff00;stroke-width:0.396875;stroke-linecap:round;stroke-linejoin:round"
       id="path1-3"
       cx="24.130001"
       cy="24.879997"
       inkscape:label="scroll_ne"
       rx="3.8099999"
       ry="3.8099997" />
    <ellipse
       style="fill:#00ff00;stroke-width:0.396875;stroke-linecap:round;stroke-linejoin:round"
       id="path1-3-7"
       cx="6.349999"
       cy="42.66"
       inkscape:label="scroll_sw"
       rx="3.8099999"
       ry="3.8099997" />
    <ellipse
       style="fill:#00ff00;stroke-width:0.396875;stroke-linecap:round;stroke-linejoin:round"
       id="path1-3-7-5"
       cx="6.349999"
       cy="33.769997"
       inkscape:label="scroll_w"
       rx="3.8099999"
       ry="3.8099997" />
    <ellipse
       style="fill:#00ff00;stroke-width:0.396875;stroke-linecap:round;stroke-linejoin:round"
       id="path1-3-7-5-5"
       cx="24.130001"
       cy="33.769997"
       inkscape:label="scroll_e"
       rx="3.8099999"
       ry="3.8099997" />
    <ellipse
       style="fill:#00ff00;stroke-width:0.396875;stroke-linecap:round;stroke-linejoin:round"
       id="path1-3-7-5-3-6"
       cx="15.24"
       cy="42.66"
       inkscape:label="scroll_s"
       rx="3.8099999"
       ry="3.8099997" />
    <ellipse
       style="fill:#00ff00;stroke-width:0.396875;stroke-linecap:round;stroke-linejoin:round"
       id="path1-3-7-5-5-2"
       cx="24.130001"
       cy="42.66"
       inkscape:label="scroll_se"
       rx="3.8099999"
       ry="3.8099997" />
    <circle
       style="fill:#ffff00;fill-opacity:1;stroke:none;stroke-width:0.499999;stroke-linecap:round;stroke-linejoin:round;stroke-dasharray:none;stroke-opacity:1"
       id="path7"
       cx="24.659168"
       cy="12.179996"
       r="3.8100002"
       inkscape:label="channels" />
    <circle
       style="fill:#00ff00;fill-opacity:1;stroke:none;stroke-width:0.499999;stroke-linecap:round;stroke-linejoin:round;stroke-dasharray:none;stroke-opacity:1"
       id="path10"
       cx="8.8899994"
       cy="70.599998"
       r="3.8100002"
       inkscape:label="rotate_cw" />
    <circle
       style="display:inline;fill:#00ff00;fill-opacity:1;stroke:none;stroke-width:0.499999;stroke-linecap:round;stroke-linejoin:round;stroke-dasharray:none;stroke-opacity:1"
       id="path10-3"
       cx="21.59"
       cy="70.600006"
       r="3.8100002"
       inkscape:label="rotate_ccw" />
    <circle
       style="display:inline;fill:#00ff00;fill-opacity:1;stroke:none;stroke-width:0.499999;stroke-linecap:round;stroke-linejoin:round;stroke-dasharray:none;stroke-opacity:1"
       id="path10-33"
       cx="11.006664"
       cy="81.289169"
       r="3.8100002"
       inkscape:label="flip_v" />
    <circle
       style="display:inline;fill:#00ff00;fill-opacity:1;stroke:none;stroke-width:0.499999;stroke-linecap:round;stroke-linejoin:round;stroke-dasharray:none;stroke-opacity:1"
       id="path10-3-8"
       cx="21.59"
       cy="82.347511"
       r="3.8100002"
       inkscape:label="flip_h" />
    <circle
       style="fill:#00ff00;fill-opacity:1;stroke:none;stroke-width:0.499999;stroke-linecap:round;stroke-linejoin:round;stroke-dasharray:none;stroke-opacity:1"
       id="path12"
       cx="6.5616665"
       cy="51.549999"
       r="2.54"
       inkscape:label="scroll_amount" />
    <circle
       style="fill:#ff0000;fill-opacity:1;stroke:none;stroke-width:0.499999;stroke-linecap:round;stroke-linejoin:round;stroke-dasharray:none;stroke-opacity:1"
       id="path13"
       cx="15.24"
       cy="51.549999"
       r="2.54"
       inkscape:label="scroll_amount_cv" />
    <circle
       style="fill:#ff0000;fill-opacity:1;stroke:none;stroke-width:0.499999;stroke-linecap:round;stroke-linejoin:round;stroke-dasharray:none;stroke-opacity:1"
       id="path14"
       cx="23.918335"
       cy="51.549999"
       r="2.54"
       inkscape:label="scroll_amount" />
    <ellipse
       style="fill:#00ff00;fill-opacity:1;stroke:none;stroke-width:0.374999;stroke-linecap:round;stroke-linejoin:round;stroke-dasharray:none;stroke-opacity:1"
       id="path16"
       cx="6.3499999"
       cy="98.539993"
       rx="3.8099999"
       ry="3.8100016"
       inkscape:label="invert" />
    <circle
       style="fill:#ff0000;fill-opacity:1;stroke:none;stroke-width:0.499999;stroke-linecap:round;stroke-linejoin:round;stroke-dasharray:none;stroke-opacity:1"
       id="path19"
       cx="15.292916"
       cy="98.539993"
       r="3.8100002"
       inkscape:label="invert" />
    <ellipse
       style="display:inline;fill:#00ff00;fill-opacity:1;stroke:none;stroke-width:0.374999;stroke-linecap:round;stroke-linejoin:round;stroke-dasharray:none;stroke-opacity:1"
       id="path16-7"
       cx="5.8208332"
       cy="109.44083"
       rx="3.8099999"
       ry="3.8100016"
       inkscape:label="randomize" />
    <circle
       style="display:inline;fill:#ff0000;fill-opacity:1;stroke:none;stroke-width:0.499999;stroke-linecap:round;stroke-linejoin:round;stroke-dasharray:none;stroke-opacity:1"
       id="path19-7"
       cx="14.181666"
       cy="109.44083"
       r="3.8100002"
       inkscape:label="randomize" />
    <circle
       style="fill:#ff0000;fill-opacity:1;stroke:none;stroke-width:0.499999;stroke-linecap:round;stroke-linejoin:round;stroke-dasharray:none;stroke-opacity:1"
       id="path20"
       cx="20.214165"
       cy="106.90083"
       r="2.54"
       inkscape:label="rand_max" />
    <circle
       style="fill:#ff0000;fill-opacity:1;stroke:none;stroke-width:0.499999;stroke-linecap:round;stroke-linejoin:round;stroke-dasharray:none;stroke-opacity:1"
       id="path21"
       cx="20.214165"
       cy="111.98083"
       r="2.54"
       inkscape:label="rand_min" />
    <circle
       style="fill:#ff00ff;fill-opacity:1;stroke:none;stroke-width:0.499999;stroke-linecap:round;stroke-linejoin:round;stroke-dasharray:none;stroke-opacity:1"
       id="path24"
       cx="2.7516661"
       cy="2.7608285"
       r="1.27"
       inkscape:label="dma_client" />
    <circle
       style="display:inline;fill:#ff00ff;fill-opacity:1;stroke:none;stroke-width:0.499999;stroke-linecap:round;stroke-linejoin:round;stroke-dasharray:none;stroke-opacity:1"
       id="path24-5"
       cx="27.940001"
       cy="2.5491619"
       r="1.27"
       inkscape:label="dma_host" />
  </g>
</svg>
