<?xml version="1.0" encoding="UTF-8" standalone="no"?>
<!-- Created with Inkscape (http://www.inkscape.org/) -->

<svg
   width="15.24mm"
   height="128.5mm"
   viewBox="0 0 15.24 128.5"
   version="1.1"
   id="svg1524"
   inkscape:version="1.2.1 (9c6d41e410, 2022-07-14, custom)"
   sodipodi:docname="HSV2RGB.svg"
   xmlns:inkscape="http://www.inkscape.org/namespaces/inkscape"
   xmlns:sodipodi="http://sodipodi.sourceforge.net/DTD/sodipodi-0.dtd"
   xmlns:xlink="http://www.w3.org/1999/xlink"
   xmlns="http://www.w3.org/2000/svg"
   xmlns:svg="http://www.w3.org/2000/svg">
  <sodipodi:namedview
     id="namedview1526"
     pagecolor="#cccccc"
     bordercolor="#666666"
     borderopacity="1.0"
     inkscape:pageshadow="2"
     inkscape:pageopacity="1"
     inkscape:pagecheckerboard="0"
     inkscape:document-units="mm"
     showgrid="true"
     units="in"
     inkscape:showpageshadow="2"
     inkscape:deskcolor="#d1d1d1"
     inkscape:zoom="1.8739339"
     inkscape:cx="60.034136"
     inkscape:cy="206.51743"
     inkscape:window-width="1920"
     inkscape:window-height="1004"
     inkscape:window-x="0"
     inkscape:window-y="0"
     inkscape:window-maximized="1"
     inkscape:current-layer="layer3">
    <inkscape:grid
       type="xygrid"
       id="grid1608"
       originx="7.6200001"
       originy="64.250002"
       units="mm"
       spacingx="2.5400001"
       spacingy="2.5400001" />
  </sodipodi:namedview>
  <defs
     id="defs1521">
    <linearGradient
       inkscape:collect="always"
       id="linearGradient2816">
      <stop
         style="stop-color:#ff00ff;stop-opacity:1;"
         offset="0"
         id="stop2812" />
      <stop
         style="stop-color:#ff0000;stop-opacity:1;"
         offset="1"
         id="stop2814" />
    </linearGradient>
    <linearGradient
       inkscape:collect="always"
       id="linearGradient2808">
      <stop
         style="stop-color:#0000ff;stop-opacity:1;"
         offset="0"
         id="stop2804" />
      <stop
         style="stop-color:#ff00ff;stop-opacity:1;"
         offset="1"
         id="stop2806" />
    </linearGradient>
    <linearGradient
       inkscape:collect="always"
       id="linearGradient2800">
      <stop
         style="stop-color:#00ffff;stop-opacity:1;"
         offset="0"
         id="stop2796" />
      <stop
         style="stop-color:#0002ff;stop-opacity:1;"
         offset="1"
         id="stop2798" />
    </linearGradient>
    <linearGradient
       inkscape:collect="always"
       id="linearGradient2792">
      <stop
         style="stop-color:#01ff00;stop-opacity:1;"
         offset="0"
         id="stop2788" />
      <stop
         style="stop-color:#00fffd;stop-opacity:1;"
         offset="1"
         id="stop2790" />
    </linearGradient>
    <linearGradient
       inkscape:collect="always"
       id="linearGradient2784">
      <stop
         style="stop-color:#feff00;stop-opacity:1;"
         offset="0"
         id="stop2780" />
      <stop
         style="stop-color:#02ff00;stop-opacity:1;"
         offset="1"
         id="stop2782" />
    </linearGradient>
    <linearGradient
       inkscape:collect="always"
       id="linearGradient2776">
      <stop
         style="stop-color:#ff0000;stop-opacity:1;"
         offset="0"
         id="stop2772" />
      <stop
         style="stop-color:#fffd00;stop-opacity:1;"
         offset="1"
         id="stop2774" />
    </linearGradient>
    <linearGradient
       inkscape:collect="always"
       id="linearGradient1253">
      <stop
         style="stop-color:#000000;stop-opacity:1;"
         offset="0"
         id="stop1249" />
      <stop
         style="stop-color:#ff00c1;stop-opacity:1;"
         offset="1"
         id="stop1251" />
    </linearGradient>
    <linearGradient
       inkscape:collect="always"
       id="linearGradient1245">
      <stop
         style="stop-color:#ffffff;stop-opacity:1;"
         offset="0"
         id="stop1241" />
      <stop
         style="stop-color:#a900ff;stop-opacity:1;"
         offset="1"
         id="stop1243" />
    </linearGradient>
    <linearGradient
       inkscape:collect="always"
       xlink:href="#linearGradient1245"
       id="linearGradient1247"
       x1="-0.52580499"
       y1="41.364193"
       x2="15.662586"
       y2="41.364193"
       gradientUnits="userSpaceOnUse" />
    <linearGradient
       inkscape:collect="always"
       xlink:href="#linearGradient1253"
       id="linearGradient1255"
       x1="-0.52580499"
       y1="61.684195"
       x2="15.662586"
       y2="61.684195"
       gradientUnits="userSpaceOnUse" />
    <linearGradient
       inkscape:collect="always"
       xlink:href="#linearGradient2776"
       id="linearGradient2778"
       x1="-1.9999999e-07"
       y1="21.07"
       x2="2.5399998"
       y2="21.07"
       gradientUnits="userSpaceOnUse"
       gradientTransform="matrix(0.94322198,0,0,1,0.43264854,0)" />
    <linearGradient
       inkscape:collect="always"
       xlink:href="#linearGradient2784"
       id="linearGradient2786"
       x1="2.54"
       y1="21.070001"
       x2="5.0799999"
       y2="21.070001"
       gradientUnits="userSpaceOnUse"
       gradientTransform="matrix(0.94322198,0,0,1,0.43264854,0)" />
    <linearGradient
       inkscape:collect="always"
       xlink:href="#linearGradient2792"
       id="linearGradient2794"
       x1="5.0799999"
       y1="21.070001"
       x2="7.6199999"
       y2="21.070001"
       gradientUnits="userSpaceOnUse"
       gradientTransform="matrix(0.94322198,0,0,1,0.43264854,0)" />
    <linearGradient
       inkscape:collect="always"
       xlink:href="#linearGradient2800"
       id="linearGradient2802"
       x1="7.6200004"
       y1="21.070002"
       x2="10.16"
       y2="21.070002"
       gradientUnits="userSpaceOnUse"
       gradientTransform="matrix(0.94322198,0,0,1,0.43264854,0)" />
    <linearGradient
       inkscape:collect="always"
       xlink:href="#linearGradient2808"
       id="linearGradient2810"
       x1="10.160001"
       y1="21.070001"
       x2="12.700001"
       y2="21.070001"
       gradientUnits="userSpaceOnUse"
       gradientTransform="matrix(0.94322198,0,0,1,0.43264854,0)" />
    <linearGradient
       inkscape:collect="always"
       xlink:href="#linearGradient2816"
       id="linearGradient2818"
       x1="12.700001"
       y1="21.070001"
       x2="15.240001"
       y2="21.070001"
       gradientUnits="userSpaceOnUse"
       gradientTransform="matrix(0.94322198,0,0,1,0.43264854,0)" />
  </defs>
  <g
     inkscape:groupmode="layer"
     id="layer2"
     inkscape:label="Background"
     sodipodi:insensitive="true">
    <rect
       style="display:inline;fill:#1a1a1a;stroke-width:0.226364"
       id="rect374"
       width="15.24"
       height="128.5"
       x="0"
       y="0" />
  </g>
  <g
     inkscape:label="Layer 1"
     inkscape:groupmode="layer"
     id="layer1">
    <rect
       style="fill:url(#linearGradient1247);fill-opacity:1;stroke:#000000;stroke-width:1;stroke-linecap:round;stroke-linejoin:round;stroke-dasharray:none;stroke-opacity:1"
       id="rect1017-3"
       width="15.188391"
       height="20.168392"
       x="-0.025804985"
       y="31.279997" />
    <rect
       style="fill:url(#linearGradient1255);fill-opacity:1;stroke:#000000;stroke-width:1;stroke-linecap:round;stroke-linejoin:round;stroke-dasharray:none;stroke-opacity:1"
       id="rect1017-6"
       width="15.188391"
       height="20.168392"
       x="-0.025804985"
       y="51.599998" />
    <rect
       style="fill:#d40000;stroke:#000000;stroke-width:0.788785;stroke-linecap:round;stroke-linejoin:round;stroke-dasharray:none;stroke-opacity:1"
       id="rect1017-7"
       width="15.188391"
       height="12.548391"
       x="-0.053472001"
       y="76.861526" />
    <rect
       style="fill:#00d400;fill-opacity:1;stroke:#000000;stroke-width:0.793535;stroke-linecap:round;stroke-linejoin:round;stroke-dasharray:none;stroke-opacity:1"
       id="rect1017-3-5"
       width="15.188391"
       height="12.700006"
       x="-0.053471893"
       y="89.409912" />
    <rect
       style="fill:#0100d4;fill-opacity:1;stroke:#000000;stroke-width:0.789837;stroke-linecap:round;stroke-linejoin:round;stroke-dasharray:none;stroke-opacity:1"
       id="rect1017-6-3"
       width="15.398554"
       height="12.410163"
       x="-0.15855365"
       y="102.00484" />
    <path
       style="fill:#404040;fill-rule:evenodd;stroke:none;stroke-width:0.264583px;stroke-linecap:butt;stroke-linejoin:miter;stroke-opacity:1;fill-opacity:1"
       d="M -2e-7,71.87 H 15.24 L 7.6199999,76.950003 -2e-7,71.87"
       id="path2566" />
    <g
       id="g1226"
       style="stroke-width:0.3;stroke-dasharray:none"
       inkscape:label="logo"
       transform="matrix(0.53715913,0,0,0.53715913,-0.5553075,58.14035)">
      <path
         style="fill:none;fill-rule:evenodd;stroke:#ff7f7f;stroke-width:0.3;stroke-linecap:round;stroke-linejoin:round;stroke-dasharray:none;stroke-opacity:1"
         d="m 4.7708989,116.7807 -1.3131348,0.65656 -1.3131348,0.65657 2.6262696,2.62627 -2.6262696,1.31314"
         id="path496"
         sodipodi:nodetypes="ccccc" />
      <path
         style="fill:none;fill-rule:evenodd;stroke:#feff7f;stroke-width:0.3;stroke-linecap:round;stroke-linejoin:round;stroke-dasharray:none;stroke-opacity:1"
         d="m 6.0840338,122.03324 v -5.25254 l 2.6262702,1.31313 -2.6262702,1.31314"
         id="path498" />
      <path
         style="fill:none;fill-rule:evenodd;stroke:#7fff7f;stroke-width:0.3;stroke-linecap:round;stroke-linejoin:round;stroke-dasharray:none;stroke-opacity:1"
         d="m 8.710304,122.03324 1.313135,-5.25254 1.313135,5.25254"
         id="path500" />
      <path
         style="fill:none;fill-rule:evenodd;stroke:#80ffff;stroke-width:0.3;stroke-linecap:round;stroke-linejoin:round;stroke-dasharray:none;stroke-opacity:1"
         d="m 12.649708,122.03324 v -5.25254 l 2.62627,1.31313 -2.62627,1.31314 2.62627,2.62627"
         id="path502" />
      <path
         style="fill:none;fill-rule:evenodd;stroke:#8080ff;stroke-width:0.3;stroke-linecap:round;stroke-linejoin:round;stroke-dasharray:none;stroke-opacity:1"
         d="m 16.589114,116.7807 v 5.25254"
         id="path504" />
      <path
         style="fill:none;fill-rule:evenodd;stroke:#8080ff;stroke-width:0.3;stroke-linecap:round;stroke-linejoin:round;stroke-dasharray:none;stroke-opacity:1"
         d="m 19.215383,116.7807 -2.626269,2.62627 2.626269,2.62627"
         id="path506" />
      <path
         style="fill:none;fill-rule:evenodd;stroke:#bf80ff;stroke-width:0.3;stroke-linecap:round;stroke-linejoin:round;stroke-dasharray:none;stroke-opacity:1"
         d="m 21.786938,116.7807 -2.626269,1.31313 2.626269,1.31314 -2.626269,1.31313 2.626269,1.31314"
         id="path508" />
      <path
         style="fill:none;fill-rule:evenodd;stroke:#ff80ff;stroke-width:0.3;stroke-linecap:round;stroke-linejoin:round;stroke-dasharray:none;stroke-opacity:1"
         d="m 21.732224,116.7807 h 3.939404"
         id="path514" />
      <path
         style="fill:none;fill-rule:evenodd;stroke:#ff80ff;stroke-width:0.3;stroke-linecap:round;stroke-linejoin:round;stroke-dasharray:none;stroke-opacity:1"
         d="m 23.045358,116.7807 v 5.25254"
         id="path516" />
      <path
         style="fill:none;fill-rule:evenodd;stroke:#ff80ff;stroke-width:0.3;stroke-linecap:round;stroke-linejoin:round;stroke-dasharray:none;stroke-opacity:1"
         d="m 24.358493,116.7807 v 5.25254"
         id="path518" />
      <path
         style="fill:none;fill-rule:evenodd;stroke:#ff80bf;stroke-width:0.3;stroke-linecap:round;stroke-linejoin:round;stroke-dasharray:none;stroke-opacity:1"
         d="m 28.297898,116.7807 -2.62627,1.31313 2.62627,1.31314 -2.62627,1.31313 2.62627,1.31314"
         id="path520" />
      <path
         style="fill:none;fill-rule:evenodd;stroke:#7fff7f;stroke-width:0.3;stroke-linecap:round;stroke-linejoin:round;stroke-dasharray:none;stroke-opacity:1"
         d="M 9.3319214,119.40697 H 10.714956"
         id="path630" />
    </g>
    <g
       id="g2770">
      <rect
         style="fill:url(#linearGradient2778);fill-opacity:1;stroke:none;stroke-width:0.971196;stroke-linecap:round;stroke-linejoin:round;stroke-dasharray:none;stroke-opacity:1"
         id="rect2676"
         width="2.3957839"
         height="20.32"
         x="0.43264836"
         y="10.91" />
      <rect
         style="fill:url(#linearGradient2786);fill-opacity:1;stroke:none;stroke-width:0.971196;stroke-linecap:round;stroke-linejoin:round;stroke-dasharray:none;stroke-opacity:1"
         id="rect2676-2"
         width="2.3957839"
         height="20.32"
         x="2.8284323"
         y="10.910001" />
      <rect
         style="fill:url(#linearGradient2794);fill-opacity:1;stroke:none;stroke-width:0.971196;stroke-linecap:round;stroke-linejoin:round;stroke-dasharray:none;stroke-opacity:1"
         id="rect2676-9"
         width="2.3957839"
         height="20.32"
         x="5.224216"
         y="10.910001" />
      <rect
         style="fill:url(#linearGradient2802);fill-opacity:1;stroke:none;stroke-width:0.971196;stroke-linecap:round;stroke-linejoin:round;stroke-dasharray:none;stroke-opacity:1"
         id="rect2676-1"
         width="2.3957839"
         height="20.32"
         x="7.6200004"
         y="10.910002" />
      <rect
         style="fill:url(#linearGradient2810);fill-opacity:1;stroke:none;stroke-width:0.971196;stroke-linecap:round;stroke-linejoin:round;stroke-dasharray:none;stroke-opacity:1"
         id="rect2676-27"
         width="2.3957839"
         height="20.32"
         x="10.015784"
         y="10.910001" />
      <rect
         style="fill:url(#linearGradient2818);fill-opacity:1;stroke:none;stroke-width:0.971196;stroke-linecap:round;stroke-linejoin:round;stroke-dasharray:none;stroke-opacity:1"
         id="rect2676-0"
         width="2.3957839"
         height="20.32"
         x="12.411569"
         y="10.910001" />
      <rect
         style="fill:none;stroke:#000000;stroke-width:1;stroke-linecap:round;stroke-linejoin:round;stroke-dasharray:none;stroke-opacity:1"
         id="rect1017"
         width="15.188391"
         height="20.168392"
         x="-2e-07"
         y="10.985805" />
    </g>
  </g>
  <g
     inkscape:groupmode="layer"
     id="layer4"
     inkscape:label="Text"
     style="display:none">
    <text
       xml:space="preserve"
       style="font-size:5.63343px;line-height:125%;font-family:sans-serif;letter-spacing:0px;word-spacing:0px;fill:#e5e5e5;fill-opacity:1;stroke:none;stroke-width:0.176044px;stroke-linecap:butt;stroke-linejoin:miter;stroke-opacity:1"
       x="2.0528228"
       y="9.9011641"
       id="text2419"><tspan
         sodipodi:role="line"
         id="tspan2417"
         style="fill:#e5e5e5;fill-opacity:1;stroke:none;stroke-width:0.176044px"
         x="2.0528228"
         y="9.9011641">HSV</tspan></text>
    <text
       xml:space="preserve"
       style="font-size:5.63343px;line-height:125%;font-family:sans-serif;letter-spacing:0px;word-spacing:0px;fill:#e5e5e5;fill-opacity:1;stroke:none;stroke-width:0.176044px;stroke-linecap:butt;stroke-linejoin:miter;stroke-opacity:1"
       x="1.7373434"
       y="119.5445"
       id="text2419-5"><tspan
         sodipodi:role="line"
         id="tspan2417-6"
         style="fill:#e5e5e5;fill-opacity:1;stroke:none;stroke-width:0.176044px"
         x="1.7373434"
         y="119.5445">RGB</tspan></text>
  </g>
  <g
     inkscape:groupmode="layer"
     id="g3261"
     inkscape:label="Text copy"
     style="display:inline"
     sodipodi:insensitive="true">
    <g
       aria-label="HSV"
       id="text3255"
       style="font-size:5.63343px;line-height:125%;letter-spacing:0px;word-spacing:0px;fill:#e5e5e5;stroke-width:0.176044px">
      <path
         d="M 5.6751183,9.9011641 H 5.1681096 V 8.0252319 H 3.1062742 V 9.9011641 H 2.5992655 V 5.878895 H 3.1062742 V 7.5801909 H 5.1681096 V 5.878895 h 0.5070087 z"
         id="path3263" />
      <path
         d="m 9.0551721,8.8251789 q 0,0.5351759 -0.3887067,0.8337477 -0.3887066,0.2985718 -1.0478179,0.2985718 -0.3380058,0 -0.6253108,-0.050701 Q 6.7060318,9.8560966 6.5144952,9.7659617 V 9.2814868 q 0.2028035,0.090135 0.5013753,0.1633694 0.3042052,0.073235 0.6253107,0.073235 0.4506744,0 0.6760116,-0.1746363 0.2309706,-0.1746363 0.2309706,-0.4732081 0,-0.1971701 -0.084501,-0.3323724 Q 8.3791605,8.4026717 8.1707236,8.2900031 7.9679201,8.171701 7.6017472,8.0421322 7.089105,7.856229 6.8243338,7.5858243 6.5651961,7.3154197 6.5651961,6.847845 q 0,-0.3211055 0.1633694,-0.5464427 Q 6.891935,6.0704317 7.1792399,5.9464962 7.4721783,5.8225607 7.8496181,5.8225607 q 0.3323724,0 0.6084104,0.061968 0.2760381,0.061968 0.5013753,0.1633694 L 8.8016678,6.481672 Q 8.5932309,6.3915372 8.3453599,6.3295694 8.1031224,6.2676017 7.8383512,6.2676017 q -0.3774398,0 -0.5689764,0.1633695 -0.1915366,0.157736 -0.1915366,0.4225072 0,0.2028035 0.084501,0.3380058 0.084502,0.1352023 0.2760381,0.2422375 0.1915366,0.1070352 0.5182756,0.2309706 0.3549061,0.1295689 0.5971435,0.2816715 0.247871,0.1464692 0.3718064,0.3549061 0.1295689,0.2084369 0.1295689,0.523909 z"
         id="path3265" />
      <path
         d="M 12.7,5.878895 11.263476,9.9011641 H 10.756467 L 9.3199422,5.878895 h 0.5295425 l 0.9069823,2.580111 q 0.09014,0.2478709 0.152102,0.4675747 0.06197,0.2140703 0.101402,0.4112404 0.03943,-0.1971701 0.101402,-0.4168739 0.06197,-0.2197037 0.152103,-0.4732081 L 12.164824,5.878895 Z"
         id="path3267" />
    </g>
    <g
       aria-label="RGB"
       id="text3259"
       style="font-size:5.63343px;line-height:125%;letter-spacing:0px;word-spacing:0px;fill:#e5e5e5;stroke-width:0.176044px">
      <path
         d="m 3.3935719,115.52223 q 0.7492461,0 1.1041522,0.28731 0.3605396,0.28167 0.3605396,0.85628 0,0.32111 -0.1183021,0.53518 -0.118302,0.21407 -0.3042052,0.34363 -0.1802698,0.12394 -0.3830732,0.19717 l 1.1041522,1.8027 H 4.5653253 L 3.5907419,117.88264 H 2.7907948 v 1.66186 H 2.2837861 v -4.02227 z m -0.028167,0.43941 H 2.7907948 v 1.49286 h 0.6027771 q 0.4901084,0 0.7154456,-0.19154 0.2253372,-0.19717 0.2253372,-0.57461 0,-0.39434 -0.2366041,-0.55771 -0.2366041,-0.169 -0.7323459,-0.169 z"
         id="path3270" />
      <path
         d="m 7.5341415,117.4207 h 1.3914572 v 1.9717 q -0.3267389,0.10703 -0.6591113,0.15774 -0.3323723,0.0507 -0.7548796,0.0507 -0.6253107,0 -1.0534514,-0.24787 -0.4281407,-0.25351 -0.6534779,-0.71545 -0.2197038,-0.46757 -0.2197038,-1.10415 0,-0.63095 0.247871,-1.09289 0.2478709,-0.46194 0.7098121,-0.71544 0.4675747,-0.25914 1.126686,-0.25914 0.3380058,0 0.6365776,0.062 0.3042053,0.062 0.563343,0.17463 l -0.1915366,0.43941 q -0.2140703,-0.0958 -0.484475,-0.16337 -0.2647712,-0.0676 -0.5520761,-0.0676 -0.721079,0 -1.126686,0.43377 -0.3999735,0.43378 -0.3999735,1.18866 0,0.47884 0.1521026,0.85065 0.157736,0.36617 0.4901084,0.57461 0.3323724,0.2028 0.8731816,0.2028 0.2647712,0 0.4506744,-0.0282 0.1859032,-0.0282 0.3380058,-0.0676 v -1.19429 H 7.5341415 Z"
         id="path3272" />
      <path
         d="m 11.038138,115.52223 q 0.75488,0 1.137953,0.22534 0.388707,0.2197 0.388707,0.77178 0,0.35491 -0.19717,0.59151 -0.19717,0.23097 -0.568977,0.29857 v 0.0282 q 0.253505,0.0394 0.456308,0.14647 0.208437,0.10703 0.326739,0.3042 0.118302,0.19717 0.118302,0.51265 0,0.54644 -0.37744,0.84501 -0.371806,0.29857 -1.01965,0.29857 H 9.8889187 v -4.02227 z m 0.101402,1.71257 q 0.518276,0 0.709812,-0.16337 0.191537,-0.16901 0.191537,-0.49575 0,-0.33237 -0.236604,-0.4732 -0.230971,-0.14647 -0.743613,-0.14647 h -0.664745 v 1.27879 z m -0.743613,0.4225 v 1.45906 h 0.811214 q 0.535176,0 0.743613,-0.20844 0.208437,-0.20843 0.208437,-0.54644 0,-0.31547 -0.219704,-0.50701 -0.21407,-0.19717 -0.77178,-0.19717 z"
         id="path3274" />
    </g>
  </g>
  <g
     inkscape:groupmode="layer"
     id="layer3"
     inkscape:label="components"
     style="display:none">
    <circle
       style="fill:#ff00ff;fill-opacity:1;stroke:none;stroke-width:1;stroke-linecap:round;stroke-linejoin:round;stroke-dasharray:none;stroke-opacity:1"
       id="path2622"
       cx="7.6199999"
       cy="74.410004"
       r="2.54"
       inkscape:label="Preview" />
    <circle
       style="fill:#00ff00;fill-opacity:1;stroke:none;stroke-width:1;stroke-linecap:round;stroke-linejoin:round;stroke-dasharray:none;stroke-opacity:1"
       id="path2872"
       cx="7.6200004"
       cy="17.471664"
       r="5.0799999"
       inkscape:label="Hue" />
    <circle
       style="fill:#00ff00;fill-opacity:1;stroke:none;stroke-width:1;stroke-linecap:round;stroke-linejoin:round;stroke-dasharray:none;stroke-opacity:1"
       id="path2926"
       cx="7.6200004"
       cy="37.791668"
       r="5.0799999"
       inkscape:label="Sat" />
    <circle
       style="fill:#00ff00;fill-opacity:1;stroke:none;stroke-width:1;stroke-linecap:round;stroke-linejoin:round;stroke-dasharray:none;stroke-opacity:1"
       id="path2928"
       cx="7.6200004"
       cy="58.111668"
       r="5.0799999"
       inkscape:label="Val" />
    <circle
       style="fill:#0000ff;fill-opacity:1;stroke:none;stroke-width:1;stroke-linecap:round;stroke-linejoin:round;stroke-dasharray:none;stroke-opacity:1"
       id="path2930"
       cx="7.6200004"
       cy="83.22953"
       r="5.0799999"
       inkscape:label="Red" />
    <circle
       style="fill:#0000ff;fill-opacity:1;stroke:none;stroke-width:1;stroke-linecap:round;stroke-linejoin:round;stroke-dasharray:none;stroke-opacity:1"
       id="path2930-9"
       cx="7.6199999"
       cy="95.788338"
       r="5.0799999"
       inkscape:label="Green" />
    <circle
       style="fill:#0000ff;fill-opacity:1;stroke:none;stroke-width:1;stroke-linecap:round;stroke-linejoin:round;stroke-dasharray:none;stroke-opacity:1"
       id="path2930-3"
       cx="7.6199999"
       cy="108.24154"
       r="5.0799999"
       inkscape:label="Blue" />
    <circle
       style="fill:#ff0000;fill-opacity:1;stroke:none;stroke-width:1;stroke-linecap:round;stroke-linejoin:round;stroke-dasharray:none;stroke-opacity:1"
       id="path3029"
       cx="4.2684503"
       cy="46.470001"
       r="2.54"
       inkscape:label="SScl" />
    <circle
       style="fill:#ff0000;fill-opacity:1;stroke:none;stroke-width:1;stroke-linecap:round;stroke-linejoin:round;stroke-dasharray:none;stroke-opacity:1"
       id="path3029-6"
       cx="10.971549"
       cy="46.470001"
       r="2.54"
       inkscape:label="SOff" />
    <circle
       style="fill:#ff0000;fill-opacity:1;stroke:none;stroke-width:1;stroke-linecap:round;stroke-linejoin:round;stroke-dasharray:none;stroke-opacity:1"
       id="path3029-0"
       cx="4.2684503"
       cy="66.790001"
       r="2.54"
       inkscape:label="VScl" />
    <circle
       style="fill:#ff0000;fill-opacity:1;stroke:none;stroke-width:1;stroke-linecap:round;stroke-linejoin:round;stroke-dasharray:none;stroke-opacity:1"
       id="path3029-6-6"
       cx="10.971549"
       cy="66.790001"
       r="2.54"
       inkscape:label="VOff" />
    <circle
       style="fill:#ff0000;fill-opacity:1;stroke:none;stroke-width:1;stroke-linecap:round;stroke-linejoin:round;stroke-dasharray:none;stroke-opacity:1"
       id="path3029-2"
       cx="4.2684503"
       cy="26.15"
       r="2.54"
       inkscape:label="HScl" />
    <circle
       style="fill:#ff0000;fill-opacity:1;stroke:none;stroke-width:1;stroke-linecap:round;stroke-linejoin:round;stroke-dasharray:none;stroke-opacity:1"
       id="path3029-6-61"
       cx="10.971549"
       cy="26.15"
       r="2.54"
       inkscape:label="HOff" />
  </g>
</svg>
