<?xml version="1.0" encoding="UTF-8" standalone="no"?>
<!-- Created with Inkscape (http://www.inkscape.org/) -->

<svg
   width="30.48mm"
   height="128.5mm"
   viewBox="0 0 30.48 128.5"
   version="1.1"
   id="svg1524"
   inkscape:version="1.3.2 (091e20ef0f, 2023-11-25, custom)"
   sodipodi:docname="Integrator.svg"
   xmlns:inkscape="http://www.inkscape.org/namespaces/inkscape"
   xmlns:sodipodi="http://sodipodi.sourceforge.net/DTD/sodipodi-0.dtd"
   xmlns:xlink="http://www.w3.org/1999/xlink"
   xmlns="http://www.w3.org/2000/svg"
   xmlns:svg="http://www.w3.org/2000/svg">
  <sodipodi:namedview
     id="namedview1526"
     pagecolor="#cccccc"
     bordercolor="#666666"
     borderopacity="1.0"
     inkscape:pageshadow="2"
     inkscape:pageopacity="1"
     inkscape:pagecheckerboard="0"
     inkscape:document-units="mm"
     showgrid="true"
     units="in"
     inkscape:showpageshadow="2"
     inkscape:deskcolor="#d1d1d1"
     inkscape:zoom="2.2328602"
     inkscape:cx="67.850195"
     inkscape:cy="218.55376"
     inkscape:window-width="1920"
     inkscape:window-height="1008"
     inkscape:window-x="0"
     inkscape:window-y="0"
     inkscape:window-maximized="1"
     inkscape:current-layer="layer3">
    <inkscape:grid
       type="xygrid"
       id="grid1608"
       originx="7.6199999"
       originy="64.25"
       units="mm"
       spacingx="2.5400001"
       spacingy="2.5400001"
       visible="true" />
  </sodipodi:namedview>
  <defs
     id="defs1521">
    <linearGradient
       id="linearGradient33"
       inkscape:collect="always">
      <stop
         style="stop-color:#2e2e2e;stop-opacity:1;"
         offset="0"
         id="stop33" />
      <stop
         style="stop-color:#000000;stop-opacity:1;"
         offset="1"
         id="stop34" />
    </linearGradient>
    <linearGradient
       id="linearGradient31"
       inkscape:collect="always">
      <stop
         style="stop-color:#2e2e2e;stop-opacity:1;"
         offset="0"
         id="stop31" />
      <stop
         style="stop-color:#000000;stop-opacity:1;"
         offset="1"
         id="stop32" />
    </linearGradient>
    <linearGradient
       id="linearGradient5"
       inkscape:collect="always">
      <stop
         style="stop-color:#ff7bff;stop-opacity:1;"
         offset="0"
         id="stop5" />
      <stop
         style="stop-color:#ce00ce;stop-opacity:1;"
         offset="1"
         id="stop6" />
    </linearGradient>
    <linearGradient
       inkscape:collect="always"
       xlink:href="#linearGradient5"
       id="linearGradient6"
       x1="12.7"
       y1="69.330002"
       x2="12.7"
       y2="79.489998"
       gradientUnits="userSpaceOnUse"
       gradientTransform="matrix(1.2,0,0,1,-3.047999,-13.015726)" />
    <linearGradient
       inkscape:collect="always"
       xlink:href="#linearGradient5"
       id="linearGradient20"
       gradientUnits="userSpaceOnUse"
       gradientTransform="matrix(1.2,0,0,1,-3.047999,43.710076)"
       x1="12.7"
       y1="69.330002"
       x2="12.7"
       y2="79.489998" />
    <linearGradient
       inkscape:collect="always"
       xlink:href="#linearGradient31"
       id="linearGradient32"
       x1="7.6554861"
       y1="65.730438"
       x2="7.6554871"
       y2="57.080414"
       gradientUnits="userSpaceOnUse"
       gradientTransform="matrix(1.1237722,0,0,1,-0.08811791,0)" />
    <linearGradient
       inkscape:collect="always"
       xlink:href="#linearGradient33"
       id="linearGradient34"
       x1="7.6746554"
       y1="122.45624"
       x2="7.6746554"
       y2="113.80621"
       gradientUnits="userSpaceOnUse"
       gradientTransform="matrix(1.1237722,0,0,1,-0.08811791,0)" />
  </defs>
  <g
     inkscape:groupmode="layer"
     id="layer2"
     inkscape:label="Background"
     sodipodi:insensitive="true">
    <rect
       style="display:inline;fill:#1a1a1a;stroke-width:0.320127"
       id="rect374"
       width="30.480001"
       height="128.5"
       x="0"
       y="0" />
  </g>
  <g
     inkscape:label="Layer 1"
     inkscape:groupmode="layer"
     id="layer1">
    <rect
       style="fill:#383838;fill-opacity:1;stroke:none;stroke-width:0;stroke-linecap:square;stroke-linejoin:round;stroke-opacity:1"
       id="rect7"
       width="30.48"
       height="12.700001"
       x="-7.1525568e-07"
       y="26.468405" />
    <path
       style="fill:none;fill-rule:evenodd;stroke:#ffffff;stroke-width:0.264583px;stroke-linecap:butt;stroke-linejoin:miter;stroke-opacity:1"
       d="M 2.5399994,32.84434 H 12.7"
       id="path4" />
    <rect
       style="fill:url(#linearGradient6);stroke:none;stroke-width:0;stroke-linecap:square;stroke-linejoin:round;stroke-opacity:1"
       id="rect5"
       width="30.48"
       height="10.16"
       x="-2.220446e-15"
       y="56.314266" />
    <rect
       style="fill:url(#linearGradient32);stroke:none;stroke-width:0;stroke-linecap:square;stroke-linejoin:round;stroke-opacity:1"
       id="rect8"
       width="18.521257"
       height="8.6500273"
       x="0.71193641"
       y="57.080414" />
    <rect
       style="fill:#383838;fill-opacity:1;stroke:none;stroke-width:0;stroke-linecap:square;stroke-linejoin:round;stroke-opacity:1"
       id="rect10"
       width="30.48"
       height="12.700001"
       x="-7.1525574e-07"
       y="83.194199" />
    <path
       style="fill:none;fill-rule:evenodd;stroke:#ffffff;stroke-width:0.264583px;stroke-linecap:butt;stroke-linejoin:miter;stroke-opacity:1"
       d="M 2.5399994,89.570142 H 12.7"
       id="path8" />
    <rect
       style="fill:url(#linearGradient20);stroke:none;stroke-width:0;stroke-linecap:square;stroke-linejoin:round;stroke-opacity:1"
       id="rect9"
       width="30.48"
       height="10.16"
       x="-5.67398e-14"
       y="113.04006" />
    <rect
       style="fill:url(#linearGradient34);stroke:none;stroke-width:0;stroke-linecap:square;stroke-linejoin:round;stroke-opacity:1"
       id="rect11"
       width="18.521257"
       height="8.6500273"
       x="0.71193641"
       y="113.80621" />
  </g>
  <g
     inkscape:groupmode="layer"
     id="layer4"
     inkscape:label="Text"
     style="display:none">
    <text
       xml:space="preserve"
       style="font-size:4.53651px;line-height:125%;font-family:sans-serif;letter-spacing:0px;word-spacing:0px;fill:#ffffff;fill-opacity:1;stroke:none;stroke-width:0.212649px;stroke-linecap:butt;stroke-linejoin:miter;stroke-opacity:1"
       x="2.948324"
       y="14.570574"
       id="text1"><tspan
         sodipodi:role="line"
         id="tspan1"
         style="font-size:4.53651px;fill:#ffffff;fill-opacity:1;stroke:none;stroke-width:0.212649px"
         x="2.948324"
         y="14.570574">Min      Max</tspan></text>
    <text
       xml:space="preserve"
       style="font-size:5.98876px;line-height:125%;font-family:sans-serif;letter-spacing:0px;word-spacing:0px;fill:#ff66ff;fill-opacity:1;stroke:none;stroke-width:0.187148px;stroke-linecap:butt;stroke-linejoin:miter;stroke-opacity:1"
       x="0.8939321"
       y="8.4876223"
       id="text2"><tspan
         sodipodi:role="line"
         id="tspan2"
         style="font-style:normal;font-variant:normal;font-weight:normal;font-stretch:normal;font-family:'Ubuntu Condensed';-inkscape-font-specification:'Ubuntu Condensed, ';fill:#ff66ff;fill-opacity:1;stroke:none;stroke-width:0.187148px;stroke-opacity:1"
         x="0.8939321"
         y="8.4876223">INTEGRATOR</tspan></text>
    <text
       xml:space="preserve"
       style="font-size:5.61662px;line-height:125%;font-family:sans-serif;letter-spacing:0px;word-spacing:0px;fill:#ffffff;fill-opacity:1;stroke:none;stroke-width:0.175519px;stroke-linecap:butt;stroke-linejoin:miter;stroke-opacity:1"
       x="7.0908332"
       y="31.443432"
       id="text3"><tspan
         sodipodi:role="line"
         id="tspan3"
         style="text-align:center;text-anchor:middle;fill:#ffffff;fill-opacity:1;stroke:none;stroke-width:0.175519px"
         x="7.0908327"
         y="31.443432">δCV</tspan><tspan
         sodipodi:role="line"
         style="text-align:center;text-anchor:middle;fill:#ffffff;fill-opacity:1;stroke:none;stroke-width:0.175519px"
         x="7.0908332"
         y="38.464207"
         id="tspan4">δt</tspan></text>
    <text
       xml:space="preserve"
       style="font-size:4.79958px;line-height:125%;font-family:sans-serif;letter-spacing:0px;word-spacing:0px;fill:#ffffff;fill-opacity:1;stroke:none;stroke-width:0.149986px;stroke-linecap:butt;stroke-linejoin:miter;stroke-opacity:1"
       x="3.3634408"
       y="54.779167"
       id="text5"><tspan
         sodipodi:role="line"
         id="tspan5"
         style="font-style:normal;font-variant:normal;font-weight:normal;font-stretch:normal;font-family:'Ubuntu Condensed';-inkscape-font-specification:'Ubuntu Condensed, ';fill:#ffffff;fill-opacity:1;stroke:none;stroke-width:0.149986px"
         x="3.3634408"
         y="54.779167">Gate      Reset</tspan></text>
    <text
       xml:space="preserve"
       style="font-size:4.53651px;line-height:125%;font-family:sans-serif;letter-spacing:0px;word-spacing:0px;fill:#ffffff;fill-opacity:1;stroke:none;stroke-width:0.212649px;stroke-linecap:butt;stroke-linejoin:miter;stroke-opacity:1"
       x="2.948324"
       y="72.354706"
       id="text11"><tspan
         sodipodi:role="line"
         id="tspan11"
         style="font-size:4.53651px;fill:#ffffff;fill-opacity:1;stroke:none;stroke-width:0.212649px"
         x="2.948324"
         y="72.354706">Min      Max</tspan></text>
    <text
       xml:space="preserve"
       style="font-size:5.61662px;line-height:125%;font-family:sans-serif;letter-spacing:0px;word-spacing:0px;fill:#ffffff;fill-opacity:1;stroke:none;stroke-width:0.175519px;stroke-linecap:butt;stroke-linejoin:miter;stroke-opacity:1"
       x="7.0908332"
       y="89.227562"
       id="text13"><tspan
         sodipodi:role="line"
         id="tspan12"
         style="text-align:center;text-anchor:middle;fill:#ffffff;fill-opacity:1;stroke:none;stroke-width:0.175519px"
         x="7.0908327"
         y="89.227562">δCV</tspan><tspan
         sodipodi:role="line"
         style="text-align:center;text-anchor:middle;fill:#ffffff;fill-opacity:1;stroke:none;stroke-width:0.175519px"
         x="7.0908332"
         y="96.248337"
         id="tspan13">δt</tspan></text>
    <text
       xml:space="preserve"
       style="font-size:4.79958px;line-height:125%;font-family:sans-serif;letter-spacing:0px;word-spacing:0px;fill:#ffffff;fill-opacity:1;stroke:none;stroke-width:0.149986px;stroke-linecap:butt;stroke-linejoin:miter;stroke-opacity:1"
       x="3.3634408"
       y="112.5633"
       id="text14"><tspan
         sodipodi:role="line"
         id="tspan14"
         style="font-style:normal;font-variant:normal;font-weight:normal;font-stretch:normal;font-family:'Ubuntu Condensed';-inkscape-font-specification:'Ubuntu Condensed, ';fill:#ffffff;fill-opacity:1;stroke:none;stroke-width:0.149986px"
         x="3.3634408"
         y="112.5633">Gate      Reset</tspan></text>
  </g>
  <g
     inkscape:groupmode="layer"
     id="g28"
     inkscape:label="Text copy">
    <path
       d="M 4.8173661,14.570574 3.7512862,11.730719 h -0.018146 q 0.01361,0.140631 0.022683,0.381066 0.00907,0.235899 0.00907,0.49448 v 1.964309 H 3.3883654 v -3.239068 h 0.6033559 l 0.9980322,2.653858 h 0.018146 l 1.0161782,-2.653858 h 0.5988194 v 3.239068 H 6.2191477 v -1.991528 q 0,-0.235899 0.00907,-0.467261 0.01361,-0.231362 0.022683,-0.37653 h -0.018146 l -1.0796894,2.835319 z m 2.8353167,-3.343408 q 0.09073,0 0.1587779,0.06351 0.072584,0.05898 0.072584,0.190534 0,0.127022 -0.072584,0.190533 -0.068048,0.06351 -0.1587779,0.06351 -0.099803,0 -0.1678508,-0.06351 -0.068048,-0.06351 -0.068048,-0.190533 0,-0.131559 0.068048,-0.190534 0.068048,-0.06351 0.1678508,-0.06351 z m 0.19507,0.911838 v 2.43157 H 7.4485399 v -2.43157 z m 1.9416235,-0.04537 q 0.4355047,0 0.6577937,0.213216 0.222289,0.20868 0.222289,0.680477 v 1.583242 h -0.394676 v -1.556023 q 0,-0.58521 -0.5443813,-0.58521 -0.4037494,0 -0.5579908,0.226826 -0.1542413,0.226825 -0.1542413,0.653257 v 1.26115 H 8.6189567 v -2.43157 h 0.3220922 l 0.058975,0.331166 h 0.022683 q 0.1179493,-0.190534 0.3266287,-0.281264 0.2086795,-0.09527 0.4400415,-0.09527 z m 10.1935447,2.476935 -1.06608,-2.839855 h -0.01815 q 0.01361,0.140631 0.02268,0.381066 0.0091,0.235899 0.0091,0.49448 v 1.964309 H 18.55392 v -3.239068 h 0.603356 l 0.998032,2.653858 h 0.01815 l 1.016178,-2.653858 h 0.598819 v 3.239068 h -0.403749 v -1.991528 q 0,-0.235899 0.0091,-0.467261 0.01361,-0.231362 0.02268,-0.37653 h -0.01815 l -1.079689,2.835319 z m 3.552084,-2.472398 q 0.444578,0 0.657794,0.19507 0.213216,0.19507 0.213216,0.621502 v 1.655826 h -0.290336 l -0.07712,-0.344775 h -0.01815 q -0.158778,0.199606 -0.335702,0.294873 -0.172387,0.09527 -0.48087,0.09527 -0.331165,0 -0.548917,-0.172387 -0.217753,-0.176924 -0.217753,-0.548918 0,-0.362921 0.2858,-0.557991 0.2858,-0.199606 0.880083,-0.217752 l 0.412823,-0.01361 v -0.145168 q 0,-0.303946 -0.131559,-0.421896 -0.131559,-0.117949 -0.371994,-0.117949 -0.190534,0 -0.362921,0.05898 -0.172387,0.05444 -0.322092,0.127022 l -0.122486,-0.29941 q 0.158778,-0.08619 0.37653,-0.145168 0.217753,-0.06351 0.453651,-0.06351 z m 0.11795,1.297442 q -0.453651,0.01815 -0.630575,0.145168 -0.172388,0.127022 -0.172388,0.358384 0,0.204143 0.122486,0.29941 0.127023,0.09527 0.322092,0.09527 0.308483,0 0.512626,-0.167851 0.204143,-0.172388 0.204143,-0.526235 v -0.217753 z m 2.082262,-0.06805 -0.839254,-1.188566 h 0.453651 l 0.626038,0.916375 0.621502,-0.916375 h 0.449115 l -0.839255,1.188566 0.88462,1.243004 h -0.453651 l -0.662331,-0.970813 -0.671403,0.970813 h -0.449115 z"
       id="text20"
       style="font-size:4.53651px;line-height:125%;letter-spacing:0px;word-spacing:0px;fill:#ffffff;stroke-width:0.212649px"
       aria-label="Min      Max" />
    <path
       style="font-size:5.98876px;line-height:125%;font-family:'Ubuntu Condensed';-inkscape-font-specification:'Ubuntu Condensed, ';letter-spacing:0px;word-spacing:0px;fill:#ff66ff;stroke-width:0.187148px"
       d="M 1.3969879,5.395745 H 1.9359763 V 9.5459557 H 1.3969879 Z M 4.978263,9.5459557 Q 4.8345327,9.1926188 4.6488812,8.7853831 4.4692184,8.3721587 4.2656005,7.9589343 4.0679715,7.5397211 3.8583649,7.1324854 3.6487583,6.7192609 3.4451404,6.3659241 V 9.5459557 H 2.9420846 V 5.395745 h 0.449157 q 0.2275729,0.3713031 0.4371795,0.7605725 0.2155953,0.3892694 0.4072356,0.77255 0.1916404,0.3772919 0.3593256,0.748595 0.1736741,0.3653144 0.3174043,0.6946962 V 5.395745 H 5.4154425 V 9.5459557 Z M 8.3858636,5.395745 V 5.8568795 H 7.4635945 V 9.5459557 H 6.9246061 V 5.8568795 H 6.0023371 V 5.395745 Z M 8.972766,9.5459557 V 5.395745 H 10.83527 V 5.8568795 H 9.5117544 v 1.2875834 h 1.1977516 v 0.449157 H 9.5117544 V 9.0848211 H 10.93109 v 0.4611346 z m 2.461372,-2.0780998 q 0,-0.5868984 0.107798,-1.0001229 0.107797,-0.4132244 0.305426,-0.6707411 0.203618,-0.2635054 0.48509,-0.3772919 0.28746,-0.1197752 0.640797,-0.1197752 0.269494,0 0.491079,0.077854 0.221584,0.071865 0.359325,0.1676853 l -0.167685,0.449157 q -0.137742,-0.09582 -0.299438,-0.1557078 -0.161697,-0.065876 -0.371303,-0.065876 -0.521022,0 -0.748595,0.4252019 -0.227573,0.4192132 -0.227573,1.2696171 0,0.4551458 0.06588,0.7785388 0.07187,0.3233931 0.197629,0.5270109 0.125764,0.2036179 0.305427,0.299438 0.179663,0.09582 0.401247,0.09582 0.185652,0 0.317404,-0.041921 V 7.503789 h 0.538989 v 1.9523358 q -0.161697,0.077854 -0.401247,0.1317527 -0.239551,0.053899 -0.503056,0.053899 -0.323393,0 -0.598876,-0.1257639 Q 12.056969,9.3842591 11.853351,9.1207537 11.655722,8.8512595 11.541936,8.4440238 11.434138,8.0307994 11.434138,7.4678559 Z m 3.31777,-2.0122233 q 0.419214,-0.1018089 0.808483,-0.1018089 0.311415,0 0.562943,0.071865 0.251528,0.071865 0.431191,0.2275729 0.179663,0.1557077 0.275483,0.4012469 0.101809,0.2455391 0.101809,0.5928872 0,0.4311907 -0.167685,0.7006849 -0.161697,0.2635055 -0.443169,0.401247 0.07187,0.1197752 0.179663,0.3293818 0.113787,0.2036178 0.227573,0.4551457 0.119775,0.2455392 0.227573,0.5090446 0.113786,0.2635055 0.19164,0.5030559 H 16.608424 Q 16.542548,9.3662929 16.440739,9.13872 16.344918,8.9111471 16.237121,8.689563 16.129323,8.4619901 16.021525,8.2583723 15.913728,8.0487657 15.829885,7.9050354 q -0.09582,0.011978 -0.197629,0.017966 -0.101809,0.00599 -0.203618,0.00599 h -0.149719 v 1.6169652 h -0.527011 z m 0.527011,2.0301896 h 0.227573 q 0.413225,0 0.634809,-0.1856515 0.221584,-0.1916404 0.221584,-0.6527749 0,-0.2335616 -0.05989,-0.3892694 Q 16.249095,6.0964299 16.141299,6.0065985 16.03949,5.9107785 15.889771,5.868857 15.74604,5.826936 15.566378,5.826936 q -0.155708,0 -0.287461,0.017966 z M 19.177604,5.395745 q 0.14373,0.449157 0.281472,0.9102915 0.14373,0.4551458 0.275482,0.9582016 0.137742,0.5030558 0.269495,1.0659993 0.137741,0.5629434 0.275483,1.2157183 H 19.740547 Q 19.692637,9.2764615 19.638738,9.012956 19.590828,8.7494506 19.536929,8.4859451 H 18.23138 q -0.05989,0.2635055 -0.107798,0.5270109 -0.04791,0.2635055 -0.09582,0.5329997 H 17.50674 Q 17.638492,8.8931808 17.776234,8.3302374 17.913975,7.7672939 18.045728,7.2642381 18.18347,6.7611823 18.321211,6.3060365 18.464941,5.844902 18.608672,5.395745 Z m -0.293449,0.6108535 q -0.149719,0.4970671 -0.287461,1.0001229 -0.137741,0.5030559 -0.263505,1.0300667 h 1.095943 Q 19.309357,7.5097773 19.171615,7.0067214 19.033874,6.5036656 18.884155,6.0065985 Z M 22.657076,5.395745 V 5.8568795 H 21.734807 V 9.5459557 H 21.195818 V 5.8568795 H 20.273549 V 5.395745 Z m 3.192007,2.0780997 q 0,0.4850896 -0.08983,0.8863365 -0.08384,0.3952581 -0.269494,0.6827186 -0.179663,0.2814717 -0.461135,0.4371795 -0.275483,0.1557078 -0.652774,0.1557078 -0.377292,0 -0.658764,-0.1557078 Q 23.441602,9.3243715 23.25595,9.0428998 23.076288,8.7554393 22.986456,8.3601812 q -0.08983,-0.4012469 -0.08983,-0.8863365 0,-0.4850896 0.08983,-0.8863365 0.08983,-0.4012469 0.269494,-0.6827186 0.185652,-0.2874605 0.461135,-0.4431683 0.281472,-0.1616965 0.658764,-0.1616965 0.377291,0 0.652774,0.1616965 0.281472,0.1557078 0.461135,0.4431683 0.185651,0.2814717 0.269494,0.6827186 0.08983,0.4012469 0.08983,0.8863365 z m -0.57492,0 q 0,-0.3772919 -0.04791,-0.6887074 Q 25.178342,6.4737218 25.070545,6.2521377 24.962747,6.0245648 24.789073,5.8988008 24.621388,5.7730369 24.375849,5.7730369 q -0.24554,0 -0.419214,0.1257639 -0.167685,0.125764 -0.275483,0.3533369 -0.107797,0.2215841 -0.161696,0.5329996 -0.04791,0.3114155 -0.04791,0.6887074 0,0.3772919 0.04791,0.6887074 0.0539,0.3114155 0.161696,0.5329996 0.107798,0.2215842 0.275483,0.3473481 0.173674,0.1197752 0.419214,0.1197752 0.245539,0 0.413224,-0.1197752 0.173674,-0.1257639 0.281472,-0.3473481 0.107797,-0.2215841 0.155707,-0.5329996 0.04791,-0.3114155 0.04791,-0.6887074 z m 1.413345,-2.0182121 q 0.419213,-0.1018089 0.808482,-0.1018089 0.311416,0 0.562944,0.071865 0.251528,0.071865 0.43119,0.2275729 0.179663,0.1557077 0.275483,0.4012469 0.101809,0.2455391 0.101809,0.5928872 0,0.4311907 -0.167685,0.7006849 -0.161697,0.2635055 -0.443168,0.401247 0.07186,0.1197752 0.179663,0.3293818 0.113786,0.2036178 0.227572,0.4551457 0.119776,0.2455392 0.227573,0.5090446 0.113787,0.2635055 0.191641,0.5030559 H 28.544023 Q 28.478147,9.3662929 28.376338,9.13872 28.280518,8.9111471 28.17272,8.689563 28.064922,8.4619901 27.957125,8.2583723 27.849327,8.0487657 27.765484,7.9050354 q -0.09582,0.011978 -0.197629,0.017966 -0.101809,0.00599 -0.203617,0.00599 h -0.149719 v 1.6169652 h -0.527011 z m 0.527011,2.0301896 h 0.227572 q 0.413225,0 0.634809,-0.1856515 0.221584,-0.1916404 0.221584,-0.6527749 0,-0.2335616 -0.05989,-0.3892694 -0.0539,-0.1616965 -0.161696,-0.2515279 -0.101809,-0.09582 -0.251528,-0.1377415 -0.14373,-0.041921 -0.323393,-0.041921 -0.155708,0 -0.28746,0.017966 z"
       id="text21"
       aria-label="INTEGRATOR" />
    <g
       id="text23"
       style="font-size:5.61662px;line-height:125%;letter-spacing:0px;word-spacing:0px;fill:#ffffff;stroke-width:0.175519px"
       aria-label="δCV&#10;δt">
      <path
         style="text-align:center;text-anchor:middle"
         d="m 3.6141462,31.499598 q -0.39878,0 -0.7133107,-0.162882 -0.3145307,-0.162882 -0.4942626,-0.460563 -0.1741152,-0.297681 -0.1741152,-0.696461 0,-0.539195 0.2639811,-0.870576 0.2695978,-0.33138 0.7526271,-0.522345 Q 3.1198837,28.702521 2.996318,28.601422 2.8727524,28.500323 2.7941197,28.354291 2.715487,28.202642 2.715487,27.989211 q 0,-0.202199 0.1123324,-0.393164 0.1123324,-0.196582 0.3538471,-0.320147 0.2415146,-0.129182 0.6234448,-0.129182 0.280831,0 0.488646,0.06178 0.2078149,0.06178 0.3482304,0.146032 0.1460321,0.07863 0.2134316,0.140416 L 4.6419877,27.882495 Q 4.4678725,27.747696 4.2544409,27.652213 4.046626,27.551114 3.7994947,27.551114 q -0.2358981,0 -0.3706969,0.0674 -0.1291823,0.0674 -0.1797319,0.168498 -0.05055,0.09548 -0.05055,0.185349 0,0.09548 0.044933,0.190965 0.044933,0.09548 0.1797318,0.207815 0.1404155,0.106715 0.4156299,0.252748 0.4998792,0.263981 0.7413939,0.522345 0.2415146,0.252748 0.3201473,0.499879 0.078633,0.241515 0.078633,0.477413 0,0.477413 -0.1909651,0.78071 -0.1909651,0.303298 -0.5054958,0.44933 -0.3089141,0.146032 -0.6683778,0.146032 z m 0.011233,-0.404397 q 0.4156298,0 0.6402947,-0.269597 0.2302814,-0.275215 0.2302814,-0.690845 0,-0.41563 -0.2246648,-0.690844 -0.2246648,-0.275214 -0.606595,-0.454946 -0.4268631,0.146032 -0.679611,0.41563 -0.2471313,0.263981 -0.2471313,0.73016 0,0.43248 0.2415147,0.696461 0.2415146,0.263981 0.6459113,0.263981 z m 3.9203971,-3.274489 q -0.6459113,0 -1.0166082,0.43248 -0.370697,0.432479 -0.370697,1.185106 0,0.747011 0.3426139,1.185107 0.3482304,0.43248 1.0390747,0.43248 0.2639811,0 0.4998791,-0.04493 0.2358981,-0.04493 0.4605629,-0.112332 v 0.438096 q -0.2246648,0.08425 -0.4661795,0.123566 -0.235898,0.03932 -0.5672786,0.03932 -0.6122116,0 -1.0222248,-0.252748 -0.4100133,-0.252748 -0.6178283,-0.718927 -0.2021983,-0.46618 -0.2021983,-1.095241 0,-0.606595 0.2190482,-1.067158 0.2246648,-0.466179 0.6571446,-0.724544 0.4324797,-0.263981 1.0503079,-0.263981 0.6346781,0 1.1064742,0.235898 L 8.455669,28.03976 q -0.1853484,-0.08425 -0.4156299,-0.151649 -0.2246648,-0.0674 -0.4942625,-0.0674 z m 4.6561774,-0.387547 -1.432238,4.010267 H 10.26422 L 8.8319823,27.433165 h 0.5279623 l 0.9042754,2.572412 q 0.08987,0.247131 0.151649,0.46618 0.06178,0.213431 0.101099,0.410013 0.03932,-0.196582 0.101099,-0.41563 0.06178,-0.219048 0.151649,-0.471796 l 0.898659,-2.561179 z"
         id="path28" />
      <path
         style="text-align:center;text-anchor:middle"
         d="m 6.0601851,38.520373 q -0.39878,0 -0.7133108,-0.162882 -0.3145307,-0.162882 -0.4942625,-0.460563 -0.1741153,-0.297681 -0.1741153,-0.696461 0,-0.539195 0.2639812,-0.870576 0.2695977,-0.33138 0.7526271,-0.522345 -0.1291823,-0.08425 -0.2527479,-0.185349 -0.1235657,-0.101099 -0.2021984,-0.247131 -0.078633,-0.151649 -0.078633,-0.36508 0,-0.202199 0.1123324,-0.393164 0.1123324,-0.196582 0.353847,-0.320147 0.2415147,-0.129182 0.6234449,-0.129182 0.280831,0 0.4886459,0.06178 0.2078149,0.06178 0.3482304,0.146033 0.1460322,0.07863 0.2134316,0.140415 L 7.0880265,34.90327 Q 6.9139113,34.768471 6.7004798,34.672988 6.4926648,34.571889 6.2455335,34.571889 q -0.235898,0 -0.3706969,0.0674 -0.1291822,0.0674 -0.1797318,0.168498 -0.05055,0.09548 -0.05055,0.185349 0,0.09548 0.044933,0.190965 0.044933,0.09548 0.1797318,0.207815 0.1404155,0.106716 0.4156299,0.252748 0.4998792,0.263981 0.7413938,0.522345 0.2415147,0.252748 0.3201474,0.49988 0.078633,0.241514 0.078633,0.477412 0,0.477413 -0.1909651,0.78071 -0.1909651,0.303298 -0.5054958,0.44933 -0.3089141,0.146032 -0.6683778,0.146032 z m 0.011233,-0.404397 q 0.4156299,0 0.6402947,-0.269597 0.2302814,-0.275215 0.2302814,-0.690845 0,-0.415629 -0.2246648,-0.690844 -0.2246648,-0.275214 -0.6065949,-0.454946 -0.4268632,0.146032 -0.6796111,0.41563 -0.2471313,0.263981 -0.2471313,0.73016 0,0.43248 0.2415147,0.696461 0.2415147,0.263981 0.6459113,0.263981 z m 3.1396869,0 q 0.1123324,0 0.2302815,-0.01685 0.117949,-0.02247 0.1909651,-0.04493 v 0.376313 q -0.078633,0.03932 -0.2246649,0.06178 -0.1460321,0.02808 -0.280831,0.02808 -0.235898,0 -0.4380963,-0.07863 Q 8.4921779,38.357491 8.3686122,38.155293 8.2450466,37.953095 8.2450466,37.588014 V 35.835629 H 7.8181835 v -0.235898 l 0.4324797,-0.196582 0.1965817,-0.640295 h 0.2920643 v 0.690845 h 0.8705761 v 0.38193 H 8.7393092 v 1.741152 q 0,0.275214 0.1291822,0.410013 0.1347989,0.129182 0.3426138,0.129182 z"
         id="path29" />
    </g>
    <path
       style="font-size:4.79958px;line-height:125%;font-family:'Ubuntu Condensed';-inkscape-font-specification:'Ubuntu Condensed, ';letter-spacing:0px;word-spacing:0px;fill:#ffffff;stroke-width:0.149986px"
       d="m 3.6274177,52.055379 q 0,-0.470359 0.086392,-0.80153 0.086392,-0.331171 0.2447786,-0.537553 0.1631857,-0.211181 0.388766,-0.302374 0.2303798,-0.09599 0.513555,-0.09599 0.2159811,0 0.3935656,0.06239 0.1775845,0.05759 0.2879748,0.134389 l -0.1343882,0.359968 q -0.1103904,-0.07679 -0.239979,-0.124789 -0.1295887,-0.0528 -0.297574,-0.0528 -0.4175635,0 -0.5999475,0.34077 -0.1823841,0.335971 -0.1823841,1.017511 0,0.364768 0.052795,0.623945 0.057595,0.259178 0.1583862,0.422363 0.1007912,0.163186 0.2447786,0.239979 0.1439874,0.07679 0.3215718,0.07679 0.148787,0 0.2543778,-0.0336 v -1.300672 h 0.4319622 v 1.564663 q -0.1295887,0.0624 -0.3215719,0.105591 -0.1919832,0.0432 -0.4031647,0.0432 -0.2591773,0 -0.479958,-0.100791 Q 4.126574,53.591245 3.9633883,53.380063 3.8050021,53.164082 3.7138101,52.83771 3.6274177,52.506539 3.6274177,52.055379 Z m 2.6685647,-0.80153 q 0.1247891,-0.05279 0.2639769,-0.08159 0.1391878,-0.0336 0.3023736,-0.0336 0.3359706,0 0.5471521,0.211182 0.2111815,0.206382 0.2111815,0.647943 v 1.670254 q -0.1727849,0.048 -0.3551689,0.07679 -0.1775845,0.0288 -0.3503694,0.0288 -0.1727848,0 -0.3263714,-0.0432 -0.148787,-0.0432 -0.2639769,-0.139187 -0.1103903,-0.09599 -0.1775845,-0.239979 -0.067194,-0.148787 -0.067194,-0.359969 0,-0.196783 0.057595,-0.34077 0.062394,-0.148787 0.1679853,-0.244779 0.1055907,-0.100791 0.2495781,-0.148787 0.1439874,-0.05279 0.3119727,-0.05279 0.1583862,0 0.3503694,0.0384 v -0.23038 q 0,-0.278376 -0.1103903,-0.388766 -0.1055908,-0.110391 -0.3071732,-0.110391 -0.1103903,0 -0.2111815,0.024 -0.095992,0.0192 -0.2063819,0.06719 z m 0.1967828,1.732648 q 0,0.220781 0.1151899,0.326372 0.1151899,0.105591 0.3263715,0.105591 0.1295886,0 0.2831752,-0.0336 v -0.80153 q -0.1439874,-0.0384 -0.2831752,-0.0384 -0.091192,0 -0.1727849,0.024 -0.081593,0.0192 -0.1439874,0.07199 -0.057595,0.048 -0.091192,0.134388 -0.033597,0.08159 -0.033597,0.211181 z M 8.72457,51.201054 h 0.6335446 v 0.355169 H 8.72457 v 1.387078 q 0,0.259178 0.091192,0.364768 0.095992,0.100791 0.2543778,0.100791 0.081593,0 0.1535865,-0.024 0.076793,-0.024 0.1295887,-0.05759 l 0.081593,0.331171 q -0.1967828,0.11519 -0.4175635,0.11519 -0.3551689,0 -0.5327534,-0.196783 -0.172785,-0.201585 -0.172785,-0.662344 V 50.524313 L 8.72457,50.452319 Z m 1.415876,1.382279 q 0.0048,0.182384 0.0336,0.33597 0.0288,0.148787 0.09119,0.263977 0.06719,0.110391 0.172785,0.172785 0.110391,0.06239 0.278376,0.06239 0.139188,0 0.254378,-0.0384 0.119989,-0.0432 0.172784,-0.07199 l 0.07679,0.331171 q -0.0624,0.0432 -0.211182,0.09119 -0.143987,0.0528 -0.34557,0.0528 -0.263976,0 -0.446361,-0.09599 -0.177584,-0.09599 -0.2927739,-0.268776 -0.1103904,-0.172785 -0.1583862,-0.412764 -0.047996,-0.239979 -0.047996,-0.527954 0,-0.695939 0.2303799,-1.017511 0.2303802,-0.321572 0.6095472,-0.321572 0.427162,0 0.604747,0.321572 0.177584,0.321572 0.177584,0.902321 0,0.05279 0,0.11039 0,0.0528 -0.0048,0.110391 z m 0.417564,-1.094305 q -0.206382,0 -0.302374,0.206382 -0.09119,0.206382 -0.11039,0.551952 h 0.763133 q 0,-0.350369 -0.07199,-0.551952 -0.07199,-0.206382 -0.278375,-0.206382 z m 7.036179,-1.046308 q 0.33597,-0.08159 0.647943,-0.08159 0.249578,0 0.451161,0.05759 0.201582,0.05759 0.345569,0.182384 0.143988,0.124789 0.220781,0.321572 0.08159,0.196783 0.08159,0.475158 0,0.34557 -0.134388,0.561551 -0.129589,0.211182 -0.355169,0.321572 0.05759,0.09599 0.143987,0.263977 0.09119,0.163186 0.182384,0.364768 0.09599,0.196783 0.182384,0.407964 0.09119,0.211182 0.153587,0.403165 h -0.431962 q -0.0528,-0.143987 -0.134389,-0.326371 -0.07679,-0.182384 -0.163185,-0.359969 -0.08639,-0.182384 -0.172785,-0.34557 -0.08639,-0.167985 -0.153587,-0.283175 -0.07679,0.0096 -0.158386,0.0144 -0.08159,0.0048 -0.163186,0.0048 h -0.119989 v 1.295886 h -0.422363 z m 0.422363,1.627058 h 0.182384 q 0.331171,0 0.508755,-0.148787 0.177585,-0.153587 0.177585,-0.523155 0,-0.187183 -0.048,-0.311972 -0.0432,-0.129589 -0.129589,-0.201583 -0.08159,-0.07679 -0.201582,-0.11039 -0.11519,-0.0336 -0.259177,-0.0336 -0.124789,0 -0.23038,0.0144 z m 2.203005,0.513555 q 0.0048,0.182384 0.0336,0.33597 0.0288,0.148787 0.09119,0.263977 0.06719,0.110391 0.172785,0.172785 0.110391,0.06239 0.278376,0.06239 0.139188,0 0.254378,-0.0384 0.119989,-0.0432 0.172785,-0.07199 l 0.07679,0.331171 q -0.06239,0.0432 -0.211182,0.09119 -0.143987,0.0528 -0.345569,0.0528 -0.263977,0 -0.446361,-0.09599 -0.177585,-0.09599 -0.292775,-0.268776 -0.11039,-0.172785 -0.158386,-0.412764 -0.048,-0.239979 -0.048,-0.527954 0,-0.695939 0.23038,-1.017511 0.23038,-0.321572 0.609547,-0.321572 0.427162,0 0.604747,0.321572 0.177584,0.321572 0.177584,0.902321 0,0.05279 0,0.11039 0,0.0528 -0.0048,0.110391 z m 0.417564,-1.094305 q -0.206382,0 -0.302374,0.206382 -0.09119,0.206382 -0.11039,0.551952 h 0.763133 q 0,-0.350369 -0.07199,-0.551952 -0.07199,-0.206382 -0.278375,-0.206382 z m 1.742251,1.939031 q 0.182384,0 0.273576,-0.100791 0.09599,-0.105591 0.09599,-0.273576 0,-0.105591 -0.0384,-0.177585 -0.0384,-0.07679 -0.100791,-0.134388 -0.06239,-0.05759 -0.143987,-0.100791 -0.08159,-0.048 -0.163186,-0.100792 -0.08159,-0.048 -0.158386,-0.11039 -0.07679,-0.06719 -0.139188,-0.148787 -0.05759,-0.08639 -0.09599,-0.191983 -0.0336,-0.11039 -0.0336,-0.254378 0,-0.311973 0.191984,-0.503956 0.196782,-0.191983 0.527953,-0.191983 0.139188,0 0.263977,0.0384 0.124789,0.0336 0.206382,0.07679 l -0.09119,0.331171 q -0.08639,-0.048 -0.172785,-0.07199 -0.08639,-0.024 -0.187183,-0.024 -0.153587,0 -0.244779,0.09119 -0.09119,0.08639 -0.09119,0.254378 0,0.09599 0.0336,0.167986 0.0336,0.06719 0.08639,0.124789 0.05759,0.05279 0.124789,0.100791 0.07199,0.048 0.148787,0.09119 0.09119,0.05279 0.177584,0.11519 0.09119,0.06239 0.158386,0.148787 0.07199,0.08159 0.11519,0.196782 0.0432,0.110391 0.0432,0.268777 0,0.331171 -0.196782,0.532753 -0.191984,0.201583 -0.566351,0.201583 -0.191983,0 -0.34557,-0.0528 -0.153586,-0.0528 -0.230379,-0.09599 l 0.08639,-0.34077 q 0.07199,0.0384 0.191983,0.08639 0.124789,0.048 0.273576,0.048 z m 1.56946,-0.844726 q 0.0048,0.182384 0.0336,0.33597 0.0288,0.148787 0.09119,0.263977 0.06719,0.110391 0.172785,0.172785 0.11039,0.06239 0.278376,0.06239 0.139187,0 0.254377,-0.0384 0.11999,-0.0432 0.172785,-0.07199 l 0.07679,0.331171 q -0.0624,0.0432 -0.211182,0.09119 -0.143987,0.0528 -0.34557,0.0528 -0.263977,0 -0.446361,-0.09599 -0.177584,-0.09599 -0.292774,-0.268776 -0.11039,-0.172785 -0.158386,-0.412764 -0.048,-0.239979 -0.048,-0.527954 0,-0.695939 0.23038,-1.017511 0.23038,-0.321572 0.609547,-0.321572 0.427162,0 0.604747,0.321572 0.177584,0.321572 0.177584,0.902321 0,0.05279 0,0.11039 0,0.0528 -0.0048,0.110391 z m 0.417564,-1.094305 q -0.206382,0 -0.302374,0.206382 -0.09119,0.206382 -0.11039,0.551952 h 0.763133 q 0,-0.350369 -0.07199,-0.551952 -0.07199,-0.206382 -0.278375,-0.206382 z m 1.775848,-0.287974 h 0.633545 v 0.355169 h -0.633545 v 1.387078 q 0,0.259178 0.09119,0.364768 0.09599,0.100791 0.254378,0.100791 0.08159,0 0.153586,-0.024 0.07679,-0.024 0.129589,-0.05759 l 0.08159,0.331171 q -0.196783,0.11519 -0.417564,0.11519 -0.355168,0 -0.532753,-0.196783 -0.172785,-0.201583 -0.172785,-0.662342 v -2.390191 l 0.412764,-0.07199 z"
       id="text24"
       aria-label="Gate      Reset" />
    <path
       d="M 4.8173661,71.296372 3.7512862,68.456517 h -0.018146 q 0.01361,0.140631 0.022683,0.381066 0.00907,0.235899 0.00907,0.49448 v 1.964309 H 3.3883654 v -3.239068 h 0.6033559 l 0.9980322,2.653858 h 0.018146 l 1.0161782,-2.653858 h 0.5988194 v 3.239068 H 6.2191477 v -1.991528 q 0,-0.235899 0.00907,-0.467261 0.01361,-0.231362 0.022683,-0.37653 h -0.018146 l -1.0796894,2.835319 z m 2.8353167,-3.343408 q 0.09073,0 0.1587779,0.06351 0.072584,0.05898 0.072584,0.190534 0,0.127022 -0.072584,0.190533 -0.068048,0.06351 -0.1587779,0.06351 -0.099803,0 -0.1678508,-0.06351 -0.068048,-0.06351 -0.068048,-0.190533 0,-0.131559 0.068048,-0.190534 0.068048,-0.06351 0.1678508,-0.06351 z m 0.19507,0.911838 v 2.43157 H 7.4485399 v -2.43157 z m 1.9416235,-0.04537 q 0.4355047,0 0.6577937,0.213216 0.222289,0.20868 0.222289,0.680477 v 1.583242 h -0.394676 v -1.556023 q 0,-0.58521 -0.5443813,-0.58521 -0.4037494,0 -0.5579908,0.226826 -0.1542413,0.226825 -0.1542413,0.653257 v 1.26115 H 8.6189567 v -2.43157 h 0.3220922 l 0.058975,0.331166 h 0.022683 q 0.1179493,-0.190534 0.3266287,-0.281264 0.2086795,-0.09527 0.4400415,-0.09527 z m 10.1935447,2.476935 -1.06608,-2.839855 h -0.01815 q 0.01361,0.140631 0.02268,0.381066 0.0091,0.235899 0.0091,0.49448 v 1.964309 H 18.55392 v -3.239068 h 0.603356 l 0.998032,2.653858 h 0.01815 l 1.016178,-2.653858 h 0.598819 v 3.239068 h -0.403749 v -1.991528 q 0,-0.235899 0.0091,-0.467261 0.01361,-0.231362 0.02268,-0.37653 h -0.01815 l -1.079689,2.835319 z m 3.552084,-2.472398 q 0.444578,0 0.657794,0.19507 0.213216,0.19507 0.213216,0.621502 v 1.655826 h -0.290336 l -0.07712,-0.344775 h -0.01815 q -0.158778,0.199606 -0.335702,0.294873 -0.172387,0.09527 -0.48087,0.09527 -0.331165,0 -0.548917,-0.172387 -0.217753,-0.176924 -0.217753,-0.548918 0,-0.362921 0.2858,-0.557991 0.2858,-0.199606 0.880083,-0.217752 l 0.412823,-0.01361 v -0.145168 q 0,-0.303946 -0.131559,-0.421896 -0.131559,-0.117949 -0.371994,-0.117949 -0.190534,0 -0.362921,0.05897 -0.172387,0.05444 -0.322092,0.127022 l -0.122486,-0.29941 q 0.158778,-0.08619 0.37653,-0.145168 0.217753,-0.06351 0.453651,-0.06351 z m 0.11795,1.297442 q -0.453651,0.01815 -0.630575,0.145168 -0.172388,0.127022 -0.172388,0.358384 0,0.204143 0.122486,0.29941 0.127023,0.09527 0.322092,0.09527 0.308483,0 0.512626,-0.167851 0.204143,-0.172388 0.204143,-0.526235 v -0.217751 z m 2.082262,-0.06805 -0.839254,-1.188566 h 0.453651 l 0.626038,0.916375 0.621502,-0.916375 h 0.449115 l -0.839255,1.188566 0.88462,1.243004 h -0.453651 l -0.662331,-0.970813 -0.671403,0.970813 h -0.449115 z"
       id="text25"
       style="font-size:4.53651px;line-height:125%;letter-spacing:0px;word-spacing:0px;fill:#ffffff;stroke-width:0.212649px"
       aria-label="Min      Max" />
    <g
       id="text27"
       style="font-size:5.61662px;line-height:125%;letter-spacing:0px;word-spacing:0px;fill:#ffffff;stroke-width:0.175519px"
       aria-label="δCV&#10;δt"
       transform="translate(0,-1.0583333)">
      <path
         style="text-align:center;text-anchor:middle"
         d="m 3.6141462,89.283728 q -0.39878,0 -0.7133107,-0.162882 -0.3145307,-0.162882 -0.4942626,-0.460563 -0.1741152,-0.297681 -0.1741152,-0.696461 0,-0.539195 0.2639811,-0.870576 0.2695978,-0.33138 0.7526271,-0.522345 Q 3.1198837,86.486651 2.996318,86.385552 2.8727524,86.284453 2.7941197,86.138421 2.715487,85.986772 2.715487,85.773341 q 0,-0.202199 0.1123324,-0.393164 0.1123324,-0.196581 0.3538471,-0.320147 0.2415146,-0.129182 0.6234448,-0.129182 0.280831,0 0.488646,0.06178 0.2078149,0.06178 0.3482304,0.146033 0.1460321,0.07863 0.2134316,0.140415 L 4.6419877,85.666625 Q 4.4678725,85.531826 4.2544409,85.436343 4.046626,85.335244 3.7994947,85.335244 q -0.2358981,0 -0.3706969,0.0674 -0.1291823,0.0674 -0.1797319,0.168498 -0.05055,0.09548 -0.05055,0.185349 0,0.09548 0.044933,0.190965 0.044933,0.09548 0.1797318,0.207815 0.1404155,0.106716 0.4156299,0.252748 0.4998792,0.263981 0.7413939,0.522345 0.2415146,0.252748 0.3201473,0.49988 0.078633,0.241514 0.078633,0.477412 0,0.477413 -0.1909651,0.78071 -0.1909651,0.303298 -0.5054958,0.44933 -0.3089141,0.146032 -0.6683777,0.146032 z m 0.011233,-0.404396 q 0.4156298,0 0.6402947,-0.269598 0.2302814,-0.275215 0.2302814,-0.690845 0,-0.415629 -0.2246648,-0.690844 -0.2246648,-0.275214 -0.606595,-0.454946 -0.4268631,0.146032 -0.679611,0.41563 -0.2471313,0.263981 -0.2471313,0.73016 0,0.43248 0.2415147,0.696461 0.2415146,0.263982 0.6459113,0.263982 z m 3.9203971,-3.27449 q -0.6459113,0 -1.0166082,0.43248 -0.370697,0.432479 -0.370697,1.185107 0,0.74701 0.3426139,1.185106 0.3482304,0.43248 1.0390747,0.43248 0.2639811,0 0.4998791,-0.04493 0.2358981,-0.04493 0.4605629,-0.112332 v 0.438096 q -0.2246648,0.08425 -0.4661795,0.123566 -0.235898,0.03932 -0.5672786,0.03932 -0.6122116,0 -1.0222248,-0.252748 Q 6.0349055,88.778239 5.8270905,88.31206 5.6248922,87.84588 5.6248922,87.216819 q 0,-0.606595 0.2190482,-1.067158 0.2246648,-0.466179 0.6571446,-0.724544 0.4324797,-0.263981 1.0503079,-0.263981 0.6346781,0 1.1064742,0.235898 L 8.455669,85.82389 q -0.1853484,-0.08425 -0.4156299,-0.151649 -0.2246648,-0.0674 -0.4942625,-0.0674 z m 4.6561777,-0.387547 -1.432238,4.010267 H 10.26422 L 8.8319823,85.217295 h 0.5279623 l 0.9042754,2.572412 q 0.08987,0.247131 0.151649,0.46618 0.06178,0.213431 0.101099,0.410013 0.03932,-0.196582 0.101099,-0.41563 0.06178,-0.219048 0.151649,-0.471796 l 0.898659,-2.561179 z"
         id="path30" />
      <path
         style="text-align:center;text-anchor:middle"
         d="m 6.0601851,96.304503 q -0.39878,0 -0.7133108,-0.162882 -0.3145307,-0.162882 -0.4942625,-0.460563 -0.1741153,-0.29768 -0.1741153,-0.69646 0,-0.539196 0.2639812,-0.870577 0.2695977,-0.33138 0.7526271,-0.522345 -0.1291823,-0.08425 -0.2527479,-0.185349 -0.1235657,-0.101099 -0.2021984,-0.247131 -0.078633,-0.151649 -0.078633,-0.36508 0,-0.202199 0.1123324,-0.393164 0.1123324,-0.196581 0.353847,-0.320147 0.2415147,-0.129182 0.6234449,-0.129182 0.280831,0 0.4886459,0.06178 0.2078149,0.06178 0.3482304,0.146032 0.1460322,0.07863 0.2134316,0.140415 L 7.0880265,92.6874 Q 6.9139113,92.552601 6.7004798,92.457118 6.4926648,92.356019 6.2455335,92.356019 q -0.235898,0 -0.3706969,0.0674 -0.1291822,0.0674 -0.1797318,0.168498 -0.05055,0.09548 -0.05055,0.185349 0,0.09548 0.044933,0.190965 0.044933,0.09548 0.1797318,0.207815 0.1404155,0.106716 0.4156299,0.252748 0.4998792,0.263981 0.7413938,0.522345 0.2415147,0.252748 0.3201474,0.49988 0.078633,0.241514 0.078633,0.477412 0,0.477413 -0.1909651,0.780711 -0.1909651,0.303297 -0.5054958,0.449329 -0.3089141,0.146032 -0.6683777,0.146032 z m 0.011233,-0.404396 q 0.4156299,0 0.6402947,-0.269598 0.2302814,-0.275215 0.2302814,-0.690844 0,-0.41563 -0.2246648,-0.690845 -0.2246648,-0.275214 -0.6065949,-0.454946 -0.4268632,0.146032 -0.6796111,0.41563 -0.2471313,0.263981 -0.2471313,0.730161 0,0.432479 0.2415147,0.69646 0.2415147,0.263982 0.6459113,0.263982 z m 3.1396869,0 q 0.1123324,0 0.2302815,-0.01685 0.117949,-0.02247 0.1909651,-0.04493 v 0.376313 q -0.078633,0.03932 -0.2246649,0.06178 -0.1460321,0.02808 -0.280831,0.02808 -0.235898,0 -0.4380963,-0.07863 Q 8.4921779,96.141621 8.3686122,95.939423 8.2450466,95.737225 8.2450466,95.372144 V 93.619759 H 7.8181835 v -0.235898 l 0.4324797,-0.196582 0.1965817,-0.640295 h 0.2920643 v 0.690845 h 0.8705761 v 0.38193 H 8.7393092 v 1.741152 q 0,0.275214 0.1291822,0.410013 0.1347989,0.129183 0.3426136,0.129183 z"
         id="path31" />
    </g>
    <path
       style="font-size:4.79958px;line-height:125%;font-family:'Ubuntu Condensed';-inkscape-font-specification:'Ubuntu Condensed, ';letter-spacing:0px;word-spacing:0px;fill:#ffffff;stroke-width:0.149986px"
       d="m 3.6274177,108.78117 q 0,-0.47036 0.086392,-0.80153 0.086392,-0.33117 0.2447786,-0.53756 0.1631857,-0.21118 0.388766,-0.30237 0.2303798,-0.096 0.513555,-0.096 0.2159811,0 0.3935656,0.0624 0.1775845,0.0576 0.2879748,0.13439 l -0.1343882,0.35997 q -0.1103904,-0.0768 -0.239979,-0.12479 -0.1295887,-0.0528 -0.297574,-0.0528 -0.4175635,0 -0.5999475,0.34077 -0.1823841,0.33597 -0.1823841,1.01751 0,0.36476 0.052795,0.62394 0.057595,0.25918 0.1583862,0.42237 0.1007912,0.16318 0.2447786,0.23997 0.1439874,0.0768 0.3215718,0.0768 0.148787,0 0.2543778,-0.0336 v -1.30069 h 0.4319622 v 1.56467 q -0.1295887,0.0624 -0.3215719,0.10559 -0.1919832,0.0432 -0.4031647,0.0432 -0.2591773,0 -0.479958,-0.10079 -0.2207807,-0.10559 -0.3839664,-0.31677 -0.1583862,-0.21598 -0.2495782,-0.54235 -0.086392,-0.33117 -0.086392,-0.78233 z m 2.6685647,-0.80153 q 0.1247891,-0.0528 0.2639769,-0.0816 0.1391878,-0.0336 0.3023736,-0.0336 0.3359706,0 0.5471521,0.21118 0.2111815,0.20638 0.2111815,0.64794 v 1.67026 q -0.1727849,0.048 -0.3551689,0.0768 -0.1775845,0.0288 -0.3503694,0.0288 -0.1727848,0 -0.3263714,-0.0432 -0.148787,-0.0432 -0.2639769,-0.13919 -0.1103903,-0.096 -0.1775845,-0.23998 -0.067194,-0.14878 -0.067194,-0.35997 0,-0.19678 0.057595,-0.34077 0.062394,-0.14878 0.1679853,-0.24477 0.1055907,-0.1008 0.2495781,-0.14879 0.1439874,-0.0528 0.3119727,-0.0528 0.1583862,0 0.3503694,0.0384 v -0.23038 q 0,-0.27838 -0.1103903,-0.38877 -0.1055908,-0.11039 -0.3071732,-0.11039 -0.1103903,0 -0.2111815,0.024 -0.095992,0.0192 -0.2063819,0.0672 z m 0.1967828,1.73265 q 0,0.22078 0.1151899,0.32637 0.1151899,0.10559 0.3263715,0.10559 0.1295886,0 0.2831752,-0.0336 v -0.80153 q -0.1439874,-0.0384 -0.2831752,-0.0384 -0.091192,0 -0.1727849,0.024 -0.081593,0.0192 -0.1439874,0.072 -0.057595,0.048 -0.091192,0.13438 -0.033597,0.0816 -0.033597,0.21119 z M 8.72457,107.92684 h 0.6335446 v 0.35517 H 8.72457 v 1.38708 q 0,0.25918 0.091192,0.36477 0.095992,0.10079 0.2543778,0.10079 0.081593,0 0.1535865,-0.024 0.076793,-0.024 0.1295887,-0.0576 l 0.081593,0.33117 q -0.1967828,0.11519 -0.4175635,0.11519 -0.3551689,0 -0.5327534,-0.19679 -0.1727849,-0.20158 -0.1727849,-0.66234 v -2.39019 l 0.4127639,-0.072 z m 1.415876,1.38228 q 0.0048,0.18238 0.0336,0.33597 0.0288,0.14879 0.09119,0.26398 0.06719,0.11039 0.172785,0.17278 0.110391,0.0624 0.278376,0.0624 0.139188,0 0.254378,-0.0384 0.119989,-0.0432 0.172784,-0.072 l 0.07679,0.33117 q -0.0624,0.0432 -0.211182,0.0912 -0.143987,0.0528 -0.34557,0.0528 -0.263976,0 -0.446361,-0.096 -0.177584,-0.096 -0.2927739,-0.26877 -0.1103904,-0.17279 -0.1583862,-0.41277 -0.047996,-0.23998 -0.047996,-0.52795 0,-0.69594 0.2303799,-1.01751 0.2303802,-0.32157 0.6095472,-0.32157 0.427162,0 0.604747,0.32157 0.177584,0.32157 0.177584,0.90232 0,0.0528 0,0.11039 0,0.0528 -0.0048,0.11039 z m 0.417564,-1.0943 q -0.206382,0 -0.302374,0.20638 -0.09119,0.20638 -0.11039,0.55195 h 0.763133 q 0,-0.35037 -0.07199,-0.55195 -0.07199,-0.20638 -0.278375,-0.20638 z m 7.036179,-1.04631 q 0.33597,-0.0816 0.647943,-0.0816 0.249578,0 0.451161,0.0576 0.201582,0.0576 0.345569,0.18238 0.143988,0.12479 0.220781,0.32158 0.08159,0.19678 0.08159,0.47515 0,0.34557 -0.134388,0.56156 -0.129589,0.21118 -0.355169,0.32157 0.05759,0.096 0.143987,0.26397 0.09119,0.16319 0.182384,0.36477 0.09599,0.19678 0.182384,0.40797 0.09119,0.21118 0.153587,0.40316 h -0.431962 q -0.0528,-0.14399 -0.134389,-0.32637 -0.07679,-0.18238 -0.163185,-0.35997 -0.08639,-0.18238 -0.172785,-0.34557 -0.08639,-0.16798 -0.153587,-0.28317 -0.07679,0.01 -0.158386,0.0144 -0.08159,0.005 -0.163186,0.005 h -0.119989 v 1.29589 h -0.422363 z m 0.422363,1.62706 h 0.182384 q 0.331171,0 0.508755,-0.14879 0.177585,-0.15359 0.177585,-0.52316 0,-0.18718 -0.048,-0.31197 -0.0432,-0.12959 -0.129589,-0.20158 -0.08159,-0.0768 -0.201582,-0.11039 -0.11519,-0.0336 -0.259177,-0.0336 -0.124789,0 -0.23038,0.0144 z m 2.203005,0.51355 q 0.0048,0.18238 0.0336,0.33597 0.0288,0.14879 0.09119,0.26398 0.06719,0.11039 0.172785,0.17278 0.110391,0.0624 0.278376,0.0624 0.139188,0 0.254378,-0.0384 0.119989,-0.0432 0.172785,-0.072 l 0.07679,0.33117 q -0.06239,0.0432 -0.211182,0.0912 -0.143987,0.0528 -0.345569,0.0528 -0.263977,0 -0.446361,-0.096 -0.177585,-0.096 -0.292775,-0.26877 -0.11039,-0.17279 -0.158386,-0.41277 -0.048,-0.23998 -0.048,-0.52795 0,-0.69594 0.23038,-1.01751 0.23038,-0.32157 0.609547,-0.32157 0.427162,0 0.604747,0.32157 0.177584,0.32157 0.177584,0.90232 0,0.0528 0,0.11039 0,0.0528 -0.0048,0.11039 z m 0.417564,-1.0943 q -0.206382,0 -0.302374,0.20638 -0.09119,0.20638 -0.11039,0.55195 h 0.763133 q 0,-0.35037 -0.07199,-0.55195 -0.07199,-0.20638 -0.278375,-0.20638 z m 1.742251,1.93903 q 0.182384,0 0.273576,-0.10079 0.09599,-0.1056 0.09599,-0.27358 0,-0.10559 -0.0384,-0.17759 -0.0384,-0.0768 -0.100791,-0.13438 -0.06239,-0.0576 -0.143987,-0.10079 -0.08159,-0.048 -0.163186,-0.1008 -0.08159,-0.048 -0.158386,-0.11039 -0.07679,-0.0672 -0.139188,-0.14878 -0.05759,-0.0864 -0.09599,-0.19199 -0.0336,-0.11039 -0.0336,-0.25437 0,-0.31198 0.191984,-0.50396 0.196782,-0.19198 0.527953,-0.19198 0.139188,0 0.263977,0.0384 0.124789,0.0336 0.206382,0.0768 l -0.09119,0.33117 q -0.08639,-0.048 -0.172785,-0.072 -0.08639,-0.024 -0.187183,-0.024 -0.153587,0 -0.244779,0.0912 -0.09119,0.0864 -0.09119,0.25438 0,0.096 0.0336,0.16798 0.0336,0.0672 0.08639,0.12479 0.05759,0.0528 0.124789,0.10079 0.07199,0.048 0.148787,0.0912 0.09119,0.0528 0.177584,0.11519 0.09119,0.0624 0.158386,0.14879 0.07199,0.0816 0.11519,0.19678 0.0432,0.11039 0.0432,0.26878 0,0.33117 -0.196782,0.53275 -0.191984,0.20159 -0.566351,0.20159 -0.191983,0 -0.34557,-0.0528 -0.153586,-0.0528 -0.230379,-0.096 l 0.08639,-0.34077 q 0.07199,0.0384 0.191983,0.0864 0.124789,0.048 0.273576,0.048 z m 1.56946,-0.84473 q 0.0048,0.18238 0.0336,0.33597 0.0288,0.14879 0.09119,0.26398 0.06719,0.11039 0.172785,0.17278 0.11039,0.0624 0.278376,0.0624 0.139187,0 0.254377,-0.0384 0.11999,-0.0432 0.172785,-0.072 l 0.07679,0.33117 q -0.0624,0.0432 -0.211182,0.0912 -0.143987,0.0528 -0.34557,0.0528 -0.263977,0 -0.446361,-0.096 -0.177584,-0.096 -0.292774,-0.26877 -0.11039,-0.17279 -0.158386,-0.41277 -0.048,-0.23998 -0.048,-0.52795 0,-0.69594 0.23038,-1.01751 0.23038,-0.32157 0.609547,-0.32157 0.427162,0 0.604747,0.32157 0.177584,0.32157 0.177584,0.90232 0,0.0528 0,0.11039 0,0.0528 -0.0048,0.11039 z m 0.417564,-1.0943 q -0.206382,0 -0.302374,0.20638 -0.09119,0.20638 -0.11039,0.55195 h 0.763133 q 0,-0.35037 -0.07199,-0.55195 -0.07199,-0.20638 -0.278375,-0.20638 z m 1.775848,-0.28798 h 0.633545 v 0.35517 h -0.633545 v 1.38708 q 0,0.25918 0.09119,0.36477 0.09599,0.10079 0.254378,0.10079 0.08159,0 0.153586,-0.024 0.07679,-0.024 0.129589,-0.0576 l 0.08159,0.33117 q -0.196783,0.11519 -0.417564,0.11519 -0.355168,0 -0.532753,-0.19679 -0.172785,-0.20158 -0.172785,-0.66234 v -2.39019 l 0.412764,-0.072 z"
       id="text28"
       aria-label="Gate      Reset" />
  </g>
  <g
     inkscape:groupmode="layer"
     id="layer3"
     inkscape:label="components"
     style="display:none">
    <rect
       style="fill:#ffff00;fill-opacity:1;stroke:none;stroke-width:0;stroke-linecap:square;stroke-linejoin:round;stroke-opacity:1"
       id="rect8-2"
       width="18.521255"
       height="8.6500273"
       x="0.71193755"
       y="57.080418"
       inkscape:label="display_a" />
    <circle
       style="fill:#ff0000;fill-opacity:1;stroke:none;stroke-width:0;stroke-linecap:square;stroke-linejoin:round"
       id="path1"
       cx="7.6199999"
       cy="20.595051"
       r="5.0799999"
       inkscape:label="min_a" />
    <circle
       style="fill:#ff0000;fill-opacity:1;stroke:none;stroke-width:0;stroke-linecap:square;stroke-linejoin:round"
       id="path1-3"
       cx="22.860001"
       cy="20.595051"
       r="5.0799999"
       inkscape:label="max_a" />
    <circle
       style="fill:#00ff00;fill-opacity:1;stroke:none;stroke-width:0;stroke-linecap:square;stroke-linejoin:round"
       id="path1-3-7"
       cx="22.860001"
       cy="33.030933"
       r="5.0799999"
       inkscape:label="delta_a" />
    <circle
       style="display:inline;fill:#ff0000;fill-opacity:1;stroke:#ffffff;stroke-width:0;stroke-linecap:square;stroke-linejoin:round;stroke-opacity:1"
       id="path5"
       cx="15.24"
       cy="29.538429"
       r="2.54"
       inkscape:label="delta_scale_a" />
    <circle
       style="fill:#00ff00;fill-opacity:1;stroke:none;stroke-width:0;stroke-linecap:square;stroke-linejoin:round"
       id="path1-3-7-6"
       cx="7.6199999"
       cy="45.201767"
       r="5.0799999"
       inkscape:label="gate_a" />
    <circle
       style="fill:#00ff00;fill-opacity:1;stroke:none;stroke-width:0;stroke-linecap:square;stroke-linejoin:round"
       id="path1-3-7-6-7"
       cx="22.860001"
       cy="45.201767"
       r="5.0799999"
       inkscape:label="reset_a" />
    <circle
       style="fill:#0000ff;fill-opacity:1;stroke:none;stroke-width:0;stroke-linecap:square;stroke-linejoin:round;stroke-opacity:1"
       id="path6"
       cx="24.976669"
       cy="61.394276"
       r="5.0799999"
       inkscape:label="out_a" />
    <rect
       style="fill:#ffff00;fill-opacity:1;stroke:none;stroke-width:0;stroke-linecap:square;stroke-linejoin:round;stroke-opacity:1"
       id="rect14"
       width="18.521255"
       height="8.6500273"
       x="0.71193755"
       y="113.80621"
       inkscape:label="display_b" />
    <circle
       style="fill:#ff0000;fill-opacity:1;stroke:none;stroke-width:0;stroke-linecap:square;stroke-linejoin:round"
       id="circle14"
       cx="7.6199999"
       cy="77.320847"
       r="5.0799999"
       inkscape:label="min_b" />
    <circle
       style="fill:#ff0000;fill-opacity:1;stroke:none;stroke-width:0;stroke-linecap:square;stroke-linejoin:round"
       id="circle15"
       cx="22.860001"
       cy="77.320847"
       r="5.0799999"
       inkscape:label="max_b" />
    <circle
       style="fill:#00ff00;fill-opacity:1;stroke:none;stroke-width:0;stroke-linecap:square;stroke-linejoin:round"
       id="circle16"
       cx="22.860001"
       cy="89.756729"
       r="5.0799999"
       inkscape:label="delta_b" />
    <circle
       style="fill:#ff0000;fill-opacity:1;stroke:#ffffff;stroke-width:0;stroke-linecap:square;stroke-linejoin:round;stroke-opacity:1"
       id="circle17"
       cx="15.24"
       cy="86.264229"
       r="2.54"
       inkscape:label="delta_scale_b" />
    <circle
       style="fill:#00ff00;fill-opacity:1;stroke:none;stroke-width:0;stroke-linecap:square;stroke-linejoin:round"
       id="circle18"
       cx="7.6199999"
       cy="101.92757"
       r="5.0799999"
       inkscape:label="gate_b" />
    <circle
       style="fill:#00ff00;fill-opacity:1;stroke:none;stroke-width:0;stroke-linecap:square;stroke-linejoin:round"
       id="circle19"
       cx="22.860001"
       cy="101.92757"
       r="5.0799999"
       inkscape:label="reset_b" />
    <circle
       style="fill:#0000ff;fill-opacity:1;stroke:none;stroke-width:0;stroke-linecap:square;stroke-linejoin:round;stroke-opacity:1"
       id="circle20"
       cx="24.976669"
       cy="118.12008"
       r="5.0799999"
       inkscape:label="out_b" />
  </g>
</svg>
