<?xml version="1.0" encoding="UTF-8" standalone="no"?>
<!-- Created with Inkscape (http://www.inkscape.org/) -->

<svg
   width="10.16mm"
   height="128.5mm"
   viewBox="0 0 10.16 128.5"
   version="1.1"
   id="svg1524"
   inkscape:version="1.3.2 (091e20ef0f, 2023-11-25, custom)"
   sodipodi:docname="IntegratorEx.svg"
   xmlns:inkscape="http://www.inkscape.org/namespaces/inkscape"
   xmlns:sodipodi="http://sodipodi.sourceforge.net/DTD/sodipodi-0.dtd"
   xmlns="http://www.w3.org/2000/svg"
   xmlns:svg="http://www.w3.org/2000/svg">
  <sodipodi:namedview
     id="namedview1526"
     pagecolor="#cccccc"
     bordercolor="#666666"
     borderopacity="1.0"
     inkscape:pageshadow="2"
     inkscape:pageopacity="1"
     inkscape:pagecheckerboard="0"
     inkscape:document-units="mm"
     showgrid="true"
     units="in"
     inkscape:showpageshadow="2"
     inkscape:deskcolor="#d1d1d1"
     inkscape:zoom="1.0715061"
     inkscape:cx="46.196657"
     inkscape:cy="146.52273"
     inkscape:window-width="1920"
     inkscape:window-height="1008"
     inkscape:window-x="0"
     inkscape:window-y="0"
     inkscape:window-maximized="1"
     inkscape:current-layer="layer1">
    <inkscape:grid
       type="xygrid"
       id="grid1608"
       originx="7.6199999"
       originy="64.25"
       units="mm"
       spacingx="2.5400001"
       spacingy="2.5400001"
       visible="true" />
  </sodipodi:namedview>
  <defs
     id="defs1521" />
  <g
     inkscape:groupmode="layer"
     id="layer2"
     inkscape:label="Background"
     sodipodi:insensitive="true">
    <rect
       style="display:inline;fill:#1a1a1a;stroke-width:0.184825"
       id="rect374"
       width="10.160001"
       height="128.5"
       x="0"
       y="0" />
  </g>
  <g
     inkscape:label="Layer 1"
     inkscape:groupmode="layer"
     id="layer1">
    <g
       id="g1226"
       style="stroke-width:0.3;stroke-dasharray:none"
       inkscape:label="logo"
       transform="matrix(0,0.58306644,-0.58306644,0,74.702197,61.321903)">
      <path
         style="fill:none;fill-rule:evenodd;stroke:#ff7f7f;stroke-width:0.3;stroke-linecap:round;stroke-linejoin:round;stroke-dasharray:none;stroke-opacity:1"
         d="m 4.7708989,116.7807 -1.3131348,0.65656 -1.3131348,0.65657 2.6262696,2.62627 -2.6262696,1.31314"
         id="path496"
         sodipodi:nodetypes="ccccc" />
      <path
         style="fill:none;fill-rule:evenodd;stroke:#feff7f;stroke-width:0.3;stroke-linecap:round;stroke-linejoin:round;stroke-dasharray:none;stroke-opacity:1"
         d="m 6.0840338,122.03324 v -5.25254 l 2.6262702,1.31313 -2.6262702,1.31314"
         id="path498" />
      <path
         style="fill:none;fill-rule:evenodd;stroke:#7fff7f;stroke-width:0.3;stroke-linecap:round;stroke-linejoin:round;stroke-dasharray:none;stroke-opacity:1"
         d="m 8.710304,122.03324 1.313135,-5.25254 1.313135,5.25254"
         id="path500" />
      <path
         style="fill:none;fill-rule:evenodd;stroke:#80ffff;stroke-width:0.3;stroke-linecap:round;stroke-linejoin:round;stroke-dasharray:none;stroke-opacity:1"
         d="m 12.649708,122.03324 v -5.25254 l 2.62627,1.31313 -2.62627,1.31314 2.62627,2.62627"
         id="path502" />
      <path
         style="fill:none;fill-rule:evenodd;stroke:#8080ff;stroke-width:0.3;stroke-linecap:round;stroke-linejoin:round;stroke-dasharray:none;stroke-opacity:1"
         d="m 16.589114,116.7807 v 5.25254"
         id="path504" />
      <path
         style="fill:none;fill-rule:evenodd;stroke:#8080ff;stroke-width:0.3;stroke-linecap:round;stroke-linejoin:round;stroke-dasharray:none;stroke-opacity:1"
         d="m 19.215383,116.7807 -2.626269,2.62627 2.626269,2.62627"
         id="path506" />
      <path
         style="fill:none;fill-rule:evenodd;stroke:#bf80ff;stroke-width:0.3;stroke-linecap:round;stroke-linejoin:round;stroke-dasharray:none;stroke-opacity:1"
         d="m 21.786938,116.7807 -2.626269,1.31313 2.626269,1.31314 -2.626269,1.31313 2.626269,1.31314"
         id="path508" />
      <path
         style="fill:none;fill-rule:evenodd;stroke:#ff80ff;stroke-width:0.3;stroke-linecap:round;stroke-linejoin:round;stroke-dasharray:none;stroke-opacity:1"
         d="m 21.732224,116.7807 h 3.939404"
         id="path514" />
      <path
         style="fill:none;fill-rule:evenodd;stroke:#ff80ff;stroke-width:0.3;stroke-linecap:round;stroke-linejoin:round;stroke-dasharray:none;stroke-opacity:1"
         d="m 23.045358,116.7807 v 5.25254"
         id="path516" />
      <path
         style="fill:none;fill-rule:evenodd;stroke:#ff80ff;stroke-width:0.3;stroke-linecap:round;stroke-linejoin:round;stroke-dasharray:none;stroke-opacity:1"
         d="m 24.358493,116.7807 v 5.25254"
         id="path518" />
      <path
         style="fill:none;fill-rule:evenodd;stroke:#ff80bf;stroke-width:0.3;stroke-linecap:round;stroke-linejoin:round;stroke-dasharray:none;stroke-opacity:1"
         d="m 28.297898,116.7807 -2.62627,1.31313 2.62627,1.31314 -2.62627,1.31313 2.62627,1.31314"
         id="path520" />
      <path
         style="fill:none;fill-rule:evenodd;stroke:#7fff7f;stroke-width:0.3;stroke-linecap:round;stroke-linejoin:round;stroke-dasharray:none;stroke-opacity:1"
         d="M 9.3319214,119.40697 H 10.714956"
         id="path630" />
    </g>
  </g>
  <g
     inkscape:groupmode="layer"
     id="layer4"
     inkscape:label="Text"
     style="display:none">
    <text
       xml:space="preserve"
       style="font-size:8.46667px;line-height:125%;font-family:sans-serif;letter-spacing:0px;word-spacing:0px;fill:#ff70ff;fill-opacity:1;stroke:none;stroke-width:0.264583px;stroke-linecap:butt;stroke-linejoin:miter;stroke-opacity:1"
       x="0.46936902"
       y="12.581834"
       id="text1"><tspan
         sodipodi:role="line"
         id="tspan1"
         style="fill:#ff70ff;fill-opacity:1;stroke:none;stroke-width:0.264583px"
         x="0.46936902"
         y="12.581834">∫x</tspan></text>
    <text
       xml:space="preserve"
       style="font-size:3.58251px;line-height:125%;font-family:sans-serif;letter-spacing:0px;word-spacing:0px;fill:#ffffff;fill-opacity:1;stroke:none;stroke-width:0.111953px;stroke-linecap:butt;stroke-linejoin:miter;stroke-opacity:1"
       x="0.78815413"
       y="21.069996"
       id="text2"><tspan
         sodipodi:role="line"
         id="tspan2"
         style="font-style:normal;font-variant:normal;font-weight:normal;font-stretch:normal;font-family:'Ubuntu Condensed';-inkscape-font-specification:'Ubuntu Condensed, ';fill:#ffffff;fill-opacity:1;stroke:none;stroke-width:0.111953px"
         x="0.78815413"
         y="21.069996">@max</tspan></text>
    <text
       xml:space="preserve"
       style="font-size:3.58251px;line-height:125%;font-family:sans-serif;letter-spacing:0px;word-spacing:0px;fill:#ffffff;fill-opacity:1;stroke:none;stroke-width:0.111953px;stroke-linecap:butt;stroke-linejoin:miter;stroke-opacity:1"
       x="1.0729628"
       y="36.295498"
       id="text2-7"><tspan
         sodipodi:role="line"
         id="tspan2-7"
         style="font-style:normal;font-variant:normal;font-weight:normal;font-stretch:normal;font-family:'Ubuntu Condensed';-inkscape-font-specification:'Ubuntu Condensed, ';fill:#ffffff;fill-opacity:1;stroke:none;stroke-width:0.111953px"
         x="1.0729628"
         y="36.295498">@min</tspan></text>
    <text
       xml:space="preserve"
       style="font-size:3.58251px;line-height:125%;font-family:sans-serif;letter-spacing:0px;word-spacing:0px;fill:#ffffff;fill-opacity:1;stroke:none;stroke-width:0.111953px;stroke-linecap:butt;stroke-linejoin:miter;stroke-opacity:1"
       x="2.6507583"
       y="51.5355"
       id="text6"><tspan
         sodipodi:role="line"
         id="tspan6"
         style="font-style:normal;font-variant:normal;font-weight:normal;font-stretch:normal;font-family:'Ubuntu Condensed';-inkscape-font-specification:'Ubuntu Condensed, ';fill:#ffffff;fill-opacity:1;stroke:none;stroke-width:0.111953px"
         x="2.6507583"
         y="51.5355">Wrap</tspan></text>
    <text
       xml:space="preserve"
       style="font-size:3.58251px;line-height:125%;font-family:sans-serif;letter-spacing:0px;word-spacing:0px;fill:#ffffff;fill-opacity:1;stroke:none;stroke-width:0.111953px;stroke-linecap:butt;stroke-linejoin:miter;stroke-opacity:1"
       x="0.78815413"
       y="82.029999"
       id="text7"><tspan
         sodipodi:role="line"
         id="tspan7"
         style="font-style:normal;font-variant:normal;font-weight:normal;font-stretch:normal;font-family:'Ubuntu Condensed';-inkscape-font-specification:'Ubuntu Condensed, ';fill:#ffffff;fill-opacity:1;stroke:none;stroke-width:0.111953px"
         x="0.78815413"
         y="82.029999">@max</tspan></text>
    <text
       xml:space="preserve"
       style="font-size:3.58251px;line-height:125%;font-family:sans-serif;letter-spacing:0px;word-spacing:0px;fill:#ffffff;fill-opacity:1;stroke:none;stroke-width:0.111953px;stroke-linecap:butt;stroke-linejoin:miter;stroke-opacity:1"
       x="1.0729628"
       y="97.255501"
       id="text8"><tspan
         sodipodi:role="line"
         id="tspan8"
         style="font-style:normal;font-variant:normal;font-weight:normal;font-stretch:normal;font-family:'Ubuntu Condensed';-inkscape-font-specification:'Ubuntu Condensed, ';fill:#ffffff;fill-opacity:1;stroke:none;stroke-width:0.111953px"
         x="1.0729628"
         y="97.255501">@min</tspan></text>
    <text
       xml:space="preserve"
       style="font-size:3.58251px;line-height:125%;font-family:sans-serif;letter-spacing:0px;word-spacing:0px;fill:#ffffff;fill-opacity:1;stroke:none;stroke-width:0.111953px;stroke-linecap:butt;stroke-linejoin:miter;stroke-opacity:1"
       x="2.6507583"
       y="112.49551"
       id="text9"><tspan
         sodipodi:role="line"
         id="tspan9"
         style="font-style:normal;font-variant:normal;font-weight:normal;font-stretch:normal;font-family:'Ubuntu Condensed';-inkscape-font-specification:'Ubuntu Condensed, ';fill:#ffffff;fill-opacity:1;stroke:none;stroke-width:0.111953px"
         x="2.6507583"
         y="112.49551">Wrap</tspan></text>
  </g>
  <g
     inkscape:groupmode="layer"
     id="g18"
     inkscape:label="Text copy"
     sodipodi:insensitive="true">
    <path
       d="M 2.4661472,7.4141886 Q 2.4992201,6.7237911 2.8340835,6.4509395 3.1689469,6.1739537 3.4790056,6.1739537 q 0.3141929,0 0.5746422,0.2604493 0.2604493,0.2563152 0.3431316,0.8350915 l -0.6118492,0.062012 q -0.07028,-0.5374351 -0.3059246,-0.5374351 -0.2935222,0 -0.3265951,0.7234704 L 2.8836929,13.13994 q -0.033073,0.690397 -0.3679363,0.963249 -0.3348635,0.276985 -0.6490563,0.276985 -0.3100587,0 -0.570508,-0.260449 Q 1.0357429,13.86341 0.95306062,13.284634 l 0.61184918,-0.06201 q 0.07028,0.537435 0.3059246,0.537435 0.2935223,0 0.3265952,-0.72347 z M 6.6754049,10.261966 5.1090709,8.0436987 h 0.846667 L 7.1241384,9.753966 8.2840722,8.0436987 H 9.1222725 L 7.5559386,10.261966 9.2069392,12.581834 H 8.3602722 L 7.1241384,10.769966 5.8710712,12.581834 H 5.0328709 Z"
       id="text12"
       style="font-size:8.46667px;line-height:125%;letter-spacing:0px;word-spacing:0px;fill:#ff70ff;stroke-width:0.264583px"
       aria-label="∫x" />
    <path
       style="font-size:3.58251px;line-height:125%;font-family:'Ubuntu Condensed';-inkscape-font-specification:'Ubuntu Condensed, ';letter-spacing:0px;word-spacing:0px;fill:#ffffff;stroke-width:0.111953px"
       d="m 2.9591552,20.915948 q -0.1361354,0 -0.2256981,-0.03941 -0.08598,-0.03941 -0.1397179,-0.10031 -0.07165,0.06807 -0.1504655,0.09673 -0.075233,0.02866 -0.1683779,0.02866 -0.2901833,0 -0.4406488,-0.211368 -0.1504654,-0.211368 -0.1504654,-0.619774 0,-0.383329 0.168378,-0.605445 0.1719605,-0.225698 0.4800563,-0.225698 0.1504655,0 0.2686883,0.03224 0.1218053,0.02866 0.1862905,0.05732 v 1.053258 q 0,0.150465 0.035825,0.218533 0.035825,0.06448 0.1397179,0.06448 0.1468829,0 0.2042031,-0.197038 0.060903,-0.197038 0.060903,-0.566036 0,-0.236446 -0.053738,-0.440649 Q 3.1239506,19.257246 3.0093103,19.10678 2.8982525,18.952732 2.719127,18.866752 q -0.175543,-0.08598 -0.4263187,-0.08598 -0.2221156,0 -0.4048236,0.08598 -0.182708,0.08598 -0.3152609,0.254358 -0.1289703,0.164796 -0.2006205,0.404824 -0.07165,0.240028 -0.07165,0.548124 0,0.311678 0.068068,0.555289 0.068068,0.240028 0.1934556,0.404824 0.1253878,0.164795 0.3045133,0.247193 0.182708,0.08598 0.4084062,0.08598 0.1647954,0 0.2758532,-0.02866 0.1146404,-0.02866 0.154048,-0.04299 l 0.039408,0.247193 q -0.025078,0.01075 -0.075233,0.02149 -0.046573,0.01433 -0.1110578,0.02508 -0.064485,0.01433 -0.1397179,0.0215 -0.07165,0.0072 -0.1468829,0.0072 -0.2758533,0 -0.5051339,-0.09314 -0.2292807,-0.08956 -0.3976587,-0.279436 -0.1683779,-0.186291 -0.2615232,-0.476474 -0.093145,-0.293766 -0.093145,-0.695007 0,-0.386911 0.096728,-0.677094 0.1003103,-0.290184 0.2722708,-0.480057 0.1719605,-0.193455 0.4048236,-0.290183 0.2328632,-0.09673 0.4979689,-0.09673 0.2830183,0 0.5087164,0.09673 0.2292807,0.09314 0.3869111,0.275853 0.161213,0.179126 0.2471932,0.437067 0.08598,0.254358 0.08598,0.576784 0,0.490804 -0.1433004,0.745162 -0.1433004,0.254358 -0.4119886,0.254358 z M 2.3107209,20.643677 q 0.1110578,0 0.1862905,-0.06449 -0.010747,-0.05016 -0.01433,-0.10031 -0.00358,-0.05016 -0.00358,-0.100311 v -0.859802 q -0.017912,-0.0072 -0.053738,-0.01433 -0.035825,-0.0072 -0.08598,-0.0072 -0.1719605,0 -0.2543583,0.139718 -0.078815,0.139718 -0.078815,0.433484 0,0.261523 0.068068,0.419153 0.068068,0.154048 0.2364457,0.154048 z M 4.019576,19.242916 q 0.1253878,-0.03941 0.2722707,-0.06449 0.1468829,-0.02866 0.2686883,-0.02866 0.1253878,0 0.2256981,0.03224 0.1038928,0.03224 0.182708,0.107475 0.093145,-0.0609 0.2006206,-0.10031 0.1074753,-0.03941 0.2364456,-0.03941 0.1289704,0 0.2328632,0.03941 0.1074753,0.03583 0.182708,0.125388 0.075233,0.08956 0.1182228,0.243611 0.04299,0.150465 0.04299,0.376163 v 1.135656 H 5.6746956 v -1.110578 q 0,-0.279436 -0.064485,-0.408406 -0.064485,-0.128971 -0.2436107,-0.128971 -0.068068,0 -0.1397179,0.02508 -0.068068,0.02508 -0.1289703,0.06807 0.02866,0.0824 0.04299,0.18629 0.01433,0.103893 0.01433,0.232863 v 1.135656 H 4.8471358 v -1.110578 q 0,-0.279436 -0.064485,-0.408406 -0.064485,-0.128971 -0.2436107,-0.128971 -0.093145,0 -0.2113681,0.03582 v 1.61213 H 4.019576 Z m 2.5292516,-0.01433 q 0.093145,-0.03941 0.197038,-0.0609 0.1038928,-0.02508 0.2256982,-0.02508 0.2507757,0 0.4084061,0.15763 0.1576304,0.154048 0.1576304,0.483639 v 1.246713 q -0.1289703,0.03582 -0.2651057,0.05732 -0.1325529,0.0215 -0.2615232,0.0215 -0.1289704,0 -0.2436107,-0.03224 -0.1110578,-0.03224 -0.1970381,-0.103893 -0.082398,-0.07165 -0.1325528,-0.179125 -0.050155,-0.111058 -0.050155,-0.268689 0,-0.146883 0.04299,-0.254358 0.046573,-0.111058 0.1253879,-0.182708 0.078815,-0.07523 0.1862905,-0.111058 0.1074753,-0.03941 0.2328632,-0.03941 0.1182228,0 0.2615232,0.02866 v -0.171961 q 0,-0.207785 -0.082398,-0.290183 -0.078815,-0.0824 -0.2292807,-0.0824 -0.082398,0 -0.1576304,0.01791 -0.07165,0.01433 -0.1540479,0.05016 z m 0.1468829,1.293286 q 0,0.164795 0.08598,0.243611 0.08598,0.07881 0.2436107,0.07881 0.096728,0 0.2113681,-0.02508 v -0.598279 q -0.1074753,-0.02866 -0.2113681,-0.02866 -0.068068,0 -0.1289704,0.01791 -0.060903,0.01433 -0.1074753,0.05374 -0.04299,0.03582 -0.068068,0.10031 -0.025078,0.0609 -0.025078,0.157631 z m 1.9703807,-0.447814 q 0.060903,0.111058 0.1253879,0.236446 0.068068,0.125388 0.1325528,0.254358 0.064485,0.12897 0.1218054,0.257941 0.05732,0.12897 0.1003103,0.247193 H 8.8416342 Q 8.769984,20.86221 8.6732562,20.67592 8.580111,20.486047 8.4869657,20.321251 8.397403,20.486047 8.3042577,20.67592 8.214695,20.86221 8.1430448,21.069996 H 7.8492789 q 0.039408,-0.118223 0.096728,-0.243611 0.060903,-0.12897 0.1253879,-0.257941 0.064485,-0.12897 0.1289703,-0.250775 0.068068,-0.125388 0.1289704,-0.236446 L 7.8671915,19.189178 h 0.3116784 l 0.3224259,0.637687 0.3260084,-0.637687 H 9.128235 Z"
       id="text13"
       aria-label="@max" />
    <path
       style="font-size:3.58251px;line-height:125%;font-family:'Ubuntu Condensed';-inkscape-font-specification:'Ubuntu Condensed, ';letter-spacing:0px;word-spacing:0px;fill:#ffffff;stroke-width:0.111953px"
       d="m 3.2439638,36.14145 q -0.1361354,0 -0.2256981,-0.03941 -0.08598,-0.03941 -0.1397179,-0.10031 -0.07165,0.06807 -0.1504654,0.09673 -0.075233,0.02866 -0.168378,0.02866 -0.2901833,0 -0.4406487,-0.211368 -0.1504654,-0.211368 -0.1504654,-0.619774 0,-0.383329 0.1683779,-0.605445 0.1719605,-0.225698 0.4800564,-0.225698 0.1504654,0 0.2686882,0.03224 0.1218054,0.02866 0.1862905,0.05732 v 1.053258 q 0,0.150465 0.035825,0.218533 0.035825,0.06448 0.1397179,0.06448 0.1468829,0 0.2042031,-0.197038 0.060903,-0.197038 0.060903,-0.566036 0,-0.236446 -0.053738,-0.440649 Q 3.4087593,34.482748 3.294119,34.332282 3.1830611,34.178234 3.0039356,34.092254 2.8283927,34.006274 2.577617,34.006274 q -0.2221157,0 -0.4048237,0.08598 -0.182708,0.08598 -0.3152609,0.254358 -0.1289703,0.164796 -0.2006205,0.404824 -0.07165,0.240028 -0.07165,0.548124 0,0.311678 0.068068,0.555289 0.068068,0.240028 0.1934555,0.404824 0.1253879,0.164795 0.3045134,0.247193 0.182708,0.08598 0.4084061,0.08598 0.1647955,0 0.2758533,-0.02866 0.1146403,-0.02866 0.1540479,-0.04299 l 0.039408,0.247193 q -0.025078,0.01075 -0.075233,0.0215 -0.046573,0.01433 -0.1110578,0.02508 -0.064485,0.01433 -0.1397179,0.0215 -0.07165,0.0072 -0.1468829,0.0072 -0.2758533,0 -0.5051339,-0.09315 -0.2292807,-0.08956 -0.3976586,-0.279436 -0.168378,-0.186291 -0.2615232,-0.476474 -0.093145,-0.293766 -0.093145,-0.695007 0,-0.386911 0.096728,-0.677094 0.1003102,-0.290184 0.2722707,-0.480057 0.1719605,-0.193455 0.4048236,-0.290183 0.2328632,-0.09673 0.4979689,-0.09673 0.2830183,0 0.5087165,0.09673 0.2292806,0.09314 0.386911,0.275853 0.161213,0.179126 0.2471932,0.437067 0.08598,0.254358 0.08598,0.576784 0,0.490804 -0.1433004,0.745162 Q 3.5126521,36.14145 3.2439638,36.14145 Z M 2.5955295,35.869179 q 0.1110578,0 0.1862905,-0.06449 -0.010748,-0.05015 -0.01433,-0.10031 -0.00358,-0.05015 -0.00358,-0.100311 v -0.859802 q -0.017913,-0.0072 -0.053738,-0.01433 -0.035825,-0.0072 -0.08598,-0.0072 -0.1719605,0 -0.2543582,0.139718 -0.078815,0.139718 -0.078815,0.433484 0,0.261523 0.068068,0.419153 0.068068,0.154048 0.2364457,0.154048 z m 1.7088551,-1.400761 q 0.1253879,-0.03941 0.2722708,-0.06448 0.1468829,-0.02866 0.2686882,-0.02866 0.1253879,0 0.2256982,0.03224 0.1038927,0.03224 0.182708,0.107475 0.093145,-0.0609 0.2006205,-0.10031 0.1074753,-0.03941 0.2364457,-0.03941 0.1289703,0 0.2328631,0.03941 0.1074753,0.03583 0.182708,0.125388 0.075233,0.08956 0.1182229,0.243611 0.04299,0.150465 0.04299,0.376163 v 1.135656 H 5.9595042 V 35.18492 q 0,-0.279436 -0.064485,-0.408406 -0.064485,-0.128971 -0.2436107,-0.128971 -0.068068,0 -0.1397179,0.02508 -0.068068,0.02508 -0.1289704,0.06807 0.02866,0.0824 0.04299,0.18629 0.01433,0.103893 0.01433,0.232863 v 1.135656 H 5.1319444 V 35.18492 q 0,-0.279436 -0.064485,-0.408406 -0.064485,-0.128971 -0.2436106,-0.128971 -0.093145,0 -0.2113681,0.03583 v 1.61213 H 4.3043846 Z m 2.8086874,1.82708 H 6.8049761 V 34.41468 H 7.113072 Z M 6.9590241,34.081507 q -0.082398,0 -0.1433004,-0.05374 -0.05732,-0.05732 -0.05732,-0.150465 0,-0.09315 0.05732,-0.146883 0.060903,-0.05732 0.1433004,-0.05732 0.082398,0 0.1397179,0.05732 0.060903,0.05374 0.060903,0.146883 0,0.09314 -0.060903,0.150465 -0.05732,0.05374 -0.1397179,0.05374 z m 0.7129216,0.386911 q 0.1325529,-0.03941 0.2866008,-0.06448 0.1540479,-0.02866 0.2830183,-0.02866 0.1397179,0 0.2543582,0.03941 0.1146403,0.03583 0.1934556,0.125388 0.082398,0.08956 0.1253878,0.243611 0.046573,0.150465 0.046573,0.376163 v 1.135656 H 8.5532432 V 35.18492 q 0,-0.279436 -0.07165,-0.408406 -0.07165,-0.128971 -0.2686883,-0.128971 -0.1038928,0 -0.2328631,0.03583 v 1.61213 H 7.6719457 Z"
       id="text14"
       aria-label="@min" />
    <path
       style="font-size:3.58251px;line-height:125%;font-family:'Ubuntu Condensed';-inkscape-font-specification:'Ubuntu Condensed, ';letter-spacing:0px;word-spacing:0px;fill:#ffffff;stroke-width:0.111953px"
       d="m 4.1697425,49.346586 q 0.046573,0.214951 0.1003103,0.454979 0.053738,0.240028 0.1110578,0.476474 0.060903,0.236445 0.1218053,0.458561 0.060903,0.222115 0.1146404,0.404823 0.04299,-0.20062 0.082398,-0.444231 0.039408,-0.247193 0.075233,-0.515881 0.039408,-0.268688 0.07165,-0.555289 0.032243,-0.286601 0.053738,-0.573202 H 5.2158354 Q 5.1334377,49.772905 5.0295449,50.378349 4.9292346,50.983793 4.7930992,51.5355 H 4.4670908 Q 4.4133532,51.359957 4.348868,51.145006 4.2879653,50.930055 4.2270627,50.700775 4.16616,50.467912 4.1088398,50.231466 4.0515197,49.99502 4.004947,49.772905 q -0.046573,0.222115 -0.1038927,0.458561 -0.05732,0.236446 -0.1182229,0.469309 -0.060903,0.22928 -0.1253878,0.444231 -0.060903,0.214951 -0.1146403,0.390494 H 3.2167948 Q 3.0806595,50.983793 2.9767667,50.378349 2.8764564,49.772905 2.7940587,49.05282 h 0.3260084 q 0.021495,0.286601 0.053738,0.573202 0.032243,0.283018 0.068068,0.555289 0.039408,0.268688 0.078815,0.515881 0.039408,0.243611 0.082398,0.444231 0.053738,-0.182708 0.1146403,-0.404823 0.060903,-0.222116 0.1182228,-0.458561 0.060903,-0.236446 0.1146403,-0.476474 0.053738,-0.240028 0.1003103,-0.454979 z m 2.2283253,0.587532 q -0.1146403,-0.05016 -0.2579407,-0.05016 -0.1325529,0 -0.2471932,0.04657 V 51.5355 H 5.5848381 v -1.79842 q 0.1038927,-0.05016 0.2364456,-0.0824 0.1361354,-0.03583 0.2973483,-0.03583 0.08598,0 0.1719605,0.01075 0.08598,0.01075 0.161213,0.03941 z m 0.3367549,-0.240029 q 0.093145,-0.03941 0.197038,-0.0609 0.1038928,-0.02508 0.2256982,-0.02508 0.2507757,0 0.4084061,0.157631 0.1576304,0.154048 0.1576304,0.483638 v 1.246714 q -0.1289703,0.03583 -0.2651057,0.05732 -0.1325529,0.0215 -0.2615232,0.0215 -0.1289704,0 -0.2436107,-0.03224 -0.1110578,-0.03224 -0.1970381,-0.103893 -0.082398,-0.07165 -0.1325528,-0.179126 -0.050155,-0.111058 -0.050155,-0.268688 0,-0.146883 0.04299,-0.254358 0.046573,-0.111058 0.1253879,-0.182708 0.078815,-0.07523 0.1862905,-0.111058 0.1074753,-0.03941 0.2328632,-0.03941 0.1182228,0 0.2615232,0.02866 v -0.17196 q 0,-0.207786 -0.082398,-0.290183 -0.078815,-0.0824 -0.2292807,-0.0824 -0.082398,0 -0.1576304,0.01791 -0.07165,0.01433 -0.1540479,0.05015 z m 0.1468829,1.293287 q 0,0.164795 0.08598,0.24361 0.08598,0.07881 0.2436107,0.07881 0.096728,0 0.2113681,-0.02508 v -0.598279 q -0.1074753,-0.02866 -0.2113681,-0.02866 -0.068068,0 -0.1289704,0.01791 -0.060903,0.01433 -0.1074753,0.05374 -0.04299,0.03582 -0.068068,0.10031 -0.025078,0.0609 -0.025078,0.157631 z m 1.6837799,0.265105 q 0.1038928,0.05732 0.2221156,0.05732 0.089563,0 0.1576305,-0.03583 0.068068,-0.03582 0.1146403,-0.118222 0.050155,-0.0824 0.075233,-0.218534 0.025078,-0.136135 0.025078,-0.336756 0,-0.386911 -0.1003103,-0.551706 -0.096728,-0.168378 -0.3116784,-0.168378 -0.039408,0 -0.08598,0.0072 -0.046573,0.0036 -0.096728,0.01791 z m 0,0.945783 H 8.2573897 v -2.493427 q 0.1003102,-0.04299 0.2256981,-0.06807 0.1289703,-0.02866 0.2615232,-0.02866 0.1970381,0 0.336756,0.06807 0.1433004,0.06807 0.2292806,0.197038 0.089563,0.125388 0.1289704,0.311678 0.04299,0.182708 0.04299,0.419154 0,0.476474 -0.154048,0.72725 -0.1504654,0.250775 -0.4943863,0.250775 -0.082398,0 -0.1468829,-0.01791 -0.064485,-0.01433 -0.1218054,-0.04299 z"
       id="text15"
       aria-label="Wrap" />
    <path
       style="font-size:3.58251px;line-height:125%;font-family:'Ubuntu Condensed';-inkscape-font-specification:'Ubuntu Condensed, ';letter-spacing:0px;word-spacing:0px;fill:#ffffff;stroke-width:0.111953px"
       d="m 2.9591552,81.875951 q -0.1361354,0 -0.2256981,-0.03941 -0.08598,-0.03941 -0.1397179,-0.10031 -0.07165,0.06807 -0.1504655,0.09673 -0.075233,0.02866 -0.1683779,0.02866 -0.2901833,0 -0.4406488,-0.211368 -0.1504654,-0.211368 -0.1504654,-0.619775 0,-0.383328 0.168378,-0.605444 0.1719605,-0.225698 0.4800563,-0.225698 0.1504655,0 0.2686883,0.03224 0.1218053,0.02866 0.1862905,0.05732 v 1.053258 q 0,0.150465 0.035825,0.218533 0.035825,0.06449 0.1397179,0.06449 0.1468829,0 0.2042031,-0.197038 0.060903,-0.197038 0.060903,-0.566036 0,-0.236446 -0.053738,-0.440649 -0.050155,-0.204203 -0.1647955,-0.354669 -0.1110578,-0.154048 -0.2901833,-0.240028 -0.175543,-0.08598 -0.4263187,-0.08598 -0.2221156,0 -0.4048236,0.08598 -0.182708,0.08598 -0.3152609,0.254358 -0.1289703,0.164796 -0.2006205,0.404824 -0.07165,0.240028 -0.07165,0.548124 0,0.311678 0.068068,0.555289 0.068068,0.240028 0.1934556,0.404824 0.1253878,0.164795 0.3045133,0.247193 0.182708,0.08598 0.4084062,0.08598 0.1647954,0 0.2758532,-0.02866 0.1146404,-0.02866 0.154048,-0.04299 l 0.039408,0.247193 q -0.025078,0.01075 -0.075233,0.0215 -0.046573,0.01433 -0.1110578,0.02508 -0.064485,0.01433 -0.1397179,0.0215 -0.07165,0.0072 -0.1468829,0.0072 -0.2758533,0 -0.5051339,-0.09315 -0.2292807,-0.08956 -0.3976587,-0.279436 -0.1683779,-0.186291 -0.2615232,-0.476474 -0.093145,-0.293766 -0.093145,-0.695007 0,-0.386911 0.096728,-0.677094 0.1003103,-0.290184 0.2722708,-0.480057 0.1719605,-0.193455 0.4048236,-0.290183 0.2328632,-0.09673 0.4979689,-0.09673 0.2830183,0 0.5087164,0.09673 0.2292807,0.09315 0.3869111,0.275853 0.161213,0.179126 0.2471932,0.437066 0.08598,0.254359 0.08598,0.576785 0,0.490803 -0.1433004,0.745162 -0.1433004,0.254358 -0.4119886,0.254358 z M 2.3107209,81.60368 q 0.1110578,0 0.1862905,-0.06448 -0.010747,-0.05016 -0.01433,-0.10031 -0.00358,-0.05016 -0.00358,-0.100311 v -0.859802 q -0.017912,-0.0072 -0.053738,-0.01433 -0.035825,-0.0072 -0.08598,-0.0072 -0.1719605,0 -0.2543583,0.139718 -0.078815,0.139718 -0.078815,0.433483 0,0.261524 0.068068,0.419154 0.068068,0.154048 0.2364457,0.154048 z M 4.019576,80.202919 q 0.1253878,-0.03941 0.2722707,-0.06448 0.1468829,-0.02866 0.2686883,-0.02866 0.1253878,0 0.2256981,0.03224 0.1038928,0.03224 0.182708,0.107475 0.093145,-0.0609 0.2006206,-0.10031 0.1074753,-0.03941 0.2364456,-0.03941 0.1289704,0 0.2328632,0.03941 0.1074753,0.03583 0.182708,0.125388 0.075233,0.08956 0.1182228,0.243611 0.04299,0.150465 0.04299,0.376163 v 1.135656 H 5.6746956 v -1.110578 q 0,-0.279436 -0.064485,-0.408406 -0.064485,-0.128971 -0.2436107,-0.128971 -0.068068,0 -0.1397179,0.02508 -0.068068,0.02508 -0.1289703,0.06807 0.02866,0.0824 0.04299,0.186291 0.01433,0.103893 0.01433,0.232863 v 1.135656 H 4.8471358 v -1.110578 q 0,-0.279436 -0.064485,-0.408406 -0.064485,-0.128971 -0.2436107,-0.128971 -0.093145,0 -0.2113681,0.03583 v 1.61213 H 4.019576 Z m 2.5292516,-0.01433 q 0.093145,-0.03941 0.197038,-0.0609 0.1038928,-0.02508 0.2256982,-0.02508 0.2507757,0 0.4084061,0.157631 0.1576304,0.154048 0.1576304,0.483639 v 1.246713 q -0.1289703,0.03583 -0.2651057,0.05732 -0.1325529,0.0215 -0.2615232,0.0215 -0.1289704,0 -0.2436107,-0.03224 -0.1110578,-0.03224 -0.1970381,-0.103893 -0.082398,-0.07165 -0.1325528,-0.179125 -0.050155,-0.111058 -0.050155,-0.268689 0,-0.146883 0.04299,-0.254358 0.046573,-0.111058 0.1253879,-0.182708 0.078815,-0.07523 0.1862905,-0.111058 0.1074753,-0.03941 0.2328632,-0.03941 0.1182228,0 0.2615232,0.02866 v -0.171961 q 0,-0.207785 -0.082398,-0.290183 -0.078815,-0.0824 -0.2292807,-0.0824 -0.082398,0 -0.1576304,0.01791 -0.07165,0.01433 -0.1540479,0.05016 z m 0.1468829,1.293286 q 0,0.164795 0.08598,0.24361 0.08598,0.07882 0.2436107,0.07882 0.096728,0 0.2113681,-0.02508 v -0.598279 q -0.1074753,-0.02866 -0.2113681,-0.02866 -0.068068,0 -0.1289704,0.01791 -0.060903,0.01433 -0.1074753,0.05374 -0.04299,0.03583 -0.068068,0.10031 -0.025078,0.0609 -0.025078,0.157631 z m 1.9703807,-0.447814 q 0.060903,0.111058 0.1253879,0.236446 0.068068,0.125388 0.1325528,0.254358 0.064485,0.12897 0.1218054,0.257941 0.05732,0.12897 0.1003103,0.247193 H 8.8416342 Q 8.769984,81.822213 8.6732562,81.635923 8.580111,81.44605 8.4869657,81.281254 8.397403,81.44605 8.3042577,81.635923 8.214695,81.822213 8.1430448,82.029999 H 7.8492789 q 0.039408,-0.118223 0.096728,-0.243611 0.060903,-0.12897 0.1253879,-0.257941 0.064485,-0.12897 0.1289703,-0.250775 0.068068,-0.125388 0.1289704,-0.236446 L 7.8671915,80.149181 h 0.3116784 l 0.3224259,0.637687 0.3260084,-0.637687 H 9.128235 Z"
       id="text16"
       aria-label="@max" />
    <path
       style="font-size:3.58251px;line-height:125%;font-family:'Ubuntu Condensed';-inkscape-font-specification:'Ubuntu Condensed, ';letter-spacing:0px;word-spacing:0px;fill:#ffffff;stroke-width:0.111953px"
       d="m 3.2439638,97.101453 q -0.1361354,0 -0.2256981,-0.03941 -0.08598,-0.03941 -0.1397179,-0.10031 -0.07165,0.06807 -0.1504654,0.09673 -0.075233,0.02866 -0.168378,0.02866 -0.2901833,0 -0.4406487,-0.211368 -0.1504654,-0.211368 -0.1504654,-0.619774 0,-0.383329 0.1683779,-0.605445 0.1719605,-0.225698 0.4800564,-0.225698 0.1504654,0 0.2686882,0.03224 0.1218054,0.02866 0.1862905,0.05732 v 1.053258 q 0,0.150465 0.035825,0.218533 0.035825,0.06449 0.1397179,0.06449 0.1468829,0 0.2042031,-0.197038 0.060903,-0.197038 0.060903,-0.566036 0,-0.236446 -0.053738,-0.440649 Q 3.4087593,95.442751 3.294119,95.292285 3.1830611,95.138237 3.0039356,95.052257 2.8283927,94.966277 2.577617,94.966277 q -0.2221157,0 -0.4048237,0.08598 -0.182708,0.08598 -0.3152609,0.254358 -0.1289703,0.164796 -0.2006205,0.404824 -0.07165,0.240028 -0.07165,0.548124 0,0.311678 0.068068,0.555289 0.068068,0.240028 0.1934555,0.404824 0.1253879,0.164795 0.3045134,0.247193 0.182708,0.08598 0.4084061,0.08598 0.1647955,0 0.2758533,-0.02866 0.1146403,-0.02866 0.1540479,-0.04299 l 0.039408,0.247193 q -0.025078,0.01075 -0.075233,0.0215 -0.046573,0.01433 -0.1110578,0.02508 -0.064485,0.01433 -0.1397179,0.0215 -0.07165,0.0072 -0.1468829,0.0072 -0.2758533,0 -0.5051339,-0.09314 -0.2292807,-0.08956 -0.3976586,-0.279436 -0.168378,-0.186291 -0.2615232,-0.476474 -0.093145,-0.293766 -0.093145,-0.695007 0,-0.386911 0.096728,-0.677094 0.1003102,-0.290184 0.2722707,-0.480057 0.1719605,-0.193455 0.4048236,-0.290183 0.2328632,-0.09673 0.4979689,-0.09673 0.2830183,0 0.5087165,0.09673 0.2292806,0.09314 0.386911,0.275853 0.161213,0.179126 0.2471932,0.437066 0.08598,0.254359 0.08598,0.576785 0,0.490803 -0.1433004,0.745162 -0.1433004,0.254358 -0.4119887,0.254358 z M 2.5955295,96.829182 q 0.1110578,0 0.1862905,-0.06449 -0.010748,-0.05016 -0.01433,-0.10031 -0.00358,-0.05016 -0.00358,-0.100311 v -0.859802 q -0.017913,-0.0072 -0.053738,-0.01433 -0.035825,-0.0072 -0.08598,-0.0072 -0.1719605,0 -0.2543582,0.139718 -0.078815,0.139718 -0.078815,0.433484 0,0.261523 0.068068,0.419153 0.068068,0.154048 0.2364457,0.154048 z m 1.7088551,-1.400761 q 0.1253879,-0.03941 0.2722708,-0.06449 0.1468829,-0.02866 0.2686882,-0.02866 0.1253879,0 0.2256982,0.03224 0.1038927,0.03224 0.182708,0.107475 0.093145,-0.0609 0.2006205,-0.10031 0.1074753,-0.03941 0.2364457,-0.03941 0.1289703,0 0.2328631,0.03941 0.1074753,0.03582 0.182708,0.125388 0.075233,0.08956 0.1182229,0.243611 0.04299,0.150465 0.04299,0.376163 v 1.135656 H 5.9595042 v -1.110578 q 0,-0.279436 -0.064485,-0.408406 -0.064485,-0.128971 -0.2436107,-0.128971 -0.068068,0 -0.1397179,0.02508 -0.068068,0.02508 -0.1289704,0.06807 0.02866,0.0824 0.04299,0.186291 0.01433,0.103893 0.01433,0.232863 v 1.135656 H 5.1319444 v -1.110578 q 0,-0.279436 -0.064485,-0.408406 -0.064485,-0.128971 -0.2436106,-0.128971 -0.093145,0 -0.2113681,0.03583 v 1.61213 H 4.3043846 Z m 2.8086874,1.82708 H 6.8049761 V 95.374683 H 7.113072 Z M 6.9590241,95.04151 q -0.082398,0 -0.1433004,-0.05374 -0.05732,-0.05732 -0.05732,-0.150465 0,-0.09315 0.05732,-0.146883 0.060903,-0.05732 0.1433004,-0.05732 0.082398,0 0.1397179,0.05732 0.060903,0.05374 0.060903,0.146883 0,0.09315 -0.060903,0.150465 -0.05732,0.05374 -0.1397179,0.05374 z m 0.7129216,0.386911 q 0.1325529,-0.03941 0.2866008,-0.06449 0.1540479,-0.02866 0.2830183,-0.02866 0.1397179,0 0.2543582,0.03941 0.1146403,0.03582 0.1934556,0.125388 0.082398,0.08956 0.1253878,0.243611 0.046573,0.150465 0.046573,0.376163 v 1.135656 H 8.5532432 v -1.110578 q 0,-0.279436 -0.07165,-0.408406 -0.07165,-0.128971 -0.2686883,-0.128971 -0.1038928,0 -0.2328631,0.03583 v 1.61213 H 7.6719457 Z"
       id="text17"
       aria-label="@min" />
    <path
       style="font-size:3.58251px;line-height:125%;font-family:'Ubuntu Condensed';-inkscape-font-specification:'Ubuntu Condensed, ';letter-spacing:0px;word-spacing:0px;fill:#ffffff;stroke-width:0.111953px"
       d="m 4.1697425,110.30659 q 0.046573,0.21495 0.1003103,0.45498 0.053738,0.24003 0.1110578,0.47648 0.060903,0.23644 0.1218053,0.45856 0.060903,0.22211 0.1146404,0.40482 0.04299,-0.20062 0.082398,-0.44423 0.039408,-0.24719 0.075233,-0.51588 0.039408,-0.26869 0.07165,-0.55529 0.032243,-0.2866 0.053738,-0.5732 h 0.3152609 q -0.082398,0.72008 -0.1862905,1.32553 -0.1003103,0.60544 -0.2364457,1.15715 H 4.4670908 q -0.053738,-0.17555 -0.1182228,-0.3905 -0.060903,-0.21495 -0.1218053,-0.44423 -0.060903,-0.23286 -0.1182229,-0.46931 -0.05732,-0.23644 -0.1038928,-0.45856 -0.046573,0.22212 -0.1038927,0.45856 -0.05732,0.23645 -0.1182229,0.46931 -0.060903,0.22928 -0.1253878,0.44423 -0.060903,0.21495 -0.1146403,0.3905 H 3.2167948 q -0.1361353,-0.55171 -0.2400281,-1.15715 -0.1003103,-0.60545 -0.182708,-1.32553 h 0.3260084 q 0.021495,0.2866 0.053738,0.5732 0.032243,0.28302 0.068068,0.55529 0.039408,0.26869 0.078815,0.51588 0.039408,0.24361 0.082398,0.44423 0.053738,-0.18271 0.1146403,-0.40482 0.060903,-0.22212 0.1182228,-0.45856 0.060903,-0.23645 0.1146403,-0.47648 0.053738,-0.24003 0.1003103,-0.45498 z m 2.2283253,0.58753 q -0.1146403,-0.0502 -0.2579407,-0.0502 -0.1325529,0 -0.2471932,0.0466 v 1.60497 H 5.5848381 v -1.79842 q 0.1038927,-0.0502 0.2364456,-0.0824 0.1361354,-0.0358 0.2973483,-0.0358 0.08598,0 0.1719605,0.0107 0.08598,0.0108 0.161213,0.0394 z m 0.3367549,-0.24002 q 0.093145,-0.0394 0.197038,-0.0609 0.1038928,-0.0251 0.2256982,-0.0251 0.2507757,0 0.4084061,0.15763 0.1576304,0.15404 0.1576304,0.48364 v 1.24671 q -0.1289703,0.0358 -0.2651057,0.0573 -0.1325529,0.0215 -0.2615232,0.0215 -0.1289704,0 -0.2436107,-0.0322 -0.1110578,-0.0322 -0.1970381,-0.10389 -0.082398,-0.0717 -0.1325528,-0.17913 -0.050155,-0.11105 -0.050155,-0.26869 0,-0.14688 0.04299,-0.25435 0.046573,-0.11106 0.1253879,-0.18271 0.078815,-0.0752 0.1862905,-0.11106 0.1074753,-0.0394 0.2328632,-0.0394 0.1182228,0 0.2615232,0.0287 v -0.17196 q 0,-0.20778 -0.082398,-0.29018 -0.078815,-0.0824 -0.2292807,-0.0824 -0.082398,0 -0.1576304,0.0179 -0.07165,0.0143 -0.1540479,0.0502 z m 0.1468829,1.29328 q 0,0.1648 0.08598,0.24361 0.08598,0.0788 0.2436107,0.0788 0.096728,0 0.2113681,-0.0251 v -0.59828 q -0.1074753,-0.0287 -0.2113681,-0.0287 -0.068068,0 -0.1289704,0.0179 -0.060903,0.0143 -0.1074753,0.0537 -0.04299,0.0358 -0.068068,0.10031 -0.025078,0.0609 -0.025078,0.15763 z m 1.6837799,0.26511 q 0.1038928,0.0573 0.2221156,0.0573 0.089563,0 0.1576305,-0.0358 0.068068,-0.0358 0.1146403,-0.11822 0.050155,-0.0824 0.075233,-0.21853 0.025078,-0.13614 0.025078,-0.33676 0,-0.38691 -0.1003103,-0.55171 -0.096728,-0.16837 -0.3116784,-0.16837 -0.039408,0 -0.08598,0.007 -0.046573,0.004 -0.096728,0.0179 z m 0,0.94578 H 8.2573897 v -2.49343 q 0.1003102,-0.043 0.2256981,-0.0681 0.1289703,-0.0287 0.2615232,-0.0287 0.1970381,0 0.336756,0.0681 0.1433004,0.0681 0.2292806,0.19704 0.089563,0.12539 0.1289704,0.31168 0.04299,0.18271 0.04299,0.41915 0,0.47648 -0.154048,0.72725 -0.1504654,0.25078 -0.4943863,0.25078 -0.082398,0 -0.1468829,-0.0179 -0.064485,-0.0143 -0.1218054,-0.043 z"
       id="text18"
       aria-label="Wrap" />
  </g>
  <g
     inkscape:groupmode="layer"
     id="layer3"
     inkscape:label="components"
     style="display:none">
    <ellipse
       style="fill:#0000ff;fill-opacity:1;stroke:none;stroke-width:0.529167;stroke-linecap:round;stroke-linejoin:round"
       id="path2"
       cx="5.0799999"
       cy="26.149996"
       rx="5.0800009"
       ry="5.0799999"
       inkscape:label="max_a" />
    <ellipse
       style="fill:#0000ff;fill-opacity:1;stroke:none;stroke-width:0.529167;stroke-linecap:round;stroke-linejoin:round"
       id="ellipse6"
       cx="5.0799999"
       cy="41.389999"
       rx="5.0800009"
       ry="5.0799999"
       inkscape:label="min_a" />
    <ellipse
       style="fill:#0000ff;fill-opacity:1;stroke:none;stroke-width:0.529167;stroke-linecap:round;stroke-linejoin:round"
       id="ellipse7"
       cx="5.0799994"
       cy="56.629997"
       rx="5.0800009"
       ry="5.0799999"
       inkscape:label="wrap_a" />
    <ellipse
       style="fill:#ff00ff;fill-opacity:1;stroke:none;stroke-width:0.529167;stroke-linecap:round;stroke-linejoin:round"
       id="path7"
       cx="1.2699994"
       cy="50.388397"
       rx="1.2700002"
       ry="1.27"
       inkscape:label="wrap_a" />
    <ellipse
       style="fill:#0000ff;fill-opacity:1;stroke:none;stroke-width:0.529167;stroke-linecap:round;stroke-linejoin:round"
       id="ellipse9"
       cx="5.0799999"
       cy="87.110001"
       rx="5.0800009"
       ry="5.0799999"
       inkscape:label="max_b" />
    <ellipse
       style="fill:#0000ff;fill-opacity:1;stroke:none;stroke-width:0.529167;stroke-linecap:round;stroke-linejoin:round"
       id="ellipse10"
       cx="5.0799999"
       cy="102.35001"
       rx="5.0800009"
       ry="5.0799999"
       inkscape:label="min_b" />
    <ellipse
       style="fill:#0000ff;fill-opacity:1;stroke:none;stroke-width:0.529167;stroke-linecap:round;stroke-linejoin:round"
       id="ellipse11"
       cx="5.0799994"
       cy="117.59"
       rx="5.0800009"
       ry="5.0799999"
       inkscape:label="wrap_b" />
    <ellipse
       style="fill:#ff00ff;fill-opacity:1;stroke:none;stroke-width:0.529167;stroke-linecap:round;stroke-linejoin:round"
       id="ellipse12"
       cx="1.2699994"
       cy="111.3484"
       rx="1.2700002"
       ry="1.27"
       inkscape:label="wrap_b" />
  </g>
</svg>
