<?xml version="1.0" encoding="UTF-8" standalone="no"?>
<!-- Created with Inkscape (http://www.inkscape.org/) -->

<svg
   width="152.39999mm"
   height="128.5mm"
   viewBox="0 0 152.4 128.5"
   version="1.1"
   id="svg1524"
   inkscape:version="1.2.1 (9c6d41e410, 2022-07-14, custom)"
   sodipodi:docname="LEDMatrix.svg"
   xmlns:inkscape="http://www.inkscape.org/namespaces/inkscape"
   xmlns:sodipodi="http://sodipodi.sourceforge.net/DTD/sodipodi-0.dtd"
   xmlns="http://www.w3.org/2000/svg"
   xmlns:svg="http://www.w3.org/2000/svg">
  <sodipodi:namedview
     id="namedview1526"
     pagecolor="#cccccc"
     bordercolor="#666666"
     borderopacity="1.0"
     inkscape:pageshadow="2"
     inkscape:pageopacity="1"
     inkscape:pagecheckerboard="0"
     inkscape:document-units="mm"
     showgrid="true"
     units="in"
     inkscape:showpageshadow="2"
     inkscape:deskcolor="#d1d1d1"
     inkscape:zoom="1.2772582"
     inkscape:cx="371.89036"
     inkscape:cy="303.77571"
     inkscape:window-width="1920"
     inkscape:window-height="1004"
     inkscape:window-x="0"
     inkscape:window-y="0"
     inkscape:window-maximized="1"
     inkscape:current-layer="layer2">
    <inkscape:grid
       type="xygrid"
       id="grid1608"
       originx="7.6199997"
       originy="64.250005"
       units="mm"
       spacingx="2.5400001"
       spacingy="2.5400001" />
  </sodipodi:namedview>
  <defs
     id="defs1521" />
  <g
     inkscape:groupmode="layer"
     id="layer2"
     inkscape:label="Background"
     sodipodi:insensitive="true">
    <rect
       style="display:inline;fill:#666666;stroke-width:0.715826"
       id="rect374"
       width="152.40001"
       height="128.5"
       x="0"
       y="0" />
  </g>
  <g
     inkscape:label="Layer 1"
     inkscape:groupmode="layer"
     id="layer1"
     transform="translate(-2.5400047)">
    <rect
       style="fill:#333333;stroke-width:0.600001;stroke-linecap:round"
       id="rect403"
       width="121.92001"
       height="121.92001"
       x="22.860001"
       y="3.2900014" />
    <path
       style="fill:none;fill-opacity:1;fill-rule:evenodd;stroke:#8d8d8d;stroke-width:0.5;stroke-linecap:square;stroke-linejoin:miter;stroke-dasharray:none;stroke-opacity:1"
       d="M 22.86,125.21 H 144.78 V 3.2900016"
       id="path619" />
    <path
       style="fill:none;fill-rule:evenodd;stroke:#000000;stroke-width:0.5;stroke-linecap:square;stroke-linejoin:miter;stroke-dasharray:none;stroke-opacity:1"
       d="M 22.86,125.21 V 3.2900016 h 121.92"
       id="path617" />
  </g>
  <g
     inkscape:groupmode="layer"
     id="layer4"
     inkscape:label="Text">
    <text
       xml:space="preserve"
       style="font-size:8.46667px;line-height:125%;font-family:sans-serif;letter-spacing:0px;word-spacing:0px;fill:#cccccc;fill-opacity:1;stroke:#000000;stroke-width:0.264583px;stroke-linecap:butt;stroke-linejoin:miter;stroke-opacity:1"
       x="-103.9375"
       y="12.699998"
       id="text1489"
       transform="rotate(-90)"><tspan
         sodipodi:role="line"
         id="tspan1487"
         style="font-style:normal;font-variant:normal;font-weight:normal;font-stretch:normal;font-family:'PxPlus IBM VGA8';-inkscape-font-specification:'PxPlus IBM VGA8';fill:#cccccc;fill-opacity:1;stroke:none;stroke-width:0.264583px"
         x="-103.9375"
         y="12.699998">Brightness</tspan></text>
    <text
       xml:space="preserve"
       style="font-size:8.46667px;line-height:125%;font-family:sans-serif;letter-spacing:0px;word-spacing:0px;fill:#cccccc;fill-opacity:1;stroke:none;stroke-width:0.264583px;stroke-linecap:butt;stroke-linejoin:miter;stroke-opacity:1"
       x="2.8574982"
       y="18.530003"
       id="text1388"><tspan
         sodipodi:role="line"
         id="tspan1386"
         style="font-style:normal;font-variant:normal;font-weight:normal;font-stretch:normal;font-family:'PxPlus IBM VGA8';-inkscape-font-specification:'PxPlus IBM VGA8';fill:#cccccc;fill-opacity:1;stroke:none;stroke-width:0.264583px"
         x="2.8574982"
         y="18.530003">X</tspan></text>
    <text
       xml:space="preserve"
       style="font-size:8.46667px;line-height:125%;font-family:sans-serif;letter-spacing:0px;word-spacing:0px;fill:#cccccc;fill-opacity:1;stroke:none;stroke-width:0.264583px;stroke-linecap:butt;stroke-linejoin:miter;stroke-opacity:1"
       x="2.8574982"
       y="31.230003"
       id="text1388-7"><tspan
         sodipodi:role="line"
         id="tspan1386-5"
         style="font-style:normal;font-variant:normal;font-weight:normal;font-stretch:normal;font-family:'PxPlus IBM VGA8';-inkscape-font-specification:'PxPlus IBM VGA8';fill:#cccccc;fill-opacity:1;stroke:none;stroke-width:0.264583px"
         x="2.8574982"
         y="31.230003">Y</tspan></text>
  </g>
  <g
     inkscape:groupmode="layer"
     id="g2128"
     inkscape:label="Text copy">
    <g
       aria-label="Brightness"
       transform="rotate(-90)"
       id="text2118"
       style="font-size:8.46667px;line-height:125%;letter-spacing:0px;word-spacing:0px;fill:#cccccc;stroke:#000000;stroke-width:0.264583px">
      <path
         d="m -103.9375,12.699998 v -0.529167 h 0.52917 V 7.937496 h -0.52917 V 7.4083291 h 3.175 V 7.937496 h 0.52917 v 1.5875006 h -0.52917 v 0.5291674 h 0.52917 v 2.116667 h -0.52917 v 0.529167 z m 1.5875,-0.529167 h 1.05833 V 10.054164 H -102.35 Z m 0,-2.6458344 h 1.05833 V 7.937496 H -102.35 Z"
         style="font-family:'PxPlus IBM VGA8';-inkscape-font-specification:'PxPlus IBM VGA8';stroke:none"
         id="path2130" />
      <path
         d="m -99.704165,12.699998 v -0.529167 h 0.529167 V 9.5249966 h -0.529167 V 8.9958298 h 1.058334 v 0.5291668 h 0.529167 V 8.9958298 h 1.5875 v 0.5291668 h 0.529167 V 10.58333 h -1.058334 V 9.5249966 h -0.529166 v 0.5291674 h -0.529167 v 2.116667 h 0.529167 v 0.529167 z"
         style="font-family:'PxPlus IBM VGA8';-inkscape-font-specification:'PxPlus IBM VGA8';stroke:none"
         id="path2132" />
      <path
         d="m -94.412496,12.699998 v -0.529167 h 0.529167 V 9.5249966 h -0.529167 V 8.9958298 h 1.5875 v 3.1750012 h 0.529167 v 0.529167 z m 0.529167,-5.2916689 h 1.058333 v 1.0583338 h -1.058333 z"
         style="font-family:'PxPlus IBM VGA8';-inkscape-font-specification:'PxPlus IBM VGA8';stroke:none"
         id="path2134" />
      <path
         d="m -91.237495,13.758332 v -0.529167 h 1.058333 v 0.529167 h 1.058334 v -1.058334 h -1.587501 v -0.529167 h -0.529166 V 9.5249966 h 0.529166 V 8.9958298 h 1.587501 v 0.5291668 h -1.058334 v 2.6458344 h 1.058334 V 9.5249966 h 0.529167 V 8.9958298 h 1.058334 v 0.5291668 h -0.529167 v 4.2333354 h -0.529167 v 0.529167 h -2.116668 v -0.529167 z"
         style="font-family:'PxPlus IBM VGA8';-inkscape-font-specification:'PxPlus IBM VGA8';stroke:none"
         id="path2136" />
      <path
         d="m -87.00416,12.699998 v -0.529167 h 0.529167 V 7.937496 H -87.00416 V 7.4083291 h 1.587501 v 2.1166675 h 0.529167 v 0.5291674 h -0.529167 v 2.645834 z m 2.116668,-3.1750014 V 8.9958298 h 1.058333 v 0.5291668 h 0.529167 v 3.1750014 h -1.058334 V 9.5249966 Z"
         style="font-family:'PxPlus IBM VGA8';-inkscape-font-specification:'PxPlus IBM VGA8';stroke:none"
         id="path2138" />
      <path
         d="M -82.770824,9.5249966 V 8.9958298 h 1.058333 V 7.937496 h 0.529167 V 7.4083291 h 0.529167 v 1.5875007 h 1.058334 v 0.5291668 h -1.058334 v 2.6458344 h 0.529167 v -0.529167 h 1.058334 v 0.529167 h -0.529167 v 0.529167 h -1.587501 v -0.529167 h -0.529167 V 9.5249966 Z"
         style="font-family:'PxPlus IBM VGA8';-inkscape-font-specification:'PxPlus IBM VGA8';stroke:none"
         id="path2140" />
      <path
         d="M -78.537491,9.5249966 V 8.9958298 h 1.058334 v 0.5291668 h 0.529167 v 3.1750014 h -1.058334 V 9.5249966 Z m 1.587501,0 V 8.9958298 h 1.5875 v 0.5291668 h 0.529167 v 3.1750014 h -1.058333 V 9.5249966 Z"
         style="font-family:'PxPlus IBM VGA8';-inkscape-font-specification:'PxPlus IBM VGA8';stroke:none"
         id="path2142" />
      <path
         d="M -74.304155,12.170831 V 9.5249966 h 0.529167 V 8.9958298 h 2.645834 v 0.5291668 h 0.529167 V 10.58333 h -2.645835 v 1.587501 h 1.587501 v -0.529167 h 1.058334 v 0.529167 h -0.529167 v 0.529167 h -2.645834 v -0.529167 z m 1.058333,-2.116667 h 1.587501 V 9.5249966 h -1.587501 z"
         style="font-family:'PxPlus IBM VGA8';-inkscape-font-specification:'PxPlus IBM VGA8';stroke:none"
         id="path2144" />
      <path
         d="m -70.07082,12.170831 v -0.529167 h 1.058334 v 0.529167 h 1.587501 v -0.529167 h -0.529167 v -0.529167 h -1.058334 V 10.58333 h -0.529167 V 10.054164 H -70.07082 V 9.5249966 h 0.529167 V 8.9958298 h 2.645834 v 0.5291668 h 0.529167 v 0.5291674 h -1.058333 V 9.5249966 h -1.587501 v 0.5291674 h 0.529167 v 0.529166 h 1.058334 v 0.529167 h 0.529166 v 0.529167 h 0.529167 v 0.529167 h -0.529167 v 0.529167 h -2.645834 v -0.529167 z"
         style="font-family:'PxPlus IBM VGA8';-inkscape-font-specification:'PxPlus IBM VGA8';stroke:none"
         id="path2146" />
      <path
         d="m -65.837486,12.170831 v -0.529167 h 1.058333 v 0.529167 h 1.587501 v -0.529167 h -0.529167 v -0.529167 h -1.058334 V 10.58333 h -0.529166 v -0.529166 h -0.529167 V 9.5249966 h 0.529167 V 8.9958298 h 2.645834 v 0.5291668 h 0.529167 v 0.5291674 h -1.058334 V 9.5249966 h -1.587501 v 0.5291674 h 0.529167 v 0.529166 h 1.058334 v 0.529167 h 0.529167 v 0.529167 h 0.529167 v 0.529167 h -0.529167 v 0.529167 h -2.645834 v -0.529167 z"
         style="font-family:'PxPlus IBM VGA8';-inkscape-font-specification:'PxPlus IBM VGA8';stroke:none"
         id="path2148" />
    </g>
    <g
       aria-label="X"
       id="text2122"
       style="font-size:8.46667px;line-height:125%;letter-spacing:0px;word-spacing:0px;fill:#cccccc;stroke-width:0.264583px">
      <path
         d="M 2.8574982,17.471669 H 3.386665 V 16.413335 H 3.9158319 V 15.355001 H 3.386665 V 14.296668 H 2.8574982 v -1.058334 h 1.0583337 v 1.058334 h 0.5291669 v 0.529166 h 0.5291669 v -0.529166 h 0.5291669 v -1.058334 h 1.0583337 v 1.058334 H 6.0324994 v 1.058333 H 5.5033326 v 1.058334 h 0.5291668 v 1.058334 h 0.5291669 v 1.058334 H 5.5033326 V 17.471669 H 4.9741657 V 16.942502 H 4.4449988 v 0.529167 H 3.9158319 v 1.058334 H 2.8574982 Z"
         style="font-family:'PxPlus IBM VGA8';-inkscape-font-specification:'PxPlus IBM VGA8'"
         id="path2151" />
    </g>
    <g
       aria-label="Y"
       id="text2126"
       style="font-size:8.46667px;line-height:125%;letter-spacing:0px;word-spacing:0px;fill:#cccccc;stroke-width:0.264583px">
      <path
         d="m 3.386665,28.055002 v -2.116667 h 1.0583338 v 2.116667 h 1.0583338 v -2.116667 h 1.0583337 v 2.116667 H 6.0324994 v 0.529167 H 5.5033326 v 2.116667 h 0.5291668 v 0.529167 H 3.9158319 V 30.700836 H 4.4449988 V 28.584169 H 3.9158319 v -0.529167 z"
         style="font-family:'PxPlus IBM VGA8';-inkscape-font-specification:'PxPlus IBM VGA8'"
         id="path2154" />
    </g>
  </g>
  <g
     inkscape:groupmode="layer"
     id="layer3"
     inkscape:label="components"
     style="display:none">
    <rect
       style="fill:#ffff00;fill-opacity:1;stroke:none;stroke-width:0.489361;stroke-linecap:square;stroke-dasharray:none;stroke-opacity:1"
       id="rect1332"
       width="116.84"
       height="116.84"
       x="22.860001"
       y="5.8300018"
       inkscape:label="led_area" />
    <circle
       style="fill:#00ff00;fill-opacity:1;stroke:none;stroke-width:0.499999;stroke-linecap:square;stroke-dasharray:none;stroke-opacity:1"
       id="path1233-6"
       cx="10.16"
       cy="112.51001"
       r="5.0799999"
       inkscape:label="brightness" />
    <circle
       style="fill:#00ff00;fill-opacity:1;stroke:none;stroke-width:0.499999;stroke-linecap:square;stroke-dasharray:none;stroke-opacity:1"
       id="path1233-3"
       cx="12.7"
       cy="28.690002"
       r="5.0799999"
       inkscape:label="y" />
    <circle
       style="fill:#00ff00;fill-opacity:1;stroke:none;stroke-width:0.499999;stroke-linecap:square;stroke-dasharray:none;stroke-opacity:1"
       id="path1233"
       cx="12.7"
       cy="15.990002"
       r="5.0799999"
       inkscape:label="x" />
  </g>
</svg>
