<?xml version="1.0" encoding="UTF-8" standalone="no"?>
<!-- Created with Inkscape (http://www.inkscape.org/) -->

<svg
   width="111.76mm"
   height="128.5mm"
   viewBox="0 0 111.76 128.5"
   version="1.1"
   id="svg1524"
   inkscape:version="1.3.2 (091e20ef0f, 2023-11-25, custom)"
   sodipodi:docname="Microcosm.svg"
   xmlns:inkscape="http://www.inkscape.org/namespaces/inkscape"
   xmlns:sodipodi="http://sodipodi.sourceforge.net/DTD/sodipodi-0.dtd"
   xmlns="http://www.w3.org/2000/svg"
   xmlns:svg="http://www.w3.org/2000/svg">
  <sodipodi:namedview
     id="namedview1526"
     pagecolor="#cccccc"
     bordercolor="#666666"
     borderopacity="1.0"
     inkscape:pageshadow="2"
     inkscape:pageopacity="1"
     inkscape:pagecheckerboard="0"
     inkscape:document-units="mm"
     showgrid="true"
     units="in"
     inkscape:showpageshadow="2"
     inkscape:deskcolor="#d1d1d1"
     inkscape:zoom="1.0898236"
     inkscape:cx="252.7932"
     inkscape:cy="265.18052"
     inkscape:window-width="1920"
     inkscape:window-height="1008"
     inkscape:window-x="0"
     inkscape:window-y="0"
     inkscape:window-maximized="1"
     inkscape:current-layer="layer4">
    <inkscape:grid
       type="xygrid"
       id="grid1608"
       originx="7.6199999"
       originy="64.25"
       units="mm"
       spacingx="2.5400001"
       spacingy="2.5400001"
       visible="true" />
  </sodipodi:namedview>
  <defs
     id="defs1521" />
  <g
     inkscape:groupmode="layer"
     id="layer2"
     inkscape:label="Background"
     sodipodi:insensitive="true">
    <rect
       style="display:inline;fill:#1a1a1a;stroke-width:0.612997"
       id="rect374"
       width="111.76001"
       height="128.5"
       x="0"
       y="0" />
  </g>
  <g
     inkscape:label="Layer 1"
     inkscape:groupmode="layer"
     id="layer1">
    <rect
       style="fill:#800080;stroke-width:0.167;stroke-linecap:round;stroke-linejoin:round"
       id="rect1"
       width="17.780001"
       height="17.780001"
       x="6.3499999"
       y="5.8299952"
       rx="1"
       ry="1" />
    <rect
       style="fill:#f400f4;fill-opacity:1;stroke-width:0.167;stroke-linecap:round;stroke-linejoin:round"
       id="rect1-3"
       width="17.780001"
       height="17.780001"
       x="26.670002"
       y="5.8299961"
       rx="1"
       ry="1" />
    <rect
       style="fill:#800080;stroke-width:0.167;stroke-linecap:round;stroke-linejoin:round"
       id="rect1-6"
       width="17.780001"
       height="17.780001"
       x="46.990002"
       y="5.8299961"
       rx="1"
       ry="1" />
    <rect
       style="fill:#f400f4;fill-opacity:1;stroke-width:0.167;stroke-linecap:round;stroke-linejoin:round"
       id="rect1-3-7"
       width="17.780001"
       height="17.780001"
       x="67.309998"
       y="5.8299961"
       rx="1"
       ry="1" />
    <rect
       style="fill:#800080;stroke-width:0.167;stroke-linecap:round;stroke-linejoin:round"
       id="rect1-3-7-5"
       width="17.780001"
       height="17.780001"
       x="87.630005"
       y="5.8299952"
       rx="1"
       ry="1" />
    <rect
       style="fill:#f400f4;fill-opacity:1;stroke-width:0.167;stroke-linecap:round;stroke-linejoin:round"
       id="rect1-35"
       width="17.780001"
       height="17.780001"
       x="6.3499994"
       y="26.149996"
       rx="1"
       ry="1" />
    <rect
       style="fill:#800080;stroke-width:0.167;stroke-linecap:round;stroke-linejoin:round"
       id="rect1-3-6"
       width="17.780001"
       height="17.780001"
       x="26.670002"
       y="26.149996"
       rx="1"
       ry="1" />
    <rect
       style="fill:#f400f4;fill-opacity:1;stroke-width:0.167;stroke-linecap:round;stroke-linejoin:round"
       id="rect1-6-2"
       width="17.780001"
       height="17.780001"
       x="46.990002"
       y="26.149996"
       rx="1"
       ry="1" />
    <rect
       style="fill:#800080;stroke-width:0.167;stroke-linecap:round;stroke-linejoin:round"
       id="rect1-3-7-9"
       width="17.780001"
       height="17.780001"
       x="67.30999"
       y="26.149996"
       rx="1"
       ry="1" />
    <rect
       style="fill:#f400f4;fill-opacity:1;stroke-width:0.167;stroke-linecap:round;stroke-linejoin:round"
       id="rect1-3-7-5-1"
       width="17.780001"
       height="17.780001"
       x="87.629997"
       y="26.149996"
       rx="1"
       ry="1" />
    <rect
       style="fill:#800080;stroke-width:0.167;stroke-linecap:round;stroke-linejoin:round"
       id="rect1-2"
       width="17.780001"
       height="17.780001"
       x="6.3499994"
       y="46.469997"
       rx="1"
       ry="1" />
    <rect
       style="fill:#f400f4;fill-opacity:1;stroke-width:0.167;stroke-linecap:round;stroke-linejoin:round"
       id="rect1-3-70"
       width="17.780001"
       height="17.780001"
       x="26.67"
       y="46.470001"
       rx="1"
       ry="1" />
    <rect
       style="fill:#800080;stroke-width:0.167;stroke-linecap:round;stroke-linejoin:round"
       id="rect1-6-9"
       width="17.780001"
       height="17.780001"
       x="46.989998"
       y="46.470001"
       rx="1"
       ry="1" />
    <rect
       style="fill:#f400f4;fill-opacity:1;stroke-width:0.167;stroke-linecap:round;stroke-linejoin:round"
       id="rect1-3-7-3"
       width="17.780001"
       height="17.780001"
       x="67.309998"
       y="46.470001"
       rx="1"
       ry="1" />
    <rect
       style="fill:#800080;stroke-width:0.167;stroke-linecap:round;stroke-linejoin:round"
       id="rect1-3-7-5-6"
       width="17.780001"
       height="17.780001"
       x="87.630005"
       y="46.469997"
       rx="1"
       ry="1" />
    <rect
       style="fill:#f400f4;fill-opacity:1;stroke-width:0.167;stroke-linecap:round;stroke-linejoin:round"
       id="rect1-35-0"
       width="17.780001"
       height="17.780001"
       x="6.3499994"
       y="66.790001"
       rx="1"
       ry="1" />
    <rect
       style="fill:#800080;stroke-width:0.167;stroke-linecap:round;stroke-linejoin:round"
       id="rect1-3-6-6"
       width="17.780001"
       height="17.780001"
       x="26.67"
       y="66.790001"
       rx="1"
       ry="1" />
    <rect
       style="fill:#f400f4;fill-opacity:1;stroke-width:0.167;stroke-linecap:round;stroke-linejoin:round"
       id="rect1-6-2-2"
       width="17.780001"
       height="17.780001"
       x="46.989998"
       y="66.790001"
       rx="1"
       ry="1" />
    <rect
       style="fill:#800080;stroke-width:0.167;stroke-linecap:round;stroke-linejoin:round"
       id="rect1-3-7-9-6"
       width="17.780001"
       height="17.780001"
       x="67.309998"
       y="66.790001"
       rx="1"
       ry="1" />
    <rect
       style="fill:#f400f4;fill-opacity:1;stroke-width:0.167;stroke-linecap:round;stroke-linejoin:round"
       id="rect1-3-7-5-1-1"
       width="17.780001"
       height="17.780001"
       x="87.630005"
       y="66.790001"
       rx="1"
       ry="1" />
    <rect
       style="fill:#800080;stroke-width:0.167;stroke-linecap:round;stroke-linejoin:round"
       id="rect1-35-0-8"
       width="17.780001"
       height="17.780001"
       x="6.3499994"
       y="87.110001"
       rx="1"
       ry="1" />
    <rect
       style="fill:#f400f4;fill-opacity:1;stroke-width:0.167;stroke-linecap:round;stroke-linejoin:round"
       id="rect1-3-6-6-7"
       width="17.780001"
       height="17.780001"
       x="26.67"
       y="87.110001"
       rx="1"
       ry="1" />
    <rect
       style="fill:#800080;stroke-width:0.167;stroke-linecap:round;stroke-linejoin:round"
       id="rect1-6-2-2-9"
       width="17.780001"
       height="17.780001"
       x="46.990002"
       y="87.110001"
       rx="1"
       ry="1" />
    <rect
       style="fill:#f400f4;fill-opacity:1;stroke-width:0.167;stroke-linecap:round;stroke-linejoin:round"
       id="rect1-3-7-9-6-2"
       width="17.780001"
       height="17.780001"
       x="67.309982"
       y="87.110001"
       rx="1"
       ry="1" />
    <rect
       style="fill:#800080;stroke-width:0.167;stroke-linecap:round;stroke-linejoin:round"
       id="rect1-3-7-5-1-1-0"
       width="17.780001"
       height="17.780001"
       x="87.62999"
       y="87.110001"
       rx="1"
       ry="1" />
    <g
       id="g1226"
       style="stroke-width:0.3;stroke-dasharray:none"
       inkscape:label="logo"
       transform="matrix(0.82615823,0,0,0.82615823,83.529081,14.998596)">
      <path
         style="fill:none;fill-rule:evenodd;stroke:#ff7f7f;stroke-width:0.3;stroke-linecap:round;stroke-linejoin:round;stroke-dasharray:none;stroke-opacity:1"
         d="m 4.7708989,116.7807 -1.3131348,0.65656 -1.3131348,0.65657 2.6262696,2.62627 -2.6262696,1.31314"
         id="path496"
         sodipodi:nodetypes="ccccc" />
      <path
         style="fill:none;fill-rule:evenodd;stroke:#feff7f;stroke-width:0.3;stroke-linecap:round;stroke-linejoin:round;stroke-dasharray:none;stroke-opacity:1"
         d="m 6.0840338,122.03324 v -5.25254 l 2.6262702,1.31313 -2.6262702,1.31314"
         id="path498" />
      <path
         style="fill:none;fill-rule:evenodd;stroke:#7fff7f;stroke-width:0.3;stroke-linecap:round;stroke-linejoin:round;stroke-dasharray:none;stroke-opacity:1"
         d="m 8.710304,122.03324 1.313135,-5.25254 1.313135,5.25254"
         id="path500" />
      <path
         style="fill:none;fill-rule:evenodd;stroke:#80ffff;stroke-width:0.3;stroke-linecap:round;stroke-linejoin:round;stroke-dasharray:none;stroke-opacity:1"
         d="m 12.649708,122.03324 v -5.25254 l 2.62627,1.31313 -2.62627,1.31314 2.62627,2.62627"
         id="path502" />
      <path
         style="fill:none;fill-rule:evenodd;stroke:#8080ff;stroke-width:0.3;stroke-linecap:round;stroke-linejoin:round;stroke-dasharray:none;stroke-opacity:1"
         d="m 16.589114,116.7807 v 5.25254"
         id="path504" />
      <path
         style="fill:none;fill-rule:evenodd;stroke:#8080ff;stroke-width:0.3;stroke-linecap:round;stroke-linejoin:round;stroke-dasharray:none;stroke-opacity:1"
         d="m 19.215383,116.7807 -2.626269,2.62627 2.626269,2.62627"
         id="path506" />
      <path
         style="fill:none;fill-rule:evenodd;stroke:#bf80ff;stroke-width:0.3;stroke-linecap:round;stroke-linejoin:round;stroke-dasharray:none;stroke-opacity:1"
         d="m 21.786938,116.7807 -2.626269,1.31313 2.626269,1.31314 -2.626269,1.31313 2.626269,1.31314"
         id="path508" />
      <path
         style="fill:none;fill-rule:evenodd;stroke:#ff80ff;stroke-width:0.3;stroke-linecap:round;stroke-linejoin:round;stroke-dasharray:none;stroke-opacity:1"
         d="m 21.732224,116.7807 h 3.939404"
         id="path514" />
      <path
         style="fill:none;fill-rule:evenodd;stroke:#ff80ff;stroke-width:0.3;stroke-linecap:round;stroke-linejoin:round;stroke-dasharray:none;stroke-opacity:1"
         d="m 23.045358,116.7807 v 5.25254"
         id="path516" />
      <path
         style="fill:none;fill-rule:evenodd;stroke:#ff80ff;stroke-width:0.3;stroke-linecap:round;stroke-linejoin:round;stroke-dasharray:none;stroke-opacity:1"
         d="m 24.358493,116.7807 v 5.25254"
         id="path518" />
      <path
         style="fill:none;fill-rule:evenodd;stroke:#ff80bf;stroke-width:0.3;stroke-linecap:round;stroke-linejoin:round;stroke-dasharray:none;stroke-opacity:1"
         d="m 28.297898,116.7807 -2.62627,1.31313 2.62627,1.31314 -2.62627,1.31313 2.62627,1.31314"
         id="path520" />
      <path
         style="fill:none;fill-rule:evenodd;stroke:#7fff7f;stroke-width:0.3;stroke-linecap:round;stroke-linejoin:round;stroke-dasharray:none;stroke-opacity:1"
         d="M 9.3319214,119.40697 H 10.714956"
         id="path630" />
    </g>
  </g>
  <g
     inkscape:groupmode="layer"
     id="layer4"
     inkscape:label="Text"
     style="display:none">
    <text
       xml:space="preserve"
       style="font-size:4.35088px;line-height:125%;font-family:sans-serif;letter-spacing:0px;word-spacing:0px;fill:#ffffff;fill-opacity:1;stroke:none;stroke-width:0.135965px;stroke-linecap:butt;stroke-linejoin:miter;stroke-opacity:1"
       x="85.89901"
       y="120.4095"
       id="text3"><tspan
         sodipodi:role="line"
         id="tspan3"
         style="font-style:italic;font-variant:normal;font-weight:300;font-stretch:normal;font-family:Ubuntu;-inkscape-font-specification:'Ubuntu Light Italic';fill:#ffffff;fill-opacity:1;stroke:none;stroke-width:0.135965px"
         x="85.89901"
         y="120.4095">Microcosm</tspan></text>
    <text
       xml:space="preserve"
       style="font-size:4.09016px;line-height:125%;font-family:sans-serif;letter-spacing:0px;word-spacing:0px;fill:#ff70ff;fill-opacity:1;stroke:none;stroke-width:0.127817px;stroke-linecap:butt;stroke-linejoin:miter;stroke-opacity:1"
       x="4.7937069"
       y="122.01543"
       id="text4"><tspan
         sodipodi:role="line"
         id="tspan4"
         style="font-style:normal;font-variant:normal;font-weight:normal;font-stretch:normal;font-family:'Ubuntu Condensed';-inkscape-font-specification:'Ubuntu Condensed, ';fill:#ff70ff;fill-opacity:1;stroke:none;stroke-width:0.127817px"
         x="4.7937069"
         y="122.01543">Clock</tspan></text>
    <text
       xml:space="preserve"
       style="font-size:4.09016px;line-height:125%;font-family:sans-serif;letter-spacing:0px;word-spacing:0px;fill:#ff70ff;fill-opacity:1;stroke:none;stroke-width:0.127817px;stroke-linecap:butt;stroke-linejoin:miter;stroke-opacity:1"
       x="18.864939"
       y="122.01543"
       id="text4-8"><tspan
         sodipodi:role="line"
         id="tspan4-9"
         style="font-style:normal;font-variant:normal;font-weight:normal;font-stretch:normal;font-family:'Ubuntu Condensed';-inkscape-font-specification:'Ubuntu Condensed, ';fill:#ff70ff;fill-opacity:1;stroke:none;stroke-width:0.127817px"
         x="18.864939"
         y="122.01543">Save</tspan></text>
    <text
       xml:space="preserve"
       style="font-size:4.09016px;line-height:125%;font-family:sans-serif;letter-spacing:0px;word-spacing:0px;fill:#ff70ff;fill-opacity:1;stroke:none;stroke-width:0.127817px;stroke-linecap:butt;stroke-linejoin:miter;stroke-opacity:1"
       x="33.140686"
       y="122.01543"
       id="text4-8-6"><tspan
         sodipodi:role="line"
         id="tspan4-9-4"
         style="font-style:normal;font-variant:normal;font-weight:normal;font-stretch:normal;font-family:'Ubuntu Condensed';-inkscape-font-specification:'Ubuntu Condensed, ';fill:#ff70ff;fill-opacity:1;stroke:none;stroke-width:0.127817px"
         x="33.140686"
         y="122.01543">Restore</tspan></text>
    <text
       xml:space="preserve"
       style="font-size:4.09016px;line-height:125%;font-family:sans-serif;letter-spacing:0px;word-spacing:0px;fill:#ff70ff;fill-opacity:1;stroke:none;stroke-width:0.127817px;stroke-linecap:butt;stroke-linejoin:miter;stroke-opacity:1"
       x="49.410389"
       y="122.17087"
       id="text4-8-6-3"><tspan
         sodipodi:role="line"
         id="tspan4-9-4-3"
         style="font-style:normal;font-variant:normal;font-weight:normal;font-stretch:normal;font-family:'Ubuntu Condensed';-inkscape-font-specification:'Ubuntu Condensed, ';fill:#ff70ff;fill-opacity:1;stroke:none;stroke-width:0.127817px"
         x="49.410389"
         y="122.17087">Random</tspan></text>
    <text
       xml:space="preserve"
       style="font-size:4.09016px;line-height:125%;font-family:sans-serif;letter-spacing:0px;word-spacing:0px;fill:#ff70ff;fill-opacity:1;stroke:none;stroke-width:0.127817px;stroke-linecap:butt;stroke-linejoin:miter;stroke-opacity:1"
       x="68.387779"
       y="122.16677"
       id="text4-8-6-3-3"><tspan
         sodipodi:role="line"
         id="tspan4-9-4-3-8"
         style="font-style:normal;font-variant:normal;font-weight:normal;font-stretch:normal;font-family:'Ubuntu Condensed';-inkscape-font-specification:'Ubuntu Condensed, ';fill:#ff70ff;fill-opacity:1;stroke:none;stroke-width:0.127817px"
         x="68.387779"
         y="122.16677">Clear</tspan></text>
  </g>
  <g
     inkscape:groupmode="layer"
     id="g10"
     inkscape:label="Text copy"
     sodipodi:insensitive="true">
    <path
       style="font-style:italic;font-weight:300;font-size:4.35088px;line-height:125%;font-family:Ubuntu;-inkscape-font-specification:'Ubuntu Light Italic';letter-spacing:0px;word-spacing:0px;fill:#ffffff;stroke-width:0.135965px"
       d="m 86.194873,120.4095 q 0.221895,-0.81361 0.461193,-1.57502 0.243649,-0.7614 0.465544,-1.44014 h 0.29586 q 0.06526,0.26105 0.130527,0.55691 0.06961,0.29586 0.130526,0.59607 0.06091,0.29586 0.108772,0.57867 0.05221,0.27846 0.08702,0.50905 0.160982,-0.248 0.361123,-0.54821 0.20014,-0.30456 0.404632,-0.60912 0.204491,-0.30456 0.400281,-0.58737 0.195789,-0.28281 0.352421,-0.496 h 0.304561 q -0.03916,0.39593 -0.09137,0.77446 -0.05221,0.37417 -0.113123,0.744 -0.05656,0.36982 -0.126175,0.744 -0.06526,0.36982 -0.139229,0.7527 h -0.304561 q 0.152281,-0.70919 0.261053,-1.35312 0.113122,-0.64393 0.195789,-1.21825 -0.06526,0.0827 -0.182737,0.248 -0.113123,0.16098 -0.252351,0.36547 -0.139228,0.2045 -0.291509,0.43074 -0.14793,0.22625 -0.287158,0.43944 -0.139228,0.20884 -0.252351,0.38288 -0.113123,0.16968 -0.174035,0.26975 h -0.261053 q -0.0174,-0.12182 -0.04786,-0.30021 -0.03046,-0.17838 -0.06961,-0.38288 -0.03481,-0.20449 -0.07832,-0.42203 -0.03916,-0.21755 -0.08267,-0.41334 -0.03916,-0.20014 -0.07832,-0.36112 -0.03481,-0.16098 -0.06091,-0.26105 -0.191439,0.57432 -0.387229,1.2313 -0.195789,0.65698 -0.382877,1.34442 z m 4.224702,-2.2494 h 0.282807 l -0.54386,2.2494 h -0.282807 z m 0.113123,-0.65699 q 0,-0.11312 0.06091,-0.16968 0.06526,-0.0609 0.139228,-0.0609 0.08702,0 0.134877,0.0566 0.04786,0.0522 0.04786,0.13923 0,0.10442 -0.06961,0.16098 -0.06961,0.0566 -0.139228,0.0566 -0.08702,0 -0.130527,-0.0479 -0.04351,-0.0522 -0.04351,-0.13488 z m 1.896986,2.79762 q -0.08702,0.0566 -0.269754,0.10877 -0.178387,0.0522 -0.400281,0.0522 -0.395931,0 -0.596071,-0.22625 -0.200141,-0.22624 -0.200141,-0.62217 0,-0.29586 0.09137,-0.56562 0.09137,-0.2741 0.265404,-0.48294 0.178386,-0.20885 0.435088,-0.33067 0.256702,-0.12618 0.583018,-0.12618 0.226245,0 0.44814,0.074 l -0.117474,0.2567 q -0.10007,-0.0392 -0.20014,-0.0522 -0.09572,-0.0174 -0.187088,-0.0174 -0.230596,0 -0.422035,0.10007 -0.187088,0.0957 -0.321965,0.2654 -0.134878,0.16533 -0.208843,0.38723 -0.07397,0.21754 -0.07397,0.46119 0,0.28716 0.130527,0.45249 0.134877,0.16534 0.426386,0.16534 0.09137,0 0.182737,-0.0174 0.09572,-0.0174 0.174035,-0.0392 0.07832,-0.0261 0.139228,-0.0522 0.06091,-0.0261 0.09137,-0.0479 z m 0.961544,-2.04056 q 0.165334,-0.0653 0.361123,-0.10878 0.200141,-0.0435 0.391579,-0.0435 0.100071,0 0.191439,0.0131 0.09137,0.013 0.174035,0.0435 l -0.07396,0.2567 q -0.169684,-0.0522 -0.34807,-0.0522 -0.113123,0 -0.226246,0.0174 -0.113123,0.0174 -0.226246,0.0522 l -0.474245,1.97095 h -0.282808 z m 1.431436,1.42708 q 0,0.25671 0.143579,0.38723 0.143579,0.13053 0.34372,0.13053 0.156632,0 0.321965,-0.0783 0.165333,-0.0827 0.300211,-0.24365 0.139228,-0.16533 0.226245,-0.41333 0.09137,-0.248 0.09137,-0.58302 0,-0.2567 -0.143579,-0.38723 -0.143579,-0.13052 -0.34372,-0.13052 -0.156631,0 -0.321965,0.0827 -0.165333,0.0783 -0.304561,0.24365 -0.134878,0.16099 -0.226246,0.40899 -0.08702,0.248 -0.08702,0.58301 z m 1.714247,-0.82231 q 0,0.40898 -0.117474,0.70919 -0.113123,0.30021 -0.29586,0.50035 -0.178386,0.19579 -0.400281,0.29151 -0.217544,0.0957 -0.430737,0.0957 -0.15228,0 -0.291509,-0.0479 -0.134877,-0.0479 -0.239298,-0.14358 -0.104421,-0.0957 -0.165334,-0.23495 -0.06091,-0.14357 -0.06091,-0.33066 0,-0.40899 0.113123,-0.7092 0.117474,-0.30021 0.29586,-0.496 0.182737,-0.19579 0.400281,-0.29151 0.221895,-0.0957 0.435088,-0.0957 0.152281,0 0.287158,0.0479 0.139228,0.0478 0.243649,0.14357 0.104421,0.0957 0.165334,0.2393 0.06091,0.13923 0.06091,0.32197 z m 1.753409,1.43579 q -0.08702,0.0566 -0.269754,0.10877 -0.178386,0.0522 -0.400281,0.0522 -0.39593,0 -0.596071,-0.22625 -0.20014,-0.22624 -0.20014,-0.62217 0,-0.29586 0.09137,-0.56562 0.09137,-0.2741 0.265404,-0.48294 0.178386,-0.20885 0.435088,-0.33067 0.256702,-0.12618 0.583018,-0.12618 0.226246,0 0.44814,0.074 l -0.117473,0.2567 q -0.100071,-0.0392 -0.200141,-0.0522 -0.09572,-0.0174 -0.187088,-0.0174 -0.230596,0 -0.422035,0.10007 -0.187088,0.0957 -0.321965,0.2654 -0.134877,0.16533 -0.208842,0.38723 -0.07397,0.21754 -0.07397,0.46119 0,0.28716 0.130526,0.45249 0.134877,0.16534 0.426386,0.16534 0.09137,0 0.182737,-0.0174 0.09572,-0.0174 0.174036,-0.0392 0.07831,-0.0261 0.139228,-0.0522 0.06091,-0.0261 0.09137,-0.0479 z m 0.752704,-0.61348 q 0,0.25671 0.143579,0.38723 0.143579,0.13053 0.34372,0.13053 0.156631,0 0.321965,-0.0783 0.165332,-0.0827 0.300212,-0.24365 0.13923,-0.16533 0.22624,-0.41333 0.0914,-0.248 0.0914,-0.58302 0,-0.2567 -0.14357,-0.38723 -0.14358,-0.13052 -0.343725,-0.13052 -0.156632,0 -0.321965,0.0827 -0.165333,0.0783 -0.304562,0.24365 -0.134877,0.16099 -0.226245,0.40899 -0.08702,0.248 -0.08702,0.58301 z m 1.714246,-0.82231 q 0,0.40898 -0.11747,0.70919 -0.11313,0.30021 -0.29586,0.50035 -0.17839,0.19579 -0.400284,0.29151 -0.217544,0.0957 -0.430737,0.0957 -0.152281,0 -0.291509,-0.0479 -0.134877,-0.0479 -0.239298,-0.14358 -0.104421,-0.0957 -0.165334,-0.23495 -0.06091,-0.14357 -0.06091,-0.33066 0,-0.40899 0.113123,-0.7092 0.117474,-0.30021 0.29586,-0.496 0.182737,-0.19579 0.400281,-0.29151 0.221895,-0.0957 0.435088,-0.0957 0.15228,0 0.28716,0.0479 0.13923,0.0478 0.24365,0.14357 0.10442,0.0957 0.16533,0.2393 0.0609,0.13923 0.0609,0.32197 z m 0.19144,1.18779 q 0.16099,0.087 0.28281,0.11747 0.12183,0.0305 0.27411,0.0305 0.10877,0 0.20884,-0.0218 0.10007,-0.0261 0.17403,-0.074 0.074,-0.0479 0.11748,-0.12618 0.0435,-0.0783 0.0435,-0.18273 0,-0.11313 -0.0653,-0.18709 -0.0609,-0.074 -0.15663,-0.12618 -0.0914,-0.0566 -0.20014,-0.10877 -0.10877,-0.0522 -0.20449,-0.12182 -0.0914,-0.0696 -0.15663,-0.17404 -0.0609,-0.10442 -0.0609,-0.26975 0,-0.18709 0.0696,-0.31762 0.0696,-0.13488 0.18709,-0.21754 0.11747,-0.087 0.26975,-0.12618 0.15228,-0.0392 0.31326,-0.0392 0.13923,0 0.27411,0.0261 0.13923,0.0217 0.2654,0.0696 l -0.11312,0.25235 q -0.0914,-0.0392 -0.20884,-0.0609 -0.11747,-0.0261 -0.24365,-0.0261 -0.10442,0 -0.20449,0.0218 -0.0957,0.0218 -0.16969,0.074 -0.074,0.0479 -0.12182,0.12617 -0.0435,0.074 -0.0435,0.18274 0,0.11312 0.0609,0.18709 0.0653,0.074 0.15663,0.13052 0.0914,0.0566 0.20015,0.10878 0.11312,0.0479 0.20449,0.11747 0.0914,0.0696 0.15228,0.16968 0.0653,0.0957 0.0653,0.248 0,0.19144 -0.074,0.33067 -0.0696,0.13923 -0.18709,0.22625 -0.11748,0.087 -0.26976,0.12617 -0.15228,0.0435 -0.31326,0.0435 -0.16968,0 -0.33939,-0.0392 -0.16968,-0.0348 -0.30891,-0.11312 z m 2.28857,-1.81432 q 0.0653,-0.0217 0.14793,-0.0435 0.0827,-0.0217 0.17403,-0.0392 0.0914,-0.0174 0.18709,-0.0261 0.0957,-0.013 0.18274,-0.013 0.18273,0 0.33066,0.0522 0.15228,0.0479 0.25235,0.17838 0.2219,-0.13052 0.38723,-0.17838 0.16969,-0.0522 0.33067,-0.0522 0.14793,0 0.2741,0.0348 0.13053,0.0305 0.22625,0.10878 0.0957,0.0783 0.15228,0.21319 0.0566,0.13488 0.0566,0.34372 0,0.11312 -0.0174,0.23495 -0.0174,0.11747 -0.0479,0.23929 l -0.26976,1.11818 h -0.2828 l 0.2393,-1.0007 q 0.0348,-0.14358 0.0653,-0.29151 0.0305,-0.14793 0.0305,-0.28281 0,-0.13488 -0.0348,-0.22189 -0.0348,-0.0914 -0.10007,-0.14358 -0.0609,-0.0522 -0.14358,-0.0696 -0.0827,-0.0217 -0.17839,-0.0217 -0.0914,0 -0.2393,0.0348 -0.14357,0.0304 -0.34807,0.16098 0.0261,0.11312 0.0261,0.24365 0,0.11312 -0.0174,0.23495 -0.0174,0.11747 -0.0479,0.23929 l -0.26976,1.11818 h -0.28281 l 0.2393,-1.0007 q 0.0348,-0.14358 0.0653,-0.29151 0.0304,-0.14793 0.0304,-0.28281 0,-0.13488 -0.0348,-0.22189 -0.0348,-0.0914 -0.10007,-0.14358 -0.0609,-0.0522 -0.14357,-0.0696 -0.0827,-0.0217 -0.17839,-0.0217 -0.10007,0 -0.21319,0.0174 -0.11313,0.0174 -0.20885,0.0435 l -0.47424,1.97095 h -0.28281 z"
       id="text5"
       aria-label="Microcosm" />
    <path
       style="font-size:4.09016px;line-height:125%;font-family:'Ubuntu Condensed';-inkscape-font-specification:'Ubuntu Condensed, ';letter-spacing:0px;word-spacing:0px;fill:#ff70ff;stroke-width:0.127817px"
       d="m 6.0493858,122.07678 q -0.4989995,0 -0.7648599,-0.37221 -0.2658604,-0.3722 -0.2658604,-1.14933 0,-0.39675 0.073623,-0.67079 0.077713,-0.27404 0.2126884,-0.44582 0.1349752,-0.17179 0.3190324,-0.24541 0.1840572,-0.0777 0.4008357,-0.0777 0.179967,0 0.3353931,0.0491 0.1554261,0.045 0.2535899,0.11452 l -0.1104343,0.30676 q -0.098164,-0.0654 -0.2126883,-0.10634 -0.1104343,-0.0409 -0.2576801,-0.0409 -0.3272128,0 -0.4744585,0.27404 -0.1472458,0.26995 -0.1472458,0.84257 0,0.57671 0.1554261,0.88756 0.1554261,0.31086 0.5071798,0.31086 0.1676966,0 0.2699506,-0.0409 0.1063441,-0.0409 0.204508,-0.10634 l 0.102254,0.2904 q -0.094074,0.0736 -0.2494998,0.1268 -0.1513359,0.0532 -0.3517537,0.0532 z m 1.5378995,-0.0204 q -0.3026718,-0.008 -0.4335569,-0.14725 -0.1308852,-0.14315 -0.1308852,-0.44992 v -2.55635 l 0.3517538,-0.0614 v 2.62589 q 0,0.14315 0.057262,0.20859 0.057262,0.0614 0.2004179,0.0859 z m 1.816031,-1.11253 q 0,0.25359 -0.044992,0.46219 -0.044992,0.20451 -0.1390655,0.35176 -0.089983,0.14724 -0.2331391,0.22905 -0.1390654,0.0818 -0.3313029,0.0818 -0.1922375,0 -0.3353931,-0.0818 -0.1431556,-0.0818 -0.2372293,-0.22905 -0.089983,-0.14725 -0.1349753,-0.35176 -0.044992,-0.2086 -0.044992,-0.46219 0,-0.2495 0.044992,-0.45809 0.044992,-0.2086 0.1349753,-0.35585 0.094074,-0.15133 0.2372293,-0.23314 0.1431556,-0.0818 0.3353931,-0.0818 0.1922375,0 0.3313029,0.0818 0.1431556,0.0818 0.2331391,0.23314 0.094074,0.14725 0.1390655,0.35585 0.044992,0.20859 0.044992,0.45809 z m -0.3681144,0 q 0,-0.17996 -0.020451,-0.32721 -0.020451,-0.15133 -0.065443,-0.25768 -0.044992,-0.11043 -0.1186147,-0.16769 -0.073623,-0.0614 -0.1758768,-0.0614 -0.1063442,0 -0.1799671,0.0614 -0.069533,0.0573 -0.1186146,0.16769 -0.044992,0.10635 -0.065443,0.25768 -0.020451,0.14725 -0.020451,0.32721 0,0.17997 0.020451,0.33131 0.020451,0.14724 0.065443,0.25359 0.049082,0.10634 0.1186146,0.16769 0.073623,0.0573 0.1799671,0.0573 0.102254,0 0.1758768,-0.0573 0.073623,-0.0613 0.1186147,-0.16769 0.044992,-0.10635 0.065443,-0.25359 0.020451,-0.15134 0.020451,-0.33131 z m 1.5378981,1.1248 q -0.220869,0 -0.368115,-0.0859 -0.147245,-0.0859 -0.2413192,-0.23314 -0.089984,-0.15134 -0.1308851,-0.35585 -0.036811,-0.20451 -0.036811,-0.44583 0,-0.53172 0.1922375,-0.8303 0.1963278,-0.30267 0.5889828,-0.30267 0.118615,0 0.212689,0.0286 0.09407,0.0286 0.175876,0.0736 l -0.08998,0.29041 q -0.126795,-0.0818 -0.282221,-0.0818 -0.220868,0 -0.327212,0.20042 -0.102254,0.20042 -0.102254,0.6217 0,0.17588 0.02045,0.32722 0.02045,0.14724 0.06953,0.25359 0.05317,0.10634 0.134975,0.16769 0.08589,0.0614 0.216778,0.0614 0.08998,0 0.159517,-0.0204 0.07362,-0.0246 0.139065,-0.0614 l 0.07771,0.27404 q -0.06544,0.045 -0.175877,0.0818 -0.106344,0.0368 -0.233139,0.0368 z m 2.118705,-2.20051 q -0.171787,0.29449 -0.331303,0.5399 -0.155426,0.24132 -0.310852,0.45401 0.09816,0.11453 0.200418,0.25768 0.102254,0.14316 0.196327,0.29858 0.09407,0.15134 0.175877,0.30677 0.0818,0.15133 0.139066,0.2904 h -0.384475 q -0.06135,-0.13498 -0.143156,-0.28222 -0.0818,-0.14725 -0.171787,-0.28632 -0.08998,-0.14315 -0.179967,-0.26995 -0.08998,-0.12679 -0.167696,-0.21268 v 1.05117 h -0.351754 v -3.11262 l 0.351754,-0.0614 v 1.95101 q 0.07362,-0.0982 0.155426,-0.22087 0.08589,-0.1227 0.167696,-0.24541 0.0818,-0.12679 0.155427,-0.24541 0.07362,-0.11861 0.122704,-0.21269 z"
       id="text6"
       aria-label="Clock" />
    <path
       style="font-size:4.09016px;line-height:125%;font-family:'Ubuntu Condensed';-inkscape-font-specification:'Ubuntu Condensed, ';letter-spacing:0px;word-spacing:0px;fill:#ff70ff;stroke-width:0.127817px"
       d="m 19.560265,121.76184 q 0.220869,0 0.339484,-0.12271 0.122705,-0.1227 0.122705,-0.3313 0,-0.11044 -0.03681,-0.19633 -0.03681,-0.0859 -0.09816,-0.15542 -0.05726,-0.0695 -0.134975,-0.1268 -0.07771,-0.0573 -0.159516,-0.11452 -0.09407,-0.0654 -0.196328,-0.13907 -0.102254,-0.0736 -0.188147,-0.17179 -0.0818,-0.0982 -0.134976,-0.22905 -0.05317,-0.13088 -0.05317,-0.30676 0,-0.17178 0.05726,-0.31085 0.06135,-0.13906 0.163606,-0.23723 0.106344,-0.0982 0.2495,-0.15133 0.147245,-0.0532 0.314942,-0.0532 0.163606,0 0.302672,0.0409 0.139065,0.0409 0.233139,0.0982 l -0.114524,0.2904 q -0.08589,-0.0573 -0.188148,-0.0859 -0.09816,-0.0327 -0.208598,-0.0327 -0.200418,0 -0.323123,0.11043 -0.118614,0.10634 -0.118614,0.31494 0,0.11453 0.03681,0.20042 0.0409,0.0859 0.102254,0.15543 0.06544,0.0695 0.147246,0.12679 0.08589,0.0573 0.179967,0.11862 0.09407,0.0614 0.192237,0.13497 0.09816,0.0736 0.175877,0.17179 0.0818,0.0941 0.130885,0.22496 0.05317,0.12679 0.05317,0.30267 0,0.15951 -0.04908,0.30267 -0.04908,0.14316 -0.155426,0.25359 -0.102254,0.10634 -0.261771,0.17179 -0.155426,0.0614 -0.368114,0.0614 -0.196328,0 -0.343573,-0.045 -0.147246,-0.045 -0.261771,-0.11862 l 0.114525,-0.29449 q 0.106344,0.0654 0.216778,0.10635 0.114525,0.0368 0.26177,0.0368 z m 1.374295,-1.84876 q 0.106344,-0.045 0.224958,-0.0695 0.118615,-0.0286 0.25768,-0.0286 0.286312,0 0.466279,0.17997 0.179967,0.17587 0.179967,0.55217 v 1.42337 q -0.147246,0.0409 -0.302672,0.0655 -0.151336,0.0245 -0.298582,0.0245 -0.147246,0 -0.278131,-0.0368 -0.126795,-0.0368 -0.224959,-0.11862 -0.09407,-0.0818 -0.151335,-0.20451 -0.05726,-0.12679 -0.05726,-0.30676 0,-0.16769 0.04908,-0.2904 0.05317,-0.12679 0.143156,-0.2086 0.08998,-0.0859 0.212688,-0.12679 0.122705,-0.045 0.265861,-0.045 0.134975,0 0.298581,0.0327 v -0.19633 q 0,-0.23723 -0.09407,-0.3313 -0.08998,-0.0941 -0.261771,-0.0941 -0.09407,0 -0.179967,0.0204 -0.0818,0.0164 -0.175877,0.0573 z m 0.167696,1.47655 q 0,0.18815 0.09816,0.27813 0.09816,0.09 0.278131,0.09 0.110434,0 0.241319,-0.0286 v -0.68306 q -0.122705,-0.0327 -0.241319,-0.0327 -0.07771,0 -0.147246,0.0204 -0.06953,0.0164 -0.122705,0.0614 -0.04908,0.0409 -0.07771,0.11453 -0.02863,0.0695 -0.02863,0.17996 z m 2.032809,0.21269 q 0.04908,-0.16361 0.102254,-0.38447 0.05726,-0.22087 0.110434,-0.45401 0.05317,-0.23723 0.09816,-0.47037 0.04908,-0.23314 0.0818,-0.42538 h 0.351754 q -0.05317,0.26995 -0.126795,0.56853 -0.06953,0.29859 -0.147246,0.58899 -0.07362,0.28631 -0.151336,0.54399 -0.07771,0.25768 -0.143155,0.44583 H 22.94691 q -0.06544,-0.18815 -0.143155,-0.44583 -0.07771,-0.25768 -0.155426,-0.54399 -0.07362,-0.2904 -0.147246,-0.58899 -0.06953,-0.29858 -0.122705,-0.56853 h 0.372205 q 0.03272,0.19224 0.07771,0.42538 0.04908,0.23314 0.09816,0.47037 0.05317,0.23314 0.106344,0.45401 0.05317,0.22086 0.102254,0.38447 z m 1.325208,-0.55626 q 0.0041,0.15542 0.02863,0.28631 0.02454,0.12679 0.07771,0.22496 0.05726,0.0941 0.147246,0.14724 0.09407,0.0532 0.237229,0.0532 0.118615,0 0.216779,-0.0327 0.102254,-0.0368 0.147245,-0.0614 l 0.06544,0.28222 q -0.05317,0.0368 -0.179967,0.0777 -0.122705,0.045 -0.294492,0.045 -0.224959,0 -0.380385,-0.0818 -0.151335,-0.0818 -0.249499,-0.22905 -0.09407,-0.14725 -0.134976,-0.35176 -0.0409,-0.20451 -0.0409,-0.44991 0,-0.59308 0.196327,-0.86712 0.196328,-0.27404 0.519451,-0.27404 0.364024,0 0.51536,0.27404 0.151336,0.27404 0.151336,0.76895 0,0.045 0,0.0941 0,0.045 -0.0041,0.0941 z m 0.355844,-0.93256 q -0.175877,0 -0.25768,0.17588 -0.07771,0.17588 -0.09407,0.47037 h 0.650335 q 0,-0.29858 -0.06135,-0.47037 -0.06135,-0.17588 -0.237229,-0.17588 z"
       id="text7"
       aria-label="Save" />
    <path
       style="font-size:4.09016px;line-height:125%;font-family:'Ubuntu Condensed';-inkscape-font-specification:'Ubuntu Condensed, ';letter-spacing:0px;word-spacing:0px;fill:#ff70ff;stroke-width:0.127817px"
       d="m 33.484261,119.22185 q 0.286311,-0.0695 0.552172,-0.0695 0.212688,0 0.384475,0.0491 0.171786,0.0491 0.294491,0.15542 0.122705,0.10635 0.188147,0.27404 0.06953,0.1677 0.06953,0.40493 0,0.29449 -0.114524,0.47855 -0.110435,0.17996 -0.302672,0.27404 0.04908,0.0818 0.122705,0.22496 0.07771,0.13906 0.155426,0.31085 0.0818,0.1677 0.155426,0.34766 0.07771,0.17997 0.130885,0.34358 H 34.75221 q -0.04499,-0.12271 -0.114524,-0.27813 -0.06544,-0.15543 -0.139065,-0.30677 -0.07362,-0.15542 -0.147246,-0.29449 -0.07362,-0.14315 -0.130885,-0.24132 -0.06544,0.008 -0.134976,0.0123 -0.06953,0.004 -0.139065,0.004 h -0.102254 v 1.10435 h -0.359934 z m 0.359934,1.38656 h 0.155426 q 0.282221,0 0.433557,-0.12679 0.151336,-0.13089 0.151336,-0.44583 0,-0.15952 -0.0409,-0.26586 -0.03681,-0.11044 -0.110434,-0.17179 -0.06953,-0.0654 -0.171787,-0.0941 -0.09816,-0.0286 -0.220868,-0.0286 -0.106344,0 -0.196328,0.0123 z m 1.877381,0.43765 q 0.0041,0.15542 0.02863,0.28631 0.02454,0.12679 0.07771,0.22496 0.05726,0.0941 0.147246,0.14724 0.09407,0.0532 0.237229,0.0532 0.118615,0 0.216779,-0.0327 0.102254,-0.0368 0.147246,-0.0614 l 0.06544,0.28222 q -0.05317,0.0368 -0.179967,0.0777 -0.122705,0.045 -0.294491,0.045 -0.224959,0 -0.380385,-0.0818 -0.151336,-0.0818 -0.2495,-0.22905 -0.09407,-0.14725 -0.134975,-0.35176 -0.0409,-0.20451 -0.0409,-0.44991 0,-0.59308 0.196328,-0.86712 0.196328,-0.27404 0.51945,-0.27404 0.364024,0 0.51536,0.27404 0.151336,0.27404 0.151336,0.76895 0,0.045 0,0.0941 0,0.045 -0.0041,0.0941 z m 0.355844,-0.93256 q -0.175877,0 -0.25768,0.17588 -0.07771,0.17588 -0.09407,0.47037 h 0.650336 q 0,-0.29858 -0.06135,-0.47037 -0.06135,-0.17588 -0.237229,-0.17588 z m 1.484732,1.65243 q 0.155426,0 0.233139,-0.0859 0.0818,-0.09 0.0818,-0.23314 0,-0.09 -0.03272,-0.15133 -0.03272,-0.0654 -0.08589,-0.11453 -0.05317,-0.0491 -0.122705,-0.0859 -0.06953,-0.0409 -0.139065,-0.0859 -0.06953,-0.0409 -0.134975,-0.0941 -0.06544,-0.0573 -0.118615,-0.12679 -0.04908,-0.0736 -0.0818,-0.16361 -0.02863,-0.0941 -0.02863,-0.21678 0,-0.26586 0.163606,-0.42946 0.167697,-0.16361 0.449918,-0.16361 0.118614,0 0.224959,0.0327 0.106344,0.0286 0.175876,0.0654 l -0.07771,0.28223 q -0.07362,-0.0409 -0.147245,-0.0614 -0.07362,-0.0204 -0.159517,-0.0204 -0.130885,0 -0.208598,0.0777 -0.07771,0.0736 -0.07771,0.21677 0,0.0818 0.02863,0.14316 0.02863,0.0573 0.07362,0.10634 0.04908,0.045 0.106344,0.0859 0.06135,0.0409 0.126795,0.0777 0.07771,0.045 0.151336,0.0982 0.07771,0.0532 0.134976,0.1268 0.06135,0.0695 0.09816,0.1677 0.03681,0.0941 0.03681,0.22904 0,0.28223 -0.167697,0.45401 -0.163606,0.17179 -0.482639,0.17179 -0.163606,0 -0.294491,-0.045 -0.130885,-0.045 -0.196328,-0.0818 l 0.07362,-0.2904 q 0.06135,0.0327 0.163606,0.0736 0.106345,0.0409 0.23314,0.0409 z m 1.423373,-1.89784 h 0.539902 v 0.30267 h -0.539902 v 1.18206 q 0,0.22087 0.07771,0.31085 0.0818,0.0859 0.216779,0.0859 0.06953,0 0.130885,-0.0205 0.06544,-0.0205 0.110434,-0.0491 l 0.06953,0.28222 q -0.167696,0.0982 -0.355844,0.0982 -0.302672,0 -0.454008,-0.1677 -0.147245,-0.17178 -0.147245,-0.56444 v -2.0369 l 0.351753,-0.0614 z m 2.343662,1.07571 q 0,0.25359 -0.04499,0.46219 -0.04499,0.20451 -0.139065,0.35176 -0.08998,0.14724 -0.233139,0.22905 -0.139066,0.0818 -0.331303,0.0818 -0.192238,0 -0.335393,-0.0818 -0.143156,-0.0818 -0.23723,-0.22905 -0.08998,-0.14725 -0.134975,-0.35176 -0.04499,-0.2086 -0.04499,-0.46219 0,-0.2495 0.04499,-0.45809 0.04499,-0.2086 0.134975,-0.35585 0.09407,-0.15133 0.23723,-0.23314 0.143155,-0.0818 0.335393,-0.0818 0.192237,0 0.331303,0.0818 0.143155,0.0818 0.233139,0.23314 0.09407,0.14725 0.139065,0.35585 0.04499,0.20859 0.04499,0.45809 z m -0.368114,0 q 0,-0.17996 -0.02045,-0.32721 -0.02045,-0.15133 -0.06544,-0.25768 -0.04499,-0.11043 -0.118614,-0.16769 -0.07362,-0.0614 -0.175877,-0.0614 -0.106344,0 -0.179967,0.0614 -0.06953,0.0573 -0.118615,0.16769 -0.04499,0.10635 -0.06544,0.25768 -0.02045,0.14725 -0.02045,0.32721 0,0.17997 0.02045,0.33131 0.02045,0.14724 0.06544,0.25359 0.04908,0.10634 0.118615,0.16769 0.07362,0.0573 0.179967,0.0573 0.102254,0 0.175877,-0.0573 0.07362,-0.0613 0.118614,-0.16769 0.04499,-0.10635 0.06544,-0.25359 0.02045,-0.15134 0.02045,-0.33131 z m 1.811938,-0.75667 q -0.130885,-0.0573 -0.294492,-0.0573 -0.151335,0 -0.282221,0.0532 v 1.83239 h -0.351753 v -2.05326 q 0.118614,-0.0573 0.26995,-0.0941 0.155426,-0.0409 0.339484,-0.0409 0.09816,0 0.196327,0.0123 0.09816,0.0123 0.184057,0.045 z m 0.613519,0.85893 q 0.0041,0.15542 0.02863,0.28631 0.02454,0.12679 0.07771,0.22496 0.05726,0.0941 0.147246,0.14724 0.09407,0.0532 0.237229,0.0532 0.118615,0 0.216779,-0.0327 0.102254,-0.0368 0.147245,-0.0614 l 0.06544,0.28222 q -0.05317,0.0368 -0.179967,0.0777 -0.122705,0.045 -0.294492,0.045 -0.224958,0 -0.380384,-0.0818 -0.151336,-0.0818 -0.2495,-0.22905 -0.09407,-0.14725 -0.134975,-0.35176 -0.0409,-0.20451 -0.0409,-0.44991 0,-0.59308 0.196328,-0.86712 0.196327,-0.27404 0.51945,-0.27404 0.364024,0 0.51536,0.27404 0.151336,0.27404 0.151336,0.76895 0,0.045 0,0.0941 0,0.045 -0.0041,0.0941 z m 0.355844,-0.93256 q -0.175877,0 -0.25768,0.17588 -0.07771,0.17588 -0.09407,0.47037 h 0.650336 q 0,-0.29858 -0.06135,-0.47037 -0.06135,-0.17588 -0.237229,-0.17588 z"
       id="text8"
       aria-label="Restore" />
    <path
       style="font-size:4.09016px;line-height:125%;font-family:'Ubuntu Condensed';-inkscape-font-specification:'Ubuntu Condensed, ';letter-spacing:0px;word-spacing:0px;fill:#ff70ff;stroke-width:0.127817px"
       d="m 49.753962,119.37729 q 0.286311,-0.0695 0.552172,-0.0695 0.212688,0 0.384475,0.0491 0.171786,0.0491 0.294491,0.15542 0.122705,0.10635 0.188147,0.27404 0.06953,0.1677 0.06953,0.40493 0,0.29449 -0.114524,0.47855 -0.110435,0.17997 -0.302672,0.27404 0.04908,0.0818 0.122705,0.22496 0.07771,0.13906 0.155426,0.31085 0.0818,0.1677 0.155426,0.34766 0.07771,0.17997 0.130885,0.34358 h -0.368115 q -0.04499,-0.12271 -0.114524,-0.27813 -0.06544,-0.15543 -0.139065,-0.30676 -0.07362,-0.15543 -0.147246,-0.2945 -0.07362,-0.14315 -0.130885,-0.24132 -0.06544,0.008 -0.134976,0.0123 -0.06953,0.004 -0.139065,0.004 h -0.102254 v 1.10435 h -0.359934 z m 0.359934,1.38656 h 0.155426 q 0.282221,0 0.433557,-0.12679 0.151336,-0.13089 0.151336,-0.44583 0,-0.15952 -0.0409,-0.26586 -0.03681,-0.11043 -0.110434,-0.17179 -0.06953,-0.0654 -0.171787,-0.0941 -0.09816,-0.0286 -0.220868,-0.0286 -0.106344,0 -0.196328,0.0123 z m 1.709686,-0.69532 q 0.106344,-0.045 0.224959,-0.0695 0.118614,-0.0286 0.25768,-0.0286 0.286311,0 0.466278,0.17997 0.179967,0.17588 0.179967,0.55217 v 1.42338 q -0.147246,0.0409 -0.302672,0.0654 -0.151336,0.0245 -0.298582,0.0245 -0.147245,0 -0.27813,-0.0368 -0.126795,-0.0368 -0.224959,-0.11862 -0.09407,-0.0818 -0.151336,-0.2045 -0.05726,-0.1268 -0.05726,-0.30677 0,-0.16769 0.04908,-0.2904 0.05317,-0.12679 0.143156,-0.2086 0.08998,-0.0859 0.212688,-0.12679 0.122705,-0.045 0.265861,-0.045 0.134975,0 0.298581,0.0327 v -0.19633 q 0,-0.23723 -0.09407,-0.3313 -0.08998,-0.0941 -0.26177,-0.0941 -0.09407,0 -0.179967,0.0205 -0.0818,0.0164 -0.175877,0.0573 z m 0.167696,1.47654 q 0,0.18815 0.09816,0.27813 0.09816,0.09 0.278131,0.09 0.110434,0 0.241319,-0.0286 v -0.68306 q -0.122704,-0.0327 -0.241319,-0.0327 -0.07771,0 -0.147246,0.0204 -0.06953,0.0164 -0.122705,0.0614 -0.04908,0.0409 -0.07771,0.11453 -0.02863,0.0695 -0.02863,0.17996 z m 1.574712,-1.46018 q 0.151336,-0.045 0.327213,-0.0736 0.175876,-0.0327 0.323122,-0.0327 0.159516,0 0.290402,0.045 0.130885,0.0409 0.220868,0.14316 0.09407,0.10225 0.143156,0.27813 0.05317,0.17179 0.05317,0.42947 v 1.29658 h -0.351754 v -1.26795 q 0,-0.31903 -0.0818,-0.46628 -0.0818,-0.14725 -0.306762,-0.14725 -0.118615,0 -0.26586,0.0409 v 1.84057 H 53.56599 Z m 2.895834,0.26177 q -0.118614,-0.0654 -0.25359,-0.0654 -0.102254,0 -0.179967,0.0409 -0.07771,0.0409 -0.134975,0.13497 -0.05317,0.0941 -0.0818,0.2495 -0.02863,0.15543 -0.02863,0.38448 0,0.44173 0.114524,0.63397 0.118615,0.18815 0.355844,0.18815 0.04499,0 0.09816,-0.004 0.05317,-0.008 0.110434,-0.0245 z m 0,-1.2884 0.351754,-0.0614 v 3.11671 q -0.114524,0.0491 -0.26177,0.0777 -0.147246,0.0327 -0.298582,0.0327 -0.441737,0 -0.642155,-0.28222 -0.196328,-0.28222 -0.196328,-0.85075 0,-0.25768 0.0409,-0.46219 0.04499,-0.2086 0.134975,-0.35176 0.09407,-0.14724 0.23723,-0.22495 0.143155,-0.0818 0.339483,-0.0818 0.09407,0 0.159516,0.0204 0.06953,0.0164 0.134975,0.0491 z m 2.364117,2.04099 q 0,0.25359 -0.04499,0.46218 -0.04499,0.20451 -0.139066,0.35176 -0.08998,0.14724 -0.233139,0.22905 -0.139065,0.0818 -0.331303,0.0818 -0.192237,0 -0.335393,-0.0818 -0.143155,-0.0818 -0.237229,-0.22905 -0.08998,-0.14725 -0.134975,-0.35176 -0.04499,-0.20859 -0.04499,-0.46218 0,-0.2495 0.04499,-0.4581 0.04499,-0.2086 0.134975,-0.35585 0.09407,-0.15133 0.237229,-0.23313 0.143156,-0.0818 0.335393,-0.0818 0.192238,0 0.331303,0.0818 0.143156,0.0818 0.233139,0.23313 0.09407,0.14725 0.139066,0.35585 0.04499,0.2086 0.04499,0.4581 z m -0.368115,0 q 0,-0.17997 -0.02045,-0.32722 -0.02045,-0.15133 -0.06544,-0.25768 -0.04499,-0.11043 -0.118615,-0.16769 -0.07362,-0.0614 -0.175877,-0.0614 -0.106344,0 -0.179967,0.0614 -0.06953,0.0573 -0.118614,0.16769 -0.04499,0.10635 -0.06544,0.25768 -0.02045,0.14725 -0.02045,0.32722 0,0.17996 0.02045,0.3313 0.02045,0.14724 0.06544,0.25359 0.04908,0.10634 0.118614,0.1677 0.07362,0.0573 0.179967,0.0573 0.102254,0 0.175877,-0.0573 0.07362,-0.0614 0.118615,-0.1677 0.04499,-0.10635 0.06544,-0.25359 0.02045,-0.15134 0.02045,-0.3313 z m 0.883472,-1.01436 q 0.143156,-0.045 0.310853,-0.0736 0.167696,-0.0327 0.306762,-0.0327 0.143155,0 0.25768,0.0368 0.118614,0.0368 0.208598,0.12271 0.106344,-0.0695 0.229049,-0.11453 0.122705,-0.045 0.26995,-0.045 0.147246,0 0.265861,0.045 0.122704,0.0409 0.208598,0.14316 0.08589,0.10225 0.134975,0.27813 0.04908,0.17179 0.04908,0.42947 v 1.29658 H 61.23095 v -1.26795 q 0,-0.31903 -0.07362,-0.46628 -0.07362,-0.14725 -0.27813,-0.14725 -0.07771,0 -0.159517,0.0286 -0.07771,0.0286 -0.147245,0.0777 0.03272,0.0941 0.04908,0.21269 0.01636,0.11861 0.01636,0.26586 v 1.29658 h -0.351754 v -1.26795 q 0,-0.31903 -0.07362,-0.46628 -0.07362,-0.14725 -0.27813,-0.14725 -0.106345,0 -0.24132,0.0409 v 1.84057 H 59.3413 Z"
       id="text9"
       aria-label="Random" />
    <path
       style="font-size:4.09016px;line-height:125%;font-family:'Ubuntu Condensed';-inkscape-font-specification:'Ubuntu Condensed, ';letter-spacing:0px;word-spacing:0px;fill:#ff70ff;stroke-width:0.127817px"
       d="m 69.643462,122.22812 q -0.499,0 -0.76486,-0.3722 -0.265861,-0.37221 -0.265861,-1.14934 0,-0.39674 0.07362,-0.67078 0.07771,-0.27404 0.212689,-0.44583 0.134975,-0.17179 0.319032,-0.24541 0.184057,-0.0777 0.400836,-0.0777 0.179967,0 0.335393,0.0491 0.155426,0.045 0.25359,0.11452 l -0.110435,0.30677 q -0.09816,-0.0654 -0.212688,-0.10635 -0.110434,-0.0409 -0.25768,-0.0409 -0.327213,0 -0.474459,0.27404 -0.147245,0.26995 -0.147245,0.84257 0,0.57672 0.155426,0.88757 0.155426,0.31085 0.50718,0.31085 0.167696,0 0.26995,-0.0409 0.106344,-0.0409 0.204508,-0.10635 l 0.102254,0.29041 q -0.09407,0.0736 -0.2495,0.12679 -0.151335,0.0532 -0.351753,0.0532 z m 1.537899,-0.0205 q -0.302672,-0.008 -0.433557,-0.14724 -0.130885,-0.14316 -0.130885,-0.44992 v -2.55635 l 0.351754,-0.0613 v 2.62588 q 0,0.14316 0.05726,0.2086 0.05726,0.0613 0.200418,0.0859 z m 0.678967,-1.01027 q 0.0041,0.15543 0.02863,0.28631 0.02454,0.1268 0.07771,0.22496 0.05726,0.0941 0.147246,0.14725 0.09407,0.0532 0.237229,0.0532 0.118615,0 0.216778,-0.0327 0.102254,-0.0368 0.147246,-0.0613 l 0.06544,0.28222 q -0.05317,0.0368 -0.179967,0.0777 -0.122705,0.045 -0.294492,0.045 -0.224959,0 -0.380385,-0.0818 -0.151336,-0.0818 -0.249499,-0.22905 -0.09407,-0.14724 -0.134976,-0.35175 -0.0409,-0.20451 -0.0409,-0.44992 0,-0.59307 0.196327,-0.86711 0.196328,-0.27405 0.519451,-0.27405 0.364024,0 0.51536,0.27405 0.151336,0.27404 0.151336,0.76895 0,0.045 0,0.0941 0,0.045 -0.0041,0.0941 z m 0.355844,-0.93255 q -0.175877,0 -0.25768,0.17587 -0.07771,0.17588 -0.09407,0.47037 h 0.650335 q 0,-0.29858 -0.06135,-0.47037 -0.06135,-0.17587 -0.237229,-0.17587 z m 1.218871,-0.20042 q 0.106344,-0.045 0.224959,-0.0695 0.118614,-0.0286 0.25768,-0.0286 0.286311,0 0.466278,0.17997 0.179967,0.17588 0.179967,0.55217 v 1.42338 q -0.147246,0.0409 -0.302672,0.0654 -0.151336,0.0245 -0.298581,0.0245 -0.147246,0 -0.278131,-0.0368 -0.126795,-0.0368 -0.224959,-0.11861 -0.09407,-0.0818 -0.151336,-0.20451 -0.05726,-0.1268 -0.05726,-0.30676 0,-0.1677 0.04908,-0.2904 0.05317,-0.1268 0.143155,-0.2086 0.08998,-0.0859 0.212689,-0.1268 0.122704,-0.045 0.26586,-0.045 0.134975,0 0.298582,0.0327 v -0.19633 q 0,-0.23723 -0.09407,-0.3313 -0.08998,-0.0941 -0.26177,-0.0941 -0.09407,0 -0.179967,0.0204 -0.0818,0.0164 -0.175877,0.0573 z m 0.167696,1.47655 q 0,0.18814 0.09816,0.27813 0.09816,0.09 0.278131,0.09 0.110434,0 0.24132,-0.0286 v -0.68306 q -0.122705,-0.0327 -0.24132,-0.0327 -0.07771,0 -0.147246,0.0204 -0.06953,0.0164 -0.122704,0.0614 -0.04908,0.0409 -0.07771,0.11453 -0.02863,0.0695 -0.02863,0.17997 z m 2.503178,-1.20251 q -0.130885,-0.0573 -0.294491,-0.0573 -0.151336,0 -0.282221,0.0532 v 1.83239 h -0.351754 v -2.05326 q 0.118615,-0.0573 0.269951,-0.0941 0.155426,-0.0409 0.339483,-0.0409 0.09816,0 0.196327,0.0123 0.09816,0.0123 0.184058,0.045 z"
       id="text10"
       aria-label="Clear" />
  </g>
  <g
     inkscape:groupmode="layer"
     id="layer3"
     inkscape:label="components"
     style="display:none">
    <circle
       style="fill:#00ff00;fill-opacity:1;stroke-width:0.167;stroke-linecap:round;stroke-linejoin:round"
       id="path1"
       cx="8.8899994"
       cy="113.56834"
       r="5.0799999"
       inkscape:label="clock" />
    <circle
       style="fill:#00ff00;fill-opacity:1;stroke-width:0.167;stroke-linecap:round;stroke-linejoin:round"
       id="path1-2"
       cx="55.668335"
       cy="113.56834"
       r="5.0799999"
       inkscape:label="random" />
    <circle
       style="fill:#00ff00;fill-opacity:1;stroke-width:0.167;stroke-linecap:round;stroke-linejoin:round"
       id="path1-3"
       cx="72.389999"
       cy="113.56834"
       r="5.0799999"
       inkscape:label="clear" />
    <circle
       style="fill:#ff0000;fill-opacity:1;stroke-width:0.167;stroke-linecap:round;stroke-linejoin:round"
       id="path2"
       cx="80.009995"
       cy="113.56834"
       r="2.54"
       inkscape:label="clear" />
    <circle
       style="fill:#ff0000;fill-opacity:1;stroke-width:0.167;stroke-linecap:round;stroke-linejoin:round"
       id="path3"
       cx="63.288334"
       cy="113.56834"
       r="2.54"
       inkscape:label="random" />
    <circle
       style="fill:#00ff00;fill-opacity:1;stroke-width:0.167;stroke-linecap:round;stroke-linejoin:round"
       id="path1-2-5"
       cx="38.946667"
       cy="113.56834"
       r="5.0799999"
       inkscape:label="restore" />
    <circle
       style="fill:#ff0000;fill-opacity:1;stroke-width:0.167;stroke-linecap:round;stroke-linejoin:round"
       id="path3-9"
       cx="46.566669"
       cy="113.56834"
       r="2.54"
       inkscape:label="restore" />
    <circle
       style="fill:#00ff00;fill-opacity:1;stroke-width:0.167;stroke-linecap:round;stroke-linejoin:round"
       id="path1-2-5-2"
       cx="22.225002"
       cy="113.56834"
       r="5.0799999"
       inkscape:label="save" />
    <circle
       style="fill:#ff0000;fill-opacity:1;stroke-width:0.167;stroke-linecap:round;stroke-linejoin:round"
       id="path3-9-2"
       cx="29.845001"
       cy="113.56834"
       r="2.54"
       inkscape:label="save" />
    <rect
       style="fill:#ffff00;fill-opacity:1;stroke:none;stroke-width:0.1002;stroke-linecap:round;stroke-linejoin:round"
       id="rect10"
       width="7.6200023"
       height="7.6200023"
       x="11.429999"
       y="10.909994" />
    <rect
       style="fill:#ffff00;fill-opacity:1;stroke:none;stroke-width:0.1002;stroke-linecap:round;stroke-linejoin:round"
       id="rect10-0"
       width="7.6200023"
       height="7.6200023"
       x="31.75"
       y="10.909994" />
  </g>
</svg>
