<?xml version="1.0" encoding="UTF-8" standalone="no"?>
<!-- Created with Inkscape (http://www.inkscape.org/) -->

<svg
   width="15.24mm"
   height="128.5mm"
   viewBox="0 0 15.24 128.5"
   version="1.1"
   id="svg1524"
   inkscape:version="1.2.1 (9c6d41e410, 2022-07-14, custom)"
   sodipodi:docname="QAEngineer.svg"
   xmlns:inkscape="http://www.inkscape.org/namespaces/inkscape"
   xmlns:sodipodi="http://sodipodi.sourceforge.net/DTD/sodipodi-0.dtd"
   xmlns="http://www.w3.org/2000/svg"
   xmlns:svg="http://www.w3.org/2000/svg">
  <sodipodi:namedview
     id="namedview1526"
     pagecolor="#ffffff"
     bordercolor="#666666"
     borderopacity="1.0"
     inkscape:pageshadow="2"
     inkscape:pageopacity="0.0"
     inkscape:pagecheckerboard="0"
     inkscape:document-units="mm"
     showgrid="true"
     units="in"
     inkscape:showpageshadow="2"
     inkscape:deskcolor="#d1d1d1"
     inkscape:zoom="1.1794216"
     inkscape:cx="57.65538"
     inkscape:cy="292.51627"
     inkscape:window-width="1920"
     inkscape:window-height="1004"
     inkscape:window-x="0"
     inkscape:window-y="0"
     inkscape:window-maximized="1"
     inkscape:current-layer="layer2">
    <inkscape:grid
       type="xygrid"
       id="grid1608"
       originx="0"
       originy="0" />
  </sodipodi:namedview>
  <defs
     id="defs1521">
    <rect
       x="-176.7616"
       y="197.65146"
       width="96.770982"
       height="36.409925"
       id="rect1241" />
    <rect
       x="-132.38262"
       y="158.12165"
       width="48.131691"
       height="23.275137"
       id="rect576" />
    <rect
       x="-92.44476"
       y="92.630568"
       width="26.99939"
       height="17.914818"
       id="rect570" />
  </defs>
  <g
     inkscape:label="Layer 1"
     inkscape:groupmode="layer"
     id="layer1"
     transform="matrix(1.027965,0,0,1.0016285,-0.10248294,-0.04937123)">
    <rect
       style="fill:#f2f2f2;stroke-width:0.529167"
       id="rect406"
       width="14.825408"
       height="128.29108"
       x="0.099694975"
       y="0.049290963"
       sodipodi:insensitive="true" />
    <g
       aria-label="O.D."
       transform="matrix(0.38764097,0,0,0.39783347,38.601813,-29.449843)"
       id="text568"
       style="font-size:12.5px;line-height:125%;letter-spacing:0px;word-spacing:0px;white-space:pre;shape-inside:url(#rect570);display:inline;stroke-width:1px">
      <path
         d="m -89.807812,99.949512 q 0,0.637498 0.149999,1.149998 0.162501,0.5125 0.45,0.8875 0.3,0.3625 0.725001,0.5625 0.425,0.2 0.975,0.2 0.537499,0 0.9625,-0.2 0.4375,-0.2 0.725,-0.5625 0.299999,-0.375 0.45,-0.8875 0.162499,-0.5125 0.162499,-1.149998 0,-0.6375 -0.162499,-1.15 -0.150001,-0.525 -0.45,-0.8875 -0.2875,-0.375 -0.725,-0.575 -0.425001,-0.2 -0.9625,-0.2 -0.55,0 -0.975,0.2125 -0.425001,0.2 -0.725001,0.575 -0.287499,0.3625 -0.45,0.8875 -0.149999,0.5125 -0.149999,1.1375 z m 6.6125,0 q 0,1.112498 -0.337501,1.962498 -0.324999,0.8375 -0.899999,1.4125 -0.575,0.5625 -1.375,0.85 -0.787501,0.2875 -1.7,0.2875 -0.887501,0 -1.675,-0.2875 -0.787501,-0.2875 -1.375,-0.85 -0.587501,-0.575 -0.925,-1.4125 -0.3375,-0.85 -0.3375,-1.962498 0,-1.1125 0.349999,-1.95 0.350001,-0.85 0.9375,-1.425 0.600001,-0.575 1.375,-0.8625 0.787501,-0.2875 1.650001,-0.2875 0.8875,0 1.674999,0.2875 0.787501,0.2875 1.375,0.8625 0.587501,0.575 0.925,1.425 0.337501,0.8375 0.337501,1.95 z"
         style="font-weight:bold;font-family:Ubuntu;-inkscape-font-specification:'Ubuntu Bold'"
         id="path1509" />
      <path
         d="m -80.370312,103.29951 q 0,0.5625 -0.3625,0.8625 -0.350001,0.2875 -0.800001,0.2875 -0.449999,0 -0.8125,-0.2875 -0.349999,-0.3 -0.349999,-0.8625 0,-0.5625 0.349999,-0.85 0.362501,-0.3 0.8125,-0.3 0.45,0 0.800001,0.3 0.3625,0.2875 0.3625,0.85 z"
         style="font-weight:bold;font-family:Ubuntu;-inkscape-font-specification:'Ubuntu Bold'"
         id="path1511" />
      <path
         d="m -77.045309,102.69951 q 0.1375,0.0125 0.3125,0.025 0.1875,0 0.4375,0 1.4625,0 2.1625,-0.7375 0.7125,-0.7375 0.7125,-2.037498 0,-1.3625 -0.675,-2.0625 -0.675,-0.7 -2.1375,-0.7 -0.2,0 -0.4125,0.0125 -0.2125,0 -0.4,0.025 z m 5.6375,-2.749998 q 0,1.124998 -0.35,1.962498 -0.35,0.8375 -1,1.3875 -0.6375,0.55 -1.5625,0.825 -0.925,0.275 -2.075,0.275 -0.525,0 -1.225,-0.05 -0.7,-0.0375 -1.375,-0.175 v -8.437498 q 0.675,-0.125 1.4,-0.1625 0.7375,-0.05 1.2625,-0.05 1.1125,0 2.0125,0.25 0.9125,0.25 1.5625,0.7875 0.65,0.5375 1,1.375 0.35,0.8375 0.35,2.0125 z"
         style="font-weight:bold;font-family:Ubuntu;-inkscape-font-specification:'Ubuntu Bold'"
         id="path1513" />
      <path
         d="m -68.582825,103.29951 q 0,0.5625 -0.3625,0.8625 -0.35,0.2875 -0.8,0.2875 -0.45,0 -0.8125,-0.2875 -0.35,-0.3 -0.35,-0.8625 0,-0.5625 0.35,-0.85 0.3625,-0.3 0.8125,-0.3 0.45,0 0.8,0.3 0.3625,0.2875 0.3625,0.85 z"
         style="font-weight:bold;font-family:Ubuntu;-inkscape-font-specification:'Ubuntu Bold'"
         id="path1515" />
    </g>
    <rect
       style="fill:#1f1f1f;fill-opacity:1;stroke-width:1.22789"
       id="rect682"
       width="13.005052"
       height="37.775822"
       x="1.0098728"
       y="82.100616" />
    <g
       aria-label="-∞ ∞"
       transform="matrix(0.41792771,0,0,0.42891656,59.998015,15.310043)"
       id="text574"
       style="font-size:12.5px;line-height:125%;letter-spacing:0px;word-spacing:0px;white-space:pre;shape-inside:url(#rect576);display:inline;fill:#ffffff;stroke-width:1px">
      <path
         d="m -131.88281,166.63203 v -0.975 h 3.025 v 0.975 z"
         id="path1518" />
      <path
         d="m -122.66323,167.36441 q -0.18921,-0.21973 -0.48828,-0.73243 -0.40893,0.73243 -0.76904,1.05591 -0.45166,0.39063 -1.15356,0.39063 -0.82398,0 -1.36719,-0.61646 -0.57373,-0.64697 -0.57373,-1.71509 0,-1.02539 0.57373,-1.72119 0.51269,-0.61645 1.37939,-0.61645 0.44556,0 0.77515,0.1831 0.38452,0.20142 0.64697,0.54932 0.24414,0.31128 0.48828,0.73242 0.40894,-0.73242 0.76905,-1.05591 0.45166,-0.39062 1.15356,-0.39062 0.82397,0 1.36719,0.61645 0.57373,0.64698 0.57373,1.71509 0,1.02539 -0.57373,1.72119 -0.5127,0.61646 -1.3794,0.61646 -0.44555,0 -0.77514,-0.18311 -0.32959,-0.16479 -0.64698,-0.54931 z m -2.47802,-0.0854 q 1.00708,0 1.61132,-1.46485 -0.77514,-1.59912 -1.61132,-1.59912 -0.61036,0 -0.92163,0.43946 -0.3357,0.46997 -0.3357,1.09252 0,0.6836 0.3357,1.10474 0.34179,0.42725 0.92163,0.42725 z m 3.97949,-3.05176 q -0.90943,0 -1.61133,1.46484 0.76904,1.59912 1.61133,1.59912 0.61035,0 0.92163,-0.43945 0.33569,-0.46997 0.33569,-1.09253 0,-0.68359 -0.33569,-1.10473 -0.3418,-0.42725 -0.92163,-0.42725 z"
         id="path1520" />
    </g>
    <g
       aria-label="NaN"
       transform="matrix(0.25738555,0,0,0.26415316,49.686429,54.595474)"
       id="text1239"
       style="font-size:12.5px;line-height:125%;letter-spacing:0px;word-spacing:0px;white-space:pre;shape-inside:url(#rect1241);display:inline;fill:#ffffff;stroke-width:1px">
      <path
         d="m -169.94922,209.3085 q -0.8375,-1.4875 -1.8125,-2.9375 -0.975,-1.45 -2.075,-2.7375 v 5.675 h -1.925 v -8.6625 h 1.5875 q 0.4125,0.4125 0.9125,1.0125 0.5,0.6 1.0125,1.2875 0.525,0.675 1.0375,1.4125 0.5125,0.725 0.9625,1.4 v -5.1125 h 1.9375 v 8.6625 z"
         style="font-weight:bold;font-family:Ubuntu;-inkscape-font-specification:'Ubuntu Bold'"
         id="path1525" />
      <path
         d="m -163.92421,208.0085 q 0.275,0 0.525,-0.0125 0.25,-0.0125 0.4,-0.0375 v -1.4125 q -0.1125,-0.025 -0.3375,-0.05 -0.225,-0.025 -0.4125,-0.025 -0.2625,0 -0.5,0.0375 -0.225,0.025 -0.4,0.1125 -0.175,0.0875 -0.275,0.2375 -0.1,0.15 -0.1,0.375 0,0.4375 0.2875,0.6125 0.3,0.1625 0.8125,0.1625 z m -0.15,-5.45 q 0.825,0 1.375,0.1875 0.55,0.1875 0.875,0.5375 0.3375,0.35 0.475,0.85 0.1375,0.5 0.1375,1.1125 v 3.875 q -0.4,0.0875 -1.1125,0.2 -0.7125,0.125 -1.725,0.125 -0.6375,0 -1.1625,-0.1125 -0.5125,-0.1125 -0.8875,-0.3625 -0.375,-0.2625 -0.575,-0.675 -0.2,-0.4125 -0.2,-1.0125 0,-0.575 0.225,-0.975 0.2375,-0.4 0.625,-0.6375 0.3875,-0.2375 0.8875,-0.3375 0.5,-0.1125 1.0375,-0.1125 0.3625,0 0.6375,0.0375 0.2875,0.025 0.4625,0.075 v -0.175 q 0,-0.475 -0.2875,-0.7625 -0.2875,-0.2875 -1,-0.2875 -0.475,0 -0.9375,0.075 -0.4625,0.0625 -0.8,0.1875 l -0.2375,-1.5 q 0.1625,-0.05 0.4,-0.1 0.25,-0.0625 0.5375,-0.1 0.2875,-0.05 0.6,-0.075 0.325,-0.0375 0.65,-0.0375 z"
         style="font-weight:bold;font-family:Ubuntu;-inkscape-font-specification:'Ubuntu Bold'"
         id="path1527" />
      <path
         d="m -153.58672,209.3085 q -0.8375,-1.4875 -1.8125,-2.9375 -0.975,-1.45 -2.075,-2.7375 v 5.675 h -1.925 v -8.6625 h 1.5875 q 0.4125,0.4125 0.9125,1.0125 0.5,0.6 1.0125,1.2875 0.525,0.675 1.0375,1.4125 0.5125,0.725 0.9625,1.4 v -5.1125 h 1.9375 v 8.6625 z"
         style="font-weight:bold;font-family:Ubuntu;-inkscape-font-specification:'Ubuntu Bold'"
         id="path1529" />
    </g>
    <path
       d="m 7.7164665,98.194283 q -0.07908,-0.0943 -0.204066,-0.31416 -0.1709068,0.31416 -0.3214028,0.4529 -0.188765,0.16755 -0.482109,0.16755 -0.34436,0 -0.5713864,-0.26441 -0.2397777,-0.2775 -0.2397777,-0.73563 0,-0.43981 0.2397777,-0.73825 0.2142714,-0.2644 0.5764894,-0.2644 0.186208,0 0.323953,0.0785 0.160705,0.0864 0.27039,0.23561 0.102033,0.13352 0.2040658,0.31415 0.170903,-0.31415 0.321403,-0.4529 0.188762,-0.16754 0.482109,-0.16754 0.34436,0 0.571383,0.26441 0.239777,0.2775 0.239777,0.73563 0,0.4398 -0.239777,0.73824 -0.214268,0.26441 -0.576486,0.26441 -0.186212,0 -0.323956,-0.0785 -0.137745,-0.0707 -0.270387,-0.2356 z m -1.0356368,-0.0366 q 0.420886,0 0.673419,-0.6283 -0.323957,-0.68589 -0.673419,-0.68589 -0.255083,0 -0.385175,0.18849 -0.1402943,0.20158 -0.1402943,0.4686 0,0.29321 0.1402943,0.47384 0.142848,0.18326 0.385175,0.18326 z m 1.6631388,-1.30895 q -0.380072,0 -0.673416,0.62829 0.321404,0.68589 0.673416,0.68589 0.255086,0 0.385174,-0.18849 0.140299,-0.20158 0.140299,-0.4686 0,-0.29321 -0.140299,-0.47384 -0.142843,-0.18325 -0.385174,-0.18325 z"
       id="path1522"
       style="font-size:12.5px;line-height:125%;letter-spacing:0px;word-spacing:0px;white-space:pre;shape-inside:url(#rect576);display:inline;fill:#ffffff;stroke-width:0.423386px" />
    <rect
       style="fill:#1f1f1f;fill-opacity:1;stroke-width:0.396491"
       id="rect1252"
       width="9.0658016"
       height="9.5005322"
       x="2.9794977"
       y="34.450638" />
    <rect
       style="fill:#1f1f1f;fill-opacity:1;stroke-width:0.396491"
       id="rect1252-3"
       width="9.0658016"
       height="9.5005322"
       x="3.0870991"
       y="68.381935"
       transform="matrix(0.97279578,0,0,0.99837416,0.09969497,0.04929096)" />
  </g>
  <g
     inkscape:groupmode="layer"
     id="layer2"
     inkscape:label="components"
     style="display:none">
    <circle
       style="fill:#ff0000;fill-opacity:1;stroke-width:0.529167"
       id="path1307"
       cx="7.6199999"
       cy="20.562164"
       r="4.4736934"
       inkscape:label="odfactor1" />
    <circle
       style="fill:#00ff00;fill-opacity:1;stroke-width:0.529167"
       id="path1361"
       cx="7.6199999"
       cy="30.662462"
       r="2.6790514"
       inkscape:label="odinput1" />
    <circle
       style="fill:#0000ff;fill-opacity:1;stroke-width:0.529167"
       id="path1361-0"
       cx="7.6199999"
       cy="39.315445"
       r="2.6790514"
       inkscape:label="odoutput1" />
    <ellipse
       style="fill:#ff0000;fill-opacity:1;stroke-width:0.521495"
       id="path1307-6"
       cx="7.6199999"
       cy="54.509315"
       inkscape:label="odfactor2"
       rx="4.3519902"
       ry="4.4664197" />
    <ellipse
       style="fill:#00ff00;fill-opacity:1;stroke-width:0.521495"
       id="path1361-7"
       cx="7.6199999"
       cy="64.593193"
       inkscape:label="odinput2"
       rx="2.6061699"
       ry="2.6746957" />
    <ellipse
       style="fill:#0000ff;fill-opacity:1;stroke-width:0.521495"
       id="path1361-0-5"
       cx="7.6199999"
       cy="73.232109"
       inkscape:label="odoutput2"
       rx="2.6061699"
       ry="2.6746957" />
    <circle
       style="fill:#0000ff;fill-opacity:1;stroke-width:0.529167"
       id="path1361-0-4"
       cx="7.6199999"
       cy="92.054092"
       r="2.6790514"
       inkscape:label="neginf" />
    <circle
       style="fill:#0000ff;fill-opacity:1;stroke-width:0.529167"
       id="path1361-0-8"
       cx="7.6199999"
       cy="103.17104"
       r="2.6790514"
       inkscape:label="posinf" />
    <circle
       style="fill:#0000ff;fill-opacity:1;stroke-width:0.529167"
       id="path1361-0-7"
       cx="7.6199999"
       cy="114.60249"
       r="2.6790514"
       inkscape:label="nan" />
  </g>
</svg>
