<?xml version="1.0" encoding="UTF-8" standalone="no"?>
<!-- Created with Inkscape (http://www.inkscape.org/) -->

<svg
   width="40.639999mm"
   height="128.5mm"
   viewBox="0 0 40.64 128.5"
   version="1.1"
   id="svg1524"
   inkscape:version="1.3.2 (091e20ef0f, 2023-11-25, custom)"
   sodipodi:docname="Quadrants.svg"
   xmlns:inkscape="http://www.inkscape.org/namespaces/inkscape"
   xmlns:sodipodi="http://sodipodi.sourceforge.net/DTD/sodipodi-0.dtd"
   xmlns:xlink="http://www.w3.org/1999/xlink"
   xmlns="http://www.w3.org/2000/svg"
   xmlns:svg="http://www.w3.org/2000/svg">
  <sodipodi:namedview
     id="namedview1526"
     pagecolor="#cccccc"
     bordercolor="#666666"
     borderopacity="1.0"
     inkscape:pageshadow="2"
     inkscape:pageopacity="1"
     inkscape:pagecheckerboard="0"
     inkscape:document-units="mm"
     showgrid="true"
     units="in"
     inkscape:showpageshadow="2"
     inkscape:deskcolor="#d1d1d1"
     showguides="false"
     inkscape:zoom="1.982113"
     inkscape:cx="147.56979"
     inkscape:cy="307.24787"
     inkscape:window-width="1920"
     inkscape:window-height="1008"
     inkscape:window-x="0"
     inkscape:window-y="0"
     inkscape:window-maximized="1"
     inkscape:current-layer="layer4">
    <inkscape:grid
       type="xygrid"
       id="grid1608"
       originx="7.6199999"
       originy="64.25"
       units="mm"
       spacingx="2.5400001"
       spacingy="2.5400001"
       visible="true" />
  </sodipodi:namedview>
  <defs
     id="defs1521">
    <linearGradient
       id="linearGradient19"
       inkscape:collect="always">
      <stop
         style="stop-color:#ff70ff;stop-opacity:1;"
         offset="0"
         id="stop19" />
      <stop
         style="stop-color:#b600b6;stop-opacity:1;"
         offset="1"
         id="stop20" />
    </linearGradient>
    <linearGradient
       inkscape:collect="always"
       xlink:href="#linearGradient19"
       id="linearGradient20"
       x1="20.27759"
       y1="51.549995"
       x2="20.320002"
       y2="59.169998"
       gradientUnits="userSpaceOnUse"
       gradientTransform="matrix(1,0,0,0.66666669,0,17.183331)" />
  </defs>
  <g
     inkscape:groupmode="layer"
     id="layer2"
     inkscape:label="Background"
     sodipodi:insensitive="true">
    <rect
       style="display:inline;fill:#1a1a1a;stroke-width:0.369651"
       id="rect374"
       width="40.640003"
       height="128.5"
       x="0"
       y="0" />
  </g>
  <g
     inkscape:label="Layer 1"
     inkscape:groupmode="layer"
     id="layer1">
    <rect
       style="fill:#d11f1f;fill-opacity:1;stroke:#000000;stroke-width:0.702188;stroke-linecap:round;stroke-linejoin:round;stroke-opacity:1"
       id="rect1"
       width="18.964495"
       height="18.916555"
       x="1.3130949"
       y="13.716886" />
    <rect
       style="fill:#1e1ec8;fill-opacity:1;stroke:#000000;stroke-width:0.702189;stroke-linecap:round;stroke-linejoin:round;stroke-opacity:1"
       id="rect1-3"
       width="18.964495"
       height="18.916555"
       x="20.27759"
       y="13.716887" />
    <rect
       style="fill:#1a9c16;fill-opacity:1;stroke:#000000;stroke-width:0.702189;stroke-linecap:round;stroke-linejoin:round;stroke-opacity:1"
       id="rect1-6"
       width="18.964495"
       height="18.916555"
       x="1.3130945"
       y="32.633442" />
    <rect
       style="fill:#ddaf21;fill-opacity:1;stroke:#000000;stroke-width:0.70219;stroke-linecap:round;stroke-linejoin:round;stroke-opacity:1"
       id="rect1-3-7"
       width="18.964495"
       height="18.916553"
       x="20.27759"
       y="32.633442" />
    <rect
       style="fill:#525252;fill-opacity:1;stroke:none;stroke-width:0.564999;stroke-linecap:round;stroke-linejoin:round;stroke-opacity:1"
       id="rect13"
       width="25.400002"
       height="25.400002"
       x="7.6200004"
       y="59.169998"
       mask="none"
       transform="translate(0,-2.54)" />
    <rect
       style="fill:none;fill-opacity:1;stroke:#000000;stroke-width:0.564999;stroke-linecap:round;stroke-linejoin:round;stroke-opacity:1"
       id="rect19"
       width="25.400002"
       height="25.400002"
       x="7.6200004"
       y="56.629997" />
    <path
       style="fill:url(#linearGradient20);fill-rule:evenodd;stroke:none;stroke-width:0.216031px;stroke-linecap:butt;stroke-linejoin:miter;stroke-opacity:1"
       d="m 12.700001,51.549998 h 15.240001 l -7.620001,5.08 z"
       id="path19" />
    <g
       id="g3318"
       transform="translate(0.49993759,15.448922)"
       style="display:inline">
      <g
         id="g3416"
         transform="translate(12.20007,-20.52892)"
         style="stroke:#ff80ff;stroke-opacity:1">
        <path
           style="fill:none;fill-rule:evenodd;stroke:#ff80ff;stroke-width:1;stroke-linecap:round;stroke-linejoin:round;stroke-dasharray:none;stroke-opacity:1"
           d="m 5.0800002,104.89 2.54,5.08"
           id="path3337" />
        <path
           style="fill:none;fill-rule:evenodd;stroke:#ff80ff;stroke-width:1;stroke-linecap:round;stroke-linejoin:round;stroke-dasharray:none;stroke-opacity:1"
           d="M 10.16,104.89 5.0800002,115.05"
           id="path3339" />
      </g>
      <g
         id="g3412"
         transform="translate(12.200064,-17.988925)">
        <path
           style="fill:#ffff00;fill-rule:evenodd;stroke:#ffff80;stroke-width:1;stroke-linecap:round;stroke-linejoin:round;stroke-dasharray:none;stroke-opacity:1"
           d="M 5.0800002,89.650003 10.16,99.810003"
           id="path2915" />
        <path
           style="fill:none;fill-rule:evenodd;stroke:#ffff80;stroke-width:1;stroke-linecap:round;stroke-linejoin:round;stroke-dasharray:none;stroke-opacity:1"
           d="m 10.16,89.650003 -5.0799998,10.16"
           id="path2917" />
      </g>
    </g>
    <g
       id="g1226"
       style="stroke-width:0.3;stroke-dasharray:none"
       inkscape:label="logo"
       transform="matrix(0.81752852,0,0,0.81752852,7.8761822,-93.935659)">
      <path
         style="fill:none;fill-rule:evenodd;stroke:#ff7f7f;stroke-width:0.3;stroke-linecap:round;stroke-linejoin:round;stroke-dasharray:none;stroke-opacity:1"
         d="m 4.7708989,116.7807 -1.3131348,0.65656 -1.3131348,0.65657 2.6262696,2.62627 -2.6262696,1.31314"
         id="path496"
         sodipodi:nodetypes="ccccc" />
      <path
         style="fill:none;fill-rule:evenodd;stroke:#feff7f;stroke-width:0.3;stroke-linecap:round;stroke-linejoin:round;stroke-dasharray:none;stroke-opacity:1"
         d="m 6.0840338,122.03324 v -5.25254 l 2.6262702,1.31313 -2.6262702,1.31314"
         id="path498" />
      <path
         style="fill:none;fill-rule:evenodd;stroke:#7fff7f;stroke-width:0.3;stroke-linecap:round;stroke-linejoin:round;stroke-dasharray:none;stroke-opacity:1"
         d="m 8.710304,122.03324 1.313135,-5.25254 1.313135,5.25254"
         id="path500" />
      <path
         style="fill:none;fill-rule:evenodd;stroke:#80ffff;stroke-width:0.3;stroke-linecap:round;stroke-linejoin:round;stroke-dasharray:none;stroke-opacity:1"
         d="m 12.649708,122.03324 v -5.25254 l 2.62627,1.31313 -2.62627,1.31314 2.62627,2.62627"
         id="path502" />
      <path
         style="fill:none;fill-rule:evenodd;stroke:#8080ff;stroke-width:0.3;stroke-linecap:round;stroke-linejoin:round;stroke-dasharray:none;stroke-opacity:1"
         d="m 16.589114,116.7807 v 5.25254"
         id="path504" />
      <path
         style="fill:none;fill-rule:evenodd;stroke:#8080ff;stroke-width:0.3;stroke-linecap:round;stroke-linejoin:round;stroke-dasharray:none;stroke-opacity:1"
         d="m 19.215383,116.7807 -2.626269,2.62627 2.626269,2.62627"
         id="path506" />
      <path
         style="fill:none;fill-rule:evenodd;stroke:#bf80ff;stroke-width:0.3;stroke-linecap:round;stroke-linejoin:round;stroke-dasharray:none;stroke-opacity:1"
         d="m 21.786938,116.7807 -2.626269,1.31313 2.626269,1.31314 -2.626269,1.31313 2.626269,1.31314"
         id="path508" />
      <path
         style="fill:none;fill-rule:evenodd;stroke:#ff80ff;stroke-width:0.3;stroke-linecap:round;stroke-linejoin:round;stroke-dasharray:none;stroke-opacity:1"
         d="m 21.732224,116.7807 h 3.939404"
         id="path514" />
      <path
         style="fill:none;fill-rule:evenodd;stroke:#ff80ff;stroke-width:0.3;stroke-linecap:round;stroke-linejoin:round;stroke-dasharray:none;stroke-opacity:1"
         d="m 23.045358,116.7807 v 5.25254"
         id="path516" />
      <path
         style="fill:none;fill-rule:evenodd;stroke:#ff80ff;stroke-width:0.3;stroke-linecap:round;stroke-linejoin:round;stroke-dasharray:none;stroke-opacity:1"
         d="m 24.358493,116.7807 v 5.25254"
         id="path518" />
      <path
         style="fill:none;fill-rule:evenodd;stroke:#ff80bf;stroke-width:0.3;stroke-linecap:round;stroke-linejoin:round;stroke-dasharray:none;stroke-opacity:1"
         d="m 28.297898,116.7807 -2.62627,1.31313 2.62627,1.31314 -2.62627,1.31313 2.62627,1.31314"
         id="path520" />
      <path
         style="fill:none;fill-rule:evenodd;stroke:#7fff7f;stroke-width:0.3;stroke-linecap:round;stroke-linejoin:round;stroke-dasharray:none;stroke-opacity:1"
         d="M 9.3319214,119.40697 H 10.714956"
         id="path630" />
    </g>
  </g>
  <g
     inkscape:groupmode="layer"
     id="layer4"
     inkscape:label="Text"
     style="display:none">
    <text
       xml:space="preserve"
       style="font-size:5.69009px;line-height:125%;font-family:sans-serif;letter-spacing:0px;word-spacing:0px;fill:#ff70ff;fill-opacity:1;stroke:none;stroke-width:0.177815px;stroke-linecap:butt;stroke-linejoin:miter;stroke-opacity:1"
       x="2.1015701"
       y="12.496456"
       id="text12"><tspan
         sodipodi:role="line"
         id="tspan12"
         style="font-style:normal;font-variant:normal;font-weight:normal;font-stretch:normal;font-family:S3121;-inkscape-font-specification:S3121;fill:#ff70ff;fill-opacity:1;stroke:none;stroke-width:0.177815px;stroke-opacity:1"
         x="2.1015701"
         y="12.496456">Quadrants</tspan></text>
    <text
       xml:space="preserve"
       style="font-style:normal;font-variant:normal;font-weight:300;font-stretch:normal;font-size:4.60646px;line-height:125%;font-family:Ubuntu;-inkscape-font-specification:'Ubuntu Light';letter-spacing:0px;word-spacing:0px;fill:#ffffff;fill-opacity:1;stroke:none;stroke-width:0.143952px;stroke-linecap:butt;stroke-linejoin:miter;stroke-opacity:1"
       x="29.104401"
       y="86.459541"
       id="text22"><tspan
         sodipodi:role="line"
         id="tspan22"
         style="font-style:normal;font-variant:normal;font-weight:300;font-stretch:normal;font-family:Ubuntu;-inkscape-font-specification:'Ubuntu Light';fill:#ffffff;fill-opacity:1;stroke:none;stroke-width:0.143952px"
         x="29.104401"
         y="86.459541">In</tspan></text>
    <text
       xml:space="preserve"
       style="font-style:normal;font-variant:normal;font-weight:300;font-stretch:normal;font-size:4.60646px;line-height:125%;font-family:Ubuntu;-inkscape-font-specification:'Ubuntu Light';letter-spacing:0px;word-spacing:0px;fill:#ffffff;fill-opacity:1;stroke:none;stroke-width:0.143952px;stroke-linecap:butt;stroke-linejoin:miter;stroke-opacity:1"
       x="5.5310841"
       y="86.459541"
       id="text23"><tspan
         sodipodi:role="line"
         id="tspan23"
         style="font-style:normal;font-variant:normal;font-weight:300;font-stretch:normal;font-family:Ubuntu;-inkscape-font-specification:'Ubuntu Light';fill:#ffffff;fill-opacity:1;stroke:none;stroke-width:0.143952px"
         x="5.5310841"
         y="86.459541">Out</tspan></text>
    <text
       xml:space="preserve"
       style="font-size:5.83181px;line-height:125%;font-family:sans-serif;letter-spacing:0px;word-spacing:0px;fill:#ff70ff;fill-opacity:1;stroke:none;stroke-width:0.182244px;stroke-linecap:butt;stroke-linejoin:miter;stroke-opacity:1"
       x="4.921073"
       y="119.30456"
       id="text27"><tspan
         sodipodi:role="line"
         id="tspan27"
         style="font-style:normal;font-variant:normal;font-weight:normal;font-stretch:normal;font-family:'Ubuntu Condensed';-inkscape-font-specification:'Ubuntu Condensed, ';fill:#ff70ff;fill-opacity:1;stroke:none;stroke-width:0.182244px"
         x="4.921073"
         y="119.30456">Poly Gate</tspan></text>
    <text
       xml:space="preserve"
       style="font-size:3.64446px;line-height:125%;font-family:sans-serif;letter-spacing:0px;word-spacing:0px;fill:#d11f1f;fill-opacity:1;stroke:none;stroke-width:0.113889px;stroke-linecap:butt;stroke-linejoin:miter;stroke-opacity:1"
       x="1.7948542"
       y="59.155609"
       id="text1"><tspan
         sodipodi:role="line"
         id="tspan1"
         style="font-style:normal;font-variant:normal;font-weight:normal;font-stretch:normal;font-family:'Ubuntu Condensed';-inkscape-font-specification:'Ubuntu Condensed, ';fill:#d11f1f;fill-opacity:1;stroke:none;stroke-width:0.113889px"
         x="1.7948542"
         y="59.155609">±5V</tspan></text>
    <text
       xml:space="preserve"
       style="font-size:3.64446px;line-height:125%;font-family:sans-serif;letter-spacing:0px;word-spacing:0px;fill:#5858e6;fill-opacity:1;stroke:none;stroke-width:0.113889px;stroke-linecap:butt;stroke-linejoin:miter;stroke-opacity:1"
       x="34.07402"
       y="59.155609"
       id="text2"><tspan
         sodipodi:role="line"
         id="tspan2"
         style="font-style:normal;font-variant:normal;font-weight:normal;font-stretch:normal;font-family:'Ubuntu Condensed';-inkscape-font-specification:'Ubuntu Condensed, ';fill:#5858e6;fill-opacity:1;stroke:none;stroke-width:0.113889px"
         x="34.07402"
         y="59.155609">±5V</tspan></text>
    <text
       xml:space="preserve"
       style="font-size:3.50828px;line-height:125%;font-family:sans-serif;letter-spacing:0px;word-spacing:0px;fill:#1a9c16;fill-opacity:1;stroke:none;stroke-width:0.109634px;stroke-linecap:butt;stroke-linejoin:miter;stroke-opacity:1"
       x="0.74238729"
       y="81.448204"
       id="text3"><tspan
         sodipodi:role="line"
         id="tspan3"
         style="font-style:normal;font-variant:normal;font-weight:normal;font-stretch:normal;font-family:'Ubuntu Condensed';-inkscape-font-specification:'Ubuntu Condensed, ';fill:#1a9c16;fill-opacity:1;stroke:none;stroke-width:0.109634px"
         x="0.74238729"
         y="81.448204">+10V</tspan></text>
    <text
       xml:space="preserve"
       style="font-size:3.50828px;line-height:125%;font-family:sans-serif;letter-spacing:0px;word-spacing:0px;fill:#ddaf21;fill-opacity:1;stroke:none;stroke-width:0.109634px;stroke-linecap:butt;stroke-linejoin:miter;stroke-opacity:1"
       x="33.55072"
       y="81.448204"
       id="text4"><tspan
         sodipodi:role="line"
         id="tspan4"
         style="font-style:normal;font-variant:normal;font-weight:normal;font-stretch:normal;font-family:'Ubuntu Condensed';-inkscape-font-specification:'Ubuntu Condensed, ';fill:#ddaf21;fill-opacity:1;stroke:none;stroke-width:0.109634px"
         x="33.55072"
         y="81.448204">+10V</tspan></text>
  </g>
  <g
     inkscape:groupmode="layer"
     id="g13"
     inkscape:label="Text copy"
     style="display:inline">
    <path
       style="font-size:5.69009px;line-height:125%;font-family:S3121;-inkscape-font-specification:S3121;letter-spacing:0px;word-spacing:0px;fill:#ff70ff;stroke-width:0.177815px"
       d="m 2.7919937,12.496456 v -0.73071 h 0.6223536 v 0.73071 z m 0.6904235,0 v -0.73071 h 0.6223536 v 0.73071 z m 1.3822363,0 v -0.73071 h 0.6223536 v 0.73071 z M 2.1015701,11.683785 v -0.73071 h 0.6209645 v 0.73071 z m 2.0726598,0 v -0.73071 h 0.6209645 v 0.73071 z M 2.1015701,10.871113 v -0.73071 h 0.6209645 v 0.73071 z m 1.3808471,0 v -0.73071 h 0.6223536 v 0.73071 z m 1.3822363,0 v -0.73071 h 0.6223536 v 0.73071 z M 2.1015701,10.058441 V 9.3263424 h 0.6209645 v 0.7320986 z m 2.7630834,0 V 9.3263424 H 5.4870071 V 10.058441 Z M 2.1015701,9.2457699 v -0.732099 h 0.6209645 v 0.732099 z m 2.7630834,0 v -0.732099 h 0.6223536 v 0.732099 z M 2.1015701,8.4330983 v -0.732099 h 0.6209645 v 0.732099 z m 2.7630834,0 v -0.732099 h 0.6223536 v 0.732099 z M 2.7919937,7.6204267 v -0.732099 h 0.6223536 v 0.732099 z m 0.6904235,0 v -0.732099 h 0.6223536 v 0.732099 z m 0.6918127,0 v -0.732099 h 0.6209645 v 0.732099 z m 2.7491915,4.8760293 v -0.73071 H 7.545775 v 0.73071 z m 0.6904236,0 v -0.73071 h 0.6223536 v 0.73071 z m 1.3822362,0 v -0.73071 h 0.6223536 v 0.73071 z M 6.2329979,11.683785 v -0.73071 h 0.6209644 v 0.73071 z m 2.0726598,0 v -0.73071 h 0.6209644 v 0.73071 z m 0.6904235,0 v -0.73071 h 0.6223536 v 0.73071 z M 6.2329979,10.871113 v -0.73071 h 0.6209644 v 0.73071 z m 2.7630833,0 v -0.73071 h 0.6223536 v 0.73071 z M 6.2329979,10.058441 V 9.3263424 h 0.6209644 v 0.7320986 z m 2.7630833,0 V 9.3263424 H 9.6184348 V 10.058441 Z M 6.2329979,9.2457699 v -0.732099 h 0.6209644 v 0.732099 z m 2.7630833,0 v -0.732099 h 0.6223536 v 0.732099 z m 2.0587678,3.2506861 v -0.73071 h 0.622354 v 0.73071 z m 0.690424,0 v -0.73071 h 0.622353 v 0.73071 z m 0.691812,0 v -0.73071 h 0.620965 v 0.73071 z m 0.690424,0 v -0.73071 h 0.622354 v 0.73071 z m -2.763083,-0.812671 v -0.73071 h 0.620964 v 0.73071 z m 2.763083,0 v -0.73071 h 0.622354 v 0.73071 z m -2.07266,-0.812672 v -0.73071 h 0.622354 v 0.73071 z m 0.690424,0 v -0.73071 h 0.622353 v 0.73071 z m 0.691812,0 v -0.73071 h 0.620965 v 0.73071 z m 0.690424,0 v -0.73071 h 0.622354 v 0.73071 z m 0,-0.812672 V 9.3263424 h 0.622354 v 0.7320986 z m -2.07266,-0.8126711 v -0.732099 h 0.622354 v 0.732099 z m 0.690424,0 v -0.732099 h 0.622353 v 0.732099 z m 0.691812,0 v -0.732099 h 0.620965 v 0.732099 z m 2.749192,3.2506861 v -0.73071 h 0.622354 v 0.73071 z m 0.690424,0 v -0.73071 h 0.622353 v 0.73071 z m 0.691812,0 v -0.73071 h 0.620965 v 0.73071 z m 0.690424,0 v -0.73071 h 0.622353 v 0.73071 z m -2.763084,-0.812671 v -0.73071 h 0.620965 v 0.73071 z m 2.763084,0 v -0.73071 h 0.622353 v 0.73071 z m -2.763084,-0.812672 v -0.73071 h 0.620965 v 0.73071 z m 2.763084,0 v -0.73071 h 0.622353 v 0.73071 z M 14.495853,10.058441 V 9.3263424 h 0.620965 v 0.7320986 z m 2.763084,0 V 9.3263424 h 0.622353 v 0.7320986 z m -2.07266,-0.8126711 v -0.732099 h 0.622354 v 0.732099 z m 0.690424,0 v -0.732099 h 0.622353 v 0.732099 z m 0.691812,0 v -0.732099 h 0.620965 v 0.732099 z m 0.690424,0 v -0.732099 h 0.622353 v 0.732099 z m 0,-0.8126716 v -0.732099 h 0.622353 v 0.732099 z m 0,-0.8126716 v -0.732099 h 0.622353 v 0.732099 z m 2.058768,4.8760293 v -0.73071 h 0.622353 v 0.73071 z m 0,-0.812671 v -0.73071 h 0.622353 v 0.73071 z m 0,-0.812672 v -0.73071 h 0.622353 v 0.73071 z m 0,-0.812672 V 9.3263424 h 0.622353 v 0.7320986 z m 0.690423,0 V 9.3263424 h 0.622354 V 10.058441 Z M 19.317705,9.2457699 v -0.732099 h 0.622353 v 0.732099 z m 1.382236,0 v -0.732099 h 0.620964 v 0.732099 z m 0.690424,0 v -0.732099 h 0.622353 v 0.732099 z m 2.058767,3.2506861 v -0.73071 h 0.622354 v 0.73071 z m 0.690424,0 v -0.73071 h 0.622354 v 0.73071 z m 0.691813,0 v -0.73071 h 0.620964 v 0.73071 z m 0.690423,0 v -0.73071 h 0.622354 v 0.73071 z m -2.763083,-0.812671 v -0.73071 h 0.620964 v 0.73071 z m 2.763083,0 v -0.73071 h 0.622354 v 0.73071 z m -2.07266,-0.812672 v -0.73071 h 0.622354 v 0.73071 z m 0.690424,0 v -0.73071 h 0.622354 v 0.73071 z m 0.691813,0 v -0.73071 h 0.620964 v 0.73071 z m 0.690423,0 v -0.73071 h 0.622354 v 0.73071 z m 0,-0.812672 V 9.3263424 h 0.622354 v 0.7320986 z m -2.07266,-0.8126711 v -0.732099 h 0.622354 v 0.732099 z m 0.690424,0 v -0.732099 h 0.622354 v 0.732099 z m 0.691813,0 v -0.732099 h 0.620964 v 0.732099 z m 2.058768,3.2506861 v -0.73071 h 0.620964 v 0.73071 z m 2.763083,0 v -0.73071 h 0.622354 v 0.73071 z m -2.763083,-0.812671 v -0.73071 h 0.620964 v 0.73071 z m 2.763083,0 v -0.73071 h 0.622354 v 0.73071 z m -2.763083,-0.812672 v -0.73071 h 0.620964 v 0.73071 z m 2.763083,0 v -0.73071 h 0.622354 v 0.73071 z M 26.890137,10.058441 V 9.3263424 h 0.620964 v 0.7320986 z m 0.690423,0 V 9.3263424 h 0.622354 v 0.7320986 z m 2.07266,0 V 9.3263424 h 0.622354 V 10.058441 Z M 26.890137,9.2457699 v -0.732099 h 0.620964 v 0.732099 z m 1.380847,0 v -0.732099 h 0.622353 v 0.732099 z m 0.691813,0 v -0.732099 h 0.620964 v 0.732099 z m 4.131427,3.2506861 v -0.73071 h 0.620965 v 0.73071 z m 0.690424,0 v -0.73071 h 0.622353 v 0.73071 z m -1.382236,-0.812671 v -0.73071 h 0.622353 v 0.73071 z m 0,-0.812672 v -0.73071 h 0.622353 v 0.73071 z m 0,-0.812672 V 9.3263424 h 0.622353 V 10.058441 Z M 31.021564,9.2457699 v -0.732099 h 0.620965 v 0.732099 z m 0.690424,0 v -0.732099 h 0.622354 v 0.732099 z m 0.690424,0 v -0.732099 h 0.622353 v 0.732099 z m 0.691812,0 v -0.732099 h 0.620965 v 0.732099 z m 0.690424,0 v -0.732099 h 0.622353 v 0.732099 z M 32.402412,8.4330983 v -0.732099 h 0.622353 v 0.732099 z m 0,-0.8126716 v -0.732099 h 0.622353 v 0.732099 z m 2.75058,4.8760293 v -0.73071 h 0.620965 v 0.73071 z m 0.690424,0 v -0.73071 h 0.622353 v 0.73071 z m 0.690423,0 v -0.73071 h 0.622354 v 0.73071 z m 0.691813,0 v -0.73071 h 0.620964 v 0.73071 z m 0.690424,-0.812671 v -0.73071 h 0.622353 v 0.73071 z m -2.07266,-0.812672 v -0.73071 h 0.622353 v 0.73071 z m 0.690423,0 v -0.73071 h 0.622354 v 0.73071 z m 0.691813,0 v -0.73071 h 0.620964 v 0.73071 z m -2.07266,-0.812672 V 9.3263424 h 0.620965 v 0.7320986 z m 0.690424,-0.8126711 v -0.732099 h 0.622353 v 0.732099 z m 0.690423,0 v -0.732099 h 0.622354 v 0.732099 z m 0.691813,0 v -0.732099 h 0.620964 v 0.732099 z"
       id="text5"
       aria-label="Quadrants" />
    <path
       d="m 29.518982,83.267264 h 0.313239 v 3.192277 h -0.313239 z m 1.123973,0.893654 q 0.133587,-0.03685 0.359303,-0.08292 0.225717,-0.04606 0.552776,-0.04606 0.271781,0 0.451433,0.07831 0.184258,0.07831 0.290207,0.225716 0.110555,0.1428 0.156619,0.345485 0.04606,0.202684 0.04606,0.446826 v 1.331267 h -0.29942 V 85.22501 q 0,-0.253355 -0.03685,-0.428401 -0.03225,-0.175045 -0.115161,-0.2856 -0.07831,-0.110555 -0.211897,-0.15662 -0.128981,-0.05067 -0.327059,-0.05067 -0.211897,0 -0.368517,0.02303 -0.152013,0.02303 -0.198078,0.04146 v 2.091333 h -0.299419 z"
       id="text6"
       style="font-weight:300;font-size:4.60646px;line-height:125%;font-family:Ubuntu;-inkscape-font-specification:'Ubuntu Light';letter-spacing:0px;word-spacing:0px;fill:#ffffff;stroke-width:0.143952px"
       aria-label="In" />
    <path
       d="m 8.8108836,84.8611 q 0,0.409975 -0.1197679,0.723214 -0.119768,0.313239 -0.3270587,0.525136 -0.2026842,0.207291 -0.4744654,0.31324 -0.2717811,0.105948 -0.5758075,0.105948 -0.3040263,0 -0.5758075,-0.105948 Q 6.4661955,86.316741 6.2589048,86.10945 6.0562205,85.897553 5.9364525,85.584314 5.8166846,85.271075 5.8166846,84.8611 q 0,-0.409975 0.1197679,-0.718608 0.119768,-0.313239 0.3224523,-0.52053 0.2072907,-0.211897 0.4790718,-0.317846 0.2717812,-0.105948 0.5758075,-0.105948 0.3040264,0 0.5758075,0.105948 0.2717812,0.105949 0.4744654,0.317846 0.2072907,0.207291 0.3270587,0.52053 0.1197679,0.308633 0.1197679,0.718608 z m -0.3316651,0 q 0,-0.322453 -0.082916,-0.575808 Q 8.313386,84.02733 8.1613728,83.847678 8.0093596,83.668027 7.792856,83.575897 q -0.2118972,-0.09673 -0.4790719,-0.09673 -0.2671747,0 -0.4836783,0.09673 -0.2118972,0.09213 -0.3639103,0.271781 Q 6.3141823,84.02733 6.231266,84.285292 6.14835,84.538647 6.14835,84.8611 q 0,0.322452 0.082916,0.580414 0.082916,0.253355 0.2349295,0.433007 0.1520131,0.179652 0.3639103,0.276387 0.2165036,0.09674 0.4836783,0.09674 0.2671747,0 0.4790719,-0.09674 0.2165036,-0.09673 0.3685168,-0.276387 0.1520132,-0.179652 0.2349294,-0.433007 0.082916,-0.257962 0.082916,-0.580414 z m 2.8421865,1.515525 q -0.133587,0.03685 -0.359304,0.08292 -0.225716,0.04606 -0.552775,0.04606 -0.267175,0 -0.4468266,-0.07831 -0.1796519,-0.07831 -0.290207,-0.22111 -0.110555,-0.1428 -0.1612261,-0.345484 -0.046065,-0.202685 -0.046065,-0.446827 V 84.078 h 0.2994199 v 1.239138 q 0,0.253356 0.036852,0.428401 0.036852,0.175045 0.119768,0.285601 0.082917,0.105948 0.2118968,0.156619 0.133588,0.04606 0.322453,0.04606 0.211897,0 0.368516,-0.02303 0.15662,-0.02303 0.198078,-0.04146 v -2.091333 h 0.29942 z m 1.073306,-2.298624 h 0.948931 v 0.253356 h -0.948931 v 1.266776 q 0,0.202685 0.03225,0.331665 0.03685,0.124375 0.101342,0.193472 0.06449,0.0691 0.156619,0.09213 0.09213,0.02303 0.202685,0.02303 0.188864,0 0.304026,-0.04146 0.115161,-0.04606 0.179652,-0.08292 l 0.0737,0.248749 q -0.06449,0.04146 -0.225716,0.09673 -0.161226,0.05067 -0.350091,0.05067 -0.22111,0 -0.373124,-0.05528 -0.147406,-0.05988 -0.239535,-0.175046 -0.08752,-0.119768 -0.124375,-0.294813 -0.03685,-0.175046 -0.03685,-0.414581 V 83.37782 l 0.29942,-0.05528 z"
       id="text7"
       style="font-weight:300;font-size:4.60646px;line-height:125%;font-family:Ubuntu;-inkscape-font-specification:'Ubuntu Light';letter-spacing:0px;word-spacing:0px;fill:#ffffff;stroke-width:0.143952px"
       aria-label="Out" />
    <path
       style="font-size:5.83181px;line-height:125%;font-family:'Ubuntu Condensed';-inkscape-font-specification:'Ubuntu Condensed, ';letter-spacing:0px;word-spacing:0px;fill:#ff70ff;stroke-width:0.182244px"
       d="m 5.410945,115.32143 q 0.4082267,-0.0991 0.798958,-0.0991 0.3032541,0 0.5481901,0.0758 0.2507678,0.07 0.4257221,0.22744 0.1807861,0.15163 0.2740951,0.39657 0.099141,0.24493 0.099141,0.58901 0,0.34991 -0.099141,0.60068 -0.099141,0.24493 -0.2799269,0.40239 -0.1807861,0.15163 -0.4373857,0.22161 -0.2507679,0.07 -0.5598538,0.07 h -0.244936 v 1.49878 H 5.410945 Z m 0.5248629,2.02364 h 0.2099452 q 0.1982815,0 0.3557404,-0.0408 0.1632906,-0.0467 0.274095,-0.1458 0.1108044,-0.0991 0.1691225,-0.2566 0.058318,-0.15746 0.058318,-0.39073 0,-0.23327 -0.058318,-0.39073 -0.058318,-0.16329 -0.1632907,-0.2566 -0.099141,-0.0991 -0.244936,-0.13996 -0.1457952,-0.0408 -0.3207495,-0.0408 -0.1516271,0 -0.2799269,0.0175 z m 4.2047431,0.43155 q 0,0.36158 -0.06415,0.659 -0.06415,0.29159 -0.198282,0.50153 -0.1282999,0.20995 -0.3324132,0.32659 -0.1982815,0.11663 -0.4723766,0.11663 -0.2740951,0 -0.4782084,-0.11663 -0.2041134,-0.11664 -0.338245,-0.32659 -0.1282998,-0.20994 -0.1924497,-0.50153 -0.06415,-0.29742 -0.06415,-0.659 0,-0.35574 0.06415,-0.65316 0.06415,-0.29742 0.1924497,-0.50737 0.1341316,-0.21577 0.338245,-0.33241 0.2041133,-0.11664 0.4782084,-0.11664 0.2740951,0 0.4723766,0.11664 0.2041133,0.11664 0.3324132,0.33241 0.134132,0.20995 0.198282,0.50737 0.06415,0.29742 0.06415,0.65316 z m -0.5248625,0 q 0,-0.2566 -0.029159,-0.46654 -0.029159,-0.21578 -0.093309,-0.36741 -0.06415,-0.15745 -0.1691225,-0.2391 -0.1049726,-0.0875 -0.2507678,-0.0875 -0.1516271,0 -0.2565997,0.0875 -0.099141,0.0816 -0.1691224,0.2391 -0.06415,0.15163 -0.093309,0.36741 -0.029159,0.20994 -0.029159,0.46654 0,0.2566 0.029159,0.47238 0.029159,0.20995 0.093309,0.36157 0.069982,0.15163 0.1691224,0.23911 0.1049726,0.0816 0.2565997,0.0816 0.1457952,0 0.2507678,-0.0816 0.1049726,-0.0875 0.1691225,-0.23911 0.06415,-0.15162 0.093309,-0.36157 0.029159,-0.21578 0.029159,-0.47238 z m 2.0527935,1.58626 q -0.431554,-0.0117 -0.618172,-0.20995 -0.186618,-0.20411 -0.186618,-0.6415 v -3.64488 l 0.501536,-0.0875 v 3.74403 q 0,0.20411 0.08164,0.29742 0.08164,0.0875 0.285759,0.12247 z m 1.329653,-0.69399 q 0.169122,-0.58318 0.309086,-1.17219 0.139963,-0.58902 0.268263,-1.25384 h 0.495704 q -0.08748,0.42572 -0.19245,0.83978 -0.09914,0.41406 -0.209945,0.79896 -0.104973,0.3849 -0.215777,0.72897 -0.104973,0.33825 -0.198282,0.61817 -0.110804,0.32659 -0.215777,0.54819 -0.09914,0.22744 -0.221608,0.36158 -0.116637,0.13996 -0.2566,0.19828 -0.139963,0.0642 -0.332413,0.0642 -0.104973,0 -0.209945,-0.0292 -0.104973,-0.0233 -0.174955,-0.0525 l 0.09331,-0.40822 q 0.151627,0.0641 0.285759,0.0641 0.169122,0 0.274095,-0.12247 0.104973,-0.12247 0.204113,-0.36741 l 0.05832,-0.14579 q -0.110805,-0.30326 -0.227441,-0.67066 -0.110804,-0.37324 -0.221609,-0.77563 -0.104972,-0.4024 -0.204113,-0.82229 -0.09914,-0.42572 -0.180786,-0.82811 h 0.530694 q 0.04665,0.27409 0.110805,0.60067 0.06415,0.32659 0.134131,0.65317 0.07581,0.32658 0.151627,0.63566 0.07581,0.30326 0.145796,0.53653 z m 2.606816,-1.38797 q 0,-0.57152 0.104973,-0.97391 0.104972,-0.4024 0.297422,-0.65317 0.198282,-0.25659 0.472377,-0.3674 0.279927,-0.11664 0.624003,-0.11664 0.262432,0 0.478209,0.0758 0.215777,0.07 0.349908,0.16329 l -0.16329,0.43738 q -0.134132,-0.0933 -0.291591,-0.15162 -0.157459,-0.0641 -0.361572,-0.0641 -0.507368,0 -0.728976,0.41406 -0.221609,0.40822 -0.221609,1.23634 0,0.44322 0.06415,0.75814 0.06998,0.31491 0.19245,0.51319 0.122468,0.19829 0.297422,0.29159 0.174954,0.0933 0.390731,0.0933 0.180786,0 0.309086,-0.0408 v -1.58042 h 0.524863 v 1.90117 q -0.157459,0.0758 -0.390731,0.1283 -0.233273,0.0525 -0.489872,0.0525 -0.314918,0 -0.583181,-0.12247 -0.268264,-0.1283 -0.466545,-0.3849 -0.19245,-0.26243 -0.303254,-0.659 -0.104973,-0.40239 -0.104973,-0.95058 z m 3.242484,-0.97391 q 0.151627,-0.0642 0.32075,-0.0991 0.169122,-0.0408 0.367404,-0.0408 0.408227,0 0.664826,0.2566 0.2566,0.25077 0.2566,0.7873 v 2.02947 q -0.209945,0.0583 -0.431554,0.0933 -0.215777,0.035 -0.425722,0.035 -0.209945,0 -0.396563,-0.0525 -0.180786,-0.0525 -0.32075,-0.16912 -0.134132,-0.11664 -0.215777,-0.29159 -0.08164,-0.18079 -0.08164,-0.43739 0,-0.2391 0.06998,-0.41406 0.07581,-0.18078 0.204113,-0.29742 0.1283,-0.12247 0.303254,-0.18078 0.174954,-0.0641 0.379068,-0.0641 0.192449,0 0.425722,0.0466 v -0.27993 q 0,-0.33824 -0.134132,-0.47237 -0.1283,-0.13413 -0.373236,-0.13413 -0.134131,0 -0.256599,0.0291 -0.116637,0.0233 -0.250768,0.0817 z m 0.239104,2.10528 q 0,0.26826 0.139964,0.39656 0.139963,0.1283 0.396563,0.1283 0.157459,0 0.344077,-0.0408 v -0.97391 q -0.174955,-0.0467 -0.344077,-0.0467 -0.110804,0 -0.209945,0.0292 -0.09914,0.0233 -0.174954,0.0875 -0.06998,0.0583 -0.110805,0.16329 -0.04082,0.0991 -0.04082,0.2566 z m 2.711792,-2.16943 h 0.769799 v 0.43155 h -0.769799 v 1.68539 q 0,0.31492 0.110805,0.44322 0.116636,0.12247 0.309086,0.12247 0.09914,0 0.186618,-0.0292 0.09331,-0.0292 0.157459,-0.07 l 0.09914,0.40239 q -0.239104,0.13997 -0.507367,0.13997 -0.431554,0 -0.647331,-0.23911 -0.209945,-0.24493 -0.209945,-0.80479 v -2.90424 l 0.501535,-0.0875 z m 1.720385,1.67956 q 0.0058,0.22161 0.04082,0.40823 0.03499,0.18078 0.110804,0.32075 0.08165,0.13413 0.209945,0.20994 0.134132,0.0758 0.338245,0.0758 0.169123,0 0.309086,-0.0466 0.145795,-0.0525 0.209945,-0.0875 l 0.09331,0.4024 q -0.07581,0.0525 -0.256599,0.1108 -0.174955,0.0641 -0.419891,0.0641 -0.320749,0 -0.542358,-0.11663 -0.215777,-0.11664 -0.35574,-0.32659 -0.134132,-0.20994 -0.19245,-0.50153 -0.05832,-0.29159 -0.05832,-0.6415 0,-0.84561 0.279927,-1.23634 0.279926,-0.39074 0.740639,-0.39074 0.519032,0 0.734809,0.39074 0.215777,0.39073 0.215777,1.09638 0,0.0641 0,0.13413 0,0.0641 -0.0058,0.13413 z m 0.507367,-1.32965 q -0.250767,0 -0.367404,0.25076 -0.110804,0.25077 -0.134131,0.67066 h 0.927258 q 0,-0.42572 -0.08748,-0.67066 -0.08748,-0.25076 -0.338245,-0.25076 z"
       id="text8"
       aria-label="Poly Gate" />
    <path
       style="font-size:3.64446px;line-height:125%;font-family:'Ubuntu Condensed';-inkscape-font-specification:'Ubuntu Condensed, ';letter-spacing:0px;word-spacing:0px;fill:#d11f1f;stroke-width:0.113889px"
       d="M 1.9515659,57.909203 H 2.443568 v -0.524802 h 0.2696901 v 0.524802 h 0.4920021 v 0.266046 H 2.7132581 v 0.528447 H 2.443568 V 58.175249 H 1.9515659 Z m 0,1.035027 h 1.2536943 v 0.266046 H 1.9515659 Z m 2.106499,-2.040897 q -0.018222,0.262401 -0.025511,0.437335 -0.00729,0.174934 -0.014578,0.276979 0.3425793,0.04738 0.5029355,0.247823 0.1603563,0.200445 0.1603563,0.543024 0,0.193157 -0.054667,0.34258 -0.054667,0.149423 -0.1530674,0.251467 -0.094756,0.102045 -0.2259565,0.153068 -0.1312005,0.05467 -0.2842679,0.05467 -0.1056893,0 -0.2150231,-0.02916 -0.1093338,-0.02916 -0.2040898,-0.08382 l 0.087467,-0.258756 q 0.1567118,0.08747 0.3207125,0.08747 0.174934,0 0.2952012,-0.127556 0.1202672,-0.127556 0.1202672,-0.389958 0,-0.287912 -0.1640007,-0.411823 -0.1603562,-0.127557 -0.4920021,-0.142134 0.018222,-0.182223 0.029156,-0.331646 0.010933,-0.153068 0.018222,-0.295202 0.00729,-0.145778 0.010933,-0.287912 0.00729,-0.145778 0.010933,-0.309779 h 0.8528037 v 0.273335 z m 1.599919,2.252276 Q 5.5741613,58.882274 5.4903388,58.605295 5.4065162,58.324672 5.3226936,58.018537 5.2425155,57.712403 5.1623374,57.373468 5.0821592,57.030889 5.0019811,56.629998 h 0.3425793 q 0.047378,0.280623 0.1056893,0.564891 0.058311,0.280624 0.1239116,0.553958 0.0656,0.273335 0.1312006,0.532091 0.069245,0.255113 0.134845,0.484714 0.0656,-0.229601 0.1312006,-0.484714 0.069245,-0.258756 0.134845,-0.532091 0.0656,-0.273334 0.1239116,-0.553958 0.058311,-0.284268 0.1056894,-0.564891 h 0.3316458 q -0.080178,0.400891 -0.1603562,0.74347 -0.080178,0.338935 -0.1640007,0.645069 -0.080178,0.306135 -0.1640007,0.586758 -0.083823,0.276979 -0.1676452,0.550314 z"
       id="text9"
       aria-label="±5V" />
    <path
       style="font-size:3.64446px;line-height:125%;font-family:'Ubuntu Condensed';-inkscape-font-specification:'Ubuntu Condensed, ';letter-spacing:0px;word-spacing:0px;fill:#5858e6;stroke-width:0.113889px"
       d="m 34.230732,57.909203 h 0.492002 v -0.524802 h 0.26969 v 0.524802 h 0.492002 v 0.266046 h -0.492002 v 0.528447 h -0.26969 v -0.528447 h -0.492002 z m 0,1.035027 h 1.253694 v 0.266046 h -1.253694 z m 2.106499,-2.040897 q -0.01822,0.262401 -0.02551,0.437335 -0.0073,0.174934 -0.01458,0.276979 0.342579,0.04738 0.502936,0.247823 0.160356,0.200445 0.160356,0.543024 0,0.193157 -0.05467,0.34258 -0.05467,0.149423 -0.153067,0.251467 -0.09476,0.102045 -0.225957,0.153068 -0.131201,0.05467 -0.284268,0.05467 -0.105689,0 -0.215023,-0.02916 -0.109334,-0.02916 -0.20409,-0.08382 l 0.08747,-0.258756 q 0.156712,0.08747 0.320713,0.08747 0.174934,0 0.295201,-0.127556 0.120267,-0.127556 0.120267,-0.389958 0,-0.287912 -0.164,-0.411823 -0.160357,-0.127557 -0.492003,-0.142134 0.01822,-0.182223 0.02916,-0.331646 0.01093,-0.153068 0.01822,-0.295202 0.0073,-0.145778 0.01093,-0.287912 0.0073,-0.145778 0.01093,-0.309779 h 0.852804 v 0.273335 z m 1.599919,2.252276 q -0.08382,-0.273335 -0.167645,-0.550314 -0.08382,-0.280623 -0.167645,-0.586758 -0.08018,-0.306134 -0.160356,-0.645069 -0.08018,-0.342579 -0.160357,-0.74347 h 0.34258 q 0.04738,0.280623 0.105689,0.564891 0.05831,0.280624 0.123912,0.553958 0.0656,0.273335 0.1312,0.532091 0.06925,0.255113 0.134845,0.484714 0.0656,-0.229601 0.131201,-0.484714 0.06924,-0.258756 0.134845,-0.532091 0.0656,-0.273334 0.123911,-0.553958 0.05831,-0.284268 0.10569,-0.564891 h 0.331646 q -0.08018,0.400891 -0.160357,0.74347 -0.08018,0.338935 -0.164,0.645069 -0.08018,0.306135 -0.164001,0.586758 -0.08382,0.276979 -0.167645,0.550314 z"
       id="text10"
       aria-label="±5V" />
    <path
       style="font-size:3.50828px;line-height:125%;font-family:'Ubuntu Condensed';-inkscape-font-specification:'Ubuntu Condensed, ';letter-spacing:0px;word-spacing:0px;fill:#1a9c16;stroke-width:0.109634px"
       d="M 0.89324334,80.269422 H 1.3668611 V 79.76423 h 0.2596128 v 0.505192 h 0.4736178 v 0.256105 H 1.6264739 v 0.5087 H 1.3668611 v -0.5087 H 0.89324334 Z M 2.4965284,79.501109 q 0.066657,-0.03859 0.1368229,-0.09472 0.073674,-0.05613 0.1403312,-0.119281 0.066657,-0.06666 0.1227898,-0.133315 0.059641,-0.07017 0.098232,-0.136823 h 0.2315464 v 2.431238 h -0.301712 v -1.954112 q -0.059641,0.06315 -0.1403312,0.119282 -0.077182,0.05613 -0.1648892,0.105248 z m 1.4454124,0.729722 q 0,-0.357844 0.031575,-0.599916 0.031574,-0.245579 0.1017401,-0.392927 0.070166,-0.147348 0.175414,-0.210497 0.1087567,-0.06666 0.263121,-0.06666 0.150856,0 0.2596127,0.06666 0.1087567,0.06315 0.1789223,0.210497 0.070166,0.147348 0.1017401,0.392927 0.031574,0.242072 0.031574,0.599916 0,0.357845 -0.031574,0.603424 -0.031575,0.242072 -0.1017401,0.389419 -0.070166,0.147348 -0.1789223,0.214006 -0.1087567,0.06315 -0.2596127,0.06315 -0.1543643,0 -0.263121,-0.06315 -0.1052484,-0.06666 -0.175414,-0.214006 -0.070166,-0.147347 -0.1017401,-0.389419 -0.031575,-0.245579 -0.031575,-0.603424 z m 0.8279541,0 q 0,-0.287679 -0.014033,-0.480634 -0.014033,-0.192956 -0.045608,-0.308729 -0.028066,-0.115773 -0.077182,-0.164889 -0.049116,-0.04912 -0.1192815,-0.04912 -0.070166,0 -0.1192815,0.04912 -0.049116,0.04912 -0.080691,0.164889 -0.028066,0.115773 -0.042099,0.308729 -0.014033,0.192955 -0.014033,0.480634 0,0.287679 0.014033,0.480635 0.014033,0.192955 0.042099,0.308728 0.031574,0.115773 0.080691,0.164889 0.049116,0.04912 0.1192815,0.04912 0.070166,0 0.1192815,-0.04912 0.049116,-0.04912 0.077182,-0.164889 0.031575,-0.115773 0.045608,-0.308728 0.014033,-0.192956 0.014033,-0.480635 z m 1.1998328,1.217373 Q 5.8890372,81.185083 5.8083468,80.918454 5.7276563,80.648317 5.6469659,80.353621 5.5697837,80.058925 5.4926016,79.732655 5.4154194,79.402877 5.3382373,79.016966 h 0.3297783 q 0.045608,0.270138 0.1017401,0.543784 0.056132,0.270137 0.1192815,0.533258 0.063149,0.263121 0.1262981,0.512209 0.066657,0.24558 0.1298064,0.466601 0.063149,-0.221021 0.126298,-0.466601 0.066657,-0.249088 0.1298064,-0.512209 0.063149,-0.263121 0.1192815,-0.533258 0.056132,-0.273646 0.1017401,-0.543784 h 0.3192535 q -0.077182,0.385911 -0.1543643,0.715689 -0.077182,0.32627 -0.1578726,0.620966 -0.077182,0.294696 -0.1578726,0.564833 -0.08069,0.266629 -0.1613809,0.52975 z"
       id="text11"
       aria-label="+10V" />
    <path
       style="font-size:3.50828px;line-height:125%;font-family:'Ubuntu Condensed';-inkscape-font-specification:'Ubuntu Condensed, ';letter-spacing:0px;word-spacing:0px;fill:#ddaf21;stroke-width:0.109634px"
       d="m 33.701576,80.269422 h 0.473618 V 79.76423 h 0.259613 v 0.505192 h 0.473618 v 0.256105 h -0.473618 v 0.5087 h -0.259613 v -0.5087 h -0.473618 z m 1.603285,-0.768313 q 0.06666,-0.03859 0.136823,-0.09472 0.07367,-0.05613 0.140331,-0.119281 0.06666,-0.06666 0.12279,-0.133315 0.05964,-0.07017 0.09823,-0.136823 h 0.231547 v 2.431238 h -0.301713 v -1.954112 q -0.05964,0.06315 -0.140331,0.119282 -0.07718,0.05613 -0.164889,0.105248 z m 1.445413,0.729722 q 0,-0.357844 0.03157,-0.599916 0.03158,-0.245579 0.10174,-0.392927 0.07017,-0.147348 0.175414,-0.210497 0.108757,-0.06666 0.263121,-0.06666 0.150856,0 0.259613,0.06666 0.108757,0.06315 0.178922,0.210497 0.07017,0.147348 0.101741,0.392927 0.03157,0.242072 0.03157,0.599916 0,0.357845 -0.03157,0.603424 -0.03158,0.242072 -0.101741,0.389419 -0.07017,0.147348 -0.178922,0.214006 -0.108757,0.06315 -0.259613,0.06315 -0.154364,0 -0.263121,-0.06315 -0.105248,-0.06666 -0.175414,-0.214006 -0.07017,-0.147347 -0.10174,-0.389419 -0.03157,-0.245579 -0.03157,-0.603424 z m 0.827954,0 q 0,-0.287679 -0.01403,-0.480634 -0.01403,-0.192956 -0.04561,-0.308729 -0.02807,-0.115773 -0.07718,-0.164889 -0.04912,-0.04912 -0.119282,-0.04912 -0.07016,0 -0.119281,0.04912 -0.04912,0.04912 -0.08069,0.164889 -0.02807,0.115773 -0.0421,0.308729 -0.01403,0.192955 -0.01403,0.480634 0,0.287679 0.01403,0.480635 0.01403,0.192955 0.0421,0.308728 0.03157,0.115773 0.08069,0.164889 0.04912,0.04912 0.119281,0.04912 0.07017,0 0.119282,-0.04912 0.04912,-0.04912 0.07718,-0.164889 0.03158,-0.115773 0.04561,-0.308728 0.01403,-0.192956 0.01403,-0.480635 z m 1.199833,1.217373 q -0.08069,-0.263121 -0.161381,-0.52975 -0.08069,-0.270137 -0.161381,-0.564833 -0.07718,-0.294696 -0.154365,-0.620966 -0.07718,-0.329778 -0.154364,-0.715689 h 0.329778 q 0.04561,0.270138 0.101741,0.543784 0.05613,0.270137 0.119281,0.533258 0.06315,0.263121 0.126298,0.512209 0.06666,0.24558 0.129807,0.466601 0.06315,-0.221021 0.126298,-0.466601 0.06666,-0.249088 0.129806,-0.512209 0.06315,-0.263121 0.119282,-0.533258 0.05613,-0.273646 0.10174,-0.543784 h 0.319253 q -0.07718,0.385911 -0.154364,0.715689 -0.07718,0.32627 -0.157873,0.620966 -0.07718,0.294696 -0.157872,0.564833 -0.08069,0.266629 -0.161381,0.52975 z"
       id="text13"
       aria-label="+10V" />
  </g>
  <g
     inkscape:groupmode="layer"
     id="layer3"
     inkscape:label="components"
     style="display:none">
    <ellipse
       style="fill:#00ff00;fill-opacity:1;stroke:none;stroke-width:0.423749;stroke-linecap:round;stroke-linejoin:round;stroke-opacity:1"
       id="path2"
       cx="6.3211303"
       cy="18.712795"
       rx="3.8100009"
       ry="3.8100007"
       inkscape:label="A1" />
    <ellipse
       style="fill:#00ff00;fill-opacity:1;stroke:none;stroke-width:0.423749;stroke-linecap:round;stroke-linejoin:round;stroke-opacity:1"
       id="path2-5"
       cx="15.240001"
       cy="18.741663"
       rx="3.8100007"
       ry="3.8099997"
       inkscape:label="A2" />
    <ellipse
       style="fill:#00ff00;fill-opacity:1;stroke:none;stroke-width:0.423749;stroke-linecap:round;stroke-linejoin:round;stroke-opacity:1"
       id="path2-3"
       cx="6.3211303"
       cy="27.525831"
       rx="3.8100009"
       ry="3.8100007"
       inkscape:label="A3" />
    <ellipse
       style="fill:#00ff00;fill-opacity:1;stroke:none;stroke-width:0.423749;stroke-linecap:round;stroke-linejoin:round;stroke-opacity:1"
       id="path2-5-5"
       cx="15.240001"
       cy="27.554699"
       rx="3.8100007"
       ry="3.8099997"
       inkscape:label="A4" />
    <ellipse
       style="fill:#00ff00;fill-opacity:1;stroke:none;stroke-width:0.423749;stroke-linecap:round;stroke-linejoin:round;stroke-opacity:1"
       id="path2-6"
       cx="25.236431"
       cy="18.741663"
       rx="3.8100009"
       ry="3.8100007"
       inkscape:label="B1" />
    <ellipse
       style="fill:#00ff00;fill-opacity:1;stroke:none;stroke-width:0.423749;stroke-linecap:round;stroke-linejoin:round;stroke-opacity:1"
       id="path2-5-2"
       cx="34.155304"
       cy="18.741663"
       rx="3.8100007"
       ry="3.8099997"
       inkscape:label="B2" />
    <ellipse
       style="fill:#00ff00;fill-opacity:1;stroke:none;stroke-width:0.423749;stroke-linecap:round;stroke-linejoin:round;stroke-opacity:1"
       id="path2-3-9"
       cx="25.236431"
       cy="27.554699"
       rx="3.8100009"
       ry="3.8100007"
       inkscape:label="B3" />
    <ellipse
       style="fill:#00ff00;fill-opacity:1;stroke:none;stroke-width:0.423749;stroke-linecap:round;stroke-linejoin:round;stroke-opacity:1"
       id="path2-5-5-1"
       cx="34.155304"
       cy="27.554699"
       rx="3.8100007"
       ry="3.8099997"
       inkscape:label="B4" />
    <ellipse
       style="fill:#00ff00;fill-opacity:1;stroke:none;stroke-width:0.423749;stroke-linecap:round;stroke-linejoin:round;stroke-opacity:1"
       id="ellipse2"
       cx="6.3211303"
       cy="37.714699"
       rx="3.8100009"
       ry="3.8100007"
       inkscape:label="C1" />
    <ellipse
       style="fill:#00ff00;fill-opacity:1;stroke:none;stroke-width:0.423749;stroke-linecap:round;stroke-linejoin:round;stroke-opacity:1"
       id="ellipse3"
       cx="15.240001"
       cy="37.743565"
       rx="3.8100007"
       ry="3.8099997"
       inkscape:label="C2" />
    <ellipse
       style="fill:#00ff00;fill-opacity:1;stroke:none;stroke-width:0.423749;stroke-linecap:round;stroke-linejoin:round;stroke-opacity:1"
       id="ellipse4"
       cx="6.3211303"
       cy="46.527733"
       rx="3.8100009"
       ry="3.8100007"
       inkscape:label="C3" />
    <ellipse
       style="fill:#00ff00;fill-opacity:1;stroke:none;stroke-width:0.423749;stroke-linecap:round;stroke-linejoin:round;stroke-opacity:1"
       id="ellipse5"
       cx="15.240001"
       cy="46.556602"
       rx="3.8100007"
       ry="3.8099997"
       inkscape:label="C4" />
    <ellipse
       style="fill:#00ff00;fill-opacity:1;stroke:none;stroke-width:0.423749;stroke-linecap:round;stroke-linejoin:round;stroke-opacity:1"
       id="ellipse6"
       cx="25.236431"
       cy="37.743565"
       rx="3.8100009"
       ry="3.8100007"
       inkscape:label="D1" />
    <ellipse
       style="fill:#00ff00;fill-opacity:1;stroke:none;stroke-width:0.423749;stroke-linecap:round;stroke-linejoin:round;stroke-opacity:1"
       id="ellipse7"
       cx="34.155304"
       cy="37.743565"
       rx="3.8100007"
       ry="3.8099997"
       inkscape:label="D2" />
    <ellipse
       style="fill:#00ff00;fill-opacity:1;stroke:none;stroke-width:0.423749;stroke-linecap:round;stroke-linejoin:round;stroke-opacity:1"
       id="ellipse8"
       cx="25.236431"
       cy="46.556602"
       rx="3.8100009"
       ry="3.8100007"
       inkscape:label="D3" />
    <ellipse
       style="fill:#00ff00;fill-opacity:1;stroke:none;stroke-width:0.423749;stroke-linecap:round;stroke-linejoin:round;stroke-opacity:1"
       id="ellipse9"
       cx="34.155304"
       cy="46.556602"
       rx="3.8100007"
       ry="3.8099997"
       inkscape:label="D4" />
    <ellipse
       style="fill:#ff00ff;fill-opacity:1;stroke:none;stroke-width:0.564999;stroke-linecap:round;stroke-linejoin:round;stroke-opacity:1"
       id="path9"
       cx="10.795342"
       cy="23.175163"
       rx="2.5400004"
       ry="2.54"
       inkscape:label="A" />
    <ellipse
       style="fill:#ff00ff;fill-opacity:1;stroke:none;stroke-width:0.564999;stroke-linecap:round;stroke-linejoin:round;stroke-opacity:1"
       id="ellipse10"
       cx="29.759838"
       cy="23.115883"
       rx="2.5400004"
       ry="2.54"
       inkscape:label="B" />
    <ellipse
       style="fill:#ff00ff;fill-opacity:1;stroke:none;stroke-width:0.564999;stroke-linecap:round;stroke-linejoin:round;stroke-opacity:1"
       id="ellipse11"
       cx="10.795341"
       cy="42.091721"
       rx="2.5400004"
       ry="2.54"
       inkscape:label="C" />
    <ellipse
       style="fill:#ff00ff;fill-opacity:1;stroke:none;stroke-width:0.564999;stroke-linecap:round;stroke-linejoin:round;stroke-opacity:1"
       id="ellipse12"
       cx="29.759838"
       cy="42.091721"
       rx="2.5400004"
       ry="2.54"
       inkscape:label="D" />
    <ellipse
       style="fill:#0000ff;fill-opacity:1;stroke:none;stroke-width:0.564999;stroke-linecap:round;stroke-linejoin:round;stroke-opacity:1"
       id="path20"
       cx="14.710835"
       cy="63.720833"
       rx="5.0800009"
       ry="5.0799999"
       inkscape:label="Out1" />
    <ellipse
       style="display:inline;fill:#0000ff;fill-opacity:1;stroke:none;stroke-width:0.564999;stroke-linecap:round;stroke-linejoin:round;stroke-opacity:1"
       id="path20-7"
       cx="25.929169"
       cy="63.720833"
       rx="5.0800009"
       ry="5.0799999"
       inkscape:label="Out2" />
    <ellipse
       style="display:inline;fill:#0000ff;fill-opacity:1;stroke:none;stroke-width:0.564999;stroke-linecap:round;stroke-linejoin:round;stroke-opacity:1"
       id="path20-4"
       cx="14.710835"
       cy="74.939163"
       rx="5.0800009"
       ry="5.0799999"
       inkscape:label="Out3" />
    <ellipse
       style="display:inline;fill:#0000ff;fill-opacity:1;stroke:none;stroke-width:0.564999;stroke-linecap:round;stroke-linejoin:round;stroke-opacity:1"
       id="path20-7-1"
       cx="25.929169"
       cy="74.939163"
       rx="5.0800009"
       ry="5.0799999"
       inkscape:label="Out4" />
    <ellipse
       style="fill:#0000ff;fill-opacity:1;stroke:none;stroke-width:0.564999;stroke-linecap:round;stroke-linejoin:round;stroke-opacity:1"
       id="path21"
       cx="9.6308346"
       cy="92.190002"
       rx="5.0800009"
       ry="5.0799999"
       inkscape:label="X" />
    <ellipse
       style="display:inline;fill:#0000ff;fill-opacity:1;stroke:none;stroke-width:0.564999;stroke-linecap:round;stroke-linejoin:round;stroke-opacity:1"
       id="path21-5"
       cx="9.6308336"
       cy="104.89"
       rx="5.0800009"
       ry="5.0799999"
       inkscape:label="Y" />
    <ellipse
       style="fill:#00ff00;fill-opacity:1;stroke:none;stroke-width:0.564999;stroke-linecap:round;stroke-linejoin:round;stroke-opacity:1"
       id="ellipse21"
       cx="31.009171"
       cy="92.190002"
       rx="5.0800009"
       ry="5.0799999"
       inkscape:label="X" />
    <ellipse
       style="display:inline;fill:#00ff00;fill-opacity:1;stroke:none;stroke-width:0.564999;stroke-linecap:round;stroke-linejoin:round;stroke-opacity:1"
       id="ellipse22"
       cx="31.009169"
       cy="104.89"
       rx="5.0800009"
       ry="5.0799999"
       inkscape:label="Y" />
    <ellipse
       style="fill:#0000ff;fill-opacity:1;stroke:none;stroke-width:0.564999;stroke-linecap:round;stroke-linejoin:round;stroke-opacity:1"
       id="path23"
       cx="31.009169"
       cy="117.59"
       rx="5.0800009"
       ry="5.0799999" />
  </g>
</svg>
