<?xml version="1.0" encoding="UTF-8" standalone="no"?>
<!-- Created with Inkscape (http://www.inkscape.org/) -->

<svg
   width="15.24mm"
   height="128.5mm"
   viewBox="0 0 15.24 128.5"
   version="1.1"
   id="svg1524"
   inkscape:version="1.3.2 (091e20ef0f, 2023-11-25, custom)"
   sodipodi:docname="VoltageRange.svg"
   xmlns:inkscape="http://www.inkscape.org/namespaces/inkscape"
   xmlns:sodipodi="http://sodipodi.sourceforge.net/DTD/sodipodi-0.dtd"
   xmlns:xlink="http://www.w3.org/1999/xlink"
   xmlns="http://www.w3.org/2000/svg"
   xmlns:svg="http://www.w3.org/2000/svg">
  <sodipodi:namedview
     id="namedview1526"
     pagecolor="#cccccc"
     bordercolor="#666666"
     borderopacity="1.0"
     inkscape:pageshadow="2"
     inkscape:pageopacity="1"
     inkscape:pagecheckerboard="0"
     inkscape:document-units="mm"
     showgrid="true"
     units="in"
     inkscape:showpageshadow="2"
     inkscape:deskcolor="#d1d1d1"
     inkscape:zoom="4.6601184"
     inkscape:cx="7.4032454"
     inkscape:cy="370.16227"
     inkscape:window-width="1920"
     inkscape:window-height="1008"
     inkscape:window-x="0"
     inkscape:window-y="0"
     inkscape:window-maximized="1"
     inkscape:current-layer="g10">
    <inkscape:grid
       type="xygrid"
       id="grid1608"
       originx="7.6200001"
       originy="64.250002"
       units="mm"
       spacingx="2.5400001"
       spacingy="2.5400001"
       visible="true" />
  </sodipodi:namedview>
  <defs
     id="defs1521">
    <linearGradient
       id="linearGradient4"
       inkscape:collect="always">
      <stop
         style="stop-color:#ff70ff;stop-opacity:1;"
         offset="0"
         id="stop4" />
      <stop
         style="stop-color:#a800a8;stop-opacity:1;"
         offset="1"
         id="stop5" />
    </linearGradient>
    <linearGradient
       inkscape:collect="always"
       xlink:href="#linearGradient4"
       id="linearGradient5"
       x1="7.6199999"
       y1="89.650002"
       x2="7.6199999"
       y2="99.809998"
       gradientUnits="userSpaceOnUse"
       gradientTransform="translate(1.4040223e-7,17.885841)" />
    <linearGradient
       inkscape:collect="always"
       xlink:href="#linearGradient4"
       id="linearGradient2"
       gradientUnits="userSpaceOnUse"
       x1="7.6199999"
       y1="89.650002"
       x2="7.6199999"
       y2="99.809998"
       gradientTransform="translate(-2.018614e-7,2.5399932)" />
  </defs>
  <g
     inkscape:groupmode="layer"
     id="layer2"
     inkscape:label="Background"
     sodipodi:insensitive="true">
    <rect
       style="display:inline;fill:#1a1a1a;stroke-width:0.226364"
       id="rect374"
       width="15.24"
       height="128.5"
       x="0"
       y="0" />
  </g>
  <g
     inkscape:label="Layer 1"
     inkscape:groupmode="layer"
     id="layer1">
    <rect
       style="fill:url(#linearGradient5);fill-opacity:1;stroke:none;stroke-width:0.564999;stroke-linecap:round;stroke-linejoin:round"
       id="rect4"
       width="10.16"
       height="10.16"
       x="2.5399995"
       y="107.53584"
       rx="1"
       ry="1" />
    <rect
       style="fill:url(#linearGradient2);fill-opacity:1;stroke:none;stroke-width:0.564999;stroke-linecap:round;stroke-linejoin:round"
       id="rect4-7"
       width="10.16"
       height="10.16"
       x="2.5399997"
       y="92.189995"
       rx="1"
       ry="1" />
    <g
       id="g1226"
       style="stroke-width:0.480244;stroke-dasharray:none"
       inkscape:label="logo"
       transform="matrix(0.55596722,0,0,0.55596722,-0.84252359,55.133401)">
      <path
         style="fill:none;fill-rule:evenodd;stroke:#ff7f7f;stroke-width:0.480244;stroke-linecap:round;stroke-linejoin:round;stroke-dasharray:none;stroke-opacity:1"
         d="m 4.7708989,116.7807 -1.3131348,0.65656 -1.3131348,0.65657 2.6262696,2.62627 -2.6262696,1.31314"
         id="path496"
         sodipodi:nodetypes="ccccc" />
      <path
         style="fill:none;fill-rule:evenodd;stroke:#feff7f;stroke-width:0.480244;stroke-linecap:round;stroke-linejoin:round;stroke-dasharray:none;stroke-opacity:1"
         d="m 6.0840338,122.03324 v -5.25254 l 2.6262702,1.31313 -2.6262702,1.31314"
         id="path498" />
      <path
         style="fill:none;fill-rule:evenodd;stroke:#7fff7f;stroke-width:0.480244;stroke-linecap:round;stroke-linejoin:round;stroke-dasharray:none;stroke-opacity:1"
         d="m 8.710304,122.03324 1.313135,-5.25254 1.313135,5.25254"
         id="path500" />
      <path
         style="fill:none;fill-rule:evenodd;stroke:#80ffff;stroke-width:0.480244;stroke-linecap:round;stroke-linejoin:round;stroke-dasharray:none;stroke-opacity:1"
         d="m 12.649708,122.03324 v -5.25254 l 2.62627,1.31313 -2.62627,1.31314 2.62627,2.62627"
         id="path502" />
      <path
         style="fill:none;fill-rule:evenodd;stroke:#8080ff;stroke-width:0.480244;stroke-linecap:round;stroke-linejoin:round;stroke-dasharray:none;stroke-opacity:1"
         d="m 16.589114,116.7807 v 5.25254"
         id="path504" />
      <path
         style="fill:none;fill-rule:evenodd;stroke:#8080ff;stroke-width:0.480244;stroke-linecap:round;stroke-linejoin:round;stroke-dasharray:none;stroke-opacity:1"
         d="m 19.215383,116.7807 -2.626269,2.62627 2.626269,2.62627"
         id="path506" />
      <path
         style="fill:none;fill-rule:evenodd;stroke:#bf80ff;stroke-width:0.480244;stroke-linecap:round;stroke-linejoin:round;stroke-dasharray:none;stroke-opacity:1"
         d="m 21.786938,116.7807 -2.626269,1.31313 2.626269,1.31314 -2.626269,1.31313 2.626269,1.31314"
         id="path508" />
      <path
         style="fill:none;fill-rule:evenodd;stroke:#ff80ff;stroke-width:0.480244;stroke-linecap:round;stroke-linejoin:round;stroke-dasharray:none;stroke-opacity:1"
         d="m 21.732224,116.7807 h 3.939404"
         id="path514" />
      <path
         style="fill:none;fill-rule:evenodd;stroke:#ff80ff;stroke-width:0.480244;stroke-linecap:round;stroke-linejoin:round;stroke-dasharray:none;stroke-opacity:1"
         d="m 23.045358,116.7807 v 5.25254"
         id="path516" />
      <path
         style="fill:none;fill-rule:evenodd;stroke:#ff80ff;stroke-width:0.480244;stroke-linecap:round;stroke-linejoin:round;stroke-dasharray:none;stroke-opacity:1"
         d="m 24.358493,116.7807 v 5.25254"
         id="path518" />
      <path
         style="fill:none;fill-rule:evenodd;stroke:#ff80bf;stroke-width:0.480244;stroke-linecap:round;stroke-linejoin:round;stroke-dasharray:none;stroke-opacity:1"
         d="m 28.297898,116.7807 -2.62627,1.31313 2.62627,1.31314 -2.62627,1.31313 2.62627,1.31314"
         id="path520" />
      <path
         style="fill:none;fill-rule:evenodd;stroke:#7fff7f;stroke-width:0.480244;stroke-linecap:round;stroke-linejoin:round;stroke-dasharray:none;stroke-opacity:1"
         d="M 9.3319214,119.40697 H 10.714956"
         id="path630" />
    </g>
  </g>
  <g
     inkscape:groupmode="layer"
     id="layer4"
     inkscape:label="Text"
     style="display:none">
    <text
       xml:space="preserve"
       style="font-size:4.23332px;line-height:125%;font-family:sans-serif;letter-spacing:0px;word-spacing:0px;fill:#ff70ff;fill-opacity:1;stroke:none;stroke-width:0.132291px;stroke-linecap:butt;stroke-linejoin:miter;stroke-opacity:1"
       x="3.6046991"
       y="24.696302"
       id="text3"><tspan
         sodipodi:role="line"
         id="tspan3"
         style="font-style:normal;font-variant:normal;font-weight:normal;font-stretch:normal;font-family:'Ubuntu Condensed';-inkscape-font-specification:'Ubuntu Condensed, ';fill:#ff70ff;fill-opacity:1;stroke:none;stroke-width:0.132291px"
         x="3.6046991"
         y="24.696302">From</tspan></text>
    <text
       xml:space="preserve"
       style="font-size:4.23332px;line-height:125%;font-family:sans-serif;letter-spacing:0px;word-spacing:0px;fill:#ff70ff;fill-opacity:1;stroke:none;stroke-width:0.132291px;stroke-linecap:butt;stroke-linejoin:miter;stroke-opacity:1"
       x="5.9203219"
       y="58.043922"
       id="text3-7"><tspan
         sodipodi:role="line"
         id="tspan3-1"
         style="font-style:normal;font-variant:normal;font-weight:normal;font-stretch:normal;font-family:'Ubuntu Condensed';-inkscape-font-specification:'Ubuntu Condensed, ';fill:#ff70ff;fill-opacity:1;stroke:none;stroke-width:0.132291px"
         x="5.9203219"
         y="58.043922">to</tspan></text>
    <text
       xml:space="preserve"
       style="font-size:3.7209px;line-height:125%;font-family:sans-serif;letter-spacing:0px;word-spacing:0px;fill:#ff70ff;fill-opacity:1;stroke:#000000;stroke-width:0.116278px;stroke-linecap:butt;stroke-linejoin:miter;stroke-opacity:1"
       x="1.2981871"
       y="7.7850156"
       id="text4"><tspan
         sodipodi:role="line"
         id="tspan4"
         style="font-style:normal;font-variant:normal;font-weight:normal;font-stretch:normal;font-family:'Ubuntu Condensed';-inkscape-font-specification:'Ubuntu Condensed, ';fill:#ff70ff;fill-opacity:1;stroke:none;stroke-width:0.116278px"
         x="1.2981871"
         y="7.7850156">Channels</tspan></text>
    <text
       xml:space="preserve"
       style="font-size:3.8931px;line-height:110%;font-family:sans-serif;letter-spacing:0px;word-spacing:0px;fill:#ffffff;fill-opacity:1;stroke:none;stroke-width:0.121659px;stroke-linecap:butt;stroke-linejoin:miter;stroke-opacity:1"
       x="7.595799"
       y="106.29704"
       id="text5"><tspan
         sodipodi:role="line"
         style="font-style:normal;font-variant:normal;font-weight:normal;font-stretch:normal;line-height:110%;font-family:'Ubuntu Condensed';-inkscape-font-specification:'Ubuntu Condensed, ';text-align:center;text-anchor:middle;fill:#ffffff;fill-opacity:1;stroke:none;stroke-width:0.121659px"
         x="7.595799"
         y="106.29704"
         id="tspan7">V. Range</tspan></text>
    <text
       xml:space="preserve"
       style="font-size:3.29259px;line-height:125%;font-family:sans-serif;letter-spacing:0px;word-spacing:0px;fill:#ff70ff;fill-opacity:1;stroke:none;stroke-width:0.102893px;stroke-linecap:butt;stroke-linejoin:miter;stroke-opacity:1"
       x="0.80104679"
       y="91.084015"
       id="text2"><tspan
         sodipodi:role="line"
         style="fill:#ff70ff;fill-opacity:1;stroke:none;stroke-width:0.102893px"
         x="0.80104679"
         y="91.084015"
         id="tspan1">ΔVoltage</tspan></text>
  </g>
  <g
     inkscape:groupmode="layer"
     id="g10"
     inkscape:label="Text"
     style="display:inline"
     sodipodi:insensitive="true">
    <path
       style="font-size:4.23332px;line-height:125%;font-family:'Ubuntu Condensed';-inkscape-font-specification:'Ubuntu Condensed, ';letter-spacing:0px;word-spacing:0px;fill:#ff70ff;stroke-width:0.132291px"
       d="m 3.960298,24.696302 v -2.933691 h 1.3165626 v 0.325966 H 4.3412969 v 0.922864 H 5.1710276 V 23.32894 H 4.3412969 v 1.367362 z m 2.6542923,-1.892294 q -0.1354662,-0.05927 -0.304799,-0.05927 -0.1566329,0 -0.2920991,0.05503 v 1.896527 H 5.6536267 v -2.125126 q 0.1227662,-0.05927 0.2793991,-0.09737 0.1608662,-0.04233 0.3513656,-0.04233 0.1015997,0 0.2031993,0.0127 0.1015997,0.0127 0.1904995,0.04657 z m 1.8118564,0.783165 q 0,0.262465 -0.046566,0.478365 -0.046567,0.211666 -0.1439329,0.364065 -0.093133,0.1524 -0.2412992,0.237066 -0.1439329,0.08467 -0.342899,0.08467 -0.198966,0 -0.3471322,-0.08467 -0.1481662,-0.08467 -0.2455326,-0.237066 -0.093133,-0.152399 -0.1396996,-0.364065 -0.046566,-0.2159 -0.046566,-0.478365 0,-0.258233 0.046566,-0.474132 0.046567,-0.2159 0.1396996,-0.368299 0.097366,-0.156633 0.2455326,-0.241299 0.1481662,-0.08467 0.3471322,-0.08467 0.1989661,0 0.342899,0.08467 0.1481662,0.08467 0.2412992,0.241299 0.097366,0.152399 0.1439329,0.368299 0.046566,0.215899 0.046566,0.474132 z m -0.3809988,0 q 0,-0.186267 -0.021167,-0.338666 -0.021167,-0.156633 -0.067733,-0.266699 -0.046566,-0.1143 -0.1227663,-0.173566 -0.0762,-0.0635 -0.1820328,-0.0635 -0.1100663,0 -0.1862661,0.0635 -0.071966,0.05927 -0.1227662,0.173566 -0.046567,0.110066 -0.067733,0.266699 -0.021167,0.152399 -0.021167,0.338666 0,0.186266 0.021167,0.342898 0.021167,0.1524 0.067733,0.262466 0.0508,0.110067 0.1227662,0.173566 0.0762,0.05927 0.1862661,0.05927 0.105833,0 0.1820328,-0.05927 0.0762,-0.0635 0.1227663,-0.173566 0.046566,-0.110066 0.067733,-0.262466 0.021167,-0.156632 0.021167,-0.342898 z m 0.9143945,-1.049864 q 0.1481662,-0.04657 0.3217324,-0.0762 0.1735661,-0.03387 0.317499,-0.03387 0.1481662,0 0.2666991,0.0381 0.1227663,0.0381 0.2158991,0.126999 0.110067,-0.07197 0.237066,-0.118533 0.127,-0.04657 0.279399,-0.04657 0.1524,0 0.275166,0.04657 0.127,0.04233 0.215899,0.148166 0.0889,0.105834 0.1397,0.287866 0.0508,0.1778 0.0508,0.444499 v 1.341962 h -0.364066 v -1.312329 q 0,-0.330199 -0.0762,-0.482598 -0.0762,-0.1524 -0.287866,-0.1524 -0.08043,0 -0.1651,0.02963 -0.08043,0.02963 -0.152399,0.08043 0.03387,0.09737 0.0508,0.220133 0.01693,0.122766 0.01693,0.275166 v 1.341962 H 9.9377394 v -1.312329 q 0,-0.330199 -0.0762,-0.482598 -0.0762,-0.1524 -0.2878657,-0.1524 -0.1100664,0 -0.2497659,0.04233 v 1.904994 H 8.9598424 Z"
       id="text6"
       aria-label="From" />
    <path
       style="font-size:4.23332px;line-height:125%;font-family:'Ubuntu Condensed';-inkscape-font-specification:'Ubuntu Condensed, ';letter-spacing:0px;word-spacing:0px;fill:#ff70ff;stroke-width:0.132291px"
       d="m 6.5891865,55.821429 h 0.5587983 v 0.313266 H 6.5891865 v 1.22343 q 0,0.228599 0.080433,0.321732 0.084666,0.0889 0.224366,0.0889 0.071966,0 0.1354662,-0.02117 0.067733,-0.02117 0.1142997,-0.0508 l 0.071966,0.292099 q -0.1735661,0.1016 -0.3682988,0.1016 -0.3132657,0 -0.4698986,-0.173566 -0.1523995,-0.1778 -0.1523995,-0.584198 v -2.108194 l 0.3640655,-0.0635 z m 2.4256924,1.113364 q 0,0.262465 -0.046566,0.478365 -0.046567,0.211666 -0.1439329,0.364065 -0.093133,0.1524 -0.2412992,0.237066 -0.1439329,0.08467 -0.342899,0.08467 -0.198966,0 -0.3471322,-0.08467 -0.1481662,-0.08467 -0.2455326,-0.237066 -0.093133,-0.152399 -0.1396996,-0.364065 -0.046566,-0.2159 -0.046566,-0.478365 0,-0.258233 0.046566,-0.474132 0.046567,-0.2159 0.1396996,-0.368299 0.097366,-0.156633 0.2455326,-0.241299 0.1481662,-0.08467 0.3471322,-0.08467 0.1989661,0 0.342899,0.08467 0.1481662,0.08467 0.2412992,0.241299 0.097366,0.152399 0.1439329,0.368299 0.046566,0.215899 0.046566,0.474132 z m -0.3809988,0 q 0,-0.186267 -0.021167,-0.338666 -0.021167,-0.156633 -0.067733,-0.266699 -0.046567,-0.1143 -0.1227663,-0.173566 -0.0762,-0.0635 -0.1820328,-0.0635 -0.1100663,0 -0.1862661,0.0635 -0.071966,0.05927 -0.1227662,0.173566 -0.046567,0.110066 -0.067733,0.266699 -0.021167,0.152399 -0.021167,0.338666 0,0.186266 0.021167,0.342898 0.021167,0.1524 0.067733,0.262466 0.0508,0.110067 0.1227662,0.173566 0.0762,0.05927 0.1862661,0.05927 0.105833,0 0.1820328,-0.05927 0.0762,-0.0635 0.1227663,-0.173566 0.046567,-0.110066 0.067733,-0.262466 0.021167,-0.156632 0.021167,-0.342898 z"
       id="text7"
       aria-label="to" />
    <path
       style="font-size:3.7209px;line-height:125%;font-family:'Ubuntu Condensed';-inkscape-font-specification:'Ubuntu Condensed, ';letter-spacing:0px;word-spacing:0px;fill:#ff70ff;stroke-width:0.116278px"
       d="m 2.4405035,7.8408291 q -0.4539499,0 -0.6958084,-0.3386019 -0.2418585,-0.3386019 -0.2418585,-1.0455729 0,-0.3609273 0.066976,-0.6102276 0.070697,-0.2493004 0.1934868,-0.4055782 0.1227897,-0.1562778 0.2902302,-0.223254 0.1674406,-0.070697 0.3646483,-0.070697 0.1637196,0 0.3051138,0.044651 0.1413942,0.04093 0.2306958,0.1041852 L 2.8535234,5.5748009 Q 2.7642218,5.5152665 2.6600366,5.4780575 2.5595723,5.4408485 2.4256199,5.4408485 q -0.2976721,0 -0.4316245,0.2493003 -0.1339524,0.2455795 -0.1339524,0.7665055 0,0.5246469 0.1413942,0.8074353 0.1413942,0.2827884 0.4613917,0.2827884 0.1525569,0 0.2455794,-0.037209 0.096743,-0.037209 0.186045,-0.096743 l 0.093023,0.2641839 q -0.085581,0.066976 -0.2269749,0.1153479 -0.1376733,0.048372 -0.3199974,0.048372 z m 0.8930154,-0.055813 v -2.831605 l 0.3199974,-0.055814 v 0.9451087 q 0.070697,-0.022325 0.1525569,-0.037209 0.085581,-0.014884 0.1711614,-0.014884 0.1227897,0 0.2306958,0.04093 0.1079061,0.037209 0.186045,0.1302315 0.08186,0.093023 0.1265106,0.2530212 0.048372,0.1562778 0.048372,0.3906945 V 7.7850156 H 4.2488603 v -1.153479 q 0,-0.2902302 -0.074418,-0.4241826 -0.074418,-0.1339524 -0.2790675,-0.1339524 -0.1079061,0 -0.2418585,0.037209 v 1.674405 z M 5.1567611,5.872473 q 0.096743,-0.04093 0.2046495,-0.063255 0.1079061,-0.026046 0.2344168,-0.026046 0.260463,0 0.4241826,0.1637196 0.1637196,0.1599987 0.1637196,0.5023215 v 1.2948732 q -0.1339524,0.037209 -0.2753466,0.059534 -0.1376733,0.022325 -0.2716257,0.022325 -0.1339524,0 -0.2530213,-0.033488 Q 5.2683881,7.7589693 5.1790865,7.6845513 5.0935058,7.6101333 5.0414132,7.4985063 4.9893206,7.3831584 4.9893206,7.2194388 q 0,-0.1525569 0.044651,-0.2641839 0.048372,-0.1153479 0.1302315,-0.1897659 0.08186,-0.078139 0.1934868,-0.1153479 0.111627,-0.04093 0.2418586,-0.04093 0.1227897,0 0.2716257,0.029767 V 6.4603752 q 0,-0.2158122 -0.085581,-0.3013929 -0.08186,-0.085581 -0.2381376,-0.085581 -0.085581,0 -0.1637197,0.018604 -0.074418,0.014884 -0.1599987,0.052093 z M 5.309318,7.2157179 q 0,0.1711614 0.089302,0.2530212 0.089302,0.08186 0.2530213,0.08186 0.1004643,0 0.2195331,-0.026046 V 6.9031623 q -0.111627,-0.029767 -0.2195331,-0.029767 -0.070697,0 -0.1339524,0.018605 -0.063255,0.014884 -0.1116271,0.055814 -0.044651,0.037209 -0.070697,0.1041852 -0.026046,0.063255 -0.026046,0.1637196 z M 6.7418645,5.8873566 q 0.1376733,-0.04093 0.297672,-0.066976 0.1599987,-0.029767 0.2939511,-0.029767 0.1451151,0 0.2641839,0.04093 0.1190688,0.037209 0.2009286,0.1302315 0.085581,0.093023 0.1302315,0.2530212 0.048372,0.1562778 0.048372,0.3906945 V 7.7850156 H 7.6572059 v -1.153479 q 0,-0.2902302 -0.074418,-0.4241826 -0.074418,-0.1339524 -0.2790675,-0.1339524 -0.1079061,0 -0.2418585,0.037209 v 1.674405 H 6.7418645 Z m 1.7934751,0 q 0.1376733,-0.04093 0.297672,-0.066976 0.1599988,-0.029767 0.2939512,-0.029767 0.1451151,0 0.2641839,0.04093 0.1190688,0.037209 0.2009286,0.1302315 0.085581,0.093023 0.1302315,0.2530212 0.048372,0.1562778 0.048372,0.3906945 V 7.7850156 H 9.4506811 v -1.153479 q 0,-0.2902302 -0.074418,-0.4241826 -0.074418,-0.1339524 -0.2790675,-0.1339524 -0.1079061,0 -0.2418586,0.037209 v 1.674405 H 8.5353396 Z m 2.0130084,1.0158057 q 0.0037,0.1413942 0.02605,0.260463 0.02233,0.1153479 0.0707,0.2046495 0.05209,0.085581 0.133953,0.1339524 0.08558,0.048372 0.215812,0.048372 0.107906,0 0.197208,-0.029767 0.09302,-0.033488 0.133952,-0.055813 l 0.05953,0.2567421 q -0.04837,0.033488 -0.163719,0.070697 -0.111627,0.04093 -0.267905,0.04093 -0.204649,0 -0.346044,-0.074418 -0.137673,-0.074418 -0.226975,-0.2083704 -0.08558,-0.1339524 -0.122789,-0.3199974 -0.03721,-0.186045 -0.03721,-0.409299 0,-0.5395305 0.178603,-0.7888308 0.178603,-0.2493003 0.472554,-0.2493003 0.33116,0 0.468834,0.2493003 0.137673,0.2493003 0.137673,0.6995292 0,0.04093 0,0.085581 0,0.04093 -0.0037,0.085581 z m 0.323718,-0.8483652 q -0.159998,0 -0.234417,0.1599987 -0.0707,0.1599987 -0.08558,0.4279035 h 0.591623 q 0,-0.2716257 -0.05581,-0.4279035 -0.05581,-0.1599987 -0.215812,-0.1599987 z m 1.585107,1.7674275 Q 12.181826,7.8147828 12.062757,7.6882722 11.943688,7.5580407 11.943688,7.2789732 V 4.9534106 l 0.319998,-0.055814 V 7.286415 q 0,0.1302315 0.05209,0.1897659 0.05209,0.055814 0.182325,0.078139 z m 0.669762,-0.2641839 q 0.141395,0 0.212092,-0.078139 0.07442,-0.08186 0.07442,-0.2120913 0,-0.08186 -0.02977,-0.1376733 -0.02977,-0.059534 -0.07814,-0.1041852 -0.04837,-0.044651 -0.111627,-0.078139 -0.06326,-0.037209 -0.126511,-0.078139 -0.06325,-0.037209 -0.12279,-0.085581 -0.05953,-0.052093 -0.107906,-0.1153479 -0.04465,-0.066976 -0.07442,-0.148836 -0.02605,-0.085581 -0.02605,-0.1972077 0,-0.2418585 0.148836,-0.3906945 0.152557,-0.148836 0.409299,-0.148836 0.107906,0 0.204649,0.029767 0.09674,0.026046 0.159999,0.059534 l -0.0707,0.2567421 q -0.06698,-0.037209 -0.133952,-0.055813 -0.06698,-0.018605 -0.145115,-0.018605 -0.119069,0 -0.189766,0.070697 -0.0707,0.066976 -0.0707,0.1972077 0,0.074418 0.02605,0.1302315 0.02605,0.052093 0.06698,0.096743 0.04465,0.04093 0.09674,0.078139 0.05581,0.037209 0.115348,0.070697 0.0707,0.04093 0.137674,0.089302 0.0707,0.048372 0.122789,0.1153479 0.05581,0.063255 0.0893,0.1525569 0.03349,0.085581 0.03349,0.2083704 0,0.2567421 -0.152557,0.4130199 -0.148836,0.1562778 -0.439066,0.1562778 -0.148836,0 -0.267905,-0.04093 -0.119069,-0.04093 -0.178603,-0.074418 l 0.06698,-0.2641839 q 0.05581,0.029767 0.148836,0.066976 0.09674,0.037209 0.212091,0.037209 z"
       id="text8"
       aria-label="Channels" />
    <path
       style="font-size:3.8931px;line-height:110%;font-family:'Ubuntu Condensed';-inkscape-font-specification:'Ubuntu Condensed, ';text-align:center;letter-spacing:0px;word-spacing:0px;text-anchor:middle;fill:#ffffff;stroke-width:0.121659px"
       d="m 2.1512939,106.29704 q -0.089541,-0.29198 -0.1790826,-0.58786 -0.089541,-0.29976 -0.1790826,-0.62678 -0.085648,-0.32702 -0.1712964,-0.68908 -0.085648,-0.36595 -0.1712964,-0.7942 h 0.3659514 q 0.05061,0.29977 0.1128999,0.60344 0.06229,0.29976 0.1323654,0.59175 0.070076,0.29198 0.1401516,0.56839 0.073969,0.27252 0.1440447,0.51778 0.070076,-0.24526 0.1401516,-0.51778 0.073969,-0.27641 0.1440447,-0.56839 0.070076,-0.29199 0.1323654,-0.59175 0.06229,-0.30367 0.1128999,-0.60344 h 0.3542721 q -0.085648,0.42825 -0.1712964,0.7942 -0.085648,0.36206 -0.1751895,0.68908 -0.085648,0.32702 -0.1751895,0.62678 -0.089541,0.29588 -0.1790826,0.58786 z m 1.6467833,-0.17908 q 0,0.0895 -0.066183,0.15962 -0.06229,0.0701 -0.1674033,0.0701 -0.1051137,0 -0.1674033,-0.0701 -0.06229,-0.0701 -0.06229,-0.15962 0,-0.0934 0.06229,-0.16351 0.06229,-0.0701 0.1674033,-0.0701 0.1051137,0 0.1674033,0.0701 0.066183,0.0701 0.066183,0.16351 z m 1.3041888,-2.4799 q 0.272517,-0.0662 0.5255685,-0.0662 0.2024412,0 0.3659514,0.0467 0.1635102,0.0467 0.2803032,0.14794 0.116793,0.10122 0.1790826,0.26084 0.066183,0.15961 0.066183,0.38541 0,0.28031 -0.1090068,0.4555 -0.1051137,0.17129 -0.2880894,0.26083 0.046717,0.0779 0.116793,0.21412 0.073969,0.13237 0.1479378,0.29588 0.077862,0.15962 0.1479378,0.33091 0.073969,0.1713 0.1245792,0.32702 H 6.309127 q -0.042824,-0.11679 -0.1090068,-0.26473 -0.06229,-0.14794 -0.1323654,-0.29198 -0.070076,-0.14794 -0.1401516,-0.2803 -0.070076,-0.13626 -0.1245792,-0.2297 -0.06229,0.008 -0.1284723,0.0117 -0.066183,0.004 -0.1323654,0.004 h -0.097327 v 1.05113 H 5.102266 Z m 0.3425928,1.31976 h 0.1479378 q 0.2686239,0 0.4126686,-0.12069 0.1440447,-0.12458 0.1440447,-0.42435 0,-0.15183 -0.038931,-0.25305 -0.035038,-0.10511 -0.1051137,-0.16351 -0.066183,-0.0623 -0.1635102,-0.0895 -0.093434,-0.0272 -0.2102274,-0.0272 -0.1012206,0 -0.1868688,0.0117 z m 1.6273144,-0.66183 q 0.1012206,-0.0428 0.2141205,-0.0662 0.1128999,-0.0272 0.2452653,-0.0272 0.272517,0 0.4438134,0.17129 0.1712964,0.1674 0.1712964,0.52557 v 1.3548 q -0.1401516,0.0389 -0.2880894,0.0623 -0.1440447,0.0234 -0.2841963,0.0234 -0.1401516,0 -0.2647308,-0.035 -0.1206861,-0.035 -0.2141205,-0.1129 -0.089541,-0.0779 -0.1440447,-0.19466 -0.054503,-0.12068 -0.054503,-0.29198 0,-0.15962 0.046717,-0.27641 0.05061,-0.12068 0.1362585,-0.19855 0.085648,-0.0817 0.2024412,-0.12068 0.116793,-0.0428 0.2530515,-0.0428 0.1284723,0 0.2841963,0.0311 v -0.18687 q 0,-0.2258 -0.089541,-0.31534 -0.085648,-0.0895 -0.2491584,-0.0895 -0.089541,0 -0.1712964,0.0195 -0.077862,0.0156 -0.1674033,0.0545 z m 0.1596171,1.40541 q 0,0.17908 0.093434,0.26473 0.093434,0.0856 0.2647308,0.0856 0.1051137,0 0.2296929,-0.0272 v -0.65015 q -0.116793,-0.0311 -0.2296929,-0.0311 -0.073969,0 -0.1401516,0.0195 -0.066183,0.0156 -0.116793,0.0584 -0.046717,0.0389 -0.073969,0.109 -0.027252,0.0662 -0.027252,0.1713 z m 1.4988438,-1.38984 q 0.1440447,-0.0428 0.311448,-0.0701 0.1674033,-0.0311 0.3075549,-0.0311 0.1518309,0 0.2764101,0.0428 0.1245792,0.0389 0.2102274,0.13625 0.089541,0.0973 0.1362585,0.26473 0.05061,0.16351 0.05061,0.40878 v 1.23411 H 9.6883367 v -1.20686 q 0,-0.30366 -0.077862,-0.44381 -0.077862,-0.14015 -0.2919825,-0.14015 -0.1128999,0 -0.2530515,0.0389 v 1.75189 H 8.7306341 Z m 3.0911229,1.92709 q 0,0.21801 -0.0584,0.36595 -0.0545,0.15183 -0.151831,0.24526 -0.09733,0.0934 -0.229693,0.13626 -0.128472,0.0428 -0.27641,0.0428 -0.124579,0 -0.249158,-0.0273 -0.124579,-0.0272 -0.229693,-0.0817 l 0.07008,-0.2803 q 0.07008,0.0389 0.171296,0.0701 0.101221,0.0311 0.210228,0.0311 0.190761,0 0.299768,-0.10901 0.109007,-0.10901 0.109007,-0.37374 v -0.0973 q -0.06229,0.0273 -0.132365,0.0467 -0.07008,0.0156 -0.159617,0.0156 -0.365952,0 -0.537248,-0.24915 -0.167404,-0.25306 -0.167404,-0.71244 0,-0.24527 0.04283,-0.43992 0.04672,-0.19855 0.140151,-0.33481 0.09733,-0.14015 0.249159,-0.21023 0.15183,-0.074 0.369844,-0.074 0.144045,0 0.280303,0.0311 0.140152,0.0272 0.249159,0.074 z m -0.334807,-1.71297 q -0.0545,-0.0156 -0.105114,-0.0195 -0.05061,-0.008 -0.09343,-0.008 -0.233586,0 -0.342593,0.17908 -0.105114,0.17909 -0.105114,0.58397 0,0.36595 0.105114,0.51778 0.105114,0.14794 0.299769,0.14794 0.06618,0 0.124579,-0.0156 0.06229,-0.0156 0.116793,-0.0428 z m 1.167934,0.8487 q 0.0039,0.14794 0.02725,0.27252 0.02336,0.12068 0.07397,0.21412 0.0545,0.0895 0.140151,0.14015 0.08954,0.0506 0.2258,0.0506 0.1129,0 0.206334,-0.0311 0.09733,-0.035 0.140152,-0.0584 l 0.06229,0.26862 q -0.05061,0.035 -0.171297,0.074 -0.116793,0.0428 -0.280303,0.0428 -0.21412,0 -0.362058,-0.0779 -0.144045,-0.0779 -0.237479,-0.21801 -0.08954,-0.14015 -0.128473,-0.33481 -0.03893,-0.19465 -0.03893,-0.42824 0,-0.5645 0.186869,-0.82534 0.186869,-0.26083 0.494424,-0.26083 0.346486,0 0.49053,0.26083 0.144045,0.26084 0.144045,0.73191 0,0.0428 0,0.0895 0,0.0428 -0.0039,0.0895 z m 0.3387,-0.88763 q -0.167403,0 -0.245265,0.1674 -0.07397,0.16741 -0.08954,0.44771 h 0.619003 q 0,-0.2842 -0.0584,-0.44771 -0.0584,-0.1674 -0.2258,-0.1674 z"
       id="text9"
       aria-label="V. Range" />
    <path
       d="m 0.83397269,91.084015 v -0.16463 L 1.7196794,88.723228 h 0.2666998 l 0.882414,2.196157 v 0.16463 z m 0.33913671,-0.2667 H 2.5263639 L 1.9765014,89.381746 q -0.00988,-0.02634 -0.036219,-0.09549 -0.026341,-0.06914 -0.052681,-0.141582 -0.023048,-0.07573 -0.036218,-0.11524 -0.023048,0.10207 -0.059267,0.200848 -0.036218,0.09548 -0.055974,0.151459 z M 4.8805655,88.733106 4.0409551,91.084015 H 3.744622 L 2.9050116,88.733106 H 3.214515 l 0.530107,1.508006 q 0.052681,0.144874 0.0889,0.273285 0.036218,0.125118 0.059267,0.240359 0.023048,-0.115241 0.059267,-0.243652 0.036218,-0.128411 0.0889,-0.276577 l 0.5268144,-1.501421 z m 1.748365,1.465202 q 0,0.437915 -0.2238962,0.678274 -0.2206035,0.240359 -0.5992513,0.240359 -0.2337739,0 -0.4181589,-0.105363 -0.1810925,-0.108656 -0.2864554,-0.312796 -0.1053628,-0.207433 -0.1053628,-0.500474 0,-0.437914 0.2206035,-0.674981 0.2206035,-0.237066 0.5992513,-0.237066 0.2403591,0 0.4214516,0.108655 0.184385,0.105363 0.2864553,0.309504 0.1053629,0.200848 0.1053629,0.493888 z m -1.333499,0 q 0,0.312796 0.1218259,0.497181 0.1251184,0.181093 0.3951108,0.181093 0.2666997,0 0.3918182,-0.181093 0.1251184,-0.184385 0.1251184,-0.497181 0,-0.312796 -0.1251184,-0.490596 -0.1251185,-0.1778 -0.3951108,-0.1778 -0.2699924,0 -0.3918182,0.1778 -0.1218259,0.1778 -0.1218259,0.490596 z m 2.0809153,0.885707 H 7.0865989 v -2.502368 h 0.2897479 z m 1.1491121,-0.204141 q 0.065852,0 0.1349962,-0.0099 0.069144,-0.01317 0.111948,-0.02634 v 0.220603 q -0.046096,0.02305 -0.1317036,0.03622 -0.085607,0.01646 -0.1646295,0.01646 -0.1382888,0 -0.256822,-0.0461 -0.1152406,-0.04939 -0.1876776,-0.167923 -0.072437,-0.118533 -0.072437,-0.332551 V 89.543083 H 7.7088966 V 89.404794 L 7.962426,89.289553 8.0776666,88.914198 h 0.1712147 v 0.404989 h 0.5103514 v 0.223896 H 8.2488813 v 1.020703 q 0,0.161337 0.07573,0.240359 0.079022,0.07573 0.200848,0.07573 z m 1.2676475,-1.590321 q 0.3226736,0 0.4774256,0.141582 0.154752,0.141581 0.154752,0.451085 v 1.201795 h -0.210726 l -0.05597,-0.250237 h -0.01317 q -0.11524,0.144874 -0.2436512,0.214018 -0.1251184,0.06914 -0.3490145,0.06914 -0.2403591,0 -0.3984034,-0.125119 -0.1580443,-0.128411 -0.1580443,-0.398403 0,-0.263407 0.2074332,-0.404989 0.2074331,-0.144874 0.6387624,-0.158044 l 0.2996258,-0.0099 v -0.105363 q 0,-0.220603 -0.09549,-0.30621 -0.095485,-0.08561 -0.2699926,-0.08561 -0.1382888,0 -0.2634072,0.0428 -0.1251184,0.03951 -0.2337739,0.09219 l -0.0889,-0.21731 q 0.1152407,-0.06256 0.273285,-0.105363 0.1580443,-0.0461 0.329259,-0.0461 z m 0.085607,0.941681 q -0.329259,0.01317 -0.45767,0.105363 -0.1251184,0.09219 -0.1251184,0.260115 0,0.148166 0.0889,0.217311 0.092192,0.06914 0.2337739,0.06914 0.2238961,0 0.3720627,-0.121826 0.1481662,-0.125118 0.1481662,-0.38194 v -0.158045 z m 1.7187343,-0.944973 q 0.174507,0 0.312796,0.06585 0.141581,0.06585 0.240359,0.200848 h 0.01646 l 0.03951,-0.233774 h 0.230481 v 1.794461 q 0,0.378648 -0.194263,0.569618 -0.19097,0.19097 -0.595958,0.19097 -0.388526,0 -0.63547,-0.111948 v -0.266699 q 0.260114,0.138288 0.651933,0.138288 0.227188,0 0.355599,-0.134996 0.131704,-0.131703 0.131704,-0.362185 v -0.06914 q 0,-0.03951 0.0033,-0.111948 0.0033,-0.07573 0.0066,-0.105363 h -0.01317 q -0.1778,0.2667 -0.54657,0.2667 -0.342429,0 -0.536692,-0.240359 -0.19097,-0.240359 -0.19097,-0.671689 0,-0.421451 0.19097,-0.668395 0.194263,-0.250237 0.5334,-0.250237 z m 0.03951,0.243651 q -0.220604,0 -0.34243,0.1778 -0.121825,0.174508 -0.121825,0.500474 0,0.325966 0.118533,0.500474 0.121826,0.171214 0.352307,0.171214 0.2667,0 0.388526,-0.141581 0.121825,-0.144874 0.121825,-0.464255 v -0.06915 q 0,-0.362185 -0.125118,-0.516936 -0.125118,-0.158045 -0.391818,-0.158045 z m 2.041405,-0.243651 q 0.227189,0 0.388526,0.09878 0.164629,0.09878 0.250237,0.27987 0.0889,0.177799 0.0889,0.418159 v 0.174507 h -1.208381 q 0.0066,0.299626 0.151459,0.45767 0.148167,0.154752 0.411574,0.154752 0.167922,0 0.296333,-0.02963 0.131704,-0.03293 0.269992,-0.09219 V 91.0017 q -0.134996,0.05927 -0.266699,0.08561 -0.131704,0.02963 -0.312796,0.02963 -0.250237,0 -0.4445,-0.10207 -0.19097,-0.102071 -0.299626,-0.302919 -0.105363,-0.20414 -0.105363,-0.497181 0,-0.289748 0.09549,-0.497181 0.09878,-0.207433 0.273285,-0.319381 0.1778,-0.111948 0.411574,-0.111948 z m -0.0033,0.237066 q -0.207434,0 -0.329259,0.134996 -0.118534,0.131704 -0.141582,0.368771 h 0.898877 q -0.0033,-0.223897 -0.105363,-0.362185 -0.10207,-0.141582 -0.322673,-0.141582 z"
       id="text10"
       style="font-size:3.29259px;line-height:125%;letter-spacing:0px;word-spacing:0px;fill:#ff70ff;stroke-width:0.102893px"
       aria-label="ΔVoltage" />
  </g>
  <g
     inkscape:groupmode="layer"
     id="layer3"
     inkscape:label="components"
     style="display:none">
    <circle
       style="fill:#ff0000;stroke-width:0.564999;stroke-linecap:round;stroke-linejoin:round"
       id="path1"
       cx="7.6199999"
       cy="31.229998"
       r="5.0799999"
       inkscape:label="start" />
    <circle
       style="fill:#00ff00;stroke-width:0.564999;stroke-linecap:round;stroke-linejoin:round"
       id="path2"
       cx="7.6199999"
       cy="49.009995"
       r="5.0799999"
       inkscape:label="start" />
    <circle
       style="fill:#ff0000;stroke-width:0.564999;stroke-linecap:round;stroke-linejoin:round"
       id="path3"
       cx="7.6199999"
       cy="40.119995"
       r="2.54"
       inkscape:label="start_cv" />
    <circle
       style="fill:#ff0000;stroke-width:0.564999;stroke-linecap:round;stroke-linejoin:round"
       id="path1-3"
       cx="7.6199994"
       cy="64.25"
       r="5.0799999"
       inkscape:label="end" />
    <circle
       style="fill:#00ff00;stroke-width:0.564999;stroke-linecap:round;stroke-linejoin:round"
       id="path2-6"
       cx="7.6199994"
       cy="82.029991"
       r="5.0799999"
       inkscape:label="end" />
    <circle
       style="fill:#ff0000;stroke-width:0.564999;stroke-linecap:round;stroke-linejoin:round"
       id="path3-7"
       cx="7.6199994"
       cy="73.139999"
       r="2.54"
       inkscape:label="end_cv" />
    <circle
       style="fill:#ff0000;fill-opacity:1;stroke:none;stroke-width:0.564999;stroke-linecap:round;stroke-linejoin:round"
       id="path4"
       cx="7.6199999"
       cy="13.979162"
       r="5.0799999"
       inkscape:label="channels" />
    <circle
       style="fill:#0000ff;fill-opacity:1;stroke:none;stroke-width:0.564999;stroke-linecap:round;stroke-linejoin:round"
       id="path5"
       cx="7.6199999"
       cy="112.61584"
       r="5.0799999"
       inkscape:label="poly" />
    <circle
       style="display:inline;fill:#0000ff;fill-opacity:1;stroke:none;stroke-width:0.564999;stroke-linecap:round;stroke-linejoin:round"
       id="path5-5"
       cx="7.6199999"
       cy="97.269997"
       r="5.0799999"
       inkscape:label="increment" />
  </g>
</svg>
